<svg width="204" height="33" viewBox="0 0 204 33" fill="none" xmlns="http://www.w3.org/2000/svg">
<path d="M186.133 18.4663H181.263V13.6763H186.133V18.4663Z" fill="#2F2F2F"/>
<path d="M53.3465 0.797363L35.8504 30.2853L14.8434 15.8195L36.9427 0.797363L28.0484 0.797363L9.16741 13.3446L5.59797 13.3446L5.59797 0.797363L0 0.797363L0 31.4364H5.59797L5.59797 18.2752H9.18692L28.653 31.4364L41.702 31.4364L45.3494 24.8558L67.3122 24.8558L70.9597 31.4364H77.4939L59.3346 0.797363L53.3465 0.797363ZM48.2752 19.9444L56.3308 6.09253L64.3864 19.9444L48.2752 19.9444Z" fill="#2F2F2F"/>
<path d="M112.851 0.797363V24.0117L84.8222 0.797363L79.6924 0.797363V31.4364H85.2904V8.01106L113.319 31.4364L118.449 31.4364V0.797363L112.851 0.797363Z" fill="#2F2F2F"/>
<path d="M143.457 13.1916C135.226 12.1364 131.052 10.6016 131.052 8.62552C131.052 6.78373 135.07 4.80763 142.521 4.80763C151.064 4.80763 153.424 7.45521 154.322 8.45285L154.985 9.20108L160.719 8.22263L158.905 5.9012C155.902 2.04494 150.382 0.0688477 142.521 0.0688477C132.086 0.0688477 125.591 3.34955 125.591 8.62552C125.591 14.9375 134.173 16.856 142.56 17.9112C148.49 18.6403 155.297 19.849 155.297 22.7076C155.297 25.0482 151.415 27.408 142.736 27.408C136.084 27.408 131.286 26.0075 128.829 23.3599L128.165 22.6308L122.567 23.6285L122.665 23.8011C122.665 23.8011 123.25 24.818 124.323 25.9499C125.786 27.4847 130.213 32.1468 142.736 32.1468C153.99 32.1468 160.7 28.6167 160.7 22.6884C160.7 15.9351 151.806 14.2468 143.457 13.1725V13.1916Z" fill="#2F2F2F"/>
<path d="M202.576 9.26653C201.601 7.29044 200.216 5.58294 198.422 4.22078C196.647 2.85862 194.501 1.80342 192.005 1.07438C189.547 0.364522 186.758 0 183.715 0C180.672 0 177.824 0.364522 175.347 1.07438C172.831 1.80342 170.666 2.8778 168.91 4.23997C167.116 5.6405 165.731 7.348 164.775 9.3049C163.82 11.281 163.312 13.5257 163.312 16.0006C163.312 18.4755 163.8 20.7202 164.756 22.6963C165.712 24.6724 167.116 26.3799 168.891 27.7612C170.666 29.1426 172.812 30.1978 175.308 30.9076C177.766 31.6175 180.575 31.9628 183.637 31.9628C186.699 31.9628 189.508 31.5983 191.985 30.8884C194.482 30.1594 196.627 29.1042 198.402 27.742C200.197 26.3607 201.582 24.6532 202.557 22.6579C203.513 20.6818 204 18.418 204 15.943C204 13.4681 203.513 11.2234 202.557 9.24735L202.576 9.26653ZM198.324 15.943C198.324 18.3604 197.739 20.4324 196.588 22.1015C195.437 23.7899 193.76 25.0945 191.634 25.9962C189.449 26.9171 186.758 27.3775 183.656 27.3775C180.555 27.3775 177.863 26.9171 175.659 25.9962C173.514 25.0945 171.856 23.809 170.724 22.1399C169.593 20.4708 169.008 18.418 169.008 16.0006C169.008 13.5832 169.574 11.5112 170.724 9.84209C171.856 8.15378 173.514 6.84918 175.659 5.96665C177.863 5.04575 180.555 4.5853 183.656 4.5853C186.758 4.5853 189.469 5.04575 191.692 5.94746C193.838 6.82999 195.515 8.11541 196.627 9.80372C197.739 11.492 198.324 13.5641 198.324 15.9814V15.943Z" fill="#2F2F2F"/>
</svg>
