<svg width="102" height="80" viewBox="0 0 102 80" fill="none" xmlns="http://www.w3.org/2000/svg">
<path d="M97.7577 23.0059C95.3295 18.0999 91.8815 13.8607 87.4137 10.4789C82.9944 7.09707 77.6525 4.47735 71.4364 2.66736C65.3174 0.904996 58.3729 0 50.7971 0C43.2212 0 36.131 0.904996 29.9635 2.66736C23.6988 4.47735 18.3083 7.1447 13.9376 10.5265C9.46983 14.0036 6.02183 18.2428 3.64224 23.1012C1.26264 28.0072 0 33.5801 0 39.7245C0 45.869 1.21411 51.4419 3.5937 56.3479C5.97329 61.2539 9.46982 65.4931 13.8891 68.9226C18.3083 72.352 23.6503 74.9717 29.8663 76.7341C35.9853 78.4965 42.9784 79.3538 50.6028 79.3538C58.2272 79.3538 65.2203 78.4488 71.3879 76.6865C77.6039 74.8765 82.9459 72.2568 87.3651 68.8749C91.833 65.4455 95.2809 61.2063 97.7091 56.2526C100.089 51.3466 101.303 45.7261 101.303 39.5816C101.303 33.4372 100.089 27.8643 97.7091 22.9583L97.7577 23.0059ZM87.1709 39.5816C87.1709 45.5832 85.714 50.7274 82.8488 54.8713C79.9835 59.0629 75.8071 62.3018 70.5137 64.5405C65.0747 66.8268 58.3729 67.9699 50.6514 67.9699C42.9298 67.9699 36.2281 66.8268 30.7405 64.5405C25.3985 62.3018 21.2707 59.1105 18.454 54.9666C15.6374 50.8226 14.1804 45.7261 14.1804 39.7245C14.1804 33.723 15.5888 28.5788 18.454 24.4349C21.2707 20.2433 25.3985 17.0044 30.7405 14.8133C36.2281 12.527 42.9298 11.3839 50.6514 11.3839C58.3729 11.3839 65.1232 12.527 70.6594 14.7657C76.0014 16.9568 80.1778 20.1481 82.9459 24.3396C85.714 28.5312 87.1709 33.6754 87.1709 39.6769V39.5816Z" fill="#2F2F2F"/>
</svg>
