<?xml version="1.0" encoding="UTF-8"?>
<svg id="_Слой_2" data-name="Слой 2" xmlns="http://www.w3.org/2000/svg" viewBox="0 0 643.57 440.38">
  <defs>
    <style>
      .cls-1 {
        fill: #fff;
      }

      .cls-2 {
        fill: #1d1e1c;
      }

      .cls-3 {
        fill: #1d1d1b;
      }
    </style>
  </defs>
  <g id="_Слой_1-2" data-name="Слой 1">
    <g>
      <g>
        <path class="cls-3" d="m250.79,20.13c2.26-.66,4.82-1.51,7.33-2.45,1.24-.49,2.5-.93,3.71-1.36,1.2-.44,2.35-.88,3.39-1.32,3.46-2.24,4.25-3.15,3.23-3.45-1.02-.31-3.77.26-7.22,1.13-.86.23-1.76.48-2.7.73-.91.31-1.86.62-2.81.95-1.9.66-3.83,1.36-5.67,2.03-3.62,1.47-6.83,2.91-8.64,3.66l2.31.54c-.68,1.6,2.64,1.02,7.09-.46Z"/>
        <path class="cls-3" d="m153.48,268.14c-.49-1.12-.97-2.28-1.4-3.5-.88-2.42-1.81-4.96-2.74-7.54-.85-2.6-1.75-5.23-2.73-7.78-.88-2.59-1.82-5.11-2.89-7.49-1.24-5.18-2.08-11.72-1.92-16.49.02-1.19.08-2.27.18-3.19.11-.92.32-1.69.54-2.25.45-1.12,1.05-1.42,1.83-.54-1.67-15.4-2.83-19.08-4.68-23.01-.43-.98-.92-1.98-1.3-3.19-.38-1.21-.72-2.62-1.01-4.44-.61-3.63-.86-8.9.01-17.22-.27.86-.52,1.74-.77,2.63-.23.89-.4,1.8-.58,2.71-.36,1.83-.67,3.71-.94,5.61-.32,1.91-.37,3.86-.51,5.83-.1,1.97-.21,3.97-.2,5.99.05,2.02.12,4.06.22,6.11.06,1.03.11,2.06.17,3.09.11,1.03.23,2.06.34,3.1.25,2.07.49,4.15.74,6.23.36,2.07.72,4.15,1.08,6.23l.55,3.11c.2,1.03.46,2.06.68,3.09.46,2.06.91,4.11,1.36,6.16.52,2.03,1.04,4.06,1.56,6.08.25,1.01.5,2.02.75,3.02.28,1,.56,1.99.83,2.98.55,1.98,1.08,3.96,1.57,5.93.55,1.95,1.11,3.88,1.61,5.81.93,3.89,2.06,7.63,2.81,11.43,5.06,11.28,8.35,10.51,6.28,4.7-.47-1.02-.95-2.1-1.43-3.22Z"/>
        <path class="cls-3" d="m174.66,305.27c.59-.67.23-2.47-.72-4.89-.47-1.21-1.1-2.58-1.82-4.06-.67-1.51-1.44-3.12-2.26-4.78-1.73-3.27-3.38-6.91-5.11-10.16-1.64-3.31-3.11-6.39-4.37-8.62-.6,1.36-.31,3.9.54,7.1.4,1.61,1.03,3.34,1.77,5.15.74,1.81,1.56,3.74,2.47,5.66,1.95,3.76,4,7.7,6.14,11.01,1.04,1.68,2.01,3.26,2.88,4.67.04.06.07.11.11.17.15-.45.73-.55.37-1.25Z"/>
        <path class="cls-3" d="m176.51,309.95c-.59-.96-1.35-2.13-2.22-3.43-.15.45.13,1.27,2.22,3.43Z"/>
        <path class="cls-3" d="m179.15,291.38c-.21-.52-.35-.87-.35-.87-.77-1.18-2.13-4.2-3.43-6.53-1.19-2.4-2.37-4.12-3.03-2.64.26,1.16.69,2.4,1.25,3.69.61,1.26,1.36,2.54,2.17,3.82.82,1.28,1.69,2.57,2.62,3.77.96,1.18,1.94,2.32,2.88,3.37,0,0-.63-1.37-1.26-2.73-.31-.68-.63-1.35-.85-1.87Z"/>
        <path class="cls-3" d="m226.7,348.75s-2.5-1.58-5-3.17c-2.43-1.7-4.85-3.39-4.85-3.39l.37,2.75c.2,1.39.41,2.77.41,2.77,0,0,2.18,1.48,4.47,2.79,2.26,1.34,4.53,2.68,4.53,2.68-7.57-5.11-4.42-3.91-1-2.61,1.71.65,3.5,1.32,4.13,1.23.62-.09-.04-.77-3.05-3.04Z"/>
        <path class="cls-3" d="m245.31,363.04c2.76,1.22,4.73,2.59,6.41,3.69,1.7,1.05,3.07,1.89,4.53,2.14,0,0,1.12.04,2.25.08.56.02,1.12.04,1.54.05.42.01.7,0,.7,0-3.47-1.75-6.22-3.01-8.7-3.88-2.42-.98-4.55-1.61-6.73-2.1Z"/>
        <path class="cls-3" d="m237.6,349.14c-.78-1.03-1.92-2.01-5.2-3.36-1.55-.87-2.01-.89-1.8-.4.22.49,1.11,1.49,2.36,2.52,2.47,2.1,6.13,4.72,7.64,4.74-1.83-1.38-2.21-2.48-2.99-3.5Z"/>
        <path class="cls-3" d="m392.66,14.41s-.68-.58-1.37-1.15c-.68-.59-1.39-1.11-1.39-1.11,0,0-3.74-.77-7.48-1.55-1.86-.38-3.76-.62-5.17-.86-1.41-.22-2.34-.36-2.34-.36,2.94,1.42,6.28,2.35,9.39,3.26,3.13.85,6.14,1.33,8.36,1.78Z"/>
        <path class="cls-3" d="m284.52,7.96c1.85-.29,4.33-.49,7.15-.73,1.41-.1,2.9-.22,4.45-.22,1.56.03,3.17.1,4.79.25,4.2-.43,8.44-.71,12.7-1.23,2.13-.25,4.28-.35,6.42-.57,2.15-.18,4.3-.45,6.46-.51,2.17-.11,4.33-.21,6.49-.32,2.17-.1,4.33-.02,6.49,0,4.33-.01,8.6.48,12.8,1.04,0,0,.16-.01.45-.03.29-.02.7-.05,1.19-.06.99-.03,2.31-.06,3.63-.1,2.66-.06,5.32-.12,5.32-.12C352.98,2.68,338.88.18,324.15.02c-14.71-.23-29.98,1.91-41.75,5.57-2.97,2.66-1.59,2.85,2.12,2.38Z"/>
        <path class="cls-3" d="m504.96,142.7c-.11-4.59-.67-9.33-1.28-14.32-.81-4.92-1.69-10.1-3.06-15.32-.64-.98-1.21-1.81-1.39-1.69-4.72-9.83-10.61-21.57-18.45-32.41-7.76-10.86-17.48-20.73-27.93-26.89,1.87,2.03,3.21,3.63,4.38,5.06.57.72,1.11,1.39,1.64,2.06.5.7,1,1.39,1.53,2.12,1.05,1.45,2.24,3.04,3.85,5.06,1.53,2.09,3.49,4.63,6.06,7.98-3-1.64-5.55-3.62-7.8-5.95-2.37-2.22-4.43-4.8-6.55-7.48-4.3-5.26-8.65-11.19-14.74-15.82,4.56,4.28,3.26,4.28-.19,2.48-1.74-.88-3.96-2.29-6.39-3.7-2.44-1.39-4.95-2.98-7.17-4.35-7.82-6.06-18.95-12.7-31.69-17.93-12.71-5.29-26.95-9.16-40.31-11.28-.74-.01-1.57-.06-2.49-.14-.92-.06-1.92-.13-2.99-.2-2.14-.16-4.54-.44-7.09-.68-2.55-.18-5.24-.37-7.93-.56-2.69-.17-5.4-.16-7.96-.22-2.57-.08-5,.09-7.16.23-2.16.17-4.04.33-5.51.65-2.94.67-4.2,1.5-2.76,2.63-2.01.2-3.8.33-5.43.39-1.63.1-3.08.2-4.43.2-2.68.05-4.92-.22-7.02-.32-2.11-.15-4.11-.36-6.36-.46-2.25-.12-4.71.08-7.77.49-8.52,3.58-16.65,6.18-24.7,8.8-4.07,1.18-8.02,2.58-12.08,3.79l-6,2.06-3.03,1.03-2.98,1.16c-1.99.79-4,1.57-6,2.41-1.96.9-3.93,1.83-5.9,2.79-2,.93-3.9,2.03-5.83,3.15-1.9,1.15-3.89,2.24-5.71,3.58-7.51,5.08-14.47,11.69-20.24,20.06-.1-.96-1.01-.76-2.42.18-1.39.96-3.38,2.56-5.31,4.65-.99,1.03-2.01,2.14-3.04,3.26-1.03,1.12-2.04,2.27-2.95,3.44-1.85,2.3-3.57,4.43-4.8,5.97-1.26,1.74-2.73,3.78-4.34,6-1.6,2.22-3.13,4.77-4.78,7.33-3.18,5.19-6.2,10.86-8.41,16-1.18,2.53-2,5-2.72,7.13-.68,2.15-1.23,3.96-1.37,5.42-.34,2.88.29,4.02,2.36,2.5,1.84-2.33,3.7-5.4,5.34-9.06.81-1.84,1.79-3.72,2.68-5.74.9-2.01,1.81-4.12,2.88-6.2,1.05-2.09,2.07-4.26,3.25-6.35,1.2-2.08,2.45-4.15,3.75-6.17,1.32-2,2.81-3.86,4.3-5.65,1.47-1.8,3.12-3.4,4.82-4.81,1.44-1.24,2.63-2.22,3.6-2.96.97-.74,1.77-1.2,2.33-1.5,1.13-.58,1.44-.39,1.17.36-.61,1.47-3.36,5.36-6.64,9.99-1.54,2.39-3.27,4.92-4.85,7.49-1.51,2.61-2.99,5.16-4.15,7.49-2.2,4.74-3.5,8.34-2.4,9.06.58-2.06,2.19-3.04,4.18-4.97,1.67-1.67,3.79-3.92,6.13-8.05-2.21,4.27-2.78,6.26-2.5,6.85.3.64,1.64-.25,3.22-1.5-3.85,6.11-7.32,12.47-10.4,19.06-.02.01-.04.03-.06.04-3.43,2.34-6.2,3.21-7.36,1.5-4.97,6.95-8.54,14.54-10.77,22.46-1.26,3.92-1.96,7.99-2.73,12.03-.33,2.03-.54,4.09-.79,6.15-.12,1.03-.23,2.06-.35,3.09-.11,1.03-.14,2.08-.21,3.12-.12,2.08-.24,4.17-.35,6.27-.03,2.1-.05,4.22-.08,6.35-.02,1.06-.03,2.13-.05,3.2.03,1.07.05,2.15.08,3.23.03,2.16.06,4.33.09,6.53.27,8.79.68,17.87.91,27.72.12,2.26.42,5.15.84,8.21.56,3.03,1.25,6.24,2.03,9.16.9,2.89,1.84,5.5,2.73,7.38.91,1.88,1.86,3.01,2.54,3.03,2.41-.56.79-6.92-1.1-15.3-.43-2.1-1.06-4.3-1.45-6.6-.42-2.3-.85-4.64-1.28-6.98-.61-4.7-1.22-9.33-1.1-13.35,2.91,8.62,4.4,20.08,7.26,32.25,2.78,12.13,6.99,24.95,13.28,35.11,0,0-.26-1.01-.65-2.53-.34-1.32-.79-3-1.15-4.76,5.87,12.44,13.16,24.06,21.68,34.67,2.88,4.41,6.01,8.57,9.44,12.17,0,0-1.53-.85-3.07-1.7-.77-.42-1.54-.86-2.09-1.21-.56-.35-.93-.58-.93-.58,1.04,1.24,2.09,2.5,3.16,3.77,1.06,1.28,2.09,2.59,3.11,3.9,2.11,2.54,4.18,5.05,6.15,7.25,2.04,2.12,3.95,3.97,5.67,5.24,1.75,1.23,3.34,1.84,4.62,1.65-3.3-2.83-5.19-5.15-7.21-7.23-2.06-2.05-3.96-4.2-7.25-6.85-.18-1.93,3.89,1.37,5.89,2.33,7.65,7.09,15.93,13.5,24.77,19.13,1.31,1.1,2.5,2.19,3.54,3.21,1.7.55,3.94,1.54,6.43,2.69,24.71,13.52,53.06,21.21,83.21,21.21,26.42,0,51.46-5.91,73.88-16.47,2.53-.53,5.12-1.09,6.14-.76,8.15-5.23,16.14-10.95,23.81-17.22,42.37-31.66,69.8-82.21,69.8-139.17,0-2.72-.07-5.43-.2-8.12.2-.39.4-.77.6-1.18,1-2.24,1.96-4.81,2.88-7.71.9-2.9,1.55-6.1,2.24-9.63.35-1.76.52-3.58.76-5.48.2-1.9.46-3.89.56-5.92.16-4.05.37-8.43.1-12.97Z"/>
      </g>
      <g>
        <path class="cls-3" d="m0,200.93h66.77v19.64h-22.58v117.84h-21.61v-117.84H0v-19.64Z"/>
        <path class="cls-3" d="m73.84,233.92c0-11.13,2.65-19.67,7.95-25.63,5.3-5.96,13.26-8.94,23.86-8.94s18.56,2.98,23.86,8.94c5.3,5.96,7.95,14.5,7.95,25.63v5.3h-20.42v-6.68c0-4.97-.95-8.48-2.85-10.51-1.9-2.03-4.55-3.04-7.95-3.04s-6.06,1.01-7.95,3.04c-1.9,2.03-2.85,5.53-2.85,10.51,0,4.71,1.05,8.87,3.14,12.47,2.09,3.6,4.71,7.01,7.86,10.21,3.14,3.21,6.51,6.42,10.11,9.62,3.6,3.21,6.97,6.71,10.11,10.51,3.14,3.8,5.76,8.12,7.86,12.96,2.09,4.85,3.14,10.54,3.14,17.09,0,11.13-2.72,19.67-8.15,25.63-5.43,5.96-13.45,8.94-24.06,8.94s-18.63-2.98-24.06-8.94c-5.43-5.96-8.15-14.5-8.15-25.63v-9.43h20.42v10.8c0,4.98,1.01,8.45,3.04,10.41,2.03,1.97,4.74,2.95,8.15,2.95s6.12-.98,8.15-2.95c2.03-1.96,3.05-5.43,3.05-10.41,0-4.71-1.05-8.87-3.14-12.47-2.1-3.6-4.71-7-7.86-10.21-3.14-3.21-6.52-6.41-10.12-9.62-3.6-3.21-6.97-6.71-10.11-10.51-3.14-3.8-5.76-8.12-7.86-12.96-2.1-4.84-3.14-10.54-3.14-17.08Z"/>
        <path class="cls-3" d="m170.66,200.93v106.05c0,4.98,1.01,8.45,3.05,10.41,2.03,1.97,4.74,2.95,8.15,2.95s6.12-.98,8.15-2.95c2.03-1.96,3.04-5.43,3.04-10.41v-106.05h20.42v104.68c0,11.13-2.72,19.67-8.15,25.63-5.43,5.96-13.45,8.94-24.06,8.94s-18.63-2.98-24.06-8.94c-5.44-5.96-8.15-14.5-8.15-25.63v-104.68h21.6Z"/>
        <path class="cls-3" d="m256.49,283.61l-6.68,12.57v42.22h-21.61v-137.48h21.61v59.9l28.67-59.9h21.21l-30.05,61.27,30.05,76.2h-22.19l-21.01-54.79Z"/>
        <path class="cls-3" d="m309.51,200.93h21.61v137.48h-21.61v-137.48Z"/>
        <path class="cls-3" d="m375.1,283.61l-6.68,12.57v42.22h-21.61v-137.48h21.61v59.9l28.67-59.9h21.21l-30.05,61.27,30.05,76.2h-22.19l-21.01-54.79Z"/>
        <path class="cls-3" d="m498.05,338.4h-21.8l-3.73-24.94h-26.51l-3.73,24.94h-19.84l22-137.48h31.62l22,137.48Zm-49.3-43.6h20.82l-10.41-69.53-10.41,69.53Z"/>
        <path class="cls-3" d="m540.47,261.81h30.24v43.6c0,11.13-2.72,19.67-8.15,25.63-5.43,5.96-13.45,8.94-24.06,8.94s-18.63-2.98-24.06-8.94c-5.43-5.96-8.15-14.5-8.15-25.63v-71.49c0-11.13,2.71-19.67,8.15-25.63,5.43-5.96,13.45-8.94,24.06-8.94s18.62,2.98,24.06,8.94c5.43,5.96,8.15,14.5,8.15,25.63v13.35h-20.42v-14.73c0-4.97-1.02-8.48-3.05-10.51-2.03-2.03-4.75-3.04-8.15-3.04s-6.12,1.01-8.15,3.04c-2.03,2.03-3.04,5.53-3.04,10.51v74.24c0,4.98,1.01,8.45,3.04,10.41,2.03,1.97,4.74,2.95,8.15,2.95s6.12-.98,8.15-2.95c2.03-1.96,3.05-5.43,3.05-10.41v-25.34h-9.82v-19.64Z"/>
        <path class="cls-3" d="m606.26,258.86h29.65v19.64h-29.65v40.26h37.31v19.64h-58.92v-137.48h58.92v19.64h-37.31v38.3Z"/>
      </g>
      <g>
        <path class="cls-1" d="m148.55,207.6c-.08,2.59.18,5.47.51,8.42v-6.6c-.18-.59-.32-1.25-.51-1.82Z"/>
        <path class="cls-1" d="m192.66,311.43c.01-.06.02-.11.03-.17-.22-.13-.37-.23-.37-.23.11.13.23.27.34.4Z"/>
        <path class="cls-1" d="m154.91,271.36c-.47-1.02-.95-2.1-1.44-3.22-.49-1.12-.97-2.28-1.4-3.5-.88-2.42-1.81-4.96-2.74-7.54-.09-.26-.19-.52-.28-.78v11.21c4.81,10.26,7.87,9.48,5.85,3.84Z"/>
        <path class="cls-1" d="m169.86,291.54c-1.73-3.27-3.37-6.91-5.11-10.16-1.64-3.31-3.11-6.39-4.37-8.62-.6,1.36-.31,3.9.54,7.1.4,1.61,1.03,3.34,1.77,5.15.74,1.81,1.56,3.74,2.47,5.66,1.75,3.38,3.6,6.85,5.5,9.93v-7.36c-.28-.58-.51-1.11-.81-1.7Z"/>
        <path class="cls-1" d="m213.48,200.93h-20.42v106.05c0,.38-.05.69-.06,1.05,1.73,2.29,3.52,4.48,5.42,6.48,0,0-1.53-.85-3.07-1.7-.77-.42-1.54-.86-2.09-1.21-.23-.14-.41-.25-.56-.35,0,.06-.02.11-.03.17.93,1.11,1.87,2.23,2.82,3.37,1.06,1.28,2.09,2.59,3.11,3.9,2.11,2.54,4.18,5.05,6.15,7.25.88.92,1.73,1.76,2.56,2.55.46-.66.99-1.24,1.4-1.95-.29-.31-.59-.63-.88-.94-2.06-2.05-3.96-4.2-7.25-6.85-.18-1.93,3.89,1.37,5.89,2.33,1.11,1.02,2.25,2,3.38,3,2.35-5.08,3.64-11.17,3.64-18.49v-104.68Z"/>
        <path class="cls-1" d="m169.09,274.97s-.26-1.01-.65-2.53c-.34-1.32-.79-3-1.15-4.76,1.06,2.25,2.22,4.43,3.37,6.63v-73.38h-21.6v8.49c2.56,8.4,4.07,19.06,6.75,30.44,2.78,12.13,6.99,24.95,13.29,35.11Z"/>
        <path class="cls-1" d="m153.48,249.83c2.41-.56.79-6.92-1.1-15.3-.43-2.1-1.06-4.3-1.45-6.6-.42-2.3-.85-4.64-1.28-6.98-.22-1.67-.4-3.3-.58-4.93v25.93c.63,1.84,1.27,3.55,1.88,4.85.91,1.88,1.86,3.01,2.54,3.03Z"/>
        <path class="cls-1" d="m228.21,338.4h.29c-.1-.06-.19-.13-.29-.2v.2Z"/>
        <path class="cls-1" d="m249.81,296.18l6.68-12.57,21.01,54.79h22.19l-30.05-76.2,30.05-61.27h-21.21l-28.67,59.9v-59.9h-21.61v137.28c.1.07.19.13.29.2h21.31v-42.22Z"/>
        <rect class="cls-1" x="309.51" y="200.93" width="21.61" height="137.48"/>
        <polygon class="cls-1" points="397.1 200.93 368.43 260.83 368.43 200.93 346.82 200.93 346.82 338.4 368.43 338.4 368.43 296.18 375.1 283.61 396.12 338.4 418.31 338.4 388.26 262.2 418.31 200.93 397.1 200.93"/>
        <path class="cls-1" d="m444.43,200.93l-21.8,136.24c1.86-1.43,3.76-2.79,5.59-4.29,6.01-4.49,11.69-9.41,17.07-14.63l.72-4.79h4.09c5.56-5.84,10.68-12.09,15.39-18.66h-16.73l10.41-69.53,9.69,64.77c6.51-9.75,12-20.22,16.46-31.23l-9.26-57.89h-31.62Z"/>
      </g>
      <circle class="cls-1" cx="320.31" cy="122.43" r="65.47"/>
      <g>
        <path class="cls-2" d="m304.67,432.56c0,2.41-.72,4.28-2.16,5.62-.87.77-2.25,1.25-4.13,1.45-1.12.1-3.38.15-6.78.15-.8,0-1.27-.07-1.42-.22-.12-.15-.29-.58-.48-1.3-.35-1.47-.81-2.66-1.38-3.58,2.98.25,5.65.37,8.01.37s3.46-1.17,3.46-3.5v-16.69h-29.83c-.8,5.81-2.23,10.7-4.32,14.68-1.69,3.25-4.2,6.59-7.52,10.02-.47.55-.8.82-.97.82-.15,0-.56-.25-1.23-.74-1.04-.82-2.14-1.4-3.28-1.75,5.83-5.39,9.62-11.2,11.36-17.43,1.49-5.34,2.23-13.53,2.23-24.58v-9.31l-.15-10.02c0-.4.2-.6.6-.6l9.98.15h17.39l9.98-.15c.42,0,.63.2.63.6l-.15,10.02v33.86l.15,12.14Zm-4.88-21.97v-13.11h-28.83c-.1,5.29-.29,9.66-.56,13.11h29.39Zm0-17.39v-12.74h-28.83v12.74h28.83Z"/>
        <path class="cls-2" d="m335.43,426.6c0,.2-.2.47-.6.82-.42.32-.98,1.12-1.68,2.38-1.22,2.09-3.13,4.26-5.74,6.52-.5.52-.91.78-1.23.78-.12,0-.47-.2-1.04-.6-.67-.55-1.54-1.06-2.61-1.53,3.2-2.43,5.6-4.93,7.19-7.49.62-1.02,1.04-2.03,1.27-3.05,1.69.57,2.83,1.01,3.43,1.31.67.32,1.01.61,1.01.86Zm27.6-22.68c0,.35-.2.52-.6.52l-10.13-.15h-18.77l-10.24.15c-.4,0-.6-.17-.6-.52v-2.76c0-.4.2-.6.6-.6l10.24.15h7.86v-5.18h-3.84l-9.01.15c-.4,0-.6-.2-.6-.6l.19-6.18v-6.78l-.19-6.22c0-.4.2-.6.6-.6l9.01.15h12.07l9.01-.15c.4,0,.6.2.6.6l-.15,6.22v6.78l.15,6.18c0,.4-.2.6-.6.6l-9.01-.15h-3.95v5.18h6.63l10.13-.15c.4,0,.6.2.6.6v2.76Zm-5.25,17.8c0,.4-.2.6-.6.6l-8.49-.15h-2.57v4.06l.15,7.23c0,2.63-.68,4.48-2.05,5.55-.7.47-1.58.76-2.64.86-.7.05-2.16.07-4.39.07-.74,0-1.21-.07-1.38-.22-.15-.13-.3-.49-.45-1.08-.32-1.22-.81-2.31-1.45-3.28,1.96.3,3.59.45,4.88.45s2.06-.22,2.46-.67c.35-.4.52-1.13.52-2.2v-10.76h-3.35l-8.49.15c-.4,0-.6-.2-.6-.6l.15-4.51v-3.46l-.15-4.51c0-.4.2-.6.6-.6l8.49.15h10.28l8.49-.15c.4,0,.6.2.6.6l-.15,4.51v3.46l.15,4.51Zm-2.98-37.92v-4.99h-22.5v4.99h22.5Zm0,8.46v-5.25h-22.5v5.25h22.5Zm-1.38,26.63v-6.81h-19.74v6.81h19.74Zm6.67,13.71c.12.22.19.38.19.48,0,.15-.25.37-.74.67l-1.68,1.08c-.45.25-.73.37-.86.37s-.27-.16-.45-.48c-1.54-3.08-3.24-5.71-5.1-7.9-.1-.15-.15-.26-.15-.33,0-.17.29-.42.86-.74l1.53-.89c.3-.17.48-.26.56-.26.15,0,.31.11.48.34,2.06,2.26,3.85,4.82,5.36,7.67Zm30.95-14.86c0,.37-.22.68-.67.93-.57.27-1.49,1.16-2.76,2.65-6.51,7.15-14.03,12.85-22.57,17.09-.62.3-1.03.45-1.23.45s-.53-.3-1.01-.89c-.62-.99-1.45-1.86-2.5-2.61,9.68-4.32,17.57-9.99,23.65-17.02,1.19-1.32,2.07-2.66,2.64-4.02,1.49.89,2.71,1.7,3.65,2.42.52.42.78.76.78,1.01Zm-2.35-21.34c0,.3-.25.57-.74.82-.47.22-1.37,1.07-2.68,2.53-4.92,5.31-11.17,9.89-18.77,13.74-.62.3-1.01.45-1.15.45-.27,0-.63-.36-1.08-1.08-.55-.89-1.3-1.71-2.27-2.46,8.12-3.55,14.7-8.12,19.74-13.71,1.09-1.24,1.94-2.52,2.53-3.84,1.69,1.02,2.93,1.86,3.72,2.53.47.4.71.73.71,1.01Zm-1.68-18.92c0,.37-.22.67-.67.89-.6.28-1.51.99-2.76,2.16-4.79,4.62-10.37,8.43-16.72,11.43-.6.25-.96.37-1.08.37-.2,0-.55-.36-1.04-1.08-.5-.87-1.22-1.68-2.16-2.42,7.03-3.01,12.92-6.89,17.69-11.66.94-.97,1.74-2.04,2.38-3.2,1.56.92,2.76,1.73,3.58,2.42.52.42.78.78.78,1.08Z"/>
      </g>
    </g>
  </g>
</svg>