<svg width="180" height="107" viewBox="0 0 180 107" fill="none" xmlns="http://www.w3.org/2000/svg">
<rect x="0.573147" y="0.573147" width="178.004" height="105.644" rx="1.71944" stroke="#E1E1E1" stroke-width="1.14629"/>
<mask id="mask0_1548_945" style="mask-type:luminance" maskUnits="userSpaceOnUse" x="47" y="31" width="73" height="25">
<path d="M47.4004 31.4175H119.447V55.6499H47.4004V31.4175Z" fill="white"/>
</mask>
<g mask="url(#mask0_1548_945)">
<path fill-rule="evenodd" clip-rule="evenodd" d="M48.6925 55.5411L83.3122 33.1455L117.93 55.5411C118.288 55.7744 118.767 55.6709 119 55.3131C119.232 54.9552 119.128 54.4745 118.771 54.2429L83.7315 31.5753C83.4754 31.4104 83.1473 31.4104 82.8912 31.5753L47.8522 54.2429C47.4943 54.4745 47.3925 54.9552 47.6241 55.3131C47.8557 55.6709 48.3346 55.7744 48.6925 55.5411Z" fill="#575949"/>
</g>
<mask id="mask1_1548_945" style="mask-type:luminance" maskUnits="userSpaceOnUse" x="90" y="31" width="43" height="25">
<path d="M90.2559 31.8662H132.282V55.2197H90.2559V31.8662Z" fill="white"/>
</mask>
<g mask="url(#mask1_1548_945)">
<path fill-rule="evenodd" clip-rule="evenodd" d="M91.871 37.7241L98.2392 33.605L130.97 55.0761C131.326 55.3112 131.806 55.2112 132.04 54.8533C132.273 54.4972 132.175 54.0182 131.817 53.7832L98.6672 32.0366C98.4111 31.8682 98.0795 31.8664 97.8216 32.0331C97.8216 32.0331 95.0042 33.8558 91.0307 36.4259C90.6728 36.6575 90.5693 37.1364 90.8026 37.496C91.0342 37.8539 91.5131 37.9574 91.871 37.7241Z" fill="#575949"/>
</g>
<path fill-rule="evenodd" clip-rule="evenodd" d="M67.4976 42.6821V36.8419C67.4976 36.4174 67.152 36.0718 66.7257 36.0718H60.2856C59.8575 36.0718 59.5137 36.4174 59.5137 36.8419V47.1222C59.5137 47.5468 59.8575 47.8924 60.2856 47.8924C60.7101 47.8924 61.0557 47.5468 61.0557 47.1222V37.6121H65.9555V42.6821C65.9555 43.1066 66.3011 43.4522 66.7257 43.4522C67.152 43.4522 67.4976 43.1066 67.4976 42.6821Z" fill="#575949"/>
<path d="M77.706 72.5391C78.2902 72.5584 78.6814 72.5671 78.8779 72.5671C79.0183 72.5671 79.1604 72.5654 79.306 72.5601C79.4551 72.5566 79.5954 72.5513 79.727 72.5461C79.8568 72.5426 79.9375 72.5391 79.9656 72.5391C79.9937 72.5584 80.0393 72.7057 80.1059 72.9812C80.1708 73.2583 80.2042 73.4215 80.2042 73.4724C80.2042 73.4829 80.1972 73.4969 80.1831 73.5145C80.1726 73.5338 80.1568 73.5548 80.134 73.5776C80.1147 73.5969 80.0814 73.6127 80.0358 73.6267C79.9937 73.6408 79.9445 73.6478 79.8884 73.6478C79.8691 73.6478 79.8463 73.6039 79.8182 73.5145C79.7902 73.4215 79.7621 73.3145 79.734 73.1917C79.706 73.0654 79.6867 72.9864 79.6779 72.9531C79.5691 72.9531 79.3919 72.9566 79.1446 72.9601C78.8955 72.9601 78.699 72.9601 78.5551 72.9601C78.5306 72.9601 78.513 72.9671 78.499 72.9812C78.4885 72.9952 78.4814 73.0127 78.4779 73.0303C78.4779 73.0496 78.4779 73.0706 78.4779 73.0934V73.9215C78.5621 73.8899 78.6639 73.8636 78.7867 73.8443C78.913 73.8215 79.027 73.8092 79.1305 73.8092C79.2182 73.8092 79.2884 73.8338 79.3411 73.8794C79.3919 73.9215 79.4182 73.9899 79.4182 74.0829C79.4182 74.1671 79.3902 74.2372 79.334 74.2934C79.2779 74.346 79.2112 74.3706 79.1376 74.3706C79.034 74.2408 78.8849 74.1741 78.6884 74.1741C78.6323 74.1741 78.5621 74.1794 78.4779 74.1881V75.2828C78.4779 75.3109 78.4779 75.3355 78.4779 75.353C78.4814 75.367 78.4885 75.3846 78.499 75.4021C78.513 75.4161 78.5306 75.4232 78.5551 75.4232C78.7095 75.4232 78.92 75.4267 79.1867 75.4302C79.4568 75.4302 79.6498 75.4302 79.7621 75.4302C79.7761 75.3933 79.8007 75.3074 79.8393 75.1705C79.8761 75.0302 79.9112 74.9092 79.9445 74.8056C79.9814 74.6986 80.0147 74.6442 80.0428 74.6442C80.0989 74.6442 80.148 74.6513 80.1901 74.6653C80.2322 74.6793 80.2638 74.6986 80.2884 74.7214C80.3112 74.7407 80.327 74.76 80.3375 74.7776C80.3515 74.7969 80.3586 74.8109 80.3586 74.8197C80.3586 74.8811 80.3182 75.0618 80.2393 75.36C80.1586 75.66 80.1059 75.8179 80.0779 75.8372C79.8059 75.8232 79.406 75.8161 78.8779 75.8161C78.4183 75.8161 78.0288 75.8232 77.706 75.8372C77.6674 75.8144 77.6394 75.7705 77.6218 75.7039C77.6025 75.6337 77.5938 75.5618 77.5938 75.4863C77.5938 75.4495 77.6166 75.4232 77.6639 75.4091C77.7095 75.3916 77.7657 75.3811 77.8323 75.3811C77.892 75.3811 77.9306 75.3705 77.9446 75.346C77.9622 75.3232 77.9727 75.2881 77.9727 75.2407V73.1355C77.9727 73.0899 77.9622 73.0548 77.9446 73.0303C77.9306 73.0075 77.892 72.9952 77.8323 72.9952C77.6727 72.9952 77.5938 72.9583 77.5938 72.8829C77.5938 72.8127 77.6025 72.7426 77.6218 72.6724C77.6394 72.6022 77.6674 72.5584 77.706 72.5391Z" fill="#575949"/>
<path d="M81.2738 75.8368H81.0632C80.9685 75.4262 80.9229 75.1175 80.9229 74.9105C80.9229 74.8736 80.9545 74.8456 81.0211 74.8263C81.086 74.8035 81.1545 74.7912 81.2246 74.7912C81.2562 74.7912 81.2808 74.7947 81.2948 74.7982C81.3404 74.9157 81.4071 75.021 81.4913 75.114C81.5755 75.2034 81.6667 75.2754 81.765 75.3315C81.8632 75.3841 81.9615 75.4227 82.0597 75.4508C82.1579 75.4754 82.2509 75.4859 82.3404 75.4859C82.5088 75.4859 82.6439 75.449 82.7474 75.3736C82.8544 75.2999 82.9088 75.1894 82.9088 75.0438C82.9088 74.9456 82.8842 74.8614 82.8386 74.7912C82.7912 74.7175 82.7281 74.6561 82.6491 74.6087C82.5684 74.5631 82.4772 74.5228 82.3755 74.4894C82.272 74.4526 82.1614 74.4193 82.0457 74.3912C81.9334 74.3596 81.8176 74.3263 81.7018 74.293C81.5895 74.2614 81.4808 74.2193 81.379 74.1666C81.2808 74.1158 81.1913 74.0579 81.1124 73.9912C81.0317 73.921 80.9668 73.8333 80.9159 73.7246C80.8685 73.6175 80.8457 73.493 80.8457 73.3526C80.8457 73.1754 80.9018 73.0228 81.0141 72.8965C81.1264 72.7667 81.2667 72.6702 81.4352 72.6088C81.6036 72.5492 81.786 72.5176 81.9825 72.5176C82.2913 72.5176 82.5527 72.5948 82.7684 72.7491C82.7825 72.7176 82.7912 72.6895 82.7965 72.6649C82.8053 72.6369 82.8105 72.6193 82.8105 72.6088C82.8105 72.5948 82.8176 72.586 82.8316 72.5807C82.8456 72.572 82.8614 72.5667 82.8807 72.5667C82.8983 72.5632 82.9316 72.5597 82.979 72.5597C83.0246 72.5597 83.0947 72.5649 83.1895 72.5737C83.2825 72.9807 83.3298 73.2684 83.3298 73.4368C83.3298 73.4614 83.2895 73.4789 83.2105 73.493C83.1351 73.507 83.0597 73.514 82.986 73.514H82.9369C82.8807 73.3281 82.7719 73.1737 82.6141 73.0509C82.4544 72.9246 82.2527 72.8614 82.0106 72.8614C81.8036 72.8614 81.6492 72.9035 81.5474 72.9877C81.4439 73.0684 81.3931 73.1772 81.3931 73.3175C81.3931 73.4018 81.4159 73.4772 81.4632 73.5421C81.5088 73.6035 81.572 73.6544 81.6527 73.6965C81.7316 73.7386 81.8229 73.7772 81.9264 73.8088C82.0281 73.8421 82.1369 73.8754 82.2492 73.907C82.3649 73.9403 82.4825 73.9754 82.6 74.0123C82.7158 74.0509 82.8263 74.0965 82.9298 74.1526C83.0316 74.2052 83.1228 74.2649 83.2035 74.3351C83.2825 74.4017 83.3456 74.4894 83.393 74.6017C83.4386 74.7105 83.4631 74.8315 83.4631 74.9666C83.4631 75.121 83.4316 75.2596 83.3719 75.3806C83.3105 75.5034 83.2263 75.5982 83.1193 75.6683C83.0158 75.735 82.8983 75.7841 82.7684 75.8157C82.6369 75.8525 82.4965 75.8718 82.3474 75.8718C82.1878 75.8718 82.0281 75.8455 81.8702 75.7947C81.7106 75.7385 81.5685 75.6648 81.4422 75.5701L81.4071 75.7876C81.4018 75.7982 81.3966 75.8069 81.3931 75.8157C81.3878 75.8192 81.3755 75.8245 81.358 75.8297C81.3387 75.8332 81.3106 75.8368 81.2738 75.8368Z" fill="#575949"/>
<path d="M85.1359 75.2404V72.9879C85.1359 72.9703 85.1359 72.958 85.1359 72.9528C85.1359 72.944 85.1307 72.9352 85.1219 72.9247C85.1114 72.9159 85.1008 72.9107 85.0868 72.9107C85.0166 72.9107 84.9149 72.9107 84.7851 72.9107C84.6535 72.9107 84.5605 72.9107 84.5044 72.9107C84.4903 72.9387 84.4693 73.0124 84.4412 73.1282C84.4132 73.2405 84.3816 73.3422 84.35 73.43C84.3219 73.5194 84.2939 73.5633 84.2658 73.5633C84.2132 73.5633 84.164 73.5563 84.1184 73.5422C84.0763 73.5247 84.043 73.5054 84.0202 73.4861C84.0009 73.4633 83.9851 73.444 83.9711 73.43C83.9605 73.4124 83.957 73.3984 83.957 73.3878C83.957 73.337 83.9816 73.1879 84.0342 72.9387C84.0904 72.6861 84.1272 72.551 84.1465 72.5317C84.15 72.5317 84.1553 72.5317 84.1605 72.5317C84.164 72.5317 84.1693 72.5317 84.1746 72.5317C84.6044 72.5703 85.0096 72.5879 85.3886 72.5879C85.7675 72.5879 86.171 72.5703 86.6025 72.5317C86.6061 72.5317 86.6113 72.5317 86.6166 72.5317C86.6201 72.5317 86.6254 72.5317 86.6306 72.5317C86.6482 72.551 86.6832 72.6861 86.7359 72.9387C86.792 73.1879 86.8201 73.337 86.8201 73.3878C86.8201 73.3984 86.8148 73.4124 86.806 73.43C86.7955 73.444 86.7797 73.4633 86.7569 73.4861C86.7324 73.5054 86.7008 73.5247 86.6587 73.5422C86.6166 73.5563 86.5675 73.5633 86.5113 73.5633C86.4833 73.5633 86.4517 73.5194 86.4201 73.43C86.392 73.3422 86.364 73.2405 86.3359 73.1282C86.3078 73.0124 86.2868 72.9387 86.2727 72.9107C86.2166 72.9107 86.1219 72.9107 85.992 72.9107C85.8605 72.9107 85.7605 72.9107 85.6903 72.9107C85.6657 72.9107 85.6517 72.9177 85.6482 72.9317C85.6429 72.9458 85.6412 72.9651 85.6412 72.9879V75.2404C85.6412 75.2597 85.6412 75.2755 85.6412 75.2895C85.6447 75.3036 85.6499 75.3176 85.6552 75.3316C85.664 75.3457 85.678 75.3579 85.6973 75.3667C85.7201 75.3772 85.7482 75.3808 85.7815 75.3808C85.8464 75.3808 85.9026 75.3913 85.9499 75.4088C86.0008 75.4229 86.0271 75.4492 86.0271 75.486C86.0271 75.679 86.0008 75.7948 85.9499 75.8369C85.7342 75.8228 85.55 75.8158 85.3956 75.8158C85.2412 75.8158 85.0517 75.8228 84.8272 75.8369C84.7798 75.7948 84.757 75.679 84.757 75.486C84.757 75.4492 84.7798 75.4229 84.8272 75.4088C84.8728 75.3913 84.9324 75.3808 85.0026 75.3808C85.0587 75.3808 85.0938 75.3702 85.1079 75.3457C85.1254 75.3229 85.1359 75.2878 85.1359 75.2404Z" fill="#575949"/>
<path d="M87.375 75.514C87.375 75.4157 87.4066 75.335 87.4732 75.2683C87.5382 75.1982 87.6364 75.1631 87.768 75.1631C87.8943 75.1631 87.989 75.1982 88.0557 75.2683C88.1206 75.335 88.1539 75.4157 88.1539 75.514C88.1539 75.6122 88.1206 75.6964 88.0557 75.7666C87.989 75.8367 87.8943 75.8718 87.768 75.8718C87.6364 75.8718 87.5382 75.8385 87.4732 75.7736C87.4066 75.7034 87.375 75.6175 87.375 75.514Z" fill="#575949"/>
<path d="M90.4032 72.686C90.7856 72.5737 91.1084 72.5176 91.3715 72.5176C91.5259 72.5176 91.6698 72.5316 91.8066 72.5597C91.9417 72.5878 92.0662 72.6334 92.1785 72.693C92.2908 72.7544 92.3785 72.8386 92.4452 72.9456C92.5101 73.0544 92.5434 73.1807 92.5434 73.3246C92.5434 73.4053 92.5294 73.4842 92.5013 73.5632C92.4768 73.6439 92.4347 73.7316 92.375 73.8298C92.3136 73.9245 92.2434 74.0193 92.1645 74.1175C92.0838 74.2158 91.975 74.3386 91.8347 74.4824C91.6978 74.6228 91.5557 74.7666 91.4066 74.9105C91.2558 75.0561 91.0663 75.2333 90.8382 75.4438H91.6171C91.7013 75.4438 91.7715 75.4403 91.8277 75.4298C91.8873 75.4157 91.9347 75.4017 91.968 75.3876C91.9996 75.3701 92.0277 75.342 92.0522 75.3034C92.0803 75.2613 92.0978 75.2262 92.1084 75.1982C92.1171 75.1666 92.1329 75.114 92.1575 75.0438C92.1803 74.9736 92.2013 74.914 92.2206 74.8614C92.2434 74.8438 92.2785 74.8333 92.3259 74.8333C92.368 74.8333 92.4136 74.8403 92.4662 74.8543C92.5224 74.8684 92.568 74.8806 92.6066 74.8894L92.6557 74.9105C92.6557 74.9806 92.6224 75.1263 92.5575 75.3455C92.4908 75.5613 92.4452 75.6894 92.4171 75.7315C92.3364 75.7876 92.0329 75.8157 91.5049 75.8157H90.4312C90.3979 75.7982 90.3681 75.742 90.34 75.6473C90.3119 75.549 90.2944 75.4561 90.2909 75.3666C90.3751 75.2684 90.4961 75.142 90.6558 74.9877C90.8189 74.8298 90.9716 74.6789 91.1119 74.5386C91.2558 74.3982 91.3996 74.2544 91.54 74.1035C91.6838 73.9544 91.7996 73.8123 91.8838 73.6754C91.968 73.5403 92.0101 73.4263 92.0101 73.3316C92.0101 73.1825 91.9557 73.0702 91.8487 72.9948C91.7452 72.9211 91.6119 72.8825 91.4487 72.8825C91.3084 72.8825 91.1908 72.8948 91.0979 72.9176C91.0084 72.9421 90.9312 72.9842 90.8663 73.0439C90.7996 73.1053 90.7488 73.1825 90.7119 73.2754C90.6733 73.3702 90.6382 73.4912 90.6067 73.6403C90.5312 73.6403 90.447 73.6316 90.354 73.6123C90.2646 73.5895 90.2207 73.5684 90.2207 73.5491C90.2207 73.4842 90.2418 73.3456 90.2839 73.1351C90.3295 72.9211 90.3698 72.7702 90.4032 72.686Z" fill="#575949"/>
<path d="M94.1162 72.6162C94.2881 72.5425 94.467 72.5039 94.6495 72.5039C94.8319 72.5039 95.0074 72.5425 95.1758 72.6162C95.3477 72.6864 95.5021 72.7899 95.6389 72.9249C95.774 73.0618 95.881 73.239 95.9617 73.4583C96.0459 73.674 96.088 73.9179 96.088 74.1881C96.088 74.46 96.0459 74.7056 95.9617 74.9249C95.881 75.1407 95.774 75.3178 95.6389 75.4582C95.5021 75.595 95.3477 75.6968 95.1758 75.7669C95.0074 75.8371 94.8319 75.8722 94.6495 75.8722C94.467 75.8722 94.2881 75.8371 94.1162 75.7669C93.9478 75.6968 93.7951 75.595 93.66 75.4582C93.5232 75.3178 93.4144 75.1407 93.3302 74.9249C93.2495 74.7056 93.2109 74.46 93.2109 74.1881C93.2109 73.9179 93.2495 73.674 93.3302 73.4583C93.4144 73.239 93.5232 73.0618 93.66 72.9249C93.7951 72.7899 93.9478 72.6864 94.1162 72.6162ZM94.3197 75.402C94.4267 75.4547 94.5372 75.4792 94.6495 75.4792C94.7618 75.4792 94.8688 75.4547 94.9723 75.402C95.0793 75.3459 95.1758 75.267 95.26 75.1635C95.3442 75.0617 95.4091 74.9249 95.4565 74.7565C95.5073 74.588 95.5337 74.4021 95.5337 74.1951C95.5337 73.9846 95.5073 73.7986 95.4565 73.6337C95.4091 73.4653 95.3442 73.3302 95.26 73.2267C95.1758 73.1197 95.0793 73.0372 94.9723 72.9811C94.8688 72.9249 94.7618 72.8969 94.6495 72.8969C94.5372 72.8969 94.4267 72.9249 94.3197 72.9811C94.2162 73.0372 94.1232 73.1197 94.039 73.2267C93.9583 73.3302 93.8934 73.4653 93.8425 73.6337C93.7899 73.7986 93.7653 73.9846 93.7653 74.1951C93.7653 74.4021 93.7899 74.588 93.8425 74.7565C93.8934 74.9249 93.9583 75.0617 94.039 75.1635C94.1232 75.267 94.2162 75.3459 94.3197 75.402Z" fill="#575949"/>
<path d="M96.8387 72.686C97.2211 72.5737 97.5439 72.5176 97.8071 72.5176C97.9615 72.5176 98.1053 72.5316 98.2422 72.5597C98.3772 72.5878 98.5018 72.6334 98.6141 72.693C98.7263 72.7544 98.8141 72.8386 98.8807 72.9456C98.9456 73.0544 98.979 73.1807 98.979 73.3246C98.979 73.4053 98.9649 73.4842 98.9369 73.5632C98.9123 73.6439 98.8702 73.7316 98.8106 73.8298C98.7492 73.9245 98.679 74.0193 98.6 74.1175C98.5193 74.2158 98.4106 74.3386 98.2702 74.4824C98.1334 74.6228 97.9913 74.7666 97.8422 74.9105C97.6913 75.0561 97.5018 75.2333 97.2738 75.4438H98.0527C98.1369 75.4438 98.2071 75.4403 98.2632 75.4298C98.3229 75.4157 98.3702 75.4017 98.4036 75.3876C98.4351 75.3701 98.4632 75.342 98.4878 75.3034C98.5158 75.2613 98.5334 75.2262 98.5439 75.1982C98.5527 75.1666 98.5685 75.114 98.593 75.0438C98.6158 74.9736 98.6369 74.914 98.6562 74.8614C98.679 74.8438 98.7141 74.8333 98.7614 74.8333C98.8035 74.8333 98.8491 74.8403 98.9018 74.8543C98.9579 74.8684 99.0035 74.8806 99.0421 74.8894L99.0912 74.9105C99.0912 74.9806 99.0579 75.1263 98.993 75.3455C98.9263 75.5613 98.8807 75.6894 98.8527 75.7315C98.772 75.7876 98.4685 75.8157 97.9404 75.8157H96.8668C96.8334 75.7982 96.8036 75.742 96.7755 75.6473C96.7475 75.549 96.7299 75.4561 96.7264 75.3666C96.8106 75.2684 96.9317 75.142 97.0913 74.9877C97.2545 74.8298 97.4071 74.6789 97.5474 74.5386C97.6913 74.3982 97.8352 74.2544 97.9755 74.1035C98.1194 73.9544 98.2351 73.8123 98.3193 73.6754C98.4036 73.5403 98.4457 73.4263 98.4457 73.3316C98.4457 73.1825 98.3913 73.0702 98.2843 72.9948C98.1808 72.9211 98.0474 72.8825 97.8843 72.8825C97.7439 72.8825 97.6264 72.8948 97.5334 72.9176C97.4439 72.9421 97.3667 72.9842 97.3018 73.0439C97.2352 73.1053 97.1843 73.1825 97.1475 73.2754C97.1089 73.3702 97.0738 73.4912 97.0422 73.6403C96.9668 73.6403 96.8826 73.6316 96.7896 73.6123C96.7001 73.5895 96.6562 73.5684 96.6562 73.5491C96.6562 73.4842 96.6773 73.3456 96.7194 73.1351C96.765 72.9211 96.8054 72.7702 96.8387 72.686Z" fill="#575949"/>
<path d="M100.846 75.5C100.917 75.5 100.983 75.493 101.05 75.4789C101.12 75.4614 101.187 75.4351 101.253 75.4018C101.318 75.3702 101.376 75.3298 101.429 75.2825C101.48 75.2368 101.52 75.1807 101.548 75.114C101.58 75.0491 101.597 74.9737 101.597 74.8895C101.597 74.8018 101.583 74.7211 101.555 74.6509C101.531 74.5772 101.495 74.5176 101.45 74.4755C101.402 74.4299 101.352 74.3913 101.295 74.3632C101.239 74.3316 101.169 74.3071 101.085 74.293C101.004 74.279 100.931 74.272 100.86 74.272C100.79 74.2685 100.71 74.265 100.622 74.265C100.574 74.265 100.506 74.2685 100.418 74.272C100.334 74.272 100.273 74.272 100.236 74.272C100.211 74.2632 100.201 74.1913 100.201 74.0544C100.201 73.9527 100.218 73.8825 100.257 73.8439C100.288 73.8492 100.415 73.8509 100.636 73.8509C100.864 73.8509 101.039 73.8018 101.162 73.7036C101.288 73.6018 101.352 73.479 101.352 73.3387C101.352 73.2124 101.299 73.1053 101.197 73.0159C101.099 72.9229 100.962 72.8755 100.79 72.8755C100.72 72.8755 100.652 72.8825 100.587 72.8966C100.52 72.9071 100.453 72.9247 100.383 72.9527C100.317 72.9808 100.259 73.0194 100.208 73.065C100.16 73.1124 100.117 73.1755 100.074 73.2545C100.036 73.3299 100.008 73.4159 99.9903 73.5141C99.9903 73.5194 99.9762 73.5211 99.9482 73.5211C99.8955 73.5211 99.8254 73.5141 99.7376 73.5001C99.6534 73.486 99.6113 73.472 99.6113 73.458C99.6148 73.4018 99.6219 73.3492 99.6324 73.2966C99.6412 73.2404 99.6482 73.1948 99.6534 73.1562C99.6569 73.1141 99.6675 73.0685 99.6815 73.0159C99.6955 72.965 99.7043 72.9299 99.7096 72.9106C99.7131 72.8878 99.7236 72.851 99.7376 72.7983C99.7517 72.7475 99.7587 72.7176 99.7587 72.7071L99.7727 72.679C100.124 72.5948 100.462 72.5527 100.79 72.5527C100.945 72.5527 101.085 72.5703 101.211 72.6019C101.338 72.6299 101.439 72.6703 101.52 72.7211C101.604 72.7685 101.674 72.8264 101.731 72.8966C101.787 72.9632 101.825 73.0334 101.85 73.1071C101.873 73.1773 101.885 73.2527 101.885 73.3317C101.885 73.4825 101.829 73.6229 101.717 73.7527C101.604 73.879 101.459 73.9632 101.281 74.0053C101.538 74.0386 101.746 74.1369 101.906 74.3C102.064 74.4597 102.145 74.6491 102.145 74.8684C102.145 75.0895 102.088 75.2754 101.976 75.4298C101.867 75.5842 101.724 75.6965 101.541 75.7667C101.359 75.8368 101.148 75.8719 100.91 75.8719C100.567 75.8719 100.208 75.8316 99.8289 75.7526L99.8148 75.7245C99.8148 75.7105 99.8078 75.6807 99.7938 75.6333C99.7797 75.5824 99.7692 75.5456 99.7657 75.521C99.7604 75.4982 99.7517 75.4632 99.7376 75.4158C99.7236 75.3649 99.7131 75.3211 99.7096 75.2825C99.7043 75.2404 99.6973 75.1912 99.6885 75.1351C99.678 75.079 99.671 75.0263 99.6675 74.9737C99.6675 74.9597 99.7096 74.9456 99.7938 74.9316C99.8815 74.9141 99.9517 74.9035 100.004 74.9035C100.032 74.9035 100.046 74.9088 100.046 74.9176C100.074 75.0491 100.131 75.1597 100.215 75.2474C100.299 75.3368 100.392 75.4018 100.496 75.4439C100.603 75.4825 100.72 75.5 100.846 75.5Z" fill="#575949"/>
<path d="M104.136 65.1644C104.066 65.1364 103.985 65.0943 103.897 65.0381C103.813 64.982 103.731 64.9171 103.652 64.8416C103.571 64.7627 103.508 64.6802 103.455 64.596C103.404 64.5083 103.378 64.4206 103.378 64.3364C103.378 64.2066 103.397 64.061 103.434 63.9013C103.473 63.7382 103.524 63.5768 103.588 63.4171C103.653 63.2592 103.736 63.1136 103.834 62.9821C103.932 62.847 104.045 62.74 104.171 62.6593C104.297 62.5803 104.434 62.54 104.585 62.54C104.616 62.54 104.643 62.5435 104.662 62.547C104.685 62.5522 104.706 62.5593 104.725 62.568C104.734 62.5733 104.743 62.5803 104.753 62.5891C104.762 62.5944 104.771 62.6014 104.781 62.6101C104.79 62.6207 104.799 62.6312 104.809 62.6452C104.823 62.6558 104.837 62.6698 104.852 62.6873C104.897 62.6312 104.952 62.5873 105.013 62.554C105.073 62.5224 105.139 62.5049 105.209 62.5049C105.302 62.5049 105.394 62.5294 105.483 62.5751C105.576 62.6224 105.662 62.6873 105.743 62.7715C105.822 62.8522 105.89 62.94 105.946 63.0382C106.006 63.1329 106.053 63.2277 106.087 63.3259C106.123 63.4241 106.143 63.5154 106.143 63.5996C106.143 63.6978 106.13 63.8013 106.108 63.9083C106.083 64.0118 106.053 64.1153 106.016 64.2171C105.978 64.3206 105.936 64.4136 105.89 64.4978C105.96 64.475 106.053 64.4171 106.171 64.3224C106.227 64.2803 106.287 64.2311 106.353 64.175C106.423 64.1153 106.502 64.0452 106.592 63.9645C106.676 63.8855 106.771 63.7926 106.88 63.6838C106.992 63.5715 107.115 63.4487 107.251 63.3119L107.455 63.6206C107.38 63.8311 107.269 64.0259 107.125 64.2031C106.985 64.382 106.823 64.5399 106.641 64.6802C106.462 64.8206 106.278 64.9434 106.087 65.0451C106.073 65.0504 106.046 65.0644 106.009 65.0872C105.971 65.1065 105.929 65.1276 105.883 65.1504C105.836 65.1697 105.794 65.1855 105.757 65.1995C105.718 65.2136 105.69 65.2206 105.673 65.2206C105.611 65.3293 105.55 65.4346 105.49 65.5363C105.429 65.6434 105.366 65.7469 105.301 65.8451C105.104 66.1574 104.897 66.4644 104.683 66.7644C104.467 67.0626 104.23 67.3468 103.974 67.6135C103.894 67.7012 103.792 67.7749 103.666 67.831C103.539 67.8871 103.404 67.9152 103.259 67.9152C103.174 67.9152 103.08 67.9082 102.971 67.8942C102.859 67.8801 102.752 67.8521 102.648 67.8099C102.541 67.7714 102.455 67.7187 102.388 67.6486C102.318 67.5784 102.283 67.4907 102.283 67.3889C102.283 67.2293 102.308 67.0907 102.353 66.9749C102.395 66.8574 102.457 66.7503 102.536 66.6521C102.611 66.5574 102.697 66.4696 102.795 66.3854C102.894 66.3012 102.999 66.2188 103.111 66.1398L103.28 66.0135C103.313 65.9855 103.35 65.9574 103.392 65.9293C103.431 65.9048 103.474 65.8767 103.525 65.8451C103.627 65.7784 103.746 65.7065 103.883 65.6276C103.948 65.589 104.016 65.5504 104.087 65.5083C104.16 65.4627 104.241 65.4135 104.325 65.3609C104.399 65.3153 104.48 65.2679 104.564 65.2206C104.648 65.1697 104.734 65.1188 104.823 65.0662C104.734 65.1048 104.641 65.1364 104.543 65.1644C104.448 65.189 104.353 65.1995 104.255 65.1995C104.227 65.1995 104.187 65.189 104.136 65.1644ZM104.031 64.2241C104.031 64.2855 104.039 64.3539 104.059 64.4276C104.076 64.4978 104.104 64.5645 104.143 64.6241C104.18 64.6855 104.229 64.7329 104.29 64.7644C104.327 64.7925 104.36 64.8066 104.388 64.8066C104.487 64.8066 104.592 64.7855 104.704 64.7434C104.859 64.6978 104.995 64.6206 105.118 64.5118C105.239 64.3995 105.344 64.2732 105.434 64.1329C105.522 63.9925 105.592 63.8504 105.644 63.7048C105.611 63.5978 105.56 63.5013 105.49 63.4171C105.423 63.3329 105.344 63.2592 105.252 63.1926C105.162 63.1224 105.071 63.0628 104.978 63.0101C104.911 62.968 104.88 62.9329 104.88 62.9049C104.748 62.9435 104.629 63.0084 104.522 63.1014C104.418 63.1961 104.329 63.3049 104.255 63.4312C104.185 63.5575 104.129 63.689 104.087 63.8241C104.048 63.961 104.031 64.0943 104.031 64.2241ZM103.645 67.1503C103.662 67.131 103.687 67.103 103.715 67.0661C103.746 67.0328 103.781 66.9924 103.82 66.9468C103.862 66.8995 103.906 66.8486 103.953 66.7924C103.999 66.7363 104.048 66.6767 104.101 66.617C104.152 66.5503 104.202 66.4854 104.255 66.4205C104.306 66.3591 104.36 66.296 104.416 66.2311C104.43 66.2118 104.459 66.1749 104.501 66.1188C104.546 66.0662 104.599 66.003 104.655 65.9293C104.711 65.8539 104.767 65.782 104.823 65.7118C104.883 65.6451 104.93 65.5872 104.964 65.5363C105.001 65.4907 105.02 65.4644 105.02 65.4592C104.953 65.4872 104.867 65.5328 104.76 65.5995C104.657 65.6644 104.543 65.7399 104.416 65.8241C104.29 65.9118 104.16 66.0065 104.031 66.1047C103.899 66.203 103.773 66.303 103.652 66.4065C103.536 66.5082 103.431 66.6065 103.336 66.7012C103.238 66.7995 103.16 66.8872 103.104 66.9679C103.048 67.0521 103.02 67.124 103.02 67.1854V67.1994C103.025 67.2696 103.045 67.3187 103.076 67.3468C103.109 67.3749 103.152 67.3889 103.202 67.3889C103.283 67.3889 103.364 67.3626 103.448 67.3117C103.532 67.2591 103.597 67.2065 103.645 67.1503Z" fill="#575949"/>
<path d="M109.435 64.7086C109.312 64.8822 109.184 65.0419 109.049 65.1857C108.918 65.3261 108.77 65.4454 108.607 65.5436C108.442 65.6419 108.251 65.712 108.032 65.7541C107.999 65.7576 107.965 65.7611 107.934 65.7611C107.906 65.7647 107.872 65.7682 107.835 65.7682C107.614 65.7682 107.414 65.7138 107.232 65.6068C107.055 65.4998 106.899 65.3594 106.762 65.1857C106.767 65.0506 106.781 64.905 106.804 64.7507C106.893 64.1998 107.032 63.663 107.218 63.1437C107.409 62.6244 107.635 62.1227 107.899 61.635C108.16 61.149 108.446 60.6736 108.755 60.2105C108.951 59.9122 109.141 59.621 109.323 59.3403C109.379 59.3649 109.43 59.4 109.477 59.4456C109.528 59.493 109.57 59.5473 109.604 59.607C109.635 59.6684 109.653 59.7298 109.653 59.7894C109.507 60.0842 109.362 60.3771 109.218 60.6666C109.072 60.9526 108.925 61.2385 108.776 61.5227C108.481 62.0894 108.2 62.649 107.934 63.1998C108.004 63.1262 108.088 63.0648 108.186 63.0174C108.284 62.9665 108.386 62.9314 108.495 62.9121C108.602 62.8893 108.707 62.877 108.811 62.877C108.932 62.877 109.046 62.9051 109.155 62.9613C109.239 63.0034 109.325 63.0648 109.414 63.1437C109.502 63.2191 109.577 63.3051 109.639 63.4033C109.698 63.4981 109.732 63.5963 109.737 63.6981C109.751 63.7033 109.762 63.7051 109.772 63.7051C109.786 63.7051 109.797 63.7051 109.807 63.7051H109.877C110.021 63.7051 110.13 63.6981 110.2 63.684C110.218 63.6805 110.235 63.6753 110.249 63.67C110.267 63.6612 110.284 63.6542 110.298 63.6489C110.344 63.6314 110.39 63.6033 110.432 63.5647L110.474 63.5156C110.491 63.5016 110.509 63.4911 110.523 63.4805C110.537 63.4665 110.548 63.4595 110.558 63.4595C110.567 63.4595 110.579 63.463 110.593 63.4665C110.602 63.4718 110.609 63.4788 110.614 63.4875C110.623 63.4928 110.63 63.4998 110.635 63.5086C110.649 63.5279 110.66 63.5542 110.67 63.5858C110.679 63.6139 110.684 63.6489 110.684 63.691C110.684 63.7858 110.651 63.87 110.586 63.9437C110.525 64.0138 110.446 64.0752 110.348 64.1261C110.253 64.1735 110.155 64.2103 110.053 64.2384C109.955 64.263 109.867 64.2735 109.793 64.2735C109.779 64.2735 109.765 64.2735 109.751 64.2735C109.737 64.2735 109.723 64.2735 109.709 64.2735C109.709 64.2875 109.697 64.3156 109.674 64.3577C109.649 64.3963 109.621 64.4401 109.59 64.491C109.556 64.5384 109.527 64.5822 109.498 64.6243C109.47 64.6665 109.449 64.6945 109.435 64.7086ZM107.786 65.2278C107.902 65.2278 108.027 65.198 108.158 65.1366C108.293 65.077 108.425 64.9963 108.551 64.898C108.681 64.7998 108.798 64.6945 108.902 64.5822C109.004 64.4665 109.079 64.3542 109.127 64.2454C109.065 64.2454 108.981 64.2279 108.874 64.1893C108.748 64.1472 108.621 64.0893 108.495 64.0138C108.369 63.9402 108.251 63.8507 108.144 63.7472C108.035 63.6454 107.951 63.5349 107.892 63.4174C107.83 63.5156 107.772 63.6332 107.716 63.7682C107.663 63.8998 107.618 64.0402 107.576 64.1893C107.534 64.3401 107.5 64.484 107.477 64.6243C107.458 64.7647 107.449 64.8892 107.449 64.9963C107.449 65.0156 107.46 65.0384 107.484 65.0664C107.502 65.091 107.53 65.1138 107.569 65.1366C107.606 65.1612 107.646 65.1822 107.688 65.1998C107.73 65.2191 107.762 65.2278 107.786 65.2278ZM108.755 63.249C108.614 63.2542 108.49 63.2735 108.383 63.3051C108.383 63.3191 108.406 63.3437 108.453 63.3753C108.498 63.4086 108.56 63.4437 108.635 63.4805C108.709 63.5191 108.786 63.556 108.867 63.5928C108.946 63.6314 109.016 63.6612 109.077 63.684C109.142 63.7033 109.191 63.7121 109.225 63.7121C109.239 63.6525 109.239 63.5911 109.225 63.5297C109.211 63.47 109.191 63.4174 109.169 63.3753C109.149 63.3525 109.135 63.3384 109.127 63.3332C109.009 63.277 108.884 63.249 108.755 63.249Z" fill="#575949"/>
<path d="M112.86 63.3538L113.113 63.6064C113.066 63.7099 112.994 63.8309 112.896 63.9713C112.801 64.1081 112.689 64.252 112.559 64.4064C112.432 64.5572 112.296 64.7046 112.152 64.8484C112.006 64.9888 111.86 65.1204 111.717 65.2414C111.571 65.359 111.432 65.4519 111.303 65.5221C111.176 65.587 111.06 65.6203 110.959 65.6203C110.889 65.573 110.825 65.5291 110.769 65.487C110.713 65.4414 110.664 65.4011 110.622 65.3677C110.566 65.3221 110.51 65.2747 110.454 65.2274C110.397 65.1765 110.346 65.1221 110.299 65.066C110.276 65.0344 110.262 65.0063 110.257 64.9818C110.254 64.9677 110.25 64.9572 110.25 64.9467C110.25 64.9327 110.25 64.9186 110.25 64.9046C110.255 64.8958 110.257 64.887 110.257 64.8765C110.257 64.8625 110.257 64.8484 110.257 64.8344C110.254 64.7695 110.254 64.7046 110.257 64.6379C110.257 64.573 110.262 64.5028 110.271 64.4274C110.285 64.3116 110.31 64.18 110.341 64.0344C110.369 63.8853 110.408 63.7327 110.454 63.5783C110.496 63.4239 110.545 63.2748 110.601 63.1292C110.657 62.9801 110.717 62.845 110.783 62.7222C110.853 62.6012 110.925 62.5012 111.001 62.4205C111.032 62.3889 111.073 62.3643 111.12 62.3503C111.143 62.3468 111.164 62.3433 111.183 62.3433C111.206 62.3398 111.229 62.3363 111.253 62.3363C111.296 62.3363 111.334 62.3468 111.373 62.3643C111.41 62.3924 111.443 62.424 111.471 62.4555C111.494 62.4941 111.515 62.531 111.534 62.5678C111.552 62.6064 111.566 62.6485 111.576 62.6941C111.538 62.7783 111.499 62.8626 111.457 62.9468C111.415 63.0275 111.373 63.1046 111.331 63.1783C111.241 63.3327 111.159 63.4906 111.085 63.6485C111.01 63.8081 110.948 63.9695 110.903 64.1327C110.855 64.2923 110.832 64.4625 110.832 64.6449C110.832 64.673 110.832 64.7151 110.832 64.7713C110.836 64.8239 110.848 64.8695 110.868 64.9116C110.885 64.9537 110.918 64.9748 110.966 64.9748C110.997 64.9748 111.038 64.9642 111.085 64.9397C111.131 64.9169 111.18 64.8888 111.232 64.8555C111.283 64.8186 111.331 64.7835 111.373 64.7502C111.418 64.7134 111.453 64.6853 111.478 64.666C111.669 64.5116 111.857 64.3485 112.039 64.1748C112.222 64.0029 112.399 63.8274 112.573 63.6485C112.629 63.5924 112.68 63.5415 112.727 63.4941C112.773 63.4432 112.818 63.3959 112.86 63.3538ZM111.331 61.6907C111.331 61.6029 111.345 61.5135 111.373 61.424C111.401 61.3363 111.453 61.2661 111.534 61.2135C111.58 61.1854 111.634 61.1714 111.696 61.1714C111.794 61.1714 111.88 61.203 111.955 61.2626C112.034 61.324 112.097 61.3994 112.145 61.4872C112.19 61.5714 112.215 61.6591 112.215 61.7468C112.215 61.8503 112.182 61.9257 112.117 61.9714C112.05 62.0135 111.971 62.0345 111.878 62.0345C111.808 62.0345 111.745 62.024 111.689 61.9994C111.613 61.9819 111.543 61.9433 111.478 61.8871C111.417 61.8275 111.368 61.7608 111.331 61.6907Z" fill="#575949"/>
<path d="M114.467 64.9049C114.484 64.9242 114.509 64.94 114.537 64.954C114.565 64.9681 114.593 64.9751 114.621 64.9751C114.7 64.9751 114.786 64.9523 114.881 64.9049C114.974 64.8593 115.072 64.7997 115.176 64.7295C115.277 64.6558 115.376 64.5786 115.47 64.4979C115.569 64.4137 115.656 64.3348 115.737 64.2593C115.816 64.1856 115.879 64.1225 115.926 64.0699L116.642 63.3541C116.693 63.3822 116.737 63.4155 116.776 63.4523C116.812 63.4857 116.832 63.5348 116.832 63.5997C116.832 63.6751 116.811 63.7523 116.769 63.8313C116.73 63.912 116.684 63.9892 116.628 64.0628C116.576 64.1383 116.526 64.2014 116.481 64.2523C116.383 64.3699 116.277 64.4821 116.165 64.5891C116.056 64.6979 115.944 64.8032 115.828 64.9049C115.716 65.0084 115.584 65.1049 115.435 65.1926C115.284 65.2821 115.128 65.3523 114.965 65.4031C114.8 65.4558 114.642 65.4803 114.488 65.4803C114.413 65.4803 114.335 65.4523 114.256 65.3961C114.181 65.34 114.132 65.2751 114.109 65.1996C114.011 65.2891 113.898 65.354 113.772 65.3961C113.649 65.4382 113.523 65.4593 113.393 65.4593C113.346 65.4593 113.29 65.4505 113.225 65.4312C113.158 65.4137 113.092 65.3874 113.021 65.354C112.955 65.3172 112.897 65.2768 112.846 65.2347C112.793 65.1926 112.758 65.1505 112.741 65.1084L111.513 67.9083L110.986 67.6206C111.169 67.1715 111.356 66.7259 111.548 66.2873C111.834 65.6224 112.116 64.9593 112.397 64.2944C112.674 63.6313 112.925 62.9541 113.155 62.2664C113.158 62.2489 113.165 62.2313 113.176 62.2173C113.184 62.1998 113.193 62.1857 113.204 62.1752C113.235 62.1331 113.277 62.105 113.33 62.091C113.386 62.077 113.439 62.0699 113.491 62.0699C113.509 62.0699 113.534 62.077 113.562 62.091C113.604 62.1191 113.641 62.1524 113.674 62.1892C113.677 62.1998 113.683 62.2103 113.688 62.2243C113.691 62.2348 113.697 62.2419 113.702 62.2454C113.748 62.2138 113.8 62.1857 113.856 62.1612C113.916 62.1331 113.972 62.1103 114.025 62.091C114.056 62.0822 114.088 62.0734 114.116 62.0629C114.144 62.0541 114.169 62.0471 114.193 62.0419C114.216 62.0384 114.235 62.0348 114.249 62.0348C114.267 62.0313 114.281 62.0278 114.291 62.0278C114.46 62.0278 114.607 62.0699 114.734 62.1541C114.86 62.2384 114.962 62.3489 115.042 62.484C115.127 62.6155 115.19 62.7611 115.232 62.919C115.274 63.0734 115.295 63.2243 115.295 63.3681C115.295 63.5085 115.274 63.6541 115.232 63.8032C115.19 63.9488 115.128 64.0909 115.049 64.2313C114.974 64.3681 114.884 64.4944 114.783 64.6102C114.684 64.7277 114.579 64.826 114.467 64.9049ZM113.386 64.7646C113.535 64.7646 113.674 64.7365 113.8 64.6804C113.93 64.6207 114.048 64.54 114.151 64.4418C114.258 64.34 114.349 64.2242 114.425 64.0979C114.504 63.9716 114.562 63.8383 114.6 63.6979C114.642 63.5576 114.663 63.4173 114.663 63.2769C114.663 63.1892 114.646 63.098 114.614 63.0032C114.586 62.905 114.537 62.826 114.467 62.7646C114.4 62.6997 114.314 62.6664 114.207 62.6664C114.127 62.6664 114.042 62.6734 113.955 62.6875C113.893 62.7015 113.835 62.719 113.779 62.7366C113.727 62.7559 113.674 62.7769 113.618 62.7997L112.93 64.526C112.986 64.5786 113.056 64.6312 113.141 64.6874C113.225 64.74 113.306 64.7646 113.386 64.7646Z" fill="#575949"/>
<path d="M56.3262 58.6022V57.7952C56.3262 57.6882 56.3788 57.6338 56.4876 57.6338H60.9365C61.0488 57.6338 61.1049 57.6882 61.1049 57.7952V58.6022C61.1049 58.7145 61.0488 58.7706 60.9365 58.7706H59.3085V63.7529C59.3085 63.8651 59.2541 63.9213 59.1471 63.9213H58.2349C58.1261 63.9213 58.0735 63.8651 58.0735 63.7529V58.7706H56.4876C56.3788 58.7706 56.3262 58.7145 56.3262 58.6022Z" fill="#575949"/>
<path d="M66.1211 63.7529V57.8092C66.1211 57.7636 66.1316 57.7233 66.1562 57.6899C66.1842 57.6531 66.2264 57.6338 66.2825 57.6338H68.9771C69.3648 57.6338 69.7087 57.732 70.0087 57.9285C70.3069 58.125 70.542 58.3829 70.7104 58.7004C70.8788 59.0144 70.963 59.3495 70.963 59.7039C70.963 60.06 70.8648 60.3951 70.6683 60.7074C70.4718 61.0214 70.2139 61.2723 69.8964 61.4582L71.0472 63.7458C71.07 63.7844 71.0718 63.823 71.0542 63.8651C71.0349 63.9037 70.9981 63.9213 70.942 63.9213H69.8473C69.7631 63.9213 69.6964 63.8722 69.6508 63.7739L68.6403 61.7459H67.3561V63.7529C67.3561 63.8651 67.3 63.9213 67.1877 63.9213H66.2825C66.1737 63.9213 66.1211 63.8651 66.1211 63.7529ZM68.6754 58.7285H67.3561V60.6232H68.6754C68.9701 60.6232 69.2122 60.5354 69.4052 60.3565C69.6017 60.1793 69.6999 59.953 69.6999 59.6758C69.6999 59.4144 69.6017 59.1916 69.4052 59.0092C69.2122 58.8232 68.9701 58.7285 68.6754 58.7285Z" fill="#575949"/>
<path d="M75.9102 63.7529V57.8092C75.9102 57.6934 75.9628 57.6338 76.0716 57.6338H80.2117C80.324 57.6338 80.3802 57.6934 80.3802 57.8092V58.6302C80.3802 58.7425 80.324 58.7987 80.2117 58.7987H77.1452V60.0758H79.482C79.6083 60.0758 79.6714 60.1319 79.6714 60.2442V61.0512C79.6714 61.1635 79.6083 61.2196 79.482 61.2196H77.1452V62.7704H80.2889C80.4047 62.7704 80.4644 62.8266 80.4644 62.9389V63.7529C80.4644 63.8651 80.4047 63.9213 80.2889 63.9213H76.0716C75.9628 63.9213 75.9102 63.8651 75.9102 63.7529Z" fill="#575949"/>
<path d="M84.9434 58.6022V57.7952C84.9434 57.6882 84.996 57.6338 85.1048 57.6338H89.5537C89.666 57.6338 89.7221 57.6882 89.7221 57.7952V58.6022C89.7221 58.7145 89.666 58.7706 89.5537 58.7706H87.9257V63.7529C87.9257 63.8651 87.8713 63.9213 87.7643 63.9213H86.8521C86.7433 63.9213 86.6907 63.8651 86.6907 63.7529V58.7706H85.1048C84.996 58.7706 84.9434 58.7145 84.9434 58.6022Z" fill="#575949"/>
<path d="M94.7363 63.7529V57.8162C94.7363 57.6952 94.7925 57.6338 94.9047 57.6338H95.817C95.924 57.6338 95.9784 57.6952 95.9784 57.8162V63.7529C95.9784 63.8651 95.924 63.9213 95.817 63.9213H94.9047C94.7925 63.9213 94.7363 63.8651 94.7363 63.7529Z" fill="#575949"/>
<path d="M97.8984 63.3459C97.8984 63.1547 97.9633 62.9933 98.0949 62.8617C98.23 62.7266 98.3914 62.6582 98.5791 62.6582C98.7756 62.6582 98.9387 62.7266 99.0703 62.8617C99.2001 62.9933 99.2668 63.1547 99.2668 63.3459C99.2668 63.5336 99.2001 63.695 99.0703 63.8301C98.9387 63.9652 98.7756 64.0336 98.5791 64.0336C98.3914 64.0336 98.23 63.9652 98.0949 63.8301C97.9633 63.695 97.8984 63.5336 97.8984 63.3459Z" fill="#575949"/>
</svg>
