<svg width="180" height="107" viewBox="0 0 180 107" fill="none" xmlns="http://www.w3.org/2000/svg">
<rect x="0.573147" y="0.573147" width="178.004" height="105.644" rx="1.71944" stroke="#E1E1E1" stroke-width="1.14629"/>
<path fill-rule="evenodd" clip-rule="evenodd" d="M51.7915 51.3068C51.7609 51.1433 51.6361 51.0152 51.4737 50.9803L50.8093 50.838L49.0929 50.4703C49.0225 50.4553 48.9948 50.3698 49.0427 50.3161L50.2162 49.0055L50.6626 48.5069C50.7744 48.3821 50.7998 48.2038 50.7275 48.0527C50.2601 47.0775 49.6718 46.1602 48.9789 45.3262C48.2902 44.4972 47.5009 43.754 46.6333 43.1176C45.7571 42.4746 44.8041 41.9431 43.8009 41.5374C42.7732 41.1219 41.6937 40.8391 40.5924 40.6972C40.5751 40.6948 40.5576 40.6938 40.5401 40.6938C40.3941 40.6938 40.2578 40.7728 40.1846 40.8998L39.8649 41.4548L38.9879 42.9772C38.9519 43.0397 38.8618 43.0397 38.8257 42.9772L37.9458 41.4546L37.6263 40.8998C37.5531 40.773 37.4168 40.694 37.2708 40.694C37.2535 40.694 37.2358 40.6952 37.2185 40.6973C36.1172 40.8393 35.0377 41.1221 34.01 41.5376C33.0068 41.9431 32.0538 42.4748 31.1776 43.1177C30.31 43.7543 29.5207 44.4974 28.832 45.3264C28.1394 46.16 27.5513 47.077 27.0839 48.0517C27.0115 48.2026 27.0366 48.3823 27.1481 48.5071L27.5946 49.0057L28.7681 50.3163C28.8161 50.3698 28.7882 50.4554 28.7178 50.4705L27.0015 50.8382L26.337 50.9805C26.175 51.0152 26.0498 51.144 26.0192 51.3068C25.8691 52.1087 25.793 52.932 25.793 53.7543C25.793 54.6735 25.8879 55.5916 26.0751 56.4829C26.2574 57.3512 26.5293 58.204 26.8829 59.0173C27.2302 59.8159 27.6595 60.5836 28.1589 61.2994C28.6521 62.0063 29.2175 62.6675 29.839 63.265C29.9164 63.3393 30.0188 63.3845 30.1262 63.3851C30.185 63.3855 30.242 63.3736 30.2956 63.3496L30.9553 63.0552L32.5587 62.34C32.6245 62.3105 32.6975 62.3636 32.69 62.4351L32.508 64.1875L32.432 64.9185C32.4149 65.0846 32.4979 65.2436 32.6438 65.3233C33.5847 65.8378 34.5868 66.2344 35.6222 66.5025C36.689 66.7786 37.7936 66.9188 38.9054 66.9188C40.0173 66.9188 41.1221 66.7788 42.1887 66.5025C43.2241 66.2344 44.2262 65.8376 45.167 65.3233C45.3128 65.2436 45.3959 65.0846 45.3787 64.9185L45.3027 64.1875L45.1207 62.4351C45.1133 62.3634 45.1861 62.3105 45.252 62.34L46.8554 63.0552L47.5118 63.3479C47.5453 63.363 47.5805 63.3742 47.6168 63.38C47.7463 63.4002 47.8731 63.3595 47.9653 63.2713C48.5895 62.6721 49.157 62.0086 49.652 61.2994C50.1514 60.5838 50.5807 59.8159 50.928 59.0173C51.2818 58.204 51.5535 57.3512 51.7358 56.4829C51.923 55.5914 52.0179 54.6733 52.0179 53.7543C52.0179 52.932 51.9418 52.1087 51.7916 51.3068H51.7915ZM38.7941 49.6633V46.0356L38.7836 46.0175V46.0161L36.5625 42.1733H36.5623C35.1487 42.4584 33.8267 42.9967 32.6456 43.7388L34.6958 47.2944C35.539 48.7567 37.0962 49.6589 38.7828 49.6631V49.6633H38.7941ZM39.0132 49.6635V46.0358L39.024 46.0173V46.0161L41.2451 42.1733H41.2453C42.6589 42.4584 43.9809 42.9967 45.1619 43.7388L43.1118 47.2944C42.2685 48.7568 40.7111 49.659 39.0244 49.6631V49.6635H39.0132ZM35.0339 52.557L31.5858 51.4359L31.564 51.4406L35.0303 52.5675L35.0338 52.557H35.0339ZM35.1013 52.349L31.6532 51.228L31.6383 51.2115L35.1046 52.3385L35.1013 52.349ZM27.2258 52.367C27.06 53.8004 27.163 55.2248 27.5033 56.5782L31.5163 55.7259C33.1669 55.3754 34.5057 54.1719 35.0308 52.5678L31.5645 51.4408L27.2258 52.3671V52.367ZM28.6736 47.9102L28.6736 47.9101V47.9103L28.6736 47.9102ZM31.6394 51.2114L28.6736 47.9102C29.3814 46.653 30.3015 45.5613 31.3717 44.6665L34.1175 47.7163C35.2471 48.9707 35.6231 50.7318 35.1057 52.3384L31.6394 51.2114ZM36.6222 57.0304L34.4913 59.9654L34.4893 59.9843L34.4874 59.9869L34.0271 64.4021C35.3382 65.0029 36.7239 65.345 38.1154 65.4394L38.5453 61.357C38.7222 59.6784 37.9925 58.0328 36.6311 57.0373L36.6313 57.037L36.6224 57.0304H36.6222ZM36.4455 56.9009L34.3146 59.836H34.3144L34.2941 59.8451L36.4364 56.8945L36.4455 56.9009ZM34.2933 59.8456L30.2392 61.6481C29.2631 60.5859 28.5096 59.373 27.99 58.0779L31.7373 56.4072C33.2786 55.72 35.0686 55.9061 36.4357 56.895L34.2933 59.8456ZM41.3638 56.9012L43.4947 59.8363L43.5151 59.8454L41.3727 56.8948L41.3636 56.9012H41.3638ZM41.1874 57.0302L43.3183 59.9652H43.3185L43.3208 59.9874L41.1785 57.0368L41.1874 57.0302ZM47.5698 61.6481C48.5459 60.5859 49.2992 59.373 49.819 58.0779L46.0717 56.4072C44.5304 55.72 42.7404 55.9062 41.3733 56.895L43.5157 59.8456L47.5698 61.6481ZM43.3205 59.9872L43.7808 64.4024C42.4696 65.0032 41.084 65.3453 39.6925 65.4397L39.2626 61.3573C39.0857 59.678 39.8157 58.0321 41.1781 57.0366L43.3205 59.9872ZM42.7073 52.3487L46.1554 51.2277L46.1702 51.2112L46.1714 51.2109L49.1371 47.9096L49.1372 47.9097V47.9096L49.1371 47.9096C48.4293 46.6524 47.5093 45.5607 46.4391 44.6659L43.6932 47.7157C42.5639 48.9701 42.1876 50.7312 42.7051 52.3378L42.704 52.3381L42.7073 52.3487ZM42.7761 52.5566L46.2242 51.4356L46.2459 51.4402L42.7796 52.5672L42.7761 52.5566ZM46.2242 51.4356L46.2242 51.4356H46.2241L46.2242 51.4356ZM46.2467 51.4402L50.5854 52.3665V52.3664C50.7512 53.7999 50.6481 55.2242 50.3079 56.5776L46.2949 55.7253C44.6443 55.3748 43.3055 54.1713 42.7804 52.5672L46.2467 51.4402Z" fill="#2F2F2F"/>
<path d="M145.972 49.0217L144.446 51.9654H139.63L143.555 44.4971H145.972V49.0217ZM138.686 53.7643L139.449 52.3288H152.84L153.603 53.7643V57.2168H150.496L149.733 55.6904H142.556L141.793 57.2168H138.686V53.7643ZM146.335 44.4971H148.734L152.659 51.9654H147.862L146.335 49.0217V44.4971Z" fill="#2F2F2F"/>
<path d="M127.694 52.0744V57.2168H125.005L122.37 47.9496H117.791V44.4971H125.55L127.694 52.0744ZM117.791 48.313H122.152V57.2168H117.791V48.313ZM128.057 52.0744L130.201 44.4971H137.96V47.9496H133.381L130.747 57.2168H128.057V52.0744ZM133.599 48.313H137.96V57.2168H133.599V48.313Z" fill="#2F2F2F"/>
<path d="M109.437 49.0217L107.91 51.9654H103.095L107.02 44.4971H109.437V49.0217ZM102.15 53.7643L102.914 52.3288H116.305L117.068 53.7643V57.2168H113.961L113.198 55.6904H106.021L105.258 57.2168H102.15V53.7643ZM109.8 44.4971H112.199L116.123 51.9654H111.326L109.8 49.0217V44.4971Z" fill="#2F2F2F"/>
<path d="M87.4473 47.9496V46.4051C88.0772 45.8721 88.8948 45.3936 89.9003 44.9696C90.9178 44.5335 92.0868 44.3154 93.4072 44.3154H94.2975V47.35H93.4072C92.6561 47.35 92.1231 47.5499 91.8082 47.9496H87.4473ZM87.4473 53.2556H91.6265C91.7113 53.5827 91.9293 53.8492 92.2806 54.0551C92.6319 54.2611 93.1528 54.364 93.8433 54.364H94.2975V57.3986H93.4799C92.2927 57.3986 91.1601 57.1987 90.082 56.799C89.0039 56.3992 88.1256 55.9025 87.4473 55.3089V53.2556ZM87.4473 48.3131H91.8082V48.6947C92.1474 48.9733 92.6501 49.1126 93.3163 49.1126H95.4604C97.1442 49.1126 98.4404 49.2822 99.3489 49.6214C100.257 49.9485 100.948 50.433 101.42 51.0751V53.401H97.0594V52.983C96.6839 52.7286 96.1812 52.6014 95.5513 52.6014H93.4072C91.7234 52.6014 90.4272 52.4379 89.5187 52.1108C88.6102 51.7716 87.9197 51.281 87.4473 50.639V48.3131ZM94.6609 54.364H95.5513C96.266 54.364 96.7687 54.1642 97.0594 53.7644H101.42V55.3089C100.863 55.8419 100.07 56.3265 99.04 56.7626C98.0104 57.1866 96.8172 57.3986 95.4604 57.3986H94.6609V54.364ZM94.6609 44.3154H95.3878C96.5749 44.3154 97.7075 44.5153 98.7856 44.9151C99.8637 45.3148 100.742 45.8115 101.42 46.4051V48.4584H97.2411C97.1563 48.1435 96.9444 47.883 96.6052 47.6771C96.2781 47.459 95.8117 47.35 95.2061 47.35H94.6609V44.3154Z" fill="#2F2F2F"/>
<path d="M71.5938 44.4971H75.9547V57.2168H71.5938V44.4971ZM76.3181 53.7643H84.0405V57.2168H76.3181V53.7643ZM76.3181 49.1125H82.3143V52.565H76.3181V49.1125ZM76.3181 44.4971H84.0405V47.9496H76.3181V44.4971Z" fill="#2F2F2F"/>
<path d="M66.1442 53.7643V57.2168H63.0371L60.5477 47.9496H55.9688V44.4971H63.6549L66.1442 53.7643ZM55.9688 48.313H60.3297V57.2168H55.9688V48.313ZM66.5076 44.4971H70.8685V57.2168H66.5076V44.4971Z" fill="#2F2F2F"/>
<path d="M151.753 63.1176V60.5038H150.615V59.9189H153.594V60.5038H152.457V63.1176H151.753Z" fill="#2F2F2F"/>
<path d="M150.366 61.8563C150.333 62.2767 150.185 62.6042 149.923 62.8388C149.661 63.0733 149.297 63.1906 148.831 63.1906H148.698C148.357 63.1906 148.062 63.1251 147.812 62.9941C147.562 62.8631 147.37 62.6788 147.236 62.4412C147.102 62.2006 147.035 61.9188 147.035 61.5958V61.4405C147.035 61.1176 147.101 60.8373 147.232 60.5997C147.366 60.359 147.558 60.1732 147.807 60.0422C148.057 59.9112 148.351 59.8457 148.689 59.8457H148.822C149.273 59.8457 149.626 59.9569 149.882 60.1793C150.138 60.3986 150.287 60.7048 150.33 61.0978H149.58C149.562 60.8632 149.49 60.6911 149.366 60.5814C149.241 60.4717 149.052 60.4169 148.799 60.4169H148.694C148.383 60.4169 148.153 60.4976 148.004 60.6591C147.858 60.8175 147.785 61.0749 147.785 61.4313V61.605C147.785 61.9614 147.859 62.2204 148.008 62.3818C148.158 62.5402 148.391 62.6194 148.708 62.6194H148.813C149.081 62.6194 149.277 62.56 149.402 62.4412C149.53 62.3194 149.602 62.1244 149.617 61.8563H150.366Z" fill="#2F2F2F"/>
<path d="M144.014 59.9189H146.705V60.4993H144.722V61.0979H146.271V61.6508H144.722V62.5373H146.751V63.1176H144.014V59.9189Z" fill="#2F2F2F"/>
<path d="M142.185 63.1908C141.819 63.1908 141.537 63.1039 141.339 62.9303C141.144 62.7566 141.047 62.5221 141.047 62.2266V61.4726H141.755V62.222C141.755 62.3591 141.789 62.4611 141.856 62.5282C141.923 62.5921 142.032 62.6241 142.185 62.6241H142.276C142.425 62.6241 142.535 62.5921 142.605 62.5282C142.675 62.4611 142.71 62.3591 142.71 62.222V59.9189H143.418V62.2266C143.418 62.5221 143.319 62.7566 143.121 62.9303C142.926 63.1039 142.646 63.1908 142.281 63.1908H142.185Z" fill="#2F2F2F"/>
<path d="M138.757 63.1906C138.416 63.1906 138.12 63.1251 137.871 62.9941C137.621 62.8631 137.429 62.6788 137.295 62.4412C137.161 62.2006 137.094 61.9188 137.094 61.5958V61.4405C137.094 61.1176 137.161 60.8373 137.295 60.5997C137.429 60.359 137.621 60.1732 137.871 60.0422C138.12 59.9112 138.416 59.8457 138.757 59.8457H138.89C139.234 59.8457 139.531 59.9112 139.781 60.0422C140.03 60.1732 140.221 60.359 140.352 60.5997C140.486 60.8373 140.553 61.1176 140.553 61.4405V61.5958C140.553 61.9188 140.486 62.2006 140.352 62.4412C140.221 62.6788 140.03 62.8631 139.781 62.9941C139.531 63.1251 139.234 63.1906 138.89 63.1906H138.757ZM137.843 61.605C137.843 61.9645 137.918 62.2249 138.067 62.3864C138.216 62.5448 138.449 62.624 138.766 62.624H138.88C139.197 62.624 139.43 62.5448 139.58 62.3864C139.729 62.2249 139.803 61.9645 139.803 61.605V61.4313C139.803 61.0719 139.729 60.8129 139.58 60.6545C139.43 60.4931 139.197 60.4123 138.88 60.4123H138.766C138.449 60.4123 138.216 60.4931 138.067 60.6545C137.918 60.8129 137.843 61.0719 137.843 61.4313V61.605Z" fill="#2F2F2F"/>
<path d="M133.604 59.9189H135.71C136.002 59.9189 136.235 60.0042 136.409 60.1748C136.583 60.3424 136.67 60.5648 136.67 60.842V60.8694C136.67 61.1436 136.586 61.3645 136.418 61.532C136.251 61.6996 136.025 61.7864 135.742 61.7925V61.8473L136.775 63.1176H135.952L134.929 61.7925H134.312V63.1176H133.604V59.9189ZM135.632 61.2487C135.849 61.2487 135.957 61.1223 135.957 60.8694V60.842C135.957 60.5952 135.849 60.4719 135.632 60.4719H134.312V61.2487H135.632Z" fill="#2F2F2F"/>
<path d="M130.059 59.9189H132.142C132.441 59.9189 132.677 60.0042 132.85 60.1748C133.027 60.3454 133.116 60.5724 133.116 60.8557V60.8877C133.116 61.168 133.027 61.3934 132.85 61.564C132.677 61.7346 132.441 61.8199 132.142 61.8199H130.767V63.1176H130.059V59.9189ZM132.078 61.2761C132.298 61.2761 132.407 61.1482 132.407 60.8923V60.8557C132.407 60.6029 132.298 60.4764 132.078 60.4764H130.767V61.2761H132.078Z" fill="#2F2F2F"/>
<path d="M126.48 63.1176V60.5038H125.342V59.9189H128.321V60.5038H127.183V63.1176H126.48Z" fill="#2F2F2F"/>
<path d="M121.896 59.9189H124.003C124.295 59.9189 124.528 60.0042 124.702 60.1748C124.876 60.3424 124.963 60.5648 124.963 60.842V60.8694C124.963 61.1436 124.879 61.3645 124.711 61.532C124.544 61.6996 124.318 61.7864 124.035 61.7925V61.8473L125.068 63.1176H124.245L123.222 61.7925H122.605V63.1176H121.896V59.9189ZM123.925 61.2487C124.142 61.2487 124.25 61.1223 124.25 60.8694V60.842C124.25 60.5952 124.142 60.4719 123.925 60.4719H122.605V61.2487H123.925Z" fill="#2F2F2F"/>
<path d="M119.575 63.1906C119.234 63.1906 118.939 63.1251 118.689 62.9941C118.439 62.8631 118.247 62.6788 118.113 62.4412C117.979 62.2006 117.912 61.9188 117.912 61.5958V61.4405C117.912 61.1176 117.979 60.8373 118.113 60.5997C118.247 60.359 118.439 60.1732 118.689 60.0422C118.939 59.9112 119.234 59.8457 119.575 59.8457H119.708C120.052 59.8457 120.349 59.9112 120.599 60.0422C120.849 60.1732 121.039 60.359 121.17 60.5997C121.304 60.8373 121.371 61.1176 121.371 61.4405V61.5958C121.371 61.9188 121.304 62.2006 121.17 62.4412C121.039 62.6788 120.849 62.8631 120.599 62.9941C120.349 63.1251 120.052 63.1906 119.708 63.1906H119.575ZM118.661 61.605C118.661 61.9645 118.736 62.2249 118.885 62.3864C119.035 62.5448 119.268 62.624 119.585 62.624H119.699C120.016 62.624 120.249 62.5448 120.398 62.3864C120.547 62.2249 120.622 61.9645 120.622 61.605V61.4313C120.622 61.0719 120.547 60.8129 120.398 60.6545C120.249 60.4931 120.016 60.4123 119.699 60.4123H119.585C119.268 60.4123 119.035 60.4931 118.885 60.6545C118.736 60.8129 118.661 61.0719 118.661 61.4313V61.605Z" fill="#2F2F2F"/>
<path d="M114.436 59.9189H116.519C116.818 59.9189 117.054 60.0042 117.227 60.1748C117.404 60.3454 117.492 60.5724 117.492 60.8557V60.8877C117.492 61.168 117.404 61.3934 117.227 61.564C117.054 61.7346 116.818 61.8199 116.519 61.8199H115.144V63.1176H114.436V59.9189ZM116.455 61.2761C116.675 61.2761 116.784 61.1482 116.784 60.8923V60.8557C116.784 60.6029 116.675 60.4764 116.455 60.4764H115.144V61.2761H116.455Z" fill="#2F2F2F"/>
<path d="M110.889 59.9189H112.972C113.271 59.9189 113.507 60.0042 113.681 60.1748C113.857 60.3454 113.946 60.5724 113.946 60.8557V60.8877C113.946 61.168 113.857 61.3934 113.681 61.564C113.507 61.7346 113.271 61.8199 112.972 61.8199H111.597V63.1176H110.889V59.9189ZM112.908 61.2761C113.128 61.2761 113.237 61.1482 113.237 60.8923V60.8557C113.237 60.6029 113.128 60.4764 112.908 60.4764H111.597V61.2761H112.908Z" fill="#2F2F2F"/>
<path d="M108.671 63.1908C108.223 63.1908 107.88 63.0872 107.643 62.88C107.408 62.6698 107.291 62.385 107.291 62.0255V59.9189H107.999V62.0484C107.999 62.2525 108.048 62.4002 108.145 62.4916C108.246 62.58 108.415 62.6241 108.653 62.6241H108.936C109.174 62.6241 109.341 62.58 109.439 62.4916C109.539 62.4002 109.589 62.2525 109.589 62.0484V59.9189H110.298V62.0255C110.298 62.385 110.179 62.6698 109.941 62.88C109.704 63.0872 109.362 63.1908 108.918 63.1908H108.671Z" fill="#2F2F2F"/>
<path d="M103.703 60.8647C103.703 60.6697 103.755 60.4961 103.859 60.3438C103.965 60.1884 104.125 60.0666 104.338 59.9782C104.555 59.8899 104.82 59.8457 105.133 59.8457H105.252C105.706 59.8457 106.046 59.9356 106.271 60.1153C106.5 60.295 106.629 60.5464 106.66 60.8693H105.938C105.932 60.7048 105.88 60.586 105.782 60.5129C105.688 60.4367 105.525 60.3986 105.293 60.3986H105.051C104.823 60.3986 104.66 60.4337 104.562 60.5037C104.468 60.5738 104.421 60.6758 104.421 60.8099V60.851C104.421 60.9515 104.445 61.0262 104.494 61.0749C104.545 61.1237 104.626 61.1526 104.736 61.1617L105.81 61.2394C106.13 61.2638 106.372 61.3521 106.536 61.5045C106.701 61.6568 106.783 61.8594 106.783 62.1122V62.1579C106.783 62.4656 106.66 62.7154 106.413 62.9073C106.169 63.0962 105.801 63.1906 105.307 63.1906H105.175C104.681 63.1906 104.317 63.0992 104.082 62.9164C103.848 62.7306 103.712 62.4595 103.676 62.1031H104.402C104.411 62.295 104.466 62.4321 104.567 62.5143C104.67 62.5966 104.849 62.6377 105.101 62.6377H105.403C105.647 62.6377 105.817 62.6027 105.915 62.5326C106.015 62.4595 106.066 62.3529 106.066 62.2127V62.1716C106.066 62.068 106.04 61.9904 105.988 61.9386C105.936 61.8868 105.855 61.8563 105.746 61.8472L104.676 61.7649C104.357 61.7405 104.114 61.6537 103.95 61.5045C103.785 61.3552 103.703 61.1572 103.703 60.9104V60.8647Z" fill="#2F2F2F"/>
<path d="M98.9219 60.8647C98.9219 60.6697 98.9737 60.4961 99.0773 60.3438C99.1839 60.1884 99.3439 60.0666 99.5571 59.9782C99.7734 59.8899 100.038 59.8457 100.352 59.8457H100.471C100.925 59.8457 101.265 59.9356 101.49 60.1153C101.718 60.295 101.848 60.5464 101.878 60.8693H101.156C101.15 60.7048 101.099 60.586 101.001 60.5129C100.907 60.4367 100.744 60.3986 100.512 60.3986H100.27C100.041 60.3986 99.8785 60.4337 99.781 60.5037C99.6866 60.5738 99.6393 60.6758 99.6393 60.8099V60.851C99.6393 60.9515 99.6637 61.0262 99.7125 61.0749C99.7642 61.1237 99.845 61.1526 99.9546 61.1617L101.028 61.2394C101.348 61.2638 101.59 61.3521 101.755 61.5045C101.919 61.6568 102.002 61.8594 102.002 62.1122V62.1579C102.002 62.4656 101.878 62.7154 101.632 62.9073C101.388 63.0962 101.019 63.1906 100.526 63.1906H100.393C99.8998 63.1906 99.5358 63.0992 99.3012 62.9164C99.0666 62.7306 98.9311 62.4595 98.8945 62.1031H99.6211C99.6302 62.295 99.685 62.4321 99.7856 62.5143C99.8891 62.5966 100.067 62.6377 100.32 62.6377H100.622C100.865 62.6377 101.036 62.6027 101.134 62.5326C101.234 62.4595 101.284 62.3529 101.284 62.2127V62.1716C101.284 62.068 101.258 61.9904 101.207 61.9386C101.155 61.8868 101.074 61.8563 100.964 61.8472L99.8952 61.7649C99.5754 61.7405 99.3332 61.6537 99.1687 61.5045C99.0042 61.3552 98.9219 61.1572 98.9219 60.9104V60.8647Z" fill="#2F2F2F"/>
<path d="M95.8105 59.9189H98.5019V60.4993H96.5188V61.0979H98.0678V61.6508H96.5188V62.5373H98.5476V63.1176H95.8105V59.9189Z" fill="#2F2F2F"/>
<path d="M95.4091 59.9189L94.1297 63.1176H93.1427L91.8633 59.9189H92.6172L93.6042 62.5327H93.6728L94.6598 59.9189H95.4091Z" fill="#2F2F2F"/>
<path d="M90.7598 63.1176V59.9189H91.468V63.1176H90.7598Z" fill="#2F2F2F"/>
<path d="M86.6474 62.5327H86.7159L87.3008 59.9189H88.3655L88.9549 62.5327H89.0235L89.6038 59.9189H90.3303L89.5398 63.1176H88.4568L87.8674 60.5038H87.7988L87.2094 63.1176H86.1219L85.3359 59.9189H86.0579L86.6474 62.5327Z" fill="#2F2F2F"/>
<path d="M80.6485 60.8647C80.6485 60.6697 80.7003 60.4961 80.8039 60.3438C80.9105 60.1884 81.0704 60.0666 81.2837 59.9782C81.4999 59.8899 81.765 59.8457 82.0787 59.8457H82.1975C82.6514 59.8457 82.9911 59.9356 83.2165 60.1153C83.445 60.295 83.5745 60.5464 83.6049 60.8693H82.883C82.8769 60.7048 82.8251 60.586 82.7276 60.5129C82.6332 60.4367 82.4702 60.3986 82.2387 60.3986H81.9965C81.768 60.3986 81.605 60.4337 81.5076 60.5037C81.4131 60.5738 81.3659 60.6758 81.3659 60.8099V60.851C81.3659 60.9515 81.3903 61.0262 81.439 61.0749C81.4908 61.1237 81.5715 61.1526 81.6812 61.1617L82.755 61.2394C83.0749 61.2638 83.317 61.3521 83.4815 61.5045C83.646 61.6568 83.7283 61.8594 83.7283 62.1122V62.1579C83.7283 62.4656 83.6049 62.7154 83.3582 62.9073C83.1145 63.0962 82.7459 63.1906 82.2524 63.1906H82.1199C81.6264 63.1906 81.2623 63.0992 81.0278 62.9164C80.7932 62.7306 80.6576 62.4595 80.6211 62.1031H81.3476C81.3568 62.295 81.4116 62.4321 81.5121 62.5143C81.6157 62.5966 81.7939 62.6377 82.0468 62.6377H82.3483C82.592 62.6377 82.7626 62.6027 82.8601 62.5326C82.9606 62.4595 83.0109 62.3529 83.0109 62.2127V62.1716C83.0109 62.068 82.985 61.9904 82.9332 61.9386C82.8814 61.8868 82.8007 61.8563 82.691 61.8472L81.6218 61.7649C81.3019 61.7405 81.0598 61.6537 80.8953 61.5045C80.7308 61.3552 80.6485 61.1572 80.6485 60.9104V60.8647Z" fill="#2F2F2F"/>
<path d="M77.1523 59.9189H79.2588C79.5513 59.9189 79.7843 60.0042 79.958 60.1748C80.1316 60.3424 80.2184 60.5648 80.2184 60.842V60.8694C80.2184 61.1436 80.1346 61.3645 79.9671 61.532C79.7996 61.6996 79.5741 61.7864 79.2908 61.7925V61.8473L80.3235 63.1176H79.501L78.4775 61.7925H77.8606V63.1176H77.1523V59.9189ZM79.1812 61.2487C79.3974 61.2487 79.5056 61.1223 79.5056 60.8694V60.842C79.5056 60.5952 79.3974 60.4719 79.1812 60.4719H77.8606V61.2487H79.1812Z" fill="#2F2F2F"/>
<path d="M74.8332 63.1906C74.492 63.1906 74.1965 63.1251 73.9467 62.9941C73.6969 62.8631 73.505 62.6788 73.371 62.4412C73.2369 62.2006 73.1699 61.9188 73.1699 61.5958V61.4405C73.1699 61.1176 73.2369 60.8373 73.371 60.5997C73.505 60.359 73.6969 60.1732 73.9467 60.0422C74.1965 59.9112 74.492 59.8457 74.8332 59.8457H74.9657C75.3099 59.8457 75.6069 59.9112 75.8567 60.0422C76.1065 60.1732 76.2969 60.359 76.4279 60.5997C76.5619 60.8373 76.629 61.1176 76.629 61.4405V61.5958C76.629 61.9188 76.5619 62.2006 76.4279 62.4412C76.2969 62.6788 76.1065 62.8631 75.8567 62.9941C75.6069 63.1251 75.3099 63.1906 74.9657 63.1906H74.8332ZM73.9193 61.605C73.9193 61.9645 73.9939 62.2249 74.1432 62.3864C74.2925 62.5448 74.5255 62.624 74.8423 62.624H74.9566C75.2734 62.624 75.5064 62.5448 75.6557 62.3864C75.8049 62.2249 75.8796 61.9645 75.8796 61.605V61.4313C75.8796 61.0719 75.8049 60.8129 75.6557 60.6545C75.5064 60.4931 75.2734 60.4123 74.9566 60.4123H74.8423C74.5255 60.4123 74.2925 60.4931 74.1432 60.6545C73.9939 60.8129 73.9193 61.0719 73.9193 61.4313V61.605Z" fill="#2F2F2F"/>
<path d="M71.9375 63.1176V59.9189H72.6458V63.1176H71.9375Z" fill="#2F2F2F"/>
<path d="M68.3789 59.9189H70.4854C70.7778 59.9189 71.0109 60.0042 71.1845 60.1748C71.3582 60.3424 71.445 60.5648 71.445 60.842V60.8694C71.445 61.1436 71.3612 61.3645 71.1937 61.532C71.0261 61.6996 70.8007 61.7864 70.5174 61.7925V61.8473L71.5501 63.1176H70.7276L69.704 61.7925H69.0872V63.1176H68.3789V59.9189ZM70.4077 61.2487C70.624 61.2487 70.7322 61.1223 70.7322 60.8694V60.842C70.7322 60.5952 70.624 60.4719 70.4077 60.4719H69.0872V61.2487H70.4077Z" fill="#2F2F2F"/>
<path d="M64.8203 59.9189H66.9268C67.2193 59.9189 67.4523 60.0042 67.6259 60.1748C67.7996 60.3424 67.8864 60.5648 67.8864 60.842V60.8694C67.8864 61.1436 67.8026 61.3645 67.6351 61.532C67.4675 61.6996 67.2421 61.7864 66.9588 61.7925V61.8473L67.9915 63.1176H67.169L66.1454 61.7925H65.5286V63.1176H64.8203V59.9189ZM66.8491 61.2487C67.0654 61.2487 67.1736 61.1223 67.1736 60.8694V60.842C67.1736 60.5952 67.0654 60.4719 66.8491 60.4719H65.5286V61.2487H66.8491Z" fill="#2F2F2F"/>
<path d="M60.8691 63.1176L62.1577 59.9189H63.1356L64.4241 63.1176H63.6702L63.3915 62.3819H61.8973L61.6185 63.1176H60.8691ZM63.1676 61.8382V61.7925L62.6786 60.5038H62.6101L62.1212 61.7925V61.8382H63.1676Z" fill="#2F2F2F"/>
<path d="M57.2977 62.5327H57.3663L57.9512 59.9189H59.0158L59.6053 62.5327H59.6738L60.2542 59.9189H60.9807L60.1902 63.1176H59.1072L58.5178 60.5038H58.4492L57.8598 63.1176H56.7723L55.9863 59.9189H56.7083L57.2977 62.5327Z" fill="#2F2F2F"/>
</svg>
