<svg width="178" height="107" viewBox="0 0 178 107" fill="none" xmlns="http://www.w3.org/2000/svg">
<rect x="0.573147" y="0.573147" width="176.254" height="105.644" rx="1.71944" stroke="#E1E1E1" stroke-width="1.14629"/>
<path d="M53.8217 53.6752L45.7346 49.0164C45.6819 48.9856 45.6819 48.9098 45.7346 48.879L47.3312 47.9593C47.4301 47.9027 47.4905 47.7974 47.4905 47.6844V44.0429C47.4905 43.9298 47.4314 43.8245 47.3325 43.768L38.115 38.4438C38.0174 38.3872 37.8953 38.3872 37.7977 38.4438L35.1542 39.9697L35.0797 40.0134L32.7741 41.3441L30.1409 42.865C30.042 42.9215 29.9816 43.0268 29.9816 43.1399L29.9906 52.4742C29.9906 52.5359 29.9238 52.5732 29.8711 52.5436L28.2758 51.6213C28.1769 51.5648 28.0561 51.5648 27.9585 51.6213L24.8038 53.4402C24.7049 53.4967 24.6445 53.602 24.6445 53.7151V64.3584C24.6445 64.4714 24.7049 64.5767 24.8025 64.6332L28.1165 66.5471L32.4581 69.0545C32.557 69.111 32.6777 69.111 32.7754 69.0545L40.8548 64.3789C40.9075 64.3481 40.9743 64.3866 40.9743 64.4483V66.2902C40.9743 66.4033 41.0334 66.5086 41.1323 66.5651L44.2857 68.3891C44.3846 68.4456 44.5053 68.4456 44.603 68.3891L53.8217 63.0674C53.9207 63.0109 53.981 62.9056 53.981 62.7926V53.9514C53.981 53.8384 53.9207 53.733 53.8217 53.6765V53.6752ZM34.6867 42.1816L37.009 46.2046L37.0168 57.7599C36.6995 57.9436 36.6198 57.9899 36.3026 58.1748L31.6758 55.5288L31.6643 43.9272L34.6867 42.1829V42.1816ZM26.3246 63.5722V54.5025C27.121 54.0426 27.3201 53.9283 28.1152 53.4697L31.6733 55.5275L31.6797 61.3013L29.3573 65.3243L26.3246 63.5735V63.5722ZM52.2996 62.0052L44.445 66.5394C43.6486 66.0796 43.4508 65.9653 42.6544 65.5054L42.657 61.395L32.6161 67.2048L29.5937 65.4604L31.916 61.4374L41.9197 55.6534C42.2382 55.8358 42.3178 55.882 42.6364 56.0644L42.657 61.3938L47.6536 58.5011H52.2983V62.0039L52.2996 62.0052ZM52.2996 58.2288H47.6549L37.6449 52.4575C37.6449 52.0902 37.6449 51.9977 37.6436 51.6316L42.2485 48.9483L37.2467 46.0672L34.9243 42.0442L37.957 40.2934L45.8117 44.829C45.8117 45.7487 45.8117 45.9773 45.8117 46.897L42.2511 48.9496L52.3022 54.7401V58.23L52.2996 58.2288Z" fill="#77AFA5"/>
<path d="M101.275 57.7291V55.1074H103.298L106.621 59.1086V61.8664H104.799L101.27 57.7304H101.275V57.7291ZM102.945 62.1426H110.592V64.7642H102.945V62.1426ZM106.894 59.1086L110.206 55.1074H112.229V57.7291L108.699 61.8651H106.894V59.1073V59.1086Z" fill="#77AFA5"/>
<path d="M89.9961 55.1074H100.732V57.7291H89.9961V55.1074ZM93.7275 58.0065H97.0107V64.7655H93.7275V58.0065Z" fill="#77AFA5"/>
<path d="M89.4477 57.7291H87.0278V61.8651H83.7446V57.7291H81.3079V55.1074H89.449V57.7291H89.4477ZM81.3066 62.131H89.4477V64.7527H81.3066V62.131Z" fill="#77AFA5"/>
<path d="M77.2122 62.1426V64.7642H74.8757L73.0042 57.7291H69.5579V55.1074H75.3458L77.2173 62.1426H77.2122ZM69.5527 58.0065H72.8359V64.7655H69.5527V58.0065ZM77.487 55.1074H80.7702V64.7655H77.487V55.1074Z" fill="#77AFA5"/>
<path d="M58.1211 55.1075H61.4043V61.3861C61.6111 61.5955 61.9026 61.7933 62.2674 61.9795C62.6309 62.1542 63.0189 62.2557 63.4273 62.2852V64.9069C62.2507 64.9069 61.2026 64.6641 60.2842 64.1773C59.3709 63.6802 58.6542 63.1035 58.1211 62.4535V55.1075ZM63.7022 62.2788C64.1055 62.2505 64.4806 62.1491 64.839 61.9731C65.2038 61.7868 65.4941 61.589 65.7137 61.3797V55.1011H68.9969V62.4419C68.4754 63.097 67.7586 63.6686 66.8338 64.1657C65.9205 64.6513 64.8788 64.8953 63.7022 64.8953V62.2737V62.2788Z" fill="#77AFA5"/>
<path d="M141.937 45.3706V44.2004C142.413 43.7932 143.024 43.4323 143.785 43.1099C144.553 42.7759 145.432 42.6128 146.424 42.6128H147.095V44.9185H146.424C145.857 44.9185 145.454 45.0713 145.219 45.3757H141.936V45.3706H141.937ZM141.937 49.4H145.08C145.142 49.6492 145.31 49.8522 145.573 50.005C145.837 50.163 146.228 50.2427 146.75 50.2427H147.091V52.5483H146.475C145.584 52.5483 144.727 52.3955 143.92 52.091C143.107 51.7853 142.447 51.4128 141.937 50.9607V49.4013V49.4ZM141.937 45.648H145.22V45.9358C145.478 46.1451 145.853 46.2518 146.357 46.2518H147.97C149.237 46.2518 150.212 46.3815 150.895 46.6358C151.578 46.885 152.1 47.2524 152.453 47.7379V49.5015H149.17V49.1855C148.89 48.9929 148.508 48.8978 148.032 48.8978H146.418C145.152 48.8978 144.177 48.7732 143.494 48.5253C142.81 48.2658 142.289 47.8985 141.936 47.4065V45.6429V45.648H141.937ZM147.366 50.2427H148.038C148.576 50.2427 148.957 50.0898 149.175 49.7854H152.458V50.9556C152.038 51.3627 151.443 51.7301 150.665 52.0577C149.892 52.3801 148.99 52.5381 147.97 52.5381H147.37V50.2324L147.365 50.244L147.366 50.2427ZM147.366 42.6141H147.916C148.808 42.6141 149.664 42.7669 150.471 43.0714C151.283 43.3771 151.944 43.7496 152.454 44.2017V45.7611H149.311C149.249 45.5234 149.088 45.3256 148.835 45.1676C148.588 45.0032 148.235 44.9185 147.781 44.9185H147.373V42.6128H147.368L147.366 42.6141Z" fill="#77AFA5"/>
<path d="M135.693 41.1605V40.1265H138.428L141.398 41.4379V42.4719H138.523L135.693 41.1605Z" fill="#77AFA5"/>
<path d="M131.591 49.7845V52.4061H129.255L127.383 45.371H123.937V42.7493H129.725L131.596 49.7845H131.591ZM123.932 45.6484H127.215V52.4074H123.932V45.6484ZM131.866 42.7493H135.149V52.4074H131.866V42.748V42.7493Z" fill="#77AFA5"/>
<path d="M117.641 46.1841L116.493 48.4165H112.868L115.821 42.748H117.642V46.1841H117.641ZM112.156 49.7832L112.733 48.6927H122.812L123.389 49.7832V52.4048H121.053L120.476 51.2462H115.075L114.498 52.4048H112.161V49.7832H112.156ZM117.916 42.748H119.721L122.674 48.4165H119.066L117.917 46.1841V42.748H117.916Z" fill="#77AFA5"/>
<path d="M101.012 52.4061V42.748H104.295V52.4061H101.012ZM104.57 48.9303H110.38L111.613 49.7832V52.4048H109.618L106.486 50.2238H104.57V48.9303ZM104.57 47.3594H107.086C107.388 47.3594 107.641 47.3195 107.854 47.2463C108.061 47.1731 108.224 47.0768 108.331 46.9586V46.405H111.614V47.7447C111.211 48.1288 110.801 48.4345 110.381 48.6541H104.571V47.3607L104.57 47.3594ZM104.57 42.7532H107.018C107.758 42.7532 108.418 42.8328 109.001 42.9908C109.584 43.1488 110.066 43.3248 110.436 43.5162C110.818 43.7088 111.209 43.9401 111.613 44.2059V46.1391H108.329V45.7949C108.218 45.6651 108.055 45.5636 107.836 45.4891C107.629 45.4159 107.376 45.3761 107.086 45.3761H104.57V42.7545V42.7532Z" fill="#77AFA5"/>
<path d="M91.0957 42.7479H94.3789V52.406H91.0957V42.7479ZM94.6537 49.783H100.463V52.4047H94.6537V49.783ZM94.6537 46.2507H99.17V48.8723H94.6537V46.2507ZM94.6537 42.7466H100.463V45.3682H94.6537V42.7466Z" fill="#77AFA5"/>
<path d="M79.8164 42.748H90.5522V45.3697H79.8164V42.748ZM83.5479 45.6471H86.831V52.4061H83.5479V45.6471Z" fill="#77AFA5"/>
<path d="M69.8984 42.7479H73.1816V52.406H69.8984V42.7479ZM73.4565 49.783H79.2662V52.4047H73.4565V49.783ZM73.4565 46.2507H77.9728V48.8723H73.4565V46.2507ZM73.4565 42.7466H79.2662V45.3682H73.4565V42.7466Z" fill="#77AFA5"/>
<path d="M58.1217 45.3707V42.749H60.4581L63.6013 48.8349V52.4058H61.7799L58.1152 45.3707H58.1204H58.1217ZM63.8813 48.8349L67.0129 42.749H69.3494V45.3707L65.6847 52.4058H63.8813V48.8349Z" fill="#77AFA5"/>
</svg>
