<svg width="178" height="107" viewBox="0 0 178 107" fill="none" xmlns="http://www.w3.org/2000/svg">
<rect x="0.573147" y="0.573147" width="176.254" height="105.644" rx="1.71944" stroke="#E1E1E1" stroke-width="1.14629"/>
<path d="M65.0555 82.6141L62.5919 78.9443L64.9581 75.4197C65.0148 75.3365 64.9546 75.2231 64.8536 75.2231H63.5324C63.4544 75.2231 63.3818 75.2621 63.3375 75.3276L61.7506 77.6903L60.1637 75.3276C60.1194 75.2621 60.0468 75.2231 59.9688 75.2231H58.6494C58.5484 75.2231 58.4882 75.3365 58.5449 75.4197L60.9111 78.9443L58.4457 82.6141C58.389 82.6973 58.4492 82.8107 58.5502 82.8107H59.8661C59.9476 82.8107 60.0238 82.7699 60.0698 82.7026L61.7506 80.1982L63.4314 82.7026C63.4775 82.7699 63.5536 82.8107 63.6351 82.8107H64.951C65.052 82.8107 65.1122 82.6973 65.0555 82.6141Z" fill="#31271D"/>
<path d="M107.526 75.2231H106.383C106.286 75.2231 106.208 75.3011 106.208 75.3985V78.0747H102.806V75.3985C102.806 75.3011 102.728 75.2231 102.63 75.2231H101.488C101.39 75.2231 101.312 75.3011 101.312 75.3985V82.6335C101.312 82.731 101.39 82.8089 101.488 82.8089H102.63C102.728 82.8089 102.806 82.731 102.806 82.6335V79.4986H106.208V82.6335C106.208 82.731 106.286 82.8089 106.383 82.8089H107.526C107.623 82.8089 107.701 82.731 107.701 82.6335V75.3985C107.701 75.3011 107.623 75.2231 107.526 75.2231Z" fill="#31271D"/>
<path d="M96.2048 75.2232H95.0624C94.9455 75.225 94.7631 75.2037 94.671 75.3667L91.2704 80.2621V75.4003C91.2704 75.3029 91.1925 75.2232 91.0951 75.2232H89.9527C89.8553 75.2232 89.7773 75.3029 89.7773 75.4003V82.6566C89.7773 82.7541 89.8553 82.8338 89.9527 82.8338H91.0951C91.1057 82.8338 91.1145 82.8338 91.1252 82.8302C91.1942 82.8214 91.2598 82.7859 91.3023 82.7239L94.8871 77.5647V82.6566C94.8871 82.7541 94.965 82.8338 95.0624 82.8338H96.2048C96.3022 82.8338 96.3801 82.7541 96.3801 82.6566V75.4003C96.3801 75.3029 96.3022 75.2232 96.2048 75.2232Z" fill="#31271D"/>
<path d="M85.2358 75.2231H79.8179C79.7205 75.2231 79.6426 75.3011 79.6426 75.3985V76.4204C79.6426 76.5178 79.7205 76.5958 79.8179 76.5958H81.7803V82.6318C81.7803 82.7292 81.8583 82.8071 81.9557 82.8071H83.0981C83.1955 82.8071 83.2734 82.7292 83.2734 82.6318V76.5958H85.2358C85.3332 76.5958 85.4111 76.5178 85.4111 76.4204V75.3985C85.4111 75.3011 85.3332 75.2231 85.2358 75.2231Z" fill="#31271D"/>
<path d="M75.9897 82.669L73.0585 75.4003C73.016 75.2922 72.9115 75.2231 72.7946 75.2231H71.9852C71.8701 75.2231 71.7656 75.294 71.7213 75.4003L68.7901 82.669C68.7582 82.7487 68.8166 82.8355 68.9017 82.8355H70.1096C70.2194 82.8355 70.3168 82.7682 70.3558 82.6654L70.8233 81.4186H73.9582L74.4258 82.6654C74.4648 82.7682 74.5622 82.8355 74.672 82.8355H75.8799C75.9667 82.8355 76.0251 82.7487 75.9915 82.669H75.9897ZM71.321 80.0902L72.3908 77.2351L73.4605 80.0902H71.321Z" fill="#31271D"/>
<path d="M118.74 82.669L115.808 75.4003C115.766 75.2922 115.661 75.2231 115.545 75.2231H114.735C114.62 75.2231 114.516 75.294 114.471 75.4003L111.54 82.669C111.508 82.7487 111.567 82.8355 111.652 82.8355H112.86C112.969 82.8355 113.067 82.7682 113.106 82.6654L113.573 81.4186H116.708L117.176 82.6654C117.215 82.7682 117.312 82.8355 117.422 82.8355H118.63C118.717 82.8355 118.775 82.7487 118.741 82.669H118.74ZM114.071 80.0902L115.141 77.2351L116.211 80.0902H114.071Z" fill="#31271D"/>
<path d="M93.0494 86.897C92.4579 87.005 92.0186 87.4566 91.8805 88.096C91.7955 88.491 91.8185 88.9515 91.946 89.311C92.0346 89.5625 92.1497 89.7503 92.3197 89.9132C92.4472 90.0336 92.5376 90.0974 92.6934 90.1753C93.3346 90.4924 94.1333 90.2497 94.5035 89.6227C94.8294 89.0737 94.8489 88.2271 94.5478 87.6462C94.2626 87.0971 93.6481 86.7872 93.0494 86.897ZM93.4957 87.3043C93.625 87.3433 93.7402 87.4177 93.857 87.5399C94.066 87.7631 94.1759 88.073 94.1989 88.5087C94.2184 88.87 94.1263 89.2809 93.9757 89.5129C93.9049 89.621 93.7738 89.7503 93.6764 89.8087C93.455 89.9433 93.1982 89.9522 92.9644 89.8335C92.8617 89.7804 92.7111 89.6458 92.6385 89.5377C92.3622 89.1286 92.3109 88.4131 92.5198 87.8711C92.6421 87.5541 92.9113 87.3167 93.1911 87.2778C93.2974 87.2636 93.3859 87.2689 93.4975 87.3026L93.4957 87.3043Z" fill="#31271D"/>
<path d="M96.207 86.8969C96.0547 86.9181 95.7766 86.9783 95.6225 87.0244L95.5269 87.0545L95.5056 87.1271C95.4543 87.306 95.3516 87.8196 95.3516 87.9011C95.3516 87.9365 95.3586 87.9489 95.3888 87.9613C95.4401 87.9826 95.6243 88.0162 95.6863 88.0162C95.7324 88.0162 95.7377 88.0127 95.7465 87.979C95.8404 87.5416 95.9839 87.3467 96.2655 87.2724C96.3097 87.26 96.4213 87.2476 96.5134 87.2422C96.6569 87.2352 96.6958 87.2387 96.7897 87.2617C96.9226 87.2954 97.004 87.3414 97.0731 87.4211C97.1847 87.5486 97.1988 87.7328 97.1103 87.9259C96.9899 88.1863 96.8535 88.3439 96.0742 89.132L95.4277 89.7856L95.4366 89.8635C95.4561 90.0229 95.5269 90.2354 95.5694 90.2514C95.5783 90.2532 95.9679 90.2514 96.4337 90.2425C97.3016 90.2284 97.4734 90.2177 97.5672 90.1699C97.5974 90.154 97.6133 90.1274 97.6399 90.0513C97.7125 89.8529 97.8046 89.5164 97.8294 89.3676C97.8382 89.3198 97.8365 89.3198 97.7727 89.2985C97.6558 89.2613 97.5956 89.2489 97.523 89.2489C97.4043 89.2489 97.4043 89.2472 97.3405 89.4349C97.236 89.7466 97.19 89.8068 97.02 89.8458C96.9137 89.8706 95.9839 89.8936 95.9927 89.8706C95.9945 89.8617 96.1202 89.7395 96.2725 89.5961C96.6835 89.2047 97.1723 88.6999 97.3157 88.5192C97.6133 88.1473 97.7018 87.956 97.7018 87.6921C97.7018 87.4672 97.6452 87.3273 97.4964 87.1785C97.3671 87.0492 97.1829 86.9624 96.9279 86.9093C96.7809 86.8792 96.3806 86.8721 96.207 86.8969Z" fill="#31271D"/>
<path d="M99.4342 86.9143C99.2553 86.9338 99.2429 86.9444 99.0038 87.265C98.6602 87.729 98.3131 88.2373 98.1448 88.5225C98.0934 88.6092 98.0864 88.6305 98.0881 88.696C98.0917 88.8483 98.1997 89.1016 98.283 89.1565C98.3414 89.1937 98.4866 89.2043 98.9861 89.2043H99.4838V89.4576C99.4838 89.7746 99.4838 89.7693 99.3067 89.7924C99.1791 89.8065 99.1154 89.8331 99.1065 89.8703C99.0977 89.9075 99.1207 90.0757 99.1419 90.1377C99.1809 90.2405 99.1969 90.2475 99.3952 90.2334C99.4909 90.2263 99.737 90.2245 99.9425 90.2245L100.316 90.2281L100.341 90.1749C100.371 90.1147 100.398 89.9234 100.385 89.8685C100.373 89.8225 100.298 89.7941 100.167 89.7817C100.105 89.7764 100.056 89.7658 100.04 89.7516C99.9992 89.7197 99.9885 89.6436 99.9885 89.4133V89.2026L100.24 89.1973C100.531 89.1902 100.554 89.1831 100.601 89.091C100.663 88.9688 100.66 88.8342 100.594 88.8023C100.58 88.7952 100.44 88.7881 100.283 88.7828L99.9956 88.7757L99.9885 87.8813L99.9815 86.9851L99.946 86.9497C99.9159 86.9196 99.8947 86.9125 99.799 86.9019C99.6662 86.8895 99.5617 86.8895 99.4324 86.9019L99.4342 86.9143ZM99.4749 88.8041C99.4749 88.8041 99.2819 88.8129 99.0587 88.8129C98.6319 88.8129 98.5876 88.8076 98.5876 88.7545C98.5876 88.7244 98.8479 88.2922 99.1048 87.8973C99.2216 87.7184 99.3527 87.5165 99.3952 87.4474L99.4749 87.3234L99.4785 88.0602C99.4785 88.4658 99.4785 88.8005 99.4731 88.8041H99.4749Z" fill="#31271D"/>
<path d="M85.1954 86.9357C84.5241 86.9924 83.7909 86.9941 83.0984 86.941C82.9549 86.9286 82.9159 86.9304 82.9088 86.9428C82.8841 86.9817 82.753 87.591 82.7317 87.7539C82.7176 87.8655 82.8238 87.9558 82.9815 87.9682L83.0665 87.9753L83.0948 87.9169C83.1214 87.8602 83.1781 87.6795 83.2471 87.4227L83.279 87.3094L83.5801 87.3058C83.8245 87.3023 83.8847 87.3058 83.906 87.3218C83.9326 87.3413 83.9326 87.3661 83.9361 88.5545V89.7677L83.9095 89.8031C83.8847 89.8315 83.8599 89.8386 83.7625 89.851C83.6262 89.8669 83.5695 89.8917 83.5571 89.9431C83.5447 89.9909 83.5748 90.2211 83.5996 90.2707L83.6191 90.3115L83.8281 90.3008C84.0778 90.2867 84.4674 90.2884 84.6499 90.3008L84.7809 90.3097L84.8004 90.2619C84.8305 90.1875 84.8535 89.9679 84.8341 89.9271C84.8146 89.8828 84.7526 89.858 84.6268 89.8474C84.5471 89.8403 84.5153 89.8315 84.4869 89.8067L84.4515 89.7766L84.448 88.5598C84.4462 87.6654 84.448 87.3377 84.4604 87.3253C84.4728 87.3112 84.5383 87.3058 84.7809 87.3058C84.9474 87.3058 85.0891 87.3112 85.0926 87.3165C85.0962 87.3236 85.1334 87.444 85.1723 87.5839C85.245 87.8354 85.2839 87.9364 85.3158 87.9576C85.3406 87.9718 85.415 87.9665 85.4894 87.9417C85.5602 87.9187 85.647 87.8336 85.647 87.784C85.647 87.7043 85.4894 86.9977 85.4593 86.941C85.4522 86.9268 85.4362 86.918 85.4238 86.918C85.4115 86.918 85.307 86.9286 85.1936 86.9374L85.1954 86.9357Z" fill="#31271D"/>
<path d="M89.8203 86.9623C89.668 86.9836 89.3899 87.0438 89.2358 87.0898L89.1402 87.1199L89.1189 87.1925C89.0676 87.3714 88.9648 87.8851 88.9648 87.9665C88.9648 88.0019 88.9719 88.0143 89.002 88.0267C89.0534 88.048 89.2376 88.0816 89.2996 88.0816C89.3456 88.0816 89.351 88.0781 89.3598 88.0445C89.4537 87.607 89.5971 87.4122 89.8805 87.3378C89.9248 87.3254 90.0346 87.313 90.1285 87.3077C90.2719 87.3006 90.3109 87.3041 90.4048 87.3272C90.5376 87.3608 90.6191 87.4069 90.6882 87.4866C90.7997 87.6141 90.8139 87.7983 90.7253 87.9913C90.6049 88.2517 90.4685 88.4093 89.6892 89.1975L89.0428 89.851L89.0516 89.9289C89.0711 90.0883 89.142 90.3009 89.1845 90.3168C89.1933 90.3204 89.583 90.3168 90.0488 90.308C90.9166 90.2938 91.0884 90.2832 91.1823 90.2353C91.2124 90.2194 91.2283 90.1928 91.2567 90.1167C91.3293 89.9183 91.4214 89.5818 91.4462 89.433C91.4551 89.3852 91.4533 89.3852 91.3895 89.364C91.2726 89.3268 91.2124 89.3144 91.1398 89.3144C91.0211 89.3144 91.0211 89.3126 90.9574 89.5003C90.8529 89.812 90.8068 89.8723 90.6368 89.9112C90.5305 89.936 89.6007 89.959 89.6095 89.936C89.6131 89.9272 89.7371 89.805 89.8894 89.6615C90.3003 89.2701 90.7891 88.7653 90.9326 88.5847C91.2301 88.2127 91.3187 88.0214 91.3187 87.7575C91.3187 87.5326 91.262 87.3927 91.1132 87.2439C90.9839 87.1146 90.7997 87.0278 90.5447 86.9747C90.3977 86.9446 89.9974 86.9375 89.8238 86.9623H89.8203Z" fill="#31271D"/>
<path d="M80.6051 86.9746C80.343 87.0242 80.1499 87.1145 79.9976 87.258C79.847 87.4014 79.7797 87.529 79.7549 87.7203C79.7178 88.0213 79.8329 88.3207 80.0543 88.4889C80.2509 88.6395 80.4333 88.7156 80.9292 88.852C81.2604 88.9441 81.4003 88.9937 81.5385 89.0645C81.7422 89.1708 81.8413 89.3107 81.852 89.5091C81.8644 89.7446 81.7404 89.9023 81.4924 89.966C81.3826 89.9944 81.1736 89.9944 81.0408 89.966C80.9239 89.9412 80.745 89.8686 80.6405 89.8084C80.4846 89.7145 80.2686 89.4684 80.2243 89.3302L80.2101 89.2824L80.1003 89.2912C79.9728 89.3001 79.8701 89.332 79.847 89.3727C79.8134 89.4258 79.847 89.7145 79.9356 90.1414L79.9763 90.3468H80.1216C80.2013 90.3468 80.2792 90.3415 80.2934 90.3327C80.3111 90.3238 80.3217 90.2919 80.3341 90.2229C80.3589 90.067 80.3518 90.0705 80.4723 90.1449C80.8282 90.3663 81.2746 90.4354 81.6837 90.3344C81.9104 90.276 82.1176 90.1609 82.2257 90.028C82.4772 89.7199 82.4825 89.208 82.2398 88.8945C82.1283 88.7528 81.8396 88.5775 81.5668 88.4889C81.4889 88.4641 81.2976 88.4057 81.14 88.3596C80.6742 88.225 80.5431 88.1666 80.4209 88.0461C80.3217 87.9452 80.2863 87.8549 80.3005 87.7273C80.3235 87.5059 80.4687 87.366 80.7326 87.3147C80.869 87.2881 81.1453 87.304 81.2763 87.3448C81.5314 87.428 81.7581 87.6405 81.8466 87.8797L81.875 87.9576H81.9653C82.0627 87.9576 82.1761 87.9399 82.2381 87.9151L82.277 87.8991L82.2682 87.7858C82.254 87.5856 82.1513 87.0437 82.1247 87.01C82.1159 86.9994 82.0627 86.9941 81.9476 86.9941C81.8325 86.9941 81.7811 86.9994 81.7705 87.01C81.7634 87.0189 81.7475 87.0614 81.7351 87.1039C81.7227 87.1464 81.7103 87.1818 81.705 87.1818C81.6996 87.1818 81.6802 87.1712 81.6624 87.157C81.5845 87.1021 81.4198 87.0313 81.3011 86.9994C81.1364 86.9569 80.7822 86.9445 80.6122 86.9746H80.6051Z" fill="#31271D"/>
<path d="M78.4942 87.0244C78.3773 87.0297 77.9044 87.0333 77.4457 87.0333L76.6097 87.0297L76.5796 87.09C76.5459 87.1555 76.5158 87.3397 76.5282 87.3928C76.5406 87.4406 76.6026 87.4672 76.7372 87.4796C76.8736 87.4902 76.8913 87.5026 76.909 87.5894C76.9267 87.6815 76.9232 89.8317 76.9055 89.8724C76.886 89.9114 76.8329 89.9344 76.7532 89.9344C76.6735 89.9344 76.5619 89.9698 76.5442 90.0035C76.5141 90.0584 76.5619 90.2939 76.6168 90.3559L76.6469 90.3931L77.1782 90.3789C77.768 90.363 78.3631 90.3612 78.7864 90.3772C79.0344 90.386 79.0698 90.386 79.084 90.3665C79.1105 90.3347 79.1725 90.1239 79.2593 89.775C79.3603 89.3659 79.3638 89.3499 79.3249 89.2915C79.2859 89.2348 79.1902 89.1834 79.0981 89.1746C79.0379 89.1693 79.022 89.171 79.0025 89.1941C78.9689 89.2312 78.921 89.3659 78.852 89.6227C78.8183 89.7466 78.7811 89.8777 78.7705 89.9131L78.7492 89.9769H78.1187C77.4935 89.9769 77.4864 89.9769 77.4616 89.9486C77.4368 89.922 77.4368 89.8883 77.4315 89.3127L77.428 88.707L77.4793 88.6981C77.5077 88.6946 77.5803 88.6893 77.644 88.6893C77.8229 88.6893 77.9416 88.73 78.0603 88.8345C78.1169 88.8859 78.124 88.8877 78.1718 88.877C78.3755 88.831 78.4641 88.56 78.3242 88.4006C78.2462 88.3085 78.0939 88.2943 77.7787 88.3475C77.6724 88.3652 77.5094 88.4059 77.4545 88.4272C77.4315 88.436 77.4297 88.4077 77.4297 87.9613C77.4297 87.515 77.4297 87.4831 77.4545 87.4654C77.474 87.4477 77.5661 87.4442 78.0603 87.4371C78.3826 87.4336 78.6483 87.4353 78.6518 87.4406C78.6554 87.446 78.6926 87.5823 78.7315 87.7417C78.7705 87.9011 78.8148 88.0534 78.8272 88.0818C78.852 88.1296 78.852 88.1296 78.9317 88.1296C79.0769 88.1278 79.1849 88.0428 79.1814 87.933C79.1778 87.8303 79.0344 87.237 78.9777 87.0811L78.9511 87.0103L78.8289 87.0138C78.7616 87.0138 78.6093 87.0209 78.4924 87.028L78.4942 87.0244Z" fill="#31271D"/>
<path d="M86.4212 89.6101C86.2565 89.6508 86.1608 89.7624 86.1484 89.9253C86.1396 90.0281 86.1608 90.1025 86.2157 90.1769C86.3291 90.3292 86.6107 90.3664 86.7825 90.2512C86.9437 90.1414 86.9738 89.8917 86.8445 89.7217C86.7736 89.6296 86.57 89.5747 86.423 89.6119L86.4212 89.6101Z" fill="#31271D"/>
<path d="M84.0006 71.1143L61.966 71.0736C61.7871 71.0736 61.6153 71.001 61.4878 70.8734C61.3603 70.7459 61.2912 70.5741 61.293 70.3935C61.293 70.3138 61.3762 62.3047 62.1644 57.0498C63.7425 46.5116 68.8929 40.6456 72.9346 37.5815C76.4397 34.9231 79.6844 33.8657 80.9384 33.531V24.3459C80.9384 23.9739 81.2395 23.6729 81.6114 23.6729C81.9833 23.6729 82.2844 23.9739 82.2844 24.3459V34.0605C82.2844 34.3811 82.0577 34.6592 81.7425 34.7212C81.7053 34.7282 77.8495 35.5288 73.6962 38.6956C69.8741 41.6108 65.0017 47.1952 63.4963 57.2517C62.8551 61.529 62.6904 67.696 62.6515 69.7311L84.0042 69.7718C84.3761 69.7718 84.6772 70.0747 84.6754 70.4466C84.6754 70.8185 84.3744 71.1179 84.0024 71.1179L84.0006 71.1143Z" fill="#31271D"/>
<path d="M115.209 71.1125C114.84 71.1125 114.539 70.815 114.535 70.4448C114.535 70.3651 114.454 62.4092 113.692 57.2464C112.874 51.6956 110.469 43.97 103.652 38.6902C99.5659 35.5252 95.7721 34.7247 95.7332 34.7176C95.4197 34.6538 95.193 34.3775 95.193 34.0552C95.193 33.9259 95.2302 21.1649 95.193 18.2798C95.1841 17.5182 94.6882 17.3605 94.4491 17.3304H88.7726C88.4007 17.3304 88.0996 17.0293 88.0996 16.6574C88.0996 16.2855 88.4007 15.9844 88.7726 15.9844H94.4863C94.5022 15.9844 94.52 15.9844 94.5359 15.9861C95.2196 16.0375 96.5178 16.5777 96.539 18.262C96.5709 20.8178 96.5461 31.0744 96.539 33.5292C97.7806 33.8675 100.97 34.9266 104.417 37.5815C108.397 40.6473 113.467 46.5133 115.021 57.048C115.795 62.3012 115.876 70.3492 115.878 70.4289C115.882 70.8008 115.582 71.1037 115.21 71.1072H115.203L115.209 71.1125Z" fill="#31271D"/>
<path d="M97.8029 53.5144C95.1639 50.4575 95.6138 47.2624 95.6457 46.8355C95.6669 46.5539 95.7732 45.8862 95.8369 45.5036C95.8529 45.4062 95.7395 45.3425 95.6634 45.4062L94.6343 46.2705C93.0988 47.5599 92.4966 48.4189 92.068 49.3151C91.232 51.0614 91.5012 53.146 91.8643 54.563C91.4268 54.2016 91.0018 53.7234 90.7928 53.1319C90.3482 51.8637 90.6369 49.9917 90.8689 48.4862C90.9486 47.9708 91.023 47.4855 91.0673 47.048C91.3843 43.9025 89.0677 42.668 88.6745 42.4148C88.4017 42.2394 87.9625 42.0269 87.479 41.8569C87.3373 41.8073 87.2151 41.9684 87.3019 42.0889C87.541 42.4236 87.8013 42.8115 87.9271 43.0931C88.4655 44.2904 87.8332 45.7799 85.8371 47.4572C85.6264 47.6343 85.4138 47.8025 85.2031 47.9708C84.2555 48.7235 83.2743 49.5011 82.6597 50.8719C81.7476 52.9052 81.9849 54.8906 82.4773 56.4067C80.8762 54.3752 81.133 52.5988 81.1578 52.032C81.172 51.7061 81.2287 51.1748 81.2871 50.8347C81.3084 50.7072 81.2358 50.6558 81.1259 50.7249C80.7646 50.9481 80.1837 51.382 79.7356 51.823C79.1246 52.4341 76.8398 54.9809 76.56 58.8225C76.2235 63.431 78.2762 66.4968 80.058 68.2573C81.9761 70.1524 83.9792 71.0008 84.0625 71.0344C84.1386 71.0646 84.2166 71.0787 84.2927 71.0787C84.5389 71.0787 84.7727 70.93 84.8719 70.6873C84.9994 70.3685 84.8453 70.0054 84.5265 69.8761C84.229 69.7557 77.2259 66.8032 77.8033 58.9128C77.9751 56.5537 79.2114 54.5222 79.9588 53.4896C80.1713 55.1155 81.0179 57.604 84.0271 59.2919C84.6115 59.6195 85.2279 58.9164 84.8276 58.3797C84.801 58.3443 82.2382 54.841 83.7915 51.3785C84.2821 50.2839 85.0667 49.6622 85.9735 48.9414C86.1896 48.7696 86.4128 48.5925 86.6342 48.4065C88.2034 47.0888 89.0889 45.8348 89.2873 44.6553C89.6504 45.2025 89.9302 45.9535 89.8328 46.9258C89.7921 47.3297 89.7195 47.8008 89.6433 48.2985C89.39 49.9385 89.0748 51.9806 89.6221 53.5428C90.334 55.576 92.6542 56.5006 92.7534 56.5378C93.2688 56.7379 93.7683 56.2154 93.5451 55.7106C93.5292 55.6752 92.0432 52.2321 93.1838 49.8517C93.4388 49.3204 93.7576 48.8174 94.3793 48.1816C94.4696 49.6994 94.9514 52.1135 96.8607 54.3274C99.087 56.9062 99.9017 60.0357 99.0994 62.9174C98.3608 65.5652 96.3523 67.7278 93.3574 69.1429C94.0676 67.7401 94.6166 65.5439 93.6655 62.6163L93.3308 61.5926C93.3131 61.5394 93.244 61.5288 93.2121 61.5731L92.5745 62.4445C92.5356 62.4976 91.5969 63.7551 90.5377 63.2255C89.367 62.6411 89.8806 60.6627 89.8842 60.6432C89.955 60.2748 90.1676 59.6 90.1676 59.6C90.18 59.5558 90.1374 59.5186 90.0932 59.531C89.6079 59.6638 89.3688 59.7807 89.0748 59.8976C88.0298 60.312 86.2126 61.7183 86.3118 64.5415C85.9346 64.3874 85.382 64.0899 84.7816 63.3832C84.546 63.1051 84.422 62.9351 84.3211 62.9918C84.2573 63.0272 84.2998 63.1742 84.3441 63.2858C85.3164 65.7246 86.9707 65.9088 87.0575 65.9035L87.1549 65.8946C87.4613 65.8681 87.6809 65.59 87.6331 65.2854L87.6189 65.1897C87.3391 63.3956 87.9377 62.3258 88.531 61.7272C88.531 61.7697 88.5328 61.8122 88.5363 61.8547C88.5983 63.0343 89.0978 63.8933 89.9834 64.336C91.0478 64.8674 92.0432 64.5132 92.7516 63.9942C93.5681 67.8748 91.3117 69.9417 91.209 70.032C90.7007 70.4765 91.1682 71.2966 91.8094 71.0876C96.278 69.6299 99.2906 66.8475 100.293 63.2539C101.209 59.9667 100.3 56.4191 97.7976 53.5215L97.8029 53.5144Z" fill="#31271D"/>
</svg>
