<svg width="180" height="107" viewBox="0 0 180 107" fill="none" xmlns="http://www.w3.org/2000/svg">
  <defs>
    <mask id="cardMask">
      <rect x="0" y="0" width="180" height="107" fill="white"/>
      <path d="M67.829 59.1665H56.2617V61.4852H67.9186L65.6463 63.7675H68.8773L72.2542 60.3706L68.8773 56.9771H65.6496L67.8323 59.1665H67.829Z" fill="black"/>
    </mask>
  </defs>

  <rect x="0.573147" y="0.573147" width="178.004" height="105.644" rx="1.71944" stroke="#E1E1E1" stroke-width="1.14629"/>

  <g mask="url(#cardMask)">
    <path d="M55.2598 55.6964H72.5394C72.3072 55.3348 71.9058 55.0894 71.4414 55.0894H54.7158C53.9959 55.0894 53.4121 55.6732 53.4121 56.393V62.394C53.4121 62.875 53.6742 63.2897 54.0623 63.5152V56.894C54.0623 56.2338 54.5997 55.6964 55.2598 55.6964Z" fill="gray"/>
    <path d="M73.7443 56.8907C73.7443 56.4794 73.4491 56.1377 73.061 56.0581C73.0079 56.0481 72.9515 56.0415 72.8984 56.0415H55.2639C54.7961 56.0415 54.418 56.4197 54.418 56.8907V63.8006C54.418 63.8006 54.418 63.8272 54.4213 63.8404C54.4213 63.9001 54.4346 63.9598 54.4478 64.0162C54.544 64.3811 54.8691 64.6498 55.2639 64.6498H72.8984C73.3662 64.6498 73.7443 64.2717 73.7443 63.8039V56.894V56.8907Z" fill="gray"/>
  </g>

  <path d="M108.533 48.0073L107.282 45.0251L106.051 48.0073H108.533ZM105.411 42.6897H109.236L113.24 50.7938H109.7L109.253 49.7323H105.338L104.904 50.7938H101.42L105.411 42.6897ZM90.6261 42.6897H93.8505V45.8312L97.4132 42.6897H101.175L97.5493 45.662L101.454 50.7938H97.6853L95.3632 47.4998L93.8505 48.8167V50.7938H90.6261V42.6897ZM84.1342 51.0393C82.0975 51.0393 80.618 50.681 79.6924 49.9612C78.7702 49.238 78.3091 48.1964 78.3091 46.8363V46.6439C78.3091 45.2805 78.7669 44.2389 79.6858 43.519C80.608 42.7992 82.0875 42.4409 84.1276 42.4409C86.0284 42.4409 87.4084 42.7461 88.2742 43.3565C89.1433 43.9669 89.6011 44.8493 89.6509 46.007L86.3071 46.0004C86.2341 45.5724 86.0185 45.2274 85.6569 44.9654C85.2986 44.7033 84.7844 44.5706 84.1143 44.5706C83.577 44.5706 83.1258 44.6569 82.7543 44.8294C82.3894 44.9985 82.1107 45.2407 81.9216 45.5525C81.7359 45.861 81.643 46.2259 81.643 46.6439V46.8363C81.643 47.2543 81.7359 47.6192 81.9216 47.9343C82.1107 48.2428 82.3894 48.485 82.7609 48.6575C83.1324 48.8267 83.5836 48.9129 84.121 48.9129C84.8209 48.9129 85.3583 48.7736 85.7365 48.5016C86.1147 48.2229 86.3336 47.8547 86.3933 47.3936L89.7471 47.4003C89.7106 48.5812 89.2495 49.4868 88.3638 50.1138C87.4814 50.7341 86.0682 51.0459 84.1309 51.0459L84.1342 51.0393ZM74.1924 50.7905V45.6554L69.9762 50.7905H66.785V42.6897H69.9961L69.9894 47.8249L74.2156 42.6897H77.4002V50.7938H74.1891L74.1924 50.7905ZM62.5024 44.8294H58.4288V50.7905H55.2044V42.6897H65.7201V50.7938H62.5024V44.8294ZM50.056 48.6509V44.8294H46.8947L46.888 45.0715C46.8648 46.0004 46.7985 46.7467 46.6824 47.304C46.5729 47.8614 46.4236 48.3092 46.2345 48.6475H50.0527L50.056 48.6509ZM42.0813 48.6509H43.113C43.3651 48.2362 43.5708 47.6192 43.7234 46.8031C43.8793 45.9838 43.9556 44.7929 43.9556 43.2304V42.6897H53.2804V48.6509H54.4016V52.3131H51.3929V50.7938H45.0868V52.3131H42.078V48.6509H42.0813ZM38.0409 42.6897H41.2653V50.7938H38.0409V42.6897ZM33.755 44.8294H29.6814V50.7905H26.457V42.6897H36.9727V50.7938H33.755V44.8294Z" fill="black"/>
  <path d="M44.9939 61.6276L43.7134 58.5724L42.4562 61.6276H44.9906H44.9939ZM41.806 56.1807H45.7137L49.8039 64.4805H46.1848L45.727 63.3924H41.7264L41.2819 64.4805H37.7224L41.8027 56.1807H41.806ZM33.9275 61.3258H29.7478V64.4805H26.457V56.1807H29.7511V59.133H33.9308V56.1807H37.2182V64.4805H33.9308V61.3258H33.9275Z" fill="black"/>
  <path d="M146.213 62.5533C146.753 62.5533 147.211 62.467 147.583 62.2945C147.961 62.1154 148.243 61.8699 148.435 61.5548C148.624 61.233 148.72 60.8615 148.72 60.4302V60.2345C148.72 59.8066 148.624 59.435 148.435 59.1166C148.246 58.7948 147.961 58.5493 147.583 58.3768C147.208 58.1977 146.75 58.1114 146.213 58.1114C145.675 58.1114 145.221 58.201 144.846 58.3768C144.474 58.5493 144.196 58.7981 144.007 59.1166C143.817 59.4317 143.721 59.8066 143.721 60.2345V60.4302C143.721 60.8581 143.817 61.233 144.007 61.5548C144.196 61.8699 144.474 62.1187 144.846 62.2945C145.221 62.467 145.675 62.5533 146.213 62.5533ZM146.219 64.736C144.162 64.736 142.663 64.3678 141.724 63.6314C140.786 62.8916 140.318 61.8235 140.318 60.4302V60.2345C140.318 58.8412 140.786 57.7764 141.724 57.04C142.666 56.3002 144.166 55.9287 146.219 55.9287C148.273 55.9287 149.772 56.3002 150.711 57.04C151.653 57.7764 152.124 58.8412 152.124 60.2345V60.4302C152.124 61.8235 151.653 62.8883 150.711 63.6314C149.772 64.3678 148.276 64.736 146.219 64.736ZM129.736 56.1841H133.03V59.4019L136.672 56.1841H140.517L136.811 59.2294L140.799 64.4839H136.951L134.579 61.1103L133.033 62.4571V64.4839H129.739V56.1841H129.736ZM121.529 62.3741H124.421C124.78 62.3741 125.058 62.2879 125.254 62.1154C125.453 61.9429 125.556 61.7173 125.556 61.4387V61.3624C125.556 61.0804 125.46 60.8548 125.261 60.6857C125.065 60.5132 124.783 60.4269 124.421 60.4269H121.529V62.3775V62.3741ZM121.529 56.1841V58.6157H125.639C126.336 58.6157 126.926 58.7318 127.404 58.964C127.885 59.1962 128.25 59.5279 128.492 59.9592C128.734 60.3871 128.857 60.9013 128.857 61.505V61.5913C128.857 62.1983 128.734 62.7158 128.492 63.1471C128.253 63.5783 127.891 63.91 127.41 64.1423C126.933 64.3711 126.342 64.4839 125.639 64.4839H118.235V56.1841H121.529ZM111.604 64.736C109.524 64.736 108.011 64.3678 107.066 63.6314C106.123 62.8916 105.652 61.8235 105.652 60.4302V60.2345C105.652 58.8379 106.12 57.7698 107.059 57.0333C108.001 56.2969 109.514 55.9287 111.597 55.9287C113.538 55.9287 114.951 56.2405 115.833 56.8675C116.722 57.4911 117.19 58.3967 117.24 59.581L113.826 59.5744C113.753 59.1332 113.531 58.7815 113.159 58.5161C112.791 58.2474 112.267 58.1114 111.584 58.1114C111.036 58.1114 110.572 58.201 110.194 58.3768C109.819 58.5493 109.537 58.7981 109.345 59.1166C109.155 59.4317 109.059 59.8066 109.059 60.2345V60.4302C109.059 60.8581 109.152 61.233 109.345 61.5548C109.537 61.8699 109.822 62.1187 110.2 62.2945C110.579 62.467 111.043 62.5533 111.59 62.5533C112.304 62.5533 112.854 62.414 113.239 62.132C113.624 61.8467 113.849 61.4685 113.909 60.9975L117.336 61.0041C117.296 62.2149 116.825 63.1404 115.923 63.784C115.02 64.4209 113.577 64.7394 111.6 64.7394L111.604 64.736ZM99.3032 55.7495C98.1687 55.7495 97.3593 55.5936 96.8749 55.2851C96.3906 54.9766 96.1518 54.5487 96.1518 54.0047V53.9648H98.3909V54.1042C98.3909 54.3098 98.4672 54.4691 98.6165 54.5918C98.7658 54.7112 98.9947 54.7709 99.3065 54.7709C99.6183 54.7709 99.8439 54.7112 99.9965 54.5918C100.149 54.4724 100.229 54.3098 100.229 54.1042V53.9648H102.465V54.0047C102.465 54.5487 102.222 54.9766 101.735 55.2851C101.254 55.5936 100.444 55.7495 99.3098 55.7495H99.3032ZM101.446 64.4806V59.2194L97.1403 64.4806H93.8828V56.1808H97.1635L97.1569 61.442L101.473 56.1808H104.724V64.4806H101.443H101.446ZM89.5007 56.1841H92.7947V64.4839H89.5007V56.1841ZM84.3722 59.5445C84.6276 59.5445 84.8266 59.4782 84.9759 59.3422C85.1252 59.2061 85.2015 59.0336 85.2015 58.8213V58.7749C85.2015 58.5626 85.1252 58.3901 84.9759 58.2541C84.8233 58.1148 84.6243 58.0451 84.3722 58.0451H81.1942V59.5445H84.3722ZM84.485 62.6196C84.7503 62.6196 84.9627 62.5466 85.1152 62.404C85.2712 62.2614 85.3475 62.0756 85.3475 61.8434V61.7903C85.3475 61.568 85.2678 61.3823 85.1119 61.2396C84.9593 61.097 84.7503 61.024 84.4883 61.024L81.2009 61.0306V62.6163H84.4883L84.485 62.6196ZM77.9102 56.1841H85.7687C86.6412 56.1841 87.298 56.3765 87.7359 56.7646C88.1771 57.1461 88.396 57.6736 88.396 58.3437V58.4C88.396 58.8777 88.2799 59.2758 88.0477 59.5909C87.8155 59.9028 87.4672 60.1217 87.0061 60.2445C87.5468 60.3639 87.9482 60.5928 88.2169 60.9344C88.4856 61.2728 88.6216 61.7074 88.6216 62.2381V62.2978C88.6216 62.9845 88.3927 63.5219 87.9316 63.9067C87.4738 64.2915 86.7706 64.4873 85.8318 64.4873H77.9102V56.1874V56.1841Z" fill="black"/>
</svg>