<svg width="178" height="107" viewBox="0 0 178 107" fill="none" xmlns="http://www.w3.org/2000/svg">
<rect x="0.573147" y="0.573147" width="176.254" height="105.644" rx="1.71944" stroke="#E1E1E1" stroke-width="1.14629"/>
<path d="M56.9822 68.3209L56.9822 68.4545L58.8099 70.5496L58.8099 70.8086L57.4867 70.8086L55.8895 68.9173L55.4334 68.9173L55.4334 70.8086L54.2422 70.8086L54.2422 66.2559L55.4334 66.2559L55.4334 67.9366L55.8812 67.9366L57.3447 66.2559L58.5777 66.2559L58.5777 66.5148L56.9805 68.3225L56.9822 68.3209Z" fill="#1207E5"/>
<path d="M59.3984 67.3047L60.5746 67.3047L60.5746 69.4549L60.6231 69.4549L61.7508 67.3047L63.0824 67.3047L63.0824 70.8082L61.9062 70.8082L61.9062 68.658L61.8577 68.658L60.73 70.8082L59.3984 70.8082L59.3984 67.3047Z" fill="#1207E5"/>
<path d="M64.0796 65.856C64.3736 65.856 64.5357 66.0447 64.5357 66.3672C64.5357 66.6896 64.3753 66.8851 64.0796 66.8851C63.7638 66.8851 63.5684 66.6963 63.5684 66.3672C63.5684 66.0381 63.7638 65.856 64.0796 65.856ZM64.0512 67.3061L65.2274 67.3061L65.2274 70.8096L64.0512 70.8096L64.0512 67.3061ZM65.2073 65.856C65.5147 65.856 65.7119 66.0447 65.7119 66.3672C65.7119 66.6896 65.5164 66.8851 65.2073 66.8851C64.92 66.8851 64.7445 66.6963 64.7445 66.3672C64.7445 66.0381 64.92 65.856 65.2073 65.856Z" fill="#1207E5"/>
<path d="M66.1973 67.3047L67.8362 67.3047C68.8587 67.3047 69.6089 67.6689 69.6089 68.3138C69.6089 68.6563 69.3783 68.8818 69.0843 69.0222L69.0843 69.0857C69.3716 69.1909 69.6523 69.4148 69.6523 69.759C69.6523 70.3688 68.994 70.8098 67.8663 70.8098L66.1989 70.8098L66.1989 67.3064L66.1973 67.3047ZM67.8997 68.2637L67.3751 68.2637L67.3751 68.7465L67.9916 68.7465C68.2305 68.7465 68.3709 68.6479 68.3709 68.5093C68.3709 68.3556 68.2021 68.2704 67.9014 68.2637L67.8997 68.2637ZM68.0334 69.363L67.3751 69.363L67.3751 69.8458L67.9148 69.8458C68.2439 69.8458 68.4193 69.7623 68.4193 69.6003C68.4193 69.4599 68.2723 69.3613 68.0351 69.3613L68.0334 69.363Z" fill="#1207E5"/>
<path d="M74.0564 69.4074L74.0564 69.6313C73.8743 70.2962 73.1174 70.891 72.1518 70.891C71.0374 70.891 70.2187 70.1759 70.2187 69.0549C70.2187 67.9338 71.0391 67.2188 72.1518 67.2188C73.0773 67.2188 73.8743 67.8068 74.0564 68.4801L74.0564 68.704L72.8234 68.704C72.7115 68.4651 72.4659 68.3264 72.1501 68.3264C71.7023 68.3264 71.4083 68.5988 71.4083 69.0549C71.4083 69.511 71.7023 69.7833 72.1501 69.7833C72.4659 69.7833 72.7098 69.643 72.8234 69.4057L74.0564 69.4057L74.0564 69.4074Z" fill="#1207E5"/>
<path d="M74.8262 67.3047L76.004 67.3047L76.004 68.2019L76.4585 68.2019C77.628 68.2019 78.2445 68.7549 78.2445 69.505C78.2445 70.2552 77.628 70.8082 76.4585 70.8082L74.8262 70.8082L74.8262 67.3047ZM76.5069 69.1959L76.0024 69.1959L76.0024 69.8124L76.5069 69.8124C76.8644 69.8124 77.0115 69.6788 77.0115 69.505C77.0115 69.3313 76.8644 69.1976 76.5069 69.1976L76.5069 69.1959Z" fill="#1207E5"/>
<path d="M80.3679 69.4983L80.1156 69.4983L80.1156 70.8082L78.9395 70.8082L78.9395 67.3047L80.1156 67.3047L80.1156 68.6145L80.3529 68.6145L81.3553 67.3047L82.5248 67.3047L82.5248 67.4651L81.3135 69.0205L82.6167 70.6461L82.6167 70.8065L81.3837 70.8065L80.3679 69.4967L80.3679 69.4983Z" fill="#1207E5"/>
<path d="M82.9434 69.0568C82.9434 67.9358 83.7637 67.2207 84.8764 67.2207C85.9891 67.2207 86.8094 67.9358 86.8094 69.0568C86.8094 70.1779 85.9891 70.8929 84.8764 70.8929C83.7637 70.8929 82.9434 70.1779 82.9434 69.0568ZM84.1346 69.0568C84.1346 69.5129 84.4286 69.7852 84.878 69.7852C85.3275 69.7852 85.6198 69.5129 85.6198 69.0568C85.6198 68.6007 85.3258 68.3284 84.878 68.3284C84.4303 68.3284 84.1346 68.6007 84.1346 69.0568Z" fill="#1207E5"/>
<path d="M87.6089 65.856C87.9029 65.856 88.0633 66.0447 88.0633 66.3672C88.0633 66.6896 87.9029 66.8851 87.6089 66.8851C87.2931 66.8851 87.0977 66.6963 87.0977 66.3672C87.0977 66.0381 87.2931 65.856 87.6089 65.856ZM87.5805 67.3061L88.7567 67.3061L88.7567 70.8096L87.5805 70.8096L87.5805 67.3061ZM88.7366 65.856C89.044 65.856 89.2412 66.0447 89.2412 66.3672C89.2412 66.6896 89.044 66.8851 88.7366 66.8851C88.4493 66.8851 88.2738 66.6963 88.2738 66.3672C88.2738 66.0381 88.4493 65.856 88.7366 65.856Z" fill="#1207E5"/>
<path d="M91.2793 69.0568C91.2793 67.9358 92.0996 67.2207 93.2123 67.2207C94.325 67.2207 95.1453 67.9358 95.1453 69.0568C95.1453 70.1779 94.325 70.8929 93.2123 70.8929C92.0996 70.8929 91.2793 70.1779 91.2793 69.0568ZM92.4705 69.0568C92.4705 69.5129 92.7646 69.7852 93.214 69.7852C93.6634 69.7852 93.9558 69.5129 93.9558 69.0568C93.9558 68.6007 93.6617 68.3284 93.214 68.3284C92.7662 68.3284 92.4705 68.6007 92.4705 69.0568Z" fill="#1207E5"/>
<path d="M99.5865 69.1614C99.5865 70.2123 98.6609 70.8923 97.737 70.8923C96.5458 70.8923 95.7187 70.0302 95.7187 68.5449C95.7187 66.9761 96.783 66.1558 97.9608 66.0221C98.1496 66.0004 98.3668 65.9586 98.3668 65.8267L99.4528 65.8267C99.4528 66.7305 98.8998 67.0179 97.9608 67.1298C97.3026 67.2134 96.9033 67.3955 96.7145 67.9284L96.7429 67.9418C96.9952 67.6544 97.3878 67.4239 97.8489 67.4239C98.9148 67.4239 99.5865 68.1523 99.5865 69.1614ZM97.7153 69.7996C98.1496 69.7996 98.4437 69.554 98.4437 69.113C98.4437 68.6719 98.1496 68.4263 97.7153 68.4263C97.2809 68.4263 96.9868 68.6719 96.9868 69.113C96.9868 69.554 97.2809 69.7996 97.7153 69.7996Z" fill="#1207E5"/>
<path d="M100.086 69.7088C100.128 69.7155 100.211 69.7222 100.268 69.7222C100.428 69.7222 100.562 69.652 100.575 69.358L100.646 67.3047L103.756 67.3047L103.756 70.8082L102.58 70.8082L102.58 68.399L101.725 68.399L101.697 69.4365C101.675 70.2485 101.311 70.8583 100.652 70.8583C100.448 70.8583 100.281 70.8299 100.086 70.8082L100.086 69.7088Z" fill="#1207E5"/>
<path d="M108.308 70.8074L107.132 70.8074L107.132 70.4783C106.858 70.744 106.502 70.891 106.088 70.891C105.184 70.891 104.525 70.1759 104.525 69.0549C104.525 67.9338 105.184 67.2188 106.088 67.2188C106.5 67.2188 106.858 67.3725 107.132 67.6398L107.132 67.304L108.308 67.304L108.308 70.8074ZM107.173 69.0565C107.173 68.6021 106.886 68.3281 106.445 68.3281C106.004 68.3281 105.717 68.6004 105.717 69.0565C105.717 69.5126 106.004 69.785 106.445 69.785C106.886 69.785 107.173 69.5126 107.173 69.0565Z" fill="#1207E5"/>
<path d="M112.922 69.4074L112.922 69.6313C112.74 70.2962 111.983 70.891 111.017 70.891C109.903 70.891 109.084 70.1759 109.084 69.0549C109.084 67.9338 109.904 67.2188 111.017 67.2188C111.941 67.2188 112.74 67.8068 112.922 68.4801L112.922 68.704L111.689 68.704C111.577 68.4651 111.331 68.3264 111.015 68.3264C110.568 68.3264 110.272 68.5988 110.272 69.0549C110.272 69.511 110.566 69.7833 111.015 69.7833C111.331 69.7833 111.575 69.643 111.689 69.4057L112.922 69.4057L112.922 69.4074Z" fill="#1207E5"/>
<path d="M115.61 70.8065L114.433 70.8065L114.433 68.3973L113.369 68.3973L113.369 67.3047L116.669 67.3047L116.669 68.3973L115.611 68.3973L115.611 70.8065L115.61 70.8065Z" fill="#1207E5"/>
<path d="M117.896 65.7432C118.26 65.7432 118.491 65.9737 118.491 66.3379C118.491 66.7022 118.26 66.9327 117.896 66.9327C117.532 66.9327 117.293 66.7088 117.293 66.3379C117.293 65.967 117.532 65.7432 117.896 65.7432ZM117.308 67.3053L118.484 67.3053L118.484 70.8088L117.308 70.8088L117.308 67.3053Z" fill="#1207E5"/>
<path d="M49.7838 68.1836L49.7838 69.1209L29.7637 69.1209L29.909 68.1836L49.7838 68.1836Z" fill="#1207E5"/>
<path d="M122.352 69.1209L122.352 68.1836L142.37 68.1836L142.225 69.1209L122.352 69.1209Z" fill="#1207E5"/>
<path d="M41.3864 59.9241L44.7863 59.9241C44.9384 59.0603 45.0854 58.22 45.2391 57.3462L41.8275 57.3462C41.6771 58.225 41.5335 59.0603 41.3848 59.9241L41.3864 59.9241Z" fill="#1207E5"/>
<path d="M33.0853 47.5898L30.5625 64.312L142.853 64.312L145.376 47.5898L33.0853 47.5898ZM48.7349 57.0143C48.5427 58.0886 48.3189 59.1579 48.1752 60.2371C48.0833 60.9272 47.8343 61.4417 47.1861 61.7558C46.9338 61.8778 46.7049 62.0515 46.4727 62.2169L37.531 62.2169C37.5678 62.1067 37.5962 61.9881 37.6179 61.8611C38.044 59.2932 38.5034 56.732 38.9177 54.1624C39.0029 53.6395 39.1867 53.4691 39.7297 53.5058C40.6135 53.566 41.5057 53.5226 42.4513 53.5226C42.4062 53.9586 42.3694 54.3161 42.3243 54.7572C43.8447 54.7572 45.3266 54.7539 46.8085 54.7572C47.9881 54.7605 48.9353 55.8766 48.7332 57.0127L48.7349 57.0143ZM49.343 53.4825L45.9815 53.4825C46.0216 53.0798 46.0584 52.7006 46.1035 52.2411C44.0418 52.2411 42.0152 52.2127 39.9903 52.2595C39.4206 52.2729 39.1416 52.1175 38.9495 51.5879C38.7256 50.968 38.4048 50.3849 38.0941 49.715L50.0163 49.715C49.7874 50.9948 49.5685 52.2227 49.343 53.4841L49.343 53.4825ZM62.819 51.8836C62.3228 54.7154 61.8049 57.5456 61.3354 60.3825C61.2335 61.0007 60.9895 61.4234 60.4399 61.7107C60.1659 61.8544 59.9136 62.0382 59.653 62.2186L51.9961 62.2186C50.9669 61.557 50.9051 60.6381 51.1908 59.4486C51.6536 57.5273 51.9092 55.5558 52.2567 53.5877L55.6633 53.5877C55.2958 55.7045 54.9332 57.7879 54.5623 59.9197L57.9672 59.9197C58.4133 57.4086 58.8627 54.8808 59.3322 52.2361L57.7266 52.2361C56.1629 52.2361 54.6007 52.2244 53.0369 52.2445C52.6427 52.2495 52.4021 52.1559 52.2383 51.765C51.9627 51.1067 51.6235 50.4735 51.2693 49.7467C51.4999 49.725 51.6553 49.6983 51.8123 49.6983C54.8647 49.6949 57.9154 49.6933 60.9678 49.6983C62.0388 49.7 63.0011 50.8411 62.8173 51.8836L62.819 51.8836ZM75.2324 52.3931C74.9183 53.429 74.8431 54.5367 74.6176 55.6043C74.5641 55.8582 74.3686 56.1188 74.1681 56.2993C73.2593 57.1163 72.2 57.4187 70.9637 57.3184C69.8343 57.2265 68.6932 57.2984 67.5103 57.2984C67.2313 58.8672 66.9757 60.3775 66.685 61.8811C66.6633 61.9947 66.6165 62.1033 66.5564 62.2186L63.2166 62.2186C63.7128 59.4085 64.2274 56.4981 64.747 53.5643L68.1118 53.5643C68.075 53.9536 68.0416 54.3111 67.9999 54.7572C69.039 54.7572 70.0465 54.7706 71.0539 54.7422C71.1842 54.7388 71.3931 54.5417 71.4232 54.403C71.5718 53.7281 71.6721 53.0431 71.8091 52.2378L70.9687 52.2378C69.1827 52.2378 67.3951 52.2144 65.6091 52.2528C65.1012 52.2628 64.8489 52.0907 64.6618 51.6447C64.3978 51.0131 64.0804 50.4033 63.7446 49.6983L70.3188 49.6983C71.3613 49.6983 72.4039 49.6732 73.4447 49.7133C73.7588 49.725 74.0913 49.8821 74.3736 50.0441C75.3026 50.5804 75.5565 51.3205 75.2307 52.3931L75.2324 52.3931ZM87.9164 51.9554C87.4253 54.7388 86.9123 57.5172 86.4579 60.3073C86.3493 60.979 86.0954 61.4451 85.4906 61.7525C85.2433 61.8778 85.0144 62.0415 84.7655 62.2169L77.2539 62.2169C76.8697 61.9079 76.5155 61.6205 76.1697 61.3231C76.0828 61.2479 76.0494 61.0491 76.0711 60.9221C76.4954 58.4829 76.9332 56.0453 77.3709 53.5877L80.7741 53.5877C80.4066 55.7028 80.044 57.7845 79.6665 59.9565C80.7424 59.9565 81.7532 59.9698 82.7623 59.9414C82.8926 59.9381 83.1065 59.7343 83.1315 59.5973C83.5743 57.1864 83.9919 54.7706 84.4364 52.2378L83.1365 52.2378C81.4742 52.2378 79.8118 52.2277 78.1495 52.2461C77.7568 52.2511 77.5129 52.1643 77.3475 51.7716C77.0718 51.1134 76.7327 50.4802 76.3785 49.7534C76.6558 49.7317 76.8613 49.7016 77.0652 49.7016C80.0424 49.6983 83.0196 49.6983 85.9968 49.7016C87.1847 49.7016 88.1169 50.8076 87.9148 51.9604L87.9164 51.9554ZM95.5483 61.6055C95.5115 61.8093 95.4631 62.0181 95.4581 62.2186L91.998 62.2186C92.0247 62.1384 92.0481 62.0582 92.0632 61.9764C92.5393 59.3918 92.9854 56.8022 93.4432 54.2159C93.4783 54.0221 93.5334 53.8316 93.5869 53.6061L96.9734 53.6061C96.4939 56.2959 96.0177 58.9507 95.5483 61.6071L95.5483 61.6055ZM100.036 52.2344C97.0152 52.2378 93.9945 52.2261 90.9722 52.2478C90.5111 52.2511 90.2521 52.1208 90.0733 51.6898C89.8094 51.0549 89.4852 50.4451 89.1394 49.7267L101.063 49.7267C100.92 50.5604 100.783 51.3506 100.637 52.1826C100.413 52.2027 100.223 52.2344 100.034 52.2361L100.036 52.2344ZM111.918 56.4964C111.691 57.8413 111.435 59.1813 111.231 60.5279C111.154 61.0391 110.941 61.3782 110.486 61.6289C110.175 61.8009 109.878 61.9981 109.552 62.2186L100.828 62.2186C100.96 61.0324 101.08 59.8445 101.204 58.655L104.67 58.655C104.62 59.0894 104.575 59.492 104.525 59.9297L107.898 59.9297C108.049 59.0743 108.199 58.229 108.364 57.2934L101.541 57.2934C101.777 55.9367 101.949 54.6586 102.236 53.4056C102.427 52.5753 102.33 51.8569 101.897 51.1384C101.645 50.7191 101.458 50.2613 101.205 49.7451L106.281 49.7451C105.992 51.4074 105.706 53.0364 105.407 54.7555C106.934 54.7555 108.393 54.804 109.848 54.7388C110.869 54.6921 111.271 55.5241 111.92 56.0036C111.998 56.062 111.946 56.3294 111.92 56.4931L111.918 56.4964ZM124.141 56.4162C123.885 57.9065 123.625 59.3968 123.356 60.8837C123.331 61.0207 123.28 61.2028 123.179 61.2713C122.709 61.5904 122.233 61.9012 121.742 62.2186L112.835 62.2186C112.87 62.1217 112.897 62.0231 112.915 61.9229C113.39 59.3383 113.833 56.7487 114.289 54.1608C114.322 53.9686 114.386 53.7832 114.442 53.5626L117.765 53.5626C117.729 53.9536 117.694 54.3111 117.65 54.7572C119.112 54.7572 120.547 54.8224 121.972 54.7355C123.032 54.6703 123.458 55.499 124.122 55.9986C124.194 56.052 124.163 56.2776 124.139 56.4162L124.141 56.4162ZM124.665 53.4825L121.304 53.4825C121.342 53.0848 121.379 52.7056 121.426 52.2361L116.887 52.2361C115.215 52.2361 114.074 51.3985 113.465 49.7233L125.339 49.7233C125.112 50.9948 124.893 52.2211 124.667 53.4825L124.665 53.4825ZM136.32 62.2186L132.972 62.2186C132.952 62.1117 132.944 62.0181 132.959 61.9296C133.203 60.4627 133.475 59.0008 133.747 57.4888L137.154 57.4888C136.873 59.0793 136.598 60.6481 136.322 62.2169L136.32 62.2186ZM137.396 56.0988C136.442 56.0988 135.503 56.062 134.569 56.1188C134.257 56.1389 133.849 56.3193 133.671 56.5633C132.316 58.3994 131.013 60.2739 129.681 62.1267C129.659 62.1585 129.638 62.1885 129.617 62.2186L125.962 62.2186C126.03 62.0666 126.084 61.9162 126.114 61.7608C126.67 58.8388 127.195 55.91 127.686 52.9762C127.755 52.5702 127.648 52.0991 127.501 51.7031C127.263 51.0582 126.926 50.4501 126.593 49.7501L131.669 49.7501C131.318 51.7683 130.971 53.7615 130.623 55.753C130.658 55.7747 130.693 55.7981 130.728 55.8198C130.881 55.6176 131.038 55.4188 131.185 55.2133C132.364 53.556 133.559 51.9103 134.71 50.2329C135.001 49.8086 135.315 49.6649 135.809 49.6849C136.673 49.72 137.54 49.6949 138.522 49.6949C138.145 51.8468 137.777 53.9319 137.398 56.0971L137.396 56.0988Z" fill="#1207E5"/>
<path d="M116.711 59.929L120.108 59.929C120.26 59.0752 120.408 58.2315 120.567 57.3394L117.154 57.3394C117.005 58.2115 116.861 59.0485 116.711 59.929Z" fill="#1207E5"/>
<path d="M125.639 40.0247L127.39 40.0247C127.371 40.2269 127.353 40.4123 127.331 40.6445C127.871 40.6445 128.395 40.6512 128.918 40.6362C128.987 40.6345 129.095 40.5326 129.112 40.4608C129.189 40.1099 129.241 39.754 129.311 39.3497L125.767 39.3497C125.846 38.8853 125.916 38.4743 125.991 38.0365C126.117 38.0282 126.228 38.0132 126.339 38.0132C127.603 38.0132 128.868 38.0282 130.133 38.0031C130.616 37.9931 130.826 38.3623 131.109 38.6146C131.206 38.7015 131.147 38.9922 131.12 39.1843C131.065 39.5803 130.97 39.9696 130.915 40.3655C130.86 40.7615 130.789 41.134 130.245 41.3028C130.786 41.5501 130.644 41.9226 130.576 42.2852C130.482 42.7797 130.409 43.2776 130.302 43.7688C130.273 43.9024 130.175 44.0411 130.069 44.1347C129.588 44.564 129.034 44.7244 128.372 44.691C127.329 44.6375 126.282 44.676 125.236 44.676L124.818 44.676C125.094 43.1038 125.365 41.5718 125.635 40.0264L125.639 40.0247ZM128.846 41.9911L127.07 41.9911C126.994 42.4472 126.918 42.8816 126.842 43.336L128.609 43.336C128.688 42.8883 128.765 42.4506 128.846 41.9911Z" fill="#1207E5"/>
<path d="M80.4072 42.1045C80.0764 41.8439 79.7757 41.6217 79.495 41.3744C79.4399 41.326 79.4432 41.1839 79.4583 41.0921C79.5769 40.3803 79.6905 39.6669 79.8409 38.9602C79.8759 38.7965 80.0146 38.6328 80.1449 38.5141C80.6077 38.0931 81.1557 37.9812 81.7806 38.0062C82.8248 38.0497 83.8706 38.0179 84.9165 38.0179C85.0435 38.0179 85.1704 38.0179 85.3358 38.0179C85.2673 38.4239 85.2239 38.7948 85.127 39.1524C85.1036 39.2392 84.9048 39.3295 84.7845 39.3311C83.8556 39.3462 82.9267 39.3395 81.9978 39.3395C81.8574 39.3395 81.7187 39.3395 81.5517 39.3395C81.4731 39.7805 81.398 40.1949 81.3211 40.6326L83.077 40.6326C83.1238 40.4388 83.1706 40.2417 83.2207 40.0295L84.98 40.0295C84.7093 41.5782 84.4403 43.1053 84.1697 44.654L82.3954 44.654C82.5474 43.7736 82.6961 42.9014 82.8481 42.021C82.4756 41.9024 82.2383 41.9792 82.0412 42.3267C81.6352 43.0451 81.1941 43.7435 80.743 44.4352C80.6645 44.5554 80.4707 44.659 80.3254 44.6674C79.8542 44.6975 79.3797 44.6791 78.8301 44.6791C79.3948 43.7585 79.9227 42.8964 80.4089 42.1028L80.4072 42.1045Z" fill="#1207E5"/>
<path d="M51.1775 39.3437L47.6656 39.3437C47.6472 38.9511 47.7258 38.6837 48.0666 38.4465C48.5227 38.1307 48.9788 37.982 49.5351 38.0071C50.3605 38.0455 51.1875 38.0155 52.0128 38.0171C52.5792 38.0188 53.0904 38.6002 52.9952 39.1382C52.7245 40.6752 52.4556 42.2123 52.1682 43.746C52.1398 43.898 52.0145 44.0534 51.8925 44.1637C51.4214 44.5931 50.8667 44.7301 50.2252 44.69C49.4399 44.6415 48.6497 44.6566 47.8644 44.6883C47.5052 44.7017 47.3549 44.4327 47.1093 44.289C46.7801 44.0952 46.8186 43.8362 46.877 43.5255C47.0942 42.3727 47.2914 41.2166 47.4985 40.0454L49.2728 40.0454C49.0807 41.1447 48.8919 42.2206 48.6981 43.3283L50.4707 43.3283C50.7013 42.0252 50.9369 40.7036 51.1791 39.342L51.1775 39.3437Z" fill="#1207E5"/>
<path d="M100.559 39.3395C100.506 38.9002 100.664 38.6445 101.003 38.409C101.428 38.1149 101.852 37.9863 102.367 38.0046C103.217 38.0364 104.071 38.0113 104.923 38.0147C105.458 38.0163 105.972 38.6078 105.884 39.119C105.62 40.631 105.347 42.1413 105.09 43.655C105.045 43.9173 104.916 44.071 104.706 44.2297C104.253 44.5722 103.78 44.7192 103.204 44.6875C102.405 44.6424 101.602 44.6507 100.803 44.6875C100.432 44.7042 100.26 44.4553 100.004 44.2982C99.6635 44.0894 99.7053 43.8204 99.7654 43.4996C99.9626 42.4471 100.14 41.3912 100.327 40.337C100.345 40.2384 100.38 40.1415 100.409 40.0379L102.156 40.0379C101.964 41.1439 101.775 42.2282 101.583 43.3359L103.356 43.3359C103.59 42.0194 103.822 40.7029 104.064 39.3395L100.559 39.3395Z" fill="#1207E5"/>
<path d="M138.263 40.0374L140.035 40.0374C139.843 41.1401 139.654 42.2244 139.462 43.3337L141.235 43.3337C141.467 42.0239 141.701 40.7091 141.943 39.3441L138.43 39.3441C138.413 38.9348 138.505 38.6658 138.846 38.4335C139.292 38.1295 139.731 37.9758 140.278 38.0025C141.115 38.0426 141.955 38.0108 142.795 38.0142C143.355 38.0159 143.856 38.6056 143.759 39.1503C143.494 40.6623 143.233 42.1743 142.946 43.6829C142.911 43.8684 142.759 44.0555 142.612 44.1908C142.164 44.6085 141.626 44.7221 141.013 44.687C140.214 44.6419 139.412 44.6787 138.612 44.6753C138.046 44.6737 137.549 44.0939 137.645 43.5476C137.848 42.3798 138.056 41.2136 138.263 40.0391L138.263 40.0374Z" fill="#1207E5"/>
<path d="M37.3472 39.8702C37.0365 40.5685 36.7241 41.2669 36.3832 42.0304L39.4072 42.0304C39.4874 42.9326 39.5626 43.7863 39.6394 44.6618L37.8752 44.6618C37.8301 44.2424 37.785 43.8231 37.7348 43.3636C37.13 43.3636 36.5403 43.3586 35.9505 43.3703C35.872 43.372 35.7935 43.4672 35.7183 43.5223C35.6999 43.5357 35.6949 43.5675 35.6832 43.5908C35.5094 43.9484 35.3357 44.3059 35.1619 44.6634L33.4277 44.6634C33.7519 43.9333 34.0576 43.2417 34.365 42.55C34.8261 41.5141 35.2739 40.4716 35.7584 39.4475C35.9138 39.1217 35.9288 38.8527 35.7383 38.552C35.6448 38.4049 35.5913 38.2312 35.5078 38.0391L39.043 38.0391C39.1416 39.1367 39.2401 40.2227 39.3404 41.3304L37.5744 41.3304C37.5243 40.8576 37.4742 40.3781 37.4224 39.8969C37.3957 39.8885 37.3706 39.8785 37.3439 39.8702L37.3472 39.8702Z" fill="#1207E5"/>
<path d="M68.5368 44.6639L66.7692 44.6639C66.7241 44.2396 66.679 43.8219 66.6289 43.3641C66.0207 43.3641 65.4309 43.3574 64.8412 43.3708C64.7627 43.3725 64.6875 43.4694 64.6106 43.5245C64.6023 43.5312 64.5989 43.5479 64.5939 43.5579C64.4152 43.9272 64.3249 44.4635 64.0326 44.6205C63.68 44.8093 63.1538 44.674 62.7027 44.679C62.6008 44.679 62.4972 44.679 62.3418 44.679C62.3886 44.547 62.417 44.4451 62.4587 44.3482C62.7578 43.6765 63.0702 43.0116 63.3526 42.335C63.4478 42.1077 63.5648 42.0309 63.8087 42.0359C64.5689 42.0509 65.3307 42.0409 66.0909 42.0409C66.2162 42.0409 66.3415 42.0409 66.5136 42.0409C66.4467 41.2924 66.3849 40.5907 66.3231 39.889L66.2446 39.859C66.0625 40.2566 65.8687 40.6509 65.7049 41.0552C65.6147 41.2807 65.4894 41.3643 65.2438 41.3526C64.781 41.3325 64.3183 41.3476 63.7886 41.3476C63.9674 40.9449 64.1278 40.5857 64.2865 40.2265C64.5739 39.5783 64.8562 38.9284 65.1553 38.2868C65.2054 38.1782 65.3307 38.0329 65.4243 38.0295C66.2463 38.0095 67.0699 38.0178 67.9337 38.0178C68.1342 40.2432 68.333 42.4419 68.5318 44.6623L68.5368 44.6639Z" fill="#1207E5"/>
<path d="M118.545 44.6731C118.745 43.5437 118.938 42.4544 119.135 41.3417C119.623 41.3417 120.087 41.3283 120.55 41.3467C120.807 41.3567 120.969 41.2816 121.121 41.0594C121.764 40.1238 122.438 39.2099 123.084 38.2759C123.228 38.0688 123.38 37.9953 123.624 38.0053C124.085 38.0237 124.549 38.0103 125.059 38.0103C124.665 40.2424 124.277 42.4344 123.886 44.6464L122.112 44.6464C122.292 43.6139 122.469 42.5914 122.648 41.5672C122.628 41.5556 122.61 41.5439 122.59 41.5338C122.531 41.6007 122.466 41.6625 122.414 41.7343C121.778 42.6265 121.138 43.517 120.511 44.4175C120.379 44.6079 120.239 44.6865 120.005 44.6764C119.531 44.6581 119.054 44.6714 118.547 44.6714L118.545 44.6731Z" fill="#1207E5"/>
<path d="M107.696 44.6579L105.924 44.6579C106.198 43.1024 106.467 41.5704 106.739 40.025L108.492 40.025C108.472 40.2288 108.453 40.4159 108.433 40.6248L110.182 40.6248C110.256 40.2238 110.331 39.8111 110.416 39.3483L106.869 39.3483C106.948 38.8839 107.018 38.4712 107.092 38.0368C107.222 38.0285 107.334 38.0134 107.446 38.0134C108.711 38.0134 109.977 38.0118 111.242 38.0134C111.835 38.0134 112.331 38.5898 112.231 39.1612C112.142 39.6691 112.057 40.1787 111.95 40.6832C111.898 40.9272 111.878 41.2596 111.715 41.3799C111.327 41.6673 110.963 42.0265 110.383 41.9814C109.69 41.9279 108.99 41.9714 108.293 41.973C108.268 41.973 108.244 41.9847 108.173 42.0031C108.017 42.8652 107.859 43.7473 107.695 44.6579L107.696 44.6579Z" fill="#1207E5"/>
<path d="M136.433 44.6619L134.66 44.6619C134.812 43.7747 134.961 42.9043 135.116 42.0004L133.347 42.0004C133.188 42.8809 133.029 43.763 132.869 44.6585L131.1 44.6585C131.332 43.3303 131.561 42.0171 131.798 40.6471L132.287 40.6471C133.178 40.6471 134.068 40.6354 134.959 40.6538C135.253 40.6605 135.387 40.6037 135.432 40.2762C135.534 39.5361 135.689 38.8043 135.829 38.0425L137.604 38.0425C137.213 40.2528 136.823 42.4548 136.433 44.6635L136.433 44.6619Z" fill="#1207E5"/>
<path d="M59.4963 43.3461C59.3326 44.265 59.1806 45.112 59.0252 45.9758L57.2542 45.9758C57.3261 45.5498 57.3929 45.1455 57.4681 44.6927L53.0273 44.6927C53.4233 42.4506 53.8109 40.2586 54.2019 38.0449L55.9778 38.0449C55.6704 39.8059 55.3647 41.5534 55.0506 43.3461L59.4947 43.3461L59.4963 43.3461Z" fill="#1207E5"/>
<path d="M75.2911 45.98L73.5235 45.98C73.592 45.5557 73.6588 45.1447 73.7323 44.6869L69.2949 44.6869C69.6909 42.4465 70.0785 40.2545 70.4694 38.0425L72.2454 38.0425C71.9363 39.8118 71.6306 41.5593 71.3165 43.3537L75.7589 43.3537C75.5985 44.2559 75.4448 45.1113 75.2911 45.98Z" fill="#1207E5"/>
<path d="M98.627 44.6648L96.8527 44.6648C97.1634 42.8921 97.4708 41.1379 97.7849 39.3368L94.2363 39.3368C94.3165 38.8757 94.3884 38.4631 94.4635 38.0337L99.7981 38.0337C99.4072 40.2474 99.0179 42.446 98.627 44.6648Z" fill="#1207E5"/>
<path d="M41.1699 40.0417L42.9192 40.0417C42.727 41.1427 42.5399 42.2253 42.3428 43.3564C42.9008 43.3564 43.4254 43.3648 43.9483 43.3464C44.0202 43.343 44.1188 43.2211 44.1522 43.1342C44.2073 42.9939 44.219 42.8385 44.2474 42.6864L46.0083 42.6864C45.8931 43.3514 45.7828 43.9946 45.6642 44.6779C45.3417 44.6779 45.0376 44.6779 44.7336 44.6779C43.6643 44.6779 42.5934 44.6779 41.5241 44.6779C40.931 44.6779 40.4315 44.1082 40.5301 43.5419C40.7138 42.4759 40.9026 41.41 41.0897 40.3458C41.1081 40.2455 41.1415 40.1503 41.1699 40.04L41.1699 40.0417Z" fill="#1207E5"/>
<path d="M87.7581 40.0417L89.5291 40.0417C89.3369 41.1477 89.1481 42.232 88.9543 43.338L90.6819 43.338C90.6936 43.3197 90.7052 43.3113 90.7086 43.2996C90.85 42.8786 91.158 42.6681 91.6325 42.6681C91.9165 42.6681 92.1989 42.6697 92.4829 42.6714C92.5079 42.6714 92.5313 42.6831 92.6115 42.7048C92.5013 43.3497 92.3893 43.9996 92.2724 44.6763L89.1983 44.6763C88.966 44.6763 88.7271 44.6412 88.5032 44.683C87.9319 44.7932 87.5459 44.4992 87.1934 44.1249C87.1266 44.0531 87.0714 43.9194 87.0865 43.8275C87.3003 42.5712 87.5275 41.3181 87.7548 40.04L87.7581 40.0417Z" fill="#1207E5"/>
<path d="M145.503 44.6602L143.727 44.6602C144.118 42.4498 144.503 40.2612 144.894 38.0425L146.672 38.0425C146.281 40.2512 145.892 42.4515 145.503 44.6602Z" fill="#1207E5"/>
<path d="M57.7629 38.0371L59.5405 38.0371C59.2682 39.5808 58.9992 41.0995 58.7269 42.6399L56.9492 42.6399C57.2199 41.1045 57.4905 39.5792 57.7629 38.0371Z" fill="#1207E5"/>
<path d="M76.8594 40.0449L78.632 40.0449C78.4716 40.9705 78.3146 41.8777 78.1559 42.7849C78.0623 43.3179 77.9554 43.8475 77.8735 44.3821C77.8401 44.5959 77.7716 44.6945 77.5343 44.6845C77.0482 44.6661 76.5603 44.6795 76.0391 44.6795C76.3181 43.109 76.5887 41.5786 76.8611 40.0449L76.8594 40.0449Z" fill="#1207E5"/>
<path d="M59.7754 44.6578C60.0494 43.1107 60.32 41.582 60.5924 40.0449L62.3683 40.0449C62.096 41.5903 61.8254 43.114 61.553 44.6578L59.7754 44.6578Z" fill="#1207E5"/>
<path d="M74.0324 38.0391L75.8084 38.0391C75.5377 39.5761 75.2687 41.0998 74.9964 42.6436L73.2187 42.6436C73.4911 41.1032 73.7601 39.5778 74.0324 38.0391Z" fill="#1207E5"/>
<path d="M93.2949 44.6581C93.5689 43.1077 93.8379 41.5874 94.1102 40.0503L95.8879 40.0503C95.6155 41.5924 95.3449 43.1194 95.0709 44.6581L93.2949 44.6581Z" fill="#1207E5"/>
<path d="M114.795 40.04L116.571 40.04C116.299 41.5821 116.03 43.1075 115.756 44.6512L113.979 44.6512C114.253 43.1075 114.523 41.5771 114.795 40.04Z" fill="#1207E5"/>
<path d="M46.8411 38.0183C46.7191 38.7033 46.6055 39.3482 46.4885 40.0065L44.7293 40.0065C44.756 39.7826 44.7811 39.5821 44.8095 39.3382L41.316 39.3382C41.2792 38.9072 41.4279 38.6449 41.7704 38.411C42.1965 38.1203 42.6192 37.995 43.1321 38.01C44.2147 38.0401 45.2973 38.02 46.3816 38.02L46.8411 38.02L46.8411 38.0183Z" fill="#1207E5"/>
<path d="M87.9316 39.3386C87.8798 38.9025 88.0352 38.6452 88.3744 38.4097C88.7987 38.1173 89.2214 37.992 89.7343 38.0037C90.9573 38.0321 92.1803 38.0137 93.45 38.0137C93.3297 38.6954 93.2161 39.3386 93.0992 40.0002L91.3399 40.0002C91.3649 39.7813 91.39 39.5808 91.4184 39.3386L87.93 39.3386L87.9316 39.3386Z" fill="#1207E5"/>
<path d="M118.702 38.0449C118.625 38.4793 118.553 38.882 118.476 39.308L113.146 39.308C113.22 38.8836 113.29 38.4793 113.364 38.0449L118.7 38.0449L118.702 38.0449Z" fill="#1207E5"/>
<path d="M119.719 38.0288L121.493 38.0288C121.344 38.8692 121.204 39.6878 121.05 40.5015C121.039 40.5583 120.93 40.6368 120.865 40.6385C120.34 40.6502 119.817 40.6451 119.256 40.6451C119.415 39.7547 119.563 38.9093 119.72 38.0288L119.719 38.0288Z" fill="#1207E5"/>
<path d="M132.27 38.0288L134.045 38.0288C133.929 38.6938 133.817 39.337 133.704 40.0019L131.928 40.0019C132.041 39.352 132.153 38.7105 132.272 38.0288L132.27 38.0288Z" fill="#1207E5"/>
<path d="M77.2113 38.0337L78.984 38.0337C78.9105 38.4681 78.8403 38.8774 78.7668 39.3118L76.9941 39.3118C77.066 38.8891 77.1361 38.4781 77.2113 38.0337Z" fill="#1207E5"/>
<path d="M60.7263 39.3139C60.7998 38.8862 60.87 38.4752 60.9435 38.0425L62.7144 38.0425C62.6409 38.4702 62.5707 38.8812 62.4972 39.3139L60.7246 39.3139L60.7263 39.3139Z" fill="#1207E5"/>
<path d="M145.62 36.3875C145.563 36.7099 145.515 36.9856 145.463 37.288L144.146 37.288C144.183 37.0407 144.203 36.7985 144.263 36.5679C144.283 36.4927 144.412 36.3992 144.496 36.3958C144.852 36.3775 145.211 36.3875 145.62 36.3875Z" fill="#1207E5"/>
<path d="M147.029 36.3779L147.836 36.3779C147.784 36.7037 147.739 36.9877 147.685 37.3219L147.03 37.3219L147.014 37.3068C147.017 37.0262 147.02 36.7455 147.024 36.4648C147.024 36.4364 147.025 36.408 147.027 36.3779L147.029 36.3779Z" fill="#1207E5"/>
<path d="M147.016 37.3086C146.991 37.3136 146.966 37.3169 146.941 37.322L146.359 37.322C146.411 36.9995 146.458 36.7105 146.508 36.4081C146.672 36.3981 146.809 36.3897 146.946 36.3813C146.973 36.4097 146.999 36.4382 147.028 36.4666C147.024 36.7472 147.021 37.0279 147.018 37.3086L147.016 37.3086Z" fill="#1207E5"/>
</svg>
