<svg width="180" height="107" viewBox="0 0 180 107" fill="none" xmlns="http://www.w3.org/2000/svg">
<rect x="0.573147" y="0.573147" width="178.004" height="105.644" rx="1.71944" stroke="#E1E1E1" stroke-width="1.14629"/>
<path d="M138.546 58.6161C138.788 58.8582 138.977 59.1643 139.114 59.5343C139.256 59.8998 139.327 60.2858 139.327 60.6924C139.327 61.099 139.281 61.5764 139.19 62.1246H134.42C134.521 62.6773 134.745 63.1136 135.092 63.4334C135.439 63.7486 135.93 63.9062 136.565 63.9062C137.415 63.9062 138.194 63.7509 138.902 63.4403L139.121 64.4202C138.651 64.6943 137.979 64.8747 137.107 64.9615C136.864 64.9889 136.549 65.0026 136.161 65.0026C135.773 65.0026 135.366 64.925 134.941 64.7697C134.516 64.6143 134.164 64.3859 133.886 64.0844C133.333 63.4859 133.057 62.6088 133.057 61.453C133.057 60.4388 133.388 59.5891 134.05 58.9039C134.722 58.2186 135.56 57.876 136.565 57.876C137.392 57.876 138.052 58.1227 138.546 58.6161ZM138.086 61.1172L138.114 60.7472C138.114 59.9112 137.801 59.3561 137.175 59.082C136.965 58.9907 136.714 58.945 136.421 58.945C136.129 58.945 135.859 59.0021 135.613 59.1163C135.371 59.2305 135.16 59.3858 134.982 59.5823C134.617 59.9843 134.411 60.4959 134.365 61.1172H138.086Z" fill="black"/>
<path d="M131.932 63.3991L132.172 64.3653C131.6 64.7902 130.76 65.0026 129.65 65.0026C128.59 65.0026 127.758 64.6783 127.155 64.0296C126.566 63.3991 126.271 62.5403 126.271 61.453C126.271 60.4388 126.603 59.5891 127.265 58.9039C127.937 58.2186 128.775 57.876 129.78 57.876C130.685 57.876 131.42 58.0838 131.987 58.4996L131.534 59.5206C131.018 59.1368 130.392 58.945 129.657 58.945C129.026 58.945 128.517 59.1871 128.129 59.6713C127.758 60.1282 127.573 60.6947 127.573 61.3708C127.573 62.0972 127.768 62.6956 128.156 63.1662C128.563 63.6595 129.122 63.9062 129.835 63.9062C130.547 63.9062 131.246 63.7372 131.932 63.3991Z" fill="black"/>
<path d="M118.905 58.6914C119.622 58.1478 120.445 57.876 121.372 57.876C123.455 57.876 124.497 59.0204 124.497 61.3091V64.8656H123.195V61.3913C123.195 60.601 123.058 60.014 122.784 59.6302C122.478 59.1917 121.977 58.9724 121.283 58.9724C120.538 58.9724 119.915 59.1551 119.412 59.5206C119.248 59.6348 119.115 59.7673 119.015 59.918V64.8656H117.713V58.013H118.707L118.905 58.6914Z" fill="black"/>
<path d="M115.012 58.6161C115.254 58.8582 115.444 59.1643 115.581 59.5343C115.723 59.8998 115.794 60.2858 115.794 60.6924C115.794 61.099 115.748 61.5764 115.656 62.1246H110.887C110.988 62.6773 111.211 63.1136 111.559 63.4334C111.906 63.7486 112.397 63.9062 113.032 63.9062C113.882 63.9062 114.661 63.7509 115.369 63.4403L115.588 64.4202C115.117 64.6943 114.446 64.8747 113.573 64.9615C113.331 64.9889 113.016 65.0026 112.628 65.0026C112.239 65.0026 111.833 64.925 111.408 64.7697C110.983 64.6143 110.631 64.3859 110.353 64.0844C109.8 63.4859 109.523 62.6088 109.523 61.453C109.523 60.4388 109.855 59.5891 110.517 58.9039C111.189 58.2186 112.027 57.876 113.032 57.876C113.859 57.876 114.519 58.1227 115.012 58.6161ZM114.553 61.1172L114.581 60.7472C114.581 59.9112 114.268 59.3561 113.642 59.082C113.432 58.9907 113.18 58.945 112.888 58.945C112.596 58.945 112.326 59.0021 112.079 59.1163C111.837 59.2305 111.627 59.3858 111.449 59.5823C111.084 59.9843 110.878 60.4959 110.832 61.1172H114.553Z" fill="black"/>
<path d="M106.414 64.2143C105.77 64.7397 104.993 65.0023 104.084 65.0023C103.102 65.0023 102.309 64.678 101.706 64.0293C101.117 63.3989 100.822 62.5811 100.822 61.5761C100.822 60.4842 101.252 59.5843 102.111 58.8762C102.928 58.2092 103.924 57.8757 105.098 57.8757C105.56 57.8757 105.962 57.91 106.304 57.9785V54.1685H107.606V64.8653H106.613L106.414 64.2143ZM106.304 59.1366C105.825 59.0269 105.384 58.9721 104.982 58.9721C104.58 58.9721 104.205 59.0292 103.858 59.1434C103.511 59.2576 103.209 59.4221 102.953 59.6368C102.401 60.1028 102.124 60.7218 102.124 61.4938C102.124 62.17 102.302 62.7342 102.659 63.1864C103.038 63.6661 103.543 63.9059 104.173 63.9059C104.886 63.9059 105.475 63.7278 105.941 63.3714C106.087 63.2572 106.208 63.1247 106.304 62.974V59.1366Z" fill="black"/>
<path d="M99.1076 55.1964C99.1076 55.4522 99.03 55.6578 98.8747 55.8131C98.7193 55.9684 98.5137 56.0461 98.2579 56.0461C98.0021 56.0461 97.7965 55.9684 97.6412 55.8131C97.4859 55.6578 97.4082 55.4522 97.4082 55.1964C97.4082 54.9406 97.4859 54.7373 97.6412 54.5865C97.7965 54.4312 98.0021 54.3535 98.2579 54.3535C98.5137 54.3535 98.7193 54.4312 98.8747 54.5865C99.03 54.7373 99.1076 54.9406 99.1076 55.1964ZM97.6069 58.0128H98.9089V64.8653H97.6069V58.0128Z" fill="black"/>
<path d="M90.5627 63.1867C91.1018 63.5567 91.7185 63.7989 92.4129 63.9131C92.6322 63.9496 92.8378 63.9679 93.0296 63.9679C93.2215 63.9679 93.402 63.9496 93.571 63.9131C93.74 63.8765 93.8931 63.8171 94.0301 63.7349C94.3225 63.5567 94.4687 63.3009 94.4687 62.9674C94.4687 62.6751 94.254 62.4306 93.8245 62.2342C93.6327 62.1474 93.4134 62.0652 93.1667 61.9875L92.4129 61.7408C91.7688 61.5215 91.3233 61.316 91.0766 61.1241C90.8345 60.9322 90.6541 60.7335 90.5353 60.5279C90.4211 60.3223 90.364 60.0688 90.364 59.7673C90.364 59.4612 90.4348 59.1894 90.5764 58.9518C90.7226 58.7097 90.9168 58.5087 91.1589 58.3488C91.634 58.0336 92.1845 57.876 92.8103 57.876C93.9342 57.876 94.8387 58.1204 95.524 58.6092L95.0169 59.5617C94.3133 59.1277 93.5938 58.9107 92.8583 58.9107C92.3421 58.9107 91.9789 59.0592 91.7688 59.3561C91.7002 59.4566 91.666 59.5823 91.666 59.733C91.666 59.8838 91.7231 60.014 91.8373 60.1236C91.9561 60.2333 92.1114 60.3315 92.3033 60.4183C92.4951 60.5005 92.7144 60.5805 92.9611 60.6581L93.7149 60.8911C94.3545 61.1058 94.7976 61.3114 95.0443 61.5078C95.524 61.8916 95.7638 62.3484 95.7638 62.8783C95.7638 63.5682 95.4737 64.105 94.8935 64.4887C94.3773 64.8313 93.7217 65.0026 92.9268 65.0026C92.0954 65.0026 91.3439 64.8382 90.6723 64.5093C90.4485 64.4042 90.2498 64.2786 90.0762 64.1324L90.5627 63.1867Z" fill="black"/>
<path d="M88.1373 58.6161C88.3795 58.8582 88.5691 59.1643 88.7061 59.5343C88.8477 59.8998 88.9185 60.2858 88.9185 60.6924C88.9185 61.099 88.8729 61.5764 88.7815 62.1246H84.0121C84.1126 62.6773 84.3365 63.1136 84.6836 63.4334C85.0308 63.7486 85.5219 63.9062 86.157 63.9062C87.0067 63.9062 87.7856 63.7509 88.4937 63.4403L88.713 64.4202C88.2424 64.6943 87.5709 64.8747 86.6983 64.9615C86.4562 64.9889 86.141 65.0026 85.7526 65.0026C85.3643 65.0026 84.9578 64.925 84.5329 64.7697C84.108 64.6143 83.7563 64.3859 83.4776 64.0844C82.9248 63.4859 82.6484 62.6088 82.6484 61.453C82.6484 60.4388 82.9796 59.5891 83.6421 58.9039C84.3136 58.2186 85.1519 57.876 86.157 57.876C86.9838 57.876 87.644 58.1227 88.1373 58.6161ZM87.6782 61.1172L87.7056 60.7472C87.7056 59.9112 87.3927 59.3561 86.7668 59.082C86.5567 58.9907 86.3054 58.945 86.013 58.945C85.7207 58.945 85.4511 59.0021 85.2044 59.1163C84.9623 59.2305 84.7522 59.3858 84.574 59.5823C84.2085 59.9843 84.003 60.4959 83.9573 61.1172H87.6782Z" fill="black"/>
<path d="M81.127 58.1498C81.127 59.5889 80.4646 60.5825 79.1398 61.1307L80.9831 64.8653H79.5098L77.8447 61.487C77.3924 61.5555 76.9196 61.5898 76.4262 61.5898H73.9044V64.8653H72.6367V55.1621H76.6181C78.0525 55.1621 79.1238 55.3585 79.8319 55.7514C80.6953 56.2265 81.127 57.026 81.127 58.1498ZM76.5975 60.4386C77.6208 60.4386 78.3792 60.297 78.8726 60.0137C79.4801 59.662 79.7839 59.0681 79.7839 58.2321C79.7839 57.1448 79.0804 56.5281 77.6734 56.3819C77.2668 56.3362 76.8488 56.3133 76.4193 56.3133H73.9044V60.4386H76.5975Z" fill="black"/>
<path d="M96.7715 41.3384H98.0735V48.1978L101.15 45.1827H102.672L99.4508 48.3348L101.37 50.4043C101.776 50.8337 102.26 51.069 102.822 51.1101L102.624 52.0352C101.934 52.1312 101.372 52.0032 100.938 51.6515C100.805 51.5418 100.675 51.4162 100.547 51.2746L98.0735 48.6021V52.0352H96.7715V41.3384Z" fill="black"/>
<path d="M94.8806 46.6151C94.602 46.4507 94.3164 46.3684 94.0241 46.3684C93.7363 46.3684 93.4964 46.4415 93.3045 46.5877C93.1172 46.7339 92.9528 46.9189 92.8112 47.1428C92.5325 47.5722 92.3452 48.0747 92.2493 48.6503V52.0355H90.9473V45.1829H92.0231L92.2424 46.437C92.5942 45.7928 93.0442 45.3657 93.5924 45.1555C93.7888 45.0824 93.967 45.0459 94.1269 45.0459C94.2913 45.0459 94.4124 45.0505 94.49 45.0596C94.5677 45.0642 94.6431 45.0733 94.7162 45.087C94.8624 45.1236 95.0154 45.1784 95.1753 45.2515L94.8806 46.6151Z" fill="black"/>
<path d="M87.1849 51.1584C86.3489 51.8345 85.4695 52.1726 84.5467 52.1726C83.9025 52.1726 83.3612 52.0035 82.9226 51.6655C82.4521 51.3 82.2168 50.8226 82.2168 50.2333C82.2168 49.0181 83.0254 48.2072 84.6426 47.8006C85.2959 47.6362 86.0794 47.5448 86.993 47.5265C86.9656 46.7819 86.6024 46.3433 85.9035 46.2108C85.6751 46.1651 85.4603 46.1423 85.2593 46.1423C85.0583 46.1423 84.8802 46.1514 84.7248 46.1697C84.5695 46.188 84.4096 46.2131 84.2452 46.2451C83.8843 46.3136 83.5782 46.3981 83.3269 46.4986L82.9637 45.5256C83.6033 45.2058 84.3754 45.0459 85.2799 45.0459C86.6915 45.0459 87.6212 45.4959 88.0689 46.3959C88.2196 46.7065 88.295 47.0765 88.295 47.506V49.6919C88.295 50.1579 88.3293 50.4686 88.3978 50.6239C88.5212 50.9208 88.7382 51.1104 89.0488 51.1926L88.8569 52.0355C88.0026 52.136 87.4453 51.8436 87.1849 51.1584ZM84.718 48.8765C84.2931 49.0364 83.987 49.2145 83.7997 49.411C83.6124 49.6028 83.5188 49.8107 83.5188 50.0346C83.5188 50.2584 83.5508 50.4297 83.6147 50.5485C83.6787 50.6627 83.7632 50.7586 83.8683 50.8363C84.083 50.9962 84.3342 51.0761 84.622 51.0761C84.9099 51.0761 85.168 51.0465 85.3964 50.9871C85.6294 50.9231 85.8441 50.8409 86.0405 50.7404C86.4243 50.5485 86.7418 50.3109 86.993 50.0277V48.5476C85.9058 48.6024 85.1474 48.712 84.718 48.8765Z" fill="black"/>
<path d="M72.6367 42.332H76.481C77.7784 42.332 78.8154 42.6244 79.5921 43.2092C80.4327 43.8396 80.8529 44.7464 80.8529 45.9296C80.8529 47.1631 80.4098 48.1453 79.5235 48.8762C78.683 49.566 77.6048 49.911 76.2891 49.911H73.9044V52.0353H72.6367V42.332ZM76.4605 48.7597C77.3924 48.7597 78.1279 48.5267 78.667 48.0608C79.2289 47.5765 79.5098 46.8936 79.5098 46.0119C79.5098 45.1667 79.1946 44.5226 78.5642 44.0794C77.9977 43.682 77.2371 43.4833 76.2823 43.4833H73.9044V48.7597H76.4605Z" fill="black"/>
<path fill-rule="evenodd" clip-rule="evenodd" d="M56.8887 64.9254L56.8887 56.2446L61.4754 56.2446L61.4754 64.9254L56.8887 64.9254Z" fill="#688ED9"/>
<path fill-rule="evenodd" clip-rule="evenodd" d="M56.8887 64.9254L56.8887 56.2446L61.4754 56.2446L61.4754 64.9254L56.8887 64.9254Z" fill="url(#paint0_linear_1548_1125)" fill-opacity="0.5"/>
<path fill-rule="evenodd" clip-rule="evenodd" d="M63.315 46.5305H39.1328V41.9834H67.862L67.8621 48.8379C67.8621 54.5266 63.2505 59.1382 57.5617 59.1382H43.6799V64.9254H39.1328V54.5912H57.5617C60.7392 54.5912 63.315 52.0153 63.315 48.8379L63.315 46.5305Z" fill="#688ED9"/>
<path fill-rule="evenodd" clip-rule="evenodd" d="M63.315 46.5305H39.1328V41.9834H67.862L67.8621 48.8379C67.8621 54.5266 63.2505 59.1382 57.5617 59.1382H43.6799V64.9254H39.1328V54.5912H57.5617C60.7392 54.5912 63.315 52.0153 63.315 48.8379L63.315 46.5305Z" fill="url(#paint1_linear_1548_1125)" fill-opacity="0.2"/>
<path fill-rule="evenodd" clip-rule="evenodd" d="M63.315 46.5305L67.862 41.9834L67.8621 48.8379C67.8621 54.5266 63.2505 59.1382 57.5617 59.1382H43.6799V64.9254H39.1328V54.5912H57.5617C60.7392 54.5912 63.315 52.0153 63.315 48.8379L63.315 46.5305Z" fill="#688ED9"/>
<path fill-rule="evenodd" clip-rule="evenodd" d="M63.315 46.5305L67.862 41.9834L67.8621 48.8379C67.8621 54.5266 63.2505 59.1382 57.5617 59.1382H43.6799V64.9254H39.1328V54.5912H57.5617C60.7392 54.5912 63.315 52.0153 63.315 48.8379L63.315 46.5305Z" fill="url(#paint2_linear_1548_1125)" fill-opacity="0.5"/>
<path fill-rule="evenodd" clip-rule="evenodd" d="M43.6799 59.1384V64.9256H39.1328V54.5913L43.6799 59.1384Z" fill="#688ED9"/>
<path fill-rule="evenodd" clip-rule="evenodd" d="M43.6799 59.1384V64.9256H39.1328V54.5913L43.6799 59.1384Z" fill="url(#paint3_linear_1548_1125)" fill-opacity="0.5"/>
<path d="M63.4183 46.5305C59.3673 43.8849 45.5401 42.3968 39.1328 41.9834V46.5305H63.4183Z" fill="#6389D3"/>
<path d="M63.4183 46.5305C59.3673 43.8849 45.5401 42.3968 39.1328 41.9834V46.5305H63.4183Z" fill="url(#paint4_linear_1548_1125)" fill-opacity="0.5"/>
<path d="M67.8621 48.8379C67.8621 54.5266 63.2505 59.1383 57.5617 59.1383H43.6799L39.1328 54.5912C60.008 60.275 67.242 57.4153 67.8621 48.8379Z" fill="#D9D9D9"/>
<path d="M67.8621 48.8379C67.8621 54.5266 63.2505 59.1383 57.5617 59.1383H43.6799L39.1328 54.5912C60.008 60.275 67.242 57.4153 67.8621 48.8379Z" fill="#688ED9"/>
<path d="M67.8621 48.8379C67.8621 54.5266 63.2505 59.1383 57.5617 59.1383H43.6799L39.1328 54.5912C60.008 60.275 67.242 57.4153 67.8621 48.8379Z" fill="url(#paint5_linear_1548_1125)" fill-opacity="0.5"/>
<defs>
<linearGradient id="paint0_linear_1548_1125" x1="59.1821" y1="63.3753" x2="59.1821" y2="56.8647" gradientUnits="userSpaceOnUse">
<stop stop-color="#002958" stop-opacity="0"/>
<stop offset="1" stop-color="#002958"/>
</linearGradient>
<linearGradient id="paint1_linear_1548_1125" x1="63.1083" y1="53.2477" x2="53.1874" y2="38.0564" gradientUnits="userSpaceOnUse">
<stop stop-color="white" stop-opacity="0"/>
<stop offset="1" stop-color="white"/>
</linearGradient>
<linearGradient id="paint2_linear_1548_1125" x1="66.6219" y1="38.1597" x2="61.8682" y2="62.7552" gradientUnits="userSpaceOnUse">
<stop stop-color="#002958"/>
<stop offset="1" stop-color="#002958" stop-opacity="0"/>
</linearGradient>
<linearGradient id="paint3_linear_1548_1125" x1="44.0933" y1="55.0047" x2="39.1328" y2="66.6824" gradientUnits="userSpaceOnUse">
<stop stop-color="#002958"/>
<stop offset="1" stop-color="#002958" stop-opacity="0"/>
</linearGradient>
<linearGradient id="paint4_linear_1548_1125" x1="57.3211" y1="41.3633" x2="47.2843" y2="33.9037" gradientUnits="userSpaceOnUse">
<stop stop-color="#002958"/>
<stop offset="1" stop-color="#002958" stop-opacity="0"/>
</linearGradient>
<linearGradient id="paint5_linear_1548_1125" x1="43.3699" y1="59.3449" x2="56.4806" y2="48.387" gradientUnits="userSpaceOnUse">
<stop stop-color="#002958"/>
<stop offset="1" stop-color="#002958" stop-opacity="0"/>
</linearGradient>
</defs>
</svg>
