<svg width="178" height="107" viewBox="0 0 178 107" fill="none" xmlns="http://www.w3.org/2000/svg">
<rect x="0.573147" y="0.573147" width="176.254" height="105.644" rx="1.71944" stroke="#E1E1E1" stroke-width="1.14629"/>
<path d="M41.2345 40.8462L36.8991 50.9622H34.0878L29.7637 40.8462H32.8572L35.6007 47.4396L38.412 40.8462H41.2345Z" fill="#2F2F2F"/>
<path d="M46.7122 51.1649C45.2049 51.1649 44.0364 50.7556 43.2009 49.9343C42.3711 49.1157 41.959 47.9557 41.959 46.4569V40.8457H44.8154V46.3666C44.8154 47.9867 45.4589 48.794 46.746 48.794C48.0162 48.794 48.6541 47.9867 48.6541 46.3666V40.8457H51.4653V46.4569C51.4653 47.9557 51.0476 49.1157 50.2121 49.9343C49.3823 50.7556 48.2166 51.1649 46.7122 51.1649Z" fill="#2F2F2F"/>
<path d="M56.9478 51.1655C56.1349 51.1655 55.339 51.0639 54.5656 50.8607C53.7978 50.6574 53.1712 50.3865 52.6914 50.0478L53.6285 47.9365C54.0801 48.2385 54.6023 48.4841 55.1978 48.6704C55.799 48.851 56.3889 48.9413 56.9704 48.9413C58.0684 48.9413 58.6188 48.6676 58.6188 48.1172C58.6188 47.8236 58.4607 47.6091 58.1446 47.4736C57.8285 47.3325 57.3232 47.1857 56.6317 47.0333C55.8696 46.8696 55.2345 46.6918 54.7236 46.5027C54.2184 46.3164 53.7809 46.0144 53.414 45.5994C53.0442 45.1874 52.8608 44.6285 52.8608 43.9285C52.8608 43.3132 53.0301 42.7543 53.3688 42.2576C53.7075 41.7608 54.2099 41.3713 54.8817 41.0834C55.5507 40.7898 56.372 40.6431 57.343 40.6431C58.0034 40.6431 58.6583 40.7193 59.3075 40.8689C59.9538 41.0213 60.5212 41.2386 61.0123 41.5237L60.1317 43.6462C59.1663 43.1269 58.2349 42.8672 57.3317 42.8672C56.7587 42.8672 56.341 42.9547 56.0785 43.1269C55.8216 43.2934 55.6946 43.5108 55.6946 43.7817C55.6946 44.0527 55.847 44.2559 56.1575 44.3914C56.4652 44.5269 56.9619 44.668 57.6478 44.8091C58.4155 44.9672 59.0506 45.1422 59.5559 45.3285C60.0667 45.5176 60.5071 45.8196 60.8768 46.2317C61.2437 46.6381 61.43 47.197 61.43 47.9026C61.43 48.5067 61.2607 49.0542 60.922 49.551C60.5889 50.0421 60.0865 50.4316 59.4091 50.7252C58.7317 51.0187 57.9103 51.1655 56.9478 51.1655Z" fill="#2F2F2F"/>
<path d="M72.3673 40.8452V50.9612H69.5109V47.0209H65.6045V50.9612H62.748V40.8452H65.6045V44.65H69.5109V40.8452H72.3673Z" fill="#2F2F2F"/>
<path d="M79.0559 51.1644C77.5487 51.1644 76.3801 50.7552 75.5447 49.9338C74.7148 49.1153 74.3027 47.9552 74.3027 46.4564V40.8452H77.1592V46.3661C77.1592 47.9862 77.8027 48.7935 79.0898 48.7935C80.3599 48.7935 80.9978 47.9862 80.9978 46.3661V40.8452H83.8091V46.4564C83.8091 47.9552 83.3914 49.1153 82.5559 49.9338C81.726 50.7552 80.5603 51.1644 79.0559 51.1644Z" fill="#2F2F2F"/>
<path d="M96.0001 40.8457L91.6647 50.9617H88.8534L84.5293 40.8457H87.6228L90.3663 47.4392L93.1776 40.8457H96.0001Z" fill="#2F2F2F"/>
<path d="M101.016 40.2358H103.522V53.7615H101.016V40.2358Z" fill="#2F2F2F"/>
<path d="M116.531 48.9972H112.252L111.461 50.9617H108.537L113.008 40.8457H115.819L120.302 50.9617H117.321L116.531 48.9972ZM115.695 46.8859L114.385 43.6457L113.087 46.8859H115.695Z" fill="#2F2F2F"/>
<path d="M130.729 40.8457V50.9617H128.369L123.909 45.5763V50.9617H121.109V40.8457H123.458L127.929 46.2311V40.8457H130.729Z" fill="#2F2F2F"/>
<path d="M142.373 40.8457V50.9617H140.014L135.554 45.5763V50.9617H132.754V40.8457H135.102L139.573 46.2311V40.8457H142.373Z" fill="#2F2F2F"/>
<path d="M145.412 51.0973C144.952 51.0973 144.566 50.9449 144.25 50.6344C143.933 50.3267 143.775 49.9344 143.775 49.4602C143.775 48.9804 143.928 48.5909 144.238 48.2973C144.554 47.9981 144.944 47.8457 145.412 47.8457C145.892 47.8457 146.287 47.9981 146.598 48.2973C146.906 48.5909 147.061 48.9804 147.061 49.4602C147.061 49.9344 146.903 50.3267 146.587 50.6344C146.276 50.9449 145.887 51.0973 145.412 51.0973Z" fill="#2F2F2F"/>
<path d="M37.8813 63.9588V66.1716H29.7637V56.0557H37.6894V58.2685H32.5862V59.9733H37.091V62.1072H32.5862V63.9588H37.8813Z" fill="#2F2F2F"/>
<path d="M41.6146 58.3245H38.5098V56.0552H47.5758V58.3245H44.4823V66.1712H41.6146V58.3245Z" fill="#2F2F2F"/>
<path d="M58.2638 56.0552V66.1712H55.9041L51.4445 60.7858V66.1712H48.6445V56.0552H50.9929L55.4638 61.4406V56.0552H58.2638Z" fill="#2F2F2F"/>
<path d="M65.3788 66.375C64.3091 66.375 63.3494 66.1492 62.4998 65.6976C61.6474 65.246 60.9785 64.6222 60.4902 63.8234C60.0075 63.019 59.7676 62.1158 59.7676 61.1138C59.7676 60.1146 60.0075 59.2142 60.4902 58.4154C60.9785 57.611 61.6474 56.9816 62.4998 56.5299C63.3494 56.0783 64.3091 55.8525 65.3788 55.8525C66.4542 55.8525 67.4167 56.0783 68.2691 56.5299C69.1187 56.9816 69.7848 57.611 70.2675 58.4154C70.7558 59.2142 71.0013 60.1146 71.0013 61.1138C71.0013 62.1158 70.7558 63.019 70.2675 63.8234C69.7848 64.6222 69.1187 65.246 68.2691 65.6976C67.4167 66.1492 66.4542 66.375 65.3788 66.375ZM65.3788 64.004C65.8897 64.004 66.3526 63.8855 66.7675 63.6428C67.1796 63.4028 67.507 63.0641 67.7498 62.6266C67.9897 62.192 68.111 61.6867 68.111 61.1138C68.111 60.5436 67.9897 60.0384 67.7498 59.6009C67.507 59.1662 67.1796 58.8275 66.7675 58.5848C66.3526 58.3448 65.8897 58.2235 65.3788 58.2235C64.8736 58.2235 64.4135 58.3448 64.0014 58.5848C63.5865 58.8275 63.2591 59.1662 63.0192 59.6009C62.7764 60.0384 62.6579 60.5436 62.6579 61.1138C62.6579 61.6867 62.7764 62.192 63.0192 62.6266C63.2591 63.0641 63.5865 63.4028 64.0014 63.6428C64.4135 63.8855 64.8736 64.004 65.3788 64.004Z" fill="#2F2F2F"/>
</svg>
