<svg width="178" height="107" viewBox="0 0 178 107" fill="none" xmlns="http://www.w3.org/2000/svg">
<rect x="0.573147" y="0.573147" width="176.254" height="105.644" rx="1.71944" stroke="#E1E1E1" stroke-width="1.14629"/>
<path d="M90.9004 68.4735C90.9951 68.2883 91.0862 68.0735 91.1743 67.8296C91.4723 68.0021 91.8186 68.1371 92.2131 68.2339C92.6076 68.3307 92.975 68.3791 93.3147 68.3791C93.6543 68.3791 93.9083 68.3489 94.0513 68.2877C94.1936 68.2266 94.2654 68.1607 94.2654 68.0886C94.2654 67.8321 93.8751 67.7032 93.0945 67.7032C92.2384 67.7032 91.6171 67.6136 91.2316 67.4351C90.8455 67.256 90.6524 66.9667 90.6524 66.5667C90.6524 65.9985 90.8871 65.5798 91.3577 65.3105C91.8276 65.0412 92.4381 64.9062 93.1892 64.9062C93.6254 64.9062 94.0736 64.9619 94.5333 65.0733C94.993 65.1846 95.4074 65.3377 95.7766 65.5307C95.6547 65.8085 95.5269 66.1474 95.3929 66.5474C95.3676 66.6315 95.3465 66.695 95.3302 66.7368C95.116 66.5643 94.7933 66.4203 94.3607 66.3041C93.9282 66.1885 93.5463 66.1304 93.2151 66.1304C92.8164 66.1304 92.5479 66.1571 92.4092 66.2091C92.2704 66.2617 92.2016 66.3386 92.2016 66.4397C92.2016 66.5407 92.297 66.6218 92.4882 66.6829C92.6788 66.744 92.9551 66.7743 93.3159 66.7743C94.2057 66.7743 94.8518 66.8766 95.2548 67.0805C95.6578 67.285 95.8593 67.5973 95.8593 68.0184C95.8593 68.6078 95.6451 69.032 95.2174 69.2904C94.7891 69.5494 94.1411 69.6789 93.2724 69.6789C92.8067 69.6789 92.3325 69.6275 91.8499 69.524C91.3673 69.4211 90.933 69.2705 90.5469 69.0726C90.6892 68.8578 90.8081 68.6581 90.9028 68.4729L90.9004 68.4735Z" fill="#FF5437"/>
<path d="M99.2165 65.0379C100.051 65.0379 100.633 65.1862 100.96 65.4833C101.287 65.7804 101.451 66.1979 101.451 66.7365C101.451 67.1069 101.386 67.4215 101.256 67.6805C101.126 67.9395 100.897 68.1416 100.57 68.2869C100.243 68.4321 99.792 68.5047 99.2171 68.5047H97.908V69.6157H96.3594C96.3932 68.7994 96.4094 68.0351 96.4094 67.3235C96.4094 66.6119 96.3926 65.8482 96.3594 65.0312H97.908V65.0373H99.2171L99.2165 65.0379ZM98.7761 67.286C99.1242 67.286 99.3854 67.2721 99.5597 67.2448C99.7341 67.2176 99.8553 67.168 99.9247 67.0966C99.9941 67.0252 100.028 66.9199 100.028 66.7807C100.028 66.6415 99.9959 66.5374 99.9307 66.4684C99.8656 66.3989 99.7461 66.3516 99.5718 66.3262C99.3974 66.3008 99.132 66.2881 98.7755 66.2881H97.9068V67.286H98.7755H98.7761Z" fill="#FF5437"/>
<path d="M102.635 69.0506C102.182 68.6319 101.955 68.0437 101.955 67.2861C101.955 66.5284 102.181 65.9517 102.632 65.5306C103.083 65.1094 103.791 64.8994 104.756 64.8994C105.721 64.8994 106.436 65.11 106.887 65.5306C107.338 65.9517 107.564 66.5369 107.564 67.2861C107.564 68.0352 107.339 68.6373 106.89 69.0537C106.442 69.4706 105.73 69.6788 104.757 69.6788C103.783 69.6788 103.089 69.4694 102.636 69.0506H102.635ZM105.764 68.1224C105.969 67.9432 106.072 67.6643 106.072 67.2855C106.072 66.9066 105.969 66.6392 105.764 66.4582C105.558 66.2773 105.222 66.1865 104.757 66.1865C104.291 66.1865 103.962 66.2773 103.756 66.4582C103.55 66.6392 103.448 66.9151 103.448 67.2855C103.448 67.6558 103.55 67.9378 103.756 68.1187C103.962 68.2997 104.295 68.3904 104.757 68.3904C105.218 68.3904 105.558 68.3009 105.764 68.1224Z" fill="#FF5437"/>
<path d="M112.855 67.488C112.677 67.7403 112.371 67.9237 111.94 68.0374C111.99 68.1046 112.025 68.1572 112.046 68.1954L113.066 69.6162H111.354C111.169 69.2713 110.877 68.783 110.479 68.1512H109.554V69.6162H108.068C108.102 68.7999 108.118 68.0356 108.118 67.324C108.118 66.6123 108.102 65.8487 108.068 65.0317H109.554V65.0378H110.844C111.692 65.0378 112.283 65.1745 112.619 65.4481C112.954 65.7216 113.123 66.0919 113.123 66.5591C113.123 66.9252 113.033 67.2344 112.855 67.4874V67.488ZM109.554 66.2505V66.9706H110.404C110.76 66.9706 111.03 66.9591 111.213 66.9361C111.395 66.9131 111.522 66.8762 111.593 66.8254C111.664 66.7751 111.7 66.7013 111.7 66.6045C111.7 66.5077 111.666 66.4405 111.599 66.3897C111.532 66.3394 111.406 66.3037 111.222 66.2825C111.037 66.2614 110.764 66.2511 110.404 66.2511H109.554V66.2505Z" fill="#FF5437"/>
<path d="M118.717 66.3576C118.058 66.3364 117.418 66.3237 116.797 66.3195V69.615H115.224V66.3195C114.599 66.3237 113.961 66.3364 113.311 66.3576V65.0317H118.718V66.3576H118.717Z" fill="#FF5437"/>
<path d="M58.3852 43.5591H60.8519V55.3998H48.9923V43.5591H51.4591V37.48H42.9922V61.4789H66.8521V37.48H58.3852V43.5591Z" fill="#FF5437"/>
<path d="M96.8288 43.4658H90.7617V61.5405H96.8288V43.4658Z" fill="#FF5437"/>
<path d="M87.7295 43.3765V61.5407H81.6449V49.4623H75.8463V61.5407H69.7617V43.3765H87.7295Z" fill="#FF5437"/>
<path d="M128.672 43.4546V55.9911H122.814V43.4546H116.789V61.5293H116.849V61.5408H127.465L121.128 69.672H128.207L134.697 61.5408V61.5293V43.4546H128.672Z" fill="#FF5437"/>
<path d="M109.714 39.3633H103.647V43.4655H99.7246V48.9413H103.647V61.5408H103.725H109.714H113.893V55.9911H109.714V48.9413H113.893V43.4655H109.714V39.3633Z" fill="#FF5437"/>
</svg>
