<svg width="180" height="107" viewBox="0 0 180 107" fill="none" xmlns="http://www.w3.org/2000/svg">
<rect x="0.573147" y="0.573147" width="178.004" height="105.644" rx="1.71944" stroke="#E1E1E1" stroke-width="1.14629"/>
<path d="M58.9358 43.5336H61.4025V55.3245H49.5436V43.5336H52.0103V37.48H43.543V61.3794H67.4031V37.48H58.9358V43.5336Z" fill="#A6D5CC"/>
<path d="M97.3796 43.4399H91.3125V61.4394H97.3796V43.4399Z" fill="#A6D5CC"/>
<path d="M88.281 43.3516V61.4395H82.1969V49.4117H76.3985V61.4395H70.3145V43.3516H88.2823H88.281Z" fill="#A6D5CC"/>
<path d="M129.222 43.4297V55.9144H123.363V43.4297H117.338V61.4291H117.398V61.4408H128.014L121.677 69.5379H128.756L135.247 61.4408V43.4297H129.222Z" fill="#A6D5CC"/>
<path d="M110.265 39.356H104.198V43.4416H100.275V48.8952H104.198V61.4423H114.443V55.9159H110.264V48.8952H114.443V43.4416H110.264V39.356H110.265Z" fill="#A6D5CC"/>
<path d="M74.6218 66.6082H71.6176V67.1861C71.8055 67.19 72.0872 67.1913 72.4629 67.1913C73.1112 67.1913 73.77 67.1808 74.4392 67.1587V68.239C73.7687 68.213 73.063 68.2 72.3194 68.2C72.0103 68.2 71.7768 68.2013 71.6176 68.2052V69.577H70.3145C70.3445 68.8651 70.3588 68.1974 70.3588 67.5778C70.3588 66.9583 70.3445 66.2906 70.3145 65.5786H74.6205V66.6082H74.6218Z" fill="#A6D5CC"/>
<path d="M75.6586 69.0837C75.2608 68.718 75.0625 68.2051 75.0625 67.5439C75.0625 66.8827 75.2608 66.3803 75.656 66.012C76.0513 65.6449 76.6722 65.4614 77.5201 65.4614C78.368 65.4614 78.9929 65.6449 79.3894 66.012C79.7847 66.379 79.983 66.8892 79.983 67.5439C79.983 68.1986 79.786 68.7232 79.3921 69.0863C78.9981 69.4494 78.3746 69.6317 77.5201 69.6317C76.6657 69.6317 76.0565 69.4494 75.66 69.0837H75.6586ZM78.4033 68.2741C78.5833 68.1179 78.6733 67.8745 78.6733 67.5439C78.6733 67.2133 78.5833 66.9804 78.4033 66.8229C78.2232 66.6654 77.9284 66.586 77.5201 66.586C77.1118 66.586 76.8222 66.6654 76.6422 66.8229C76.4622 66.9804 76.3722 67.2212 76.3722 67.5439C76.3722 67.8667 76.4622 68.1127 76.6422 68.2715C76.8222 68.429 77.1157 68.5084 77.5201 68.5084C77.9245 68.5084 78.2232 68.4303 78.4033 68.2741Z" fill="#A6D5CC"/>
<path d="M83.6937 65.5718H85.0634V67.7649C85.0556 68.3051 84.8703 68.7515 84.509 69.1042C84.1463 69.457 83.5358 69.6327 82.6788 69.6327C81.8218 69.6327 81.2152 69.4648 80.8956 69.129C80.576 68.7932 80.4195 68.3519 80.426 67.804V65.5731H81.7957V67.7155C81.7957 67.8769 81.8074 68.0083 81.8309 68.1098C81.8544 68.2114 81.9326 68.3051 82.0631 68.3936C82.1935 68.4821 82.4049 68.5263 82.6958 68.5263C83.0128 68.5263 83.2436 68.4808 83.3911 68.391C83.5385 68.3012 83.6259 68.201 83.6533 68.0903C83.6806 67.9797 83.695 67.8391 83.695 67.666V65.5731L83.6937 65.5718Z" fill="#A6D5CC"/>
<path d="M90.1361 65.5825C90.11 66.2034 90.097 66.8685 90.097 67.5765C90.097 68.2846 90.11 68.9562 90.1361 69.5757H88.1598L86.824 66.5678L86.9232 69.5757H85.5039C85.5339 68.8638 85.5483 68.1961 85.5483 67.5765C85.5483 66.957 85.5339 66.2945 85.5039 65.5825H87.5363L88.8786 68.6738L88.7847 65.5825H90.1374H90.1361Z" fill="#A6D5CC"/>
<path d="M93.9841 65.7672C94.3859 65.9338 94.6664 66.1654 94.8268 66.4609C94.9873 66.7564 95.0668 67.1195 95.0668 67.549C95.0668 67.9785 94.9742 68.313 94.7903 68.6176C94.6063 68.9222 94.3298 69.1591 93.9619 69.3257C93.5941 69.4923 93.1414 69.5769 92.604 69.5769H91.6047C91.2656 69.5769 90.9238 69.5756 90.5781 69.5716C90.6081 68.848 90.6225 68.1738 90.6225 67.5503C90.6225 66.9269 90.6081 66.2591 90.5781 65.5732C91.0164 65.5368 91.6047 65.5186 92.3444 65.5186C93.0358 65.5186 93.5836 65.6019 93.9841 65.7698V65.7672ZM92.7579 68.4809C93.0997 68.4809 93.328 68.3989 93.4428 68.2336C93.5562 68.0683 93.6136 67.8406 93.6136 67.5503C93.6136 67.2601 93.5536 67.0453 93.4336 66.8722C93.3136 66.6991 93.0879 66.6132 92.7566 66.6132C92.3992 66.6132 92.1331 66.6236 91.9557 66.6457V68.4796H92.7566L92.7579 68.4809Z" fill="#A6D5CC"/>
<path d="M98.6617 69.5769C98.5913 69.3673 98.4974 69.1044 98.38 68.7894H96.6189L96.3424 69.5769H94.957L96.5028 65.5771H98.5352L100.093 69.5769H98.663H98.6617ZM98.0656 67.9291C97.926 67.5438 97.7825 67.1573 97.6351 66.772L97.5021 66.4141C97.3729 66.7486 97.1838 67.2536 96.9333 67.9291H98.0656Z" fill="#A6D5CC"/>
<path d="M104.796 66.7342C104.218 66.716 103.657 66.7043 103.112 66.7017V69.5769H101.732V66.7017C101.184 66.7056 100.624 66.716 100.053 66.7342V65.5771H104.796V66.7342Z" fill="#A6D5CC"/>
<path d="M108.444 66.6731C108.006 66.6509 107.682 66.6379 107.472 66.634V68.5187C107.686 68.5148 108.01 68.5018 108.444 68.4797V69.5756H105.236V68.4797C105.659 68.5018 105.981 68.5148 106.203 68.5187V66.634C105.982 66.6379 105.66 66.6509 105.236 66.6731V65.5771H108.444V66.6731Z" fill="#A6D5CC"/>
<path d="M109.483 69.0837C109.085 68.718 108.887 68.2051 108.887 67.5439C108.887 66.8827 109.085 66.3803 109.48 66.012C109.876 65.6449 110.496 65.4614 111.344 65.4614C112.192 65.4614 112.817 65.6449 113.214 66.012C113.609 66.379 113.807 66.8892 113.807 67.5439C113.807 68.1986 113.61 68.7232 113.216 69.0863C112.822 69.4494 112.199 69.6317 111.344 69.6317C110.49 69.6317 109.881 69.4494 109.484 69.0837H109.483ZM112.227 68.2741C112.408 68.1179 112.498 67.8745 112.498 67.5439C112.498 67.2133 112.408 66.9804 112.227 66.8229C112.047 66.6654 111.753 66.586 111.344 66.586C110.936 66.586 110.646 66.6654 110.466 66.8229C110.286 66.9804 110.196 67.2212 110.196 67.5439C110.196 67.8667 110.286 68.1127 110.466 68.2715C110.646 68.429 110.94 68.5084 111.344 68.5084C111.749 68.5084 112.047 68.4303 112.227 68.2741Z" fill="#A6D5CC"/>
<path d="M118.88 65.5825C118.854 66.2034 118.841 66.8685 118.841 67.5765C118.841 68.2846 118.854 68.9562 118.88 69.5757H116.904L115.568 66.5678L115.667 69.5757H114.248C114.278 68.8638 114.292 68.1961 114.292 67.5765C114.292 66.957 114.278 66.2945 114.248 65.5825H116.28L117.623 68.6738L117.529 65.5825H118.882H118.88Z" fill="#A6D5CC"/>
</svg>
