<svg width="180" height="107" viewBox="0 0 180 107" fill="none" xmlns="http://www.w3.org/2000/svg">
<rect x="0.573147" y="0.573147" width="178.004" height="105.644" rx="1.71944" stroke="#E1E1E1" stroke-width="1.14629"/>
<path d="M58.9358 43.5471H61.4026V55.3643H49.5436V43.5471H52.0103V37.48H43.543V61.4328H67.4031V37.48H58.9358V43.5471Z" fill="#BFC7FF"/>
<path d="M97.3796 43.4536H91.3125V61.4932H97.3796V43.4536Z" fill="#BFC7FF"/>
<path d="M88.281 43.3647V61.4931H82.1969V49.4384H76.3985V61.4931H70.3145V43.3647H88.2823H88.281Z" fill="#BFC7FF"/>
<path d="M129.222 43.4429V55.9554H123.363V43.4429H117.338V61.4825H117.398V61.4942H128.014L121.677 69.6094H128.756L135.247 61.4942V43.4429H129.222Z" fill="#BFC7FF"/>
<path d="M110.267 39.3599H104.2V43.4546H100.277V48.9204H104.2V61.4955H114.445V55.9567H110.266V48.9204H114.445V43.4546H110.266V39.3599H110.267Z" fill="#BFC7FF"/>
<path d="M119.355 65.4429L119.246 65.6093C118.837 66.2445 118.485 66.8069 118.19 67.2967C117.899 67.7826 117.656 68.2303 117.461 68.6397V69.6096H115.963V68.5421C115.822 68.2552 115.655 67.9605 115.464 67.6583C115.273 67.3522 115.001 66.9332 114.649 66.4013C114.373 65.9958 114.163 65.6763 114.018 65.4429H115.625C115.739 65.6763 115.927 66.0225 116.187 66.4817C116.447 66.9485 116.625 67.2775 116.721 67.4689C116.855 67.1895 117.035 66.8471 117.26 66.4415C117.524 65.9671 117.702 65.6342 117.794 65.4429H119.355Z" fill="#BFC7FF"/>
<path d="M114.075 66.8318C114.075 67.1647 113.993 67.4459 113.829 67.6755C113.668 67.9051 113.391 68.0715 112.996 68.1748C113.042 68.236 113.075 68.2838 113.094 68.3183L114.024 69.6096H112.463C112.294 69.2959 112.028 68.852 111.665 68.2781H110.821V69.6096H109.467C109.497 68.8673 109.513 68.1729 109.513 67.5263C109.513 66.8796 109.497 66.1852 109.467 65.4429H110.821V65.4486H111.998C112.771 65.4486 113.31 65.573 113.616 65.8217C113.922 66.0704 114.075 66.4071 114.075 66.8318ZM110.821 66.5506V67.2049H111.596C111.921 67.2049 112.166 67.1953 112.331 67.1762C112.499 67.1532 112.616 67.1188 112.681 67.0728C112.746 67.0269 112.778 66.96 112.778 66.872C112.778 66.7878 112.748 66.7227 112.687 66.6768C112.625 66.6309 112.511 66.5984 112.342 66.5793C112.174 66.5601 111.925 66.5506 111.596 66.5506H110.821Z" fill="#BFC7FF"/>
<path d="M105.845 68.5593C107.299 68.5517 108.353 68.5306 109.007 68.4962C108.98 68.6531 108.963 68.8157 108.955 68.984C108.952 69.1486 108.95 69.3571 108.95 69.6096H104.49C104.521 68.8673 104.536 68.1729 104.536 67.5263C104.536 66.8796 104.521 66.1852 104.49 65.4429H108.95V66.4817H105.845V67.0327C106.028 67.0365 106.3 67.0384 106.66 67.0384C107.268 67.0384 107.897 67.0269 108.548 67.004V67.9911C107.897 67.9682 107.268 67.9567 106.66 67.9567C106.3 67.9567 106.028 67.9586 105.845 67.9624V68.5593Z" fill="#BFC7FF"/>
<path d="M104.182 65.4429L103.803 66.321C103.471 67.0977 103.208 67.7195 103.017 68.1863C102.826 68.6531 102.65 69.1275 102.489 69.6096H100.773C100.616 69.1352 100.442 68.6665 100.251 68.2035C100.063 67.7367 99.8108 67.1398 99.4932 66.4128C99.4396 66.2904 99.3 65.9671 99.0742 65.4429H100.67C100.785 65.814 100.955 66.2904 101.181 66.872C101.38 67.3847 101.54 67.8285 101.663 68.2035C101.743 67.9395 101.839 67.6583 101.95 67.3598C102.064 67.0575 102.133 66.8739 102.156 66.8088C102.378 66.2234 102.541 65.7681 102.644 65.4429H104.182Z" fill="#BFC7FF"/>
<path d="M96.5735 69.667C95.6973 69.667 95.0526 69.4776 94.6394 69.0988C94.2261 68.7161 94.0195 68.1805 94.0195 67.4917C94.0195 66.8107 94.2242 66.2788 94.6336 65.8962C95.0469 65.5136 95.6935 65.3223 96.5735 65.3223C97.4574 65.3223 98.104 65.5136 98.5134 65.8962C98.9267 66.2788 99.1333 66.8107 99.1333 67.4917C99.1333 68.1843 98.9286 68.72 98.5192 69.0988C98.1098 69.4776 97.4612 69.667 96.5735 69.667ZM96.5735 68.4961C96.9983 68.4961 97.3044 68.4158 97.4918 68.2551C97.6793 68.0905 97.7731 67.8361 97.7731 67.4917C97.7731 67.155 97.6793 66.9044 97.4918 66.7399C97.3044 66.5754 96.9983 66.4931 96.5735 66.4931C96.1527 66.4931 95.8485 66.5754 95.661 66.7399C95.4735 66.9044 95.3798 67.155 95.3798 67.4917C95.3798 67.8323 95.4735 68.0848 95.661 68.2493C95.8485 68.4139 96.1527 68.4961 96.5735 68.4961Z" fill="#BFC7FF"/>
<path d="M91.3046 69.667C90.4399 69.667 89.8028 69.4833 89.3934 69.116C88.984 68.7487 88.7793 68.2245 88.7793 67.5434C88.7793 66.8585 88.984 66.3171 89.3934 65.9192C89.8028 65.5212 90.4399 65.3223 91.3046 65.3223C92.5137 65.3223 93.3229 65.7374 93.7324 66.5677C93.388 66.6863 92.9843 66.8642 92.5214 67.1015C92.4104 66.8872 92.2344 66.7284 91.9933 66.6251C91.7561 66.5218 91.5131 66.4701 91.2644 66.4701C90.8971 66.4701 90.6235 66.5677 90.4437 66.7628C90.2639 66.9542 90.174 67.1914 90.174 67.4745C90.174 67.7806 90.2696 68.0312 90.4609 68.2264C90.6561 68.4177 90.9526 68.5133 91.3505 68.5133C91.6681 68.5133 91.9206 68.4617 92.1081 68.3584C92.2956 68.2512 92.4333 68.0829 92.5214 67.8533C92.8351 68.0217 93.2369 68.2111 93.7266 68.4215C93.5353 68.8845 93.2158 69.2078 92.7681 69.3915C92.3205 69.5751 91.8326 69.667 91.3046 69.667Z" fill="#BFC7FF"/>
<path d="M85.1572 68.5593C86.6112 68.5517 87.6653 68.5306 88.3196 68.4962C88.2928 68.6531 88.2756 68.8157 88.2679 68.984C88.2641 69.1486 88.2622 69.3571 88.2622 69.6096H83.8027C83.8333 68.8673 83.8486 68.1729 83.8486 67.5263C83.8486 66.8796 83.8333 66.1852 83.8027 65.4429H88.2622V66.4817H85.1572V67.0327C85.3409 67.0365 85.6125 67.0384 85.9722 67.0384C86.5806 67.0384 87.21 67.0269 87.8605 67.004V67.9911C87.21 67.9682 86.5806 67.9567 85.9722 67.9567C85.6125 67.9567 85.3409 67.9586 85.1572 67.9624V68.5593Z" fill="#BFC7FF"/>
<path d="M83.345 66.8318C83.345 67.1647 83.2628 67.4459 83.0982 67.6755C82.9375 67.9051 82.6601 68.0715 82.266 68.1748C82.3119 68.236 82.3445 68.2838 82.3636 68.3183L83.2934 69.6096H81.7323C81.5639 69.2959 81.298 68.852 80.9345 68.2781H80.0908V69.6096H78.7363C78.7669 68.8673 78.7822 68.1729 78.7822 67.5263C78.7822 66.8796 78.7669 66.1852 78.7363 65.4429H80.0908V65.4486H81.2674C82.0403 65.4486 82.5798 65.573 82.8859 65.8217C83.192 66.0704 83.345 66.4071 83.345 66.8318ZM80.0908 66.5506V67.2049H80.8656C81.1909 67.2049 81.4357 67.1953 81.6003 67.1762C81.7686 67.1532 81.8853 67.1188 81.9504 67.0728C82.0154 67.0269 82.0479 66.96 82.0479 66.872C82.0479 66.7878 82.0173 66.7227 81.9561 66.6768C81.8949 66.6309 81.7801 66.5984 81.6117 66.5793C81.4434 66.5601 81.1947 66.5506 80.8656 66.5506H80.0908Z" fill="#BFC7FF"/>
</svg>
