<svg width="618" height="618" viewBox="0 0 618 618" fill="none" xmlns="http://www.w3.org/2000/svg">
<circle cx="309" cy="309" r="307.5" stroke="black" stroke-width="3"/>
<path d="M91.8939 374.93C92.2609 376.152 92.3278 377.333 92.0948 378.473C91.859 379.603 91.3764 380.652 90.6471 381.618C89.915 382.574 88.9921 383.417 87.8784 384.145C86.7647 384.873 85.5136 385.445 84.1248 385.862C82.7268 386.282 81.3626 386.495 80.0321 386.501C78.7015 386.507 77.4719 386.311 76.3431 385.913C75.2023 385.509 74.2221 384.9 73.4024 384.086C72.58 383.263 71.9853 382.241 71.6183 381.018C71.2541 379.806 71.1899 378.634 71.4257 377.503C71.6615 376.373 72.1441 375.325 72.8734 374.359C73.5935 373.395 74.5104 372.55 75.6241 371.822C76.7377 371.094 77.9936 370.52 79.3916 370.1C80.7803 369.683 82.1399 369.472 83.4704 369.466C84.801 369.46 86.0366 369.659 87.1774 370.063C88.3182 370.468 89.2985 371.077 90.1181 371.89C90.9378 372.704 91.5297 373.717 91.8939 374.93ZM89.533 375.639C89.2967 374.852 88.9067 374.192 88.3631 373.659C87.8074 373.119 87.1221 372.719 86.3073 372.459C85.4896 372.19 84.5665 372.074 83.5378 372.11C82.4971 372.14 81.375 372.336 80.1714 372.697C78.5697 373.178 77.2523 373.816 76.2193 374.61C75.1862 375.405 74.4744 376.295 74.0839 377.28C73.6907 378.256 73.6511 379.268 73.9653 380.314C74.2016 381.101 74.5976 381.764 75.1533 382.304C75.709 382.843 76.3956 383.248 77.2133 383.517C78.0281 383.777 78.9545 383.887 79.9925 383.848C81.0211 383.812 82.1372 383.613 83.3408 383.251C84.9425 382.77 86.2613 382.137 87.2971 381.352C88.3302 380.557 89.0434 379.672 89.4366 378.696C89.8178 377.713 89.85 376.694 89.533 375.639ZM87.237 359.358L70.1768 363.197L73.3575 368.084L71.4623 369.239L66.4923 361.619L66.4477 361.421L86.6767 356.868L87.237 359.358ZM83.5733 338.953L62.6543 332.763L62.4079 329.946L81.9129 319.973L82.1808 323.035L77.2863 325.486L78.0748 334.5L83.313 335.978L83.5733 338.953ZM75.6389 333.942L74.9869 326.488L65.9024 331.125L75.6389 333.942ZM81.8877 316.888L61.5878 316.843L61.5939 314.117L69.8443 314.136L69.8677 303.696L61.6172 303.677L61.6233 300.951L81.9233 300.997L81.9172 303.723L72.3762 303.701L72.3528 314.141L81.8938 314.162L81.8877 316.888ZM81.9641 297.893L62.4856 288.069L62.7458 285.254L83.7177 278.921L83.4348 281.982L78.1814 283.52L77.3486 292.53L82.239 294.919L81.9641 297.893ZM75.0514 291.546L75.7401 284.096L65.9739 287.037L75.0514 291.546ZM84.4215 276.612L81.7549 277.242C81.6726 276.568 81.5261 275.976 81.3154 275.465C81.0953 274.953 80.7621 274.493 80.3161 274.087C79.87 273.68 79.25 273.311 78.4562 272.978C77.6624 272.645 76.645 272.325 75.4042 272.017C74.165 271.701 72.6471 271.377 70.8503 271.046L64.6899 269.911L67.1929 256.321L87.1571 259.998L86.6633 262.679L69.1661 259.457L67.6349 267.77L71.257 268.437C73.3295 268.819 75.1006 269.209 76.5704 269.608C78.0402 270.006 79.2583 270.437 80.2248 270.9C81.193 271.354 81.9648 271.859 82.5402 272.418C83.1174 272.966 83.5487 273.586 83.8342 274.278C84.1197 274.969 84.3154 275.747 84.4215 276.612ZM88.3228 254.677L68.6498 249.671L69.322 247.029L88.9951 252.036L88.3228 254.677ZM92.5153 241.787C92.0716 243.197 91.4766 244.429 90.7302 245.481C89.9839 246.533 89.1254 247.378 88.1549 248.015L86.4518 246.036C87.2663 245.572 87.9935 244.919 88.6334 244.077C89.2733 243.234 89.7614 242.278 90.0978 241.209C90.411 240.213 90.5392 239.306 90.4825 238.487C90.4165 237.666 90.183 236.974 89.7821 236.413C89.3812 235.851 88.8271 235.454 88.12 235.221C86.995 234.867 86.0274 234.963 85.2174 235.509C84.4102 236.046 83.7645 237.084 83.2802 238.624L82.1014 242.372L79.9298 241.689L81.0433 238.148C81.3043 237.319 81.4014 236.559 81.3346 235.869C81.2707 235.17 81.0512 234.579 80.6761 234.096C80.2946 233.601 79.7673 233.248 79.0942 233.036C78.4395 232.83 77.834 232.822 77.2777 233.012C76.7123 233.199 76.2142 233.575 75.7836 234.138C75.3466 234.69 74.9889 235.408 74.7106 236.294C74.4148 237.234 74.2825 238.171 74.3137 239.103C74.3448 240.034 74.5385 240.901 74.8946 241.702L72.5674 242.384C72.1067 241.367 71.8613 240.247 71.8313 239.021C71.7919 237.793 71.9724 236.542 72.3726 235.27C72.796 233.923 73.3688 232.827 74.0912 231.98C74.8072 231.121 75.6352 230.55 76.5751 230.268C77.5087 229.974 78.5057 229.994 79.5662 230.327C80.1932 230.524 80.754 230.868 81.2485 231.358C81.7429 231.848 82.1361 232.402 82.4279 233.021C82.7226 233.63 82.8917 234.22 82.9351 234.791C83.5971 233.814 84.4654 233.099 85.54 232.646C86.6146 232.194 87.8005 232.177 89.0978 232.595C90.1462 232.935 91.0066 233.55 91.6791 234.44C92.3516 235.331 92.7767 236.412 92.9543 237.684C93.1256 238.944 92.9793 240.311 92.5153 241.787Z" fill="black"/>
<path d="M513.695 209.745C513.139 208.597 512.887 207.441 512.937 206.279C512.992 205.125 513.303 204.014 513.87 202.945C514.442 201.885 515.221 200.907 516.206 200.013C517.19 199.118 518.336 198.355 519.641 197.724C520.955 197.089 522.269 196.664 523.582 196.448C524.895 196.232 526.14 196.231 527.317 196.446C528.508 196.665 529.572 197.112 530.51 197.786C531.452 198.469 532.2 199.385 532.755 200.534C533.306 201.674 533.555 202.821 533.5 203.974C533.446 205.128 533.135 206.239 532.567 207.308C532.008 208.373 531.236 209.353 530.251 210.247C529.266 211.142 528.117 211.907 526.802 212.542C525.497 213.173 524.188 213.596 522.875 213.812C521.562 214.028 520.31 214.026 519.12 213.807C517.93 213.588 516.865 213.141 515.928 212.467C514.99 211.793 514.246 210.886 513.695 209.745ZM515.914 208.673C516.271 209.413 516.761 210.003 517.382 210.444C518.016 210.889 518.755 211.175 519.601 211.304C520.451 211.44 521.381 211.41 522.391 211.211C523.414 211.018 524.491 210.647 525.623 210.101C527.128 209.373 528.328 208.535 529.223 207.587C530.118 206.64 530.68 205.649 530.91 204.614C531.145 203.588 531.024 202.583 530.549 201.6C530.191 200.86 529.696 200.268 529.062 199.822C528.428 199.377 527.686 199.086 526.836 198.949C525.991 198.821 525.058 198.858 524.04 199.061C523.03 199.259 521.959 199.632 520.827 200.179C519.322 200.906 518.119 201.74 517.22 202.679C516.326 203.626 515.761 204.613 515.527 205.639C515.305 206.669 515.434 207.681 515.914 208.673ZM520.703 225.651C520.406 224.885 520.189 224.098 520.053 223.29C519.919 222.492 519.866 221.725 519.892 220.989C519.927 220.25 520.044 219.603 520.244 219.049L522.726 219.113C522.434 219.911 522.305 220.811 522.341 221.813C522.386 222.811 522.578 223.748 522.917 224.622C523.269 225.532 523.73 226.266 524.298 226.824C524.876 227.377 525.52 227.729 526.231 227.879C526.942 228.028 527.685 227.953 528.46 227.652C529.623 227.202 530.363 226.423 530.68 225.315C531.01 224.213 530.901 222.954 530.352 221.539C530.213 221.178 530.047 220.817 529.855 220.456C529.667 220.104 529.455 219.746 529.221 219.38L530.626 217.95L538.981 221.896L535.623 213.23L537.8 212.386L542.368 224.176L540.354 224.957L532.209 221.193C532.713 222.387 532.969 223.583 532.978 224.782C532.995 225.978 532.709 227.058 532.118 228.023C531.537 228.985 530.607 229.713 529.327 230.209C528.137 230.67 526.978 230.782 525.849 230.546C524.73 230.305 523.722 229.763 522.824 228.919C521.927 228.074 521.22 226.985 520.703 225.651ZM529.35 250.577L549.116 245.948L550.732 252.852C551.056 254.236 551.106 255.51 550.883 256.674C550.659 257.838 550.169 258.822 549.414 259.624C548.671 260.434 547.677 260.984 546.435 261.275C545.164 261.572 544.026 261.546 543.021 261.196C542.016 260.845 541.159 260.197 540.451 259.251C539.752 258.303 539.227 257.075 538.874 255.569L537.892 251.376L529.972 253.231L529.35 250.577ZM540.222 250.831L541.223 255.109C541.547 256.492 542.089 257.492 542.849 258.108C543.611 258.734 544.581 258.909 545.757 258.634C546.905 258.365 547.708 257.765 548.165 256.834C548.624 255.912 548.699 254.788 548.388 253.461L547.379 249.155L540.222 250.831ZM533.27 268.289L553.347 265.283L555.232 277.874L552.822 278.235L551.341 268.34L545.361 269.235L546.651 277.854L544.343 278.199L543.052 269.581L536.097 270.622L537.592 280.603L535.168 280.966L533.27 268.289ZM535.491 283.329L556.29 289.912L556.483 292.733L536.794 302.338L536.584 299.271L541.523 296.912L540.905 287.885L535.696 286.309L535.491 283.329ZM543.33 288.49L543.841 295.954L553.012 291.489L543.33 288.49ZM536.468 304.729L539 303.681C539.189 304.333 539.428 304.894 539.718 305.364C540.017 305.835 540.42 306.235 540.925 306.565C541.43 306.895 542.102 307.16 542.938 307.362C543.775 307.564 544.831 307.717 546.105 307.821C547.379 307.936 548.929 308.012 550.755 308.052L557.018 308.186L556.722 322.001L536.427 321.566L536.485 318.841L554.272 319.222L554.454 310.77L550.771 310.692C548.665 310.646 546.854 310.545 545.339 310.387C543.825 310.228 542.553 309.998 541.525 309.696C540.497 309.403 539.654 309.027 538.997 308.568C538.339 308.119 537.814 307.576 537.422 306.939C537.029 306.302 536.711 305.565 536.468 304.729ZM536.137 327.006L556.364 328.725L556.134 331.442L535.906 329.722L536.137 327.006ZM534.095 340.406C534.304 338.942 534.693 337.631 535.259 336.471C535.826 335.312 536.536 334.34 537.391 333.554L539.392 335.233C538.663 335.822 538.051 336.583 537.555 337.518C537.06 338.453 536.733 339.476 536.574 340.586C536.426 341.619 536.446 342.535 536.634 343.333C536.832 344.133 537.174 344.778 537.66 345.268C538.147 345.757 538.758 346.06 539.493 346.175C540.661 346.342 541.6 346.091 542.311 345.421C543.021 344.761 543.49 343.632 543.719 342.034L544.277 338.145L546.53 338.468L546.004 342.142C545.88 343.003 545.907 343.769 546.085 344.439C546.261 345.118 546.573 345.666 547.021 346.082C547.478 346.509 548.055 346.772 548.754 346.872C549.433 346.969 550.032 346.879 550.55 346.602C551.078 346.326 551.509 345.875 551.842 345.249C552.185 344.634 552.421 343.868 552.553 342.949C552.693 341.973 552.672 341.028 552.491 340.113C552.309 339.198 551.978 338.374 551.497 337.641L553.684 336.593C554.303 337.521 554.726 338.588 554.954 339.792C555.191 340.998 555.215 342.261 555.026 343.582C554.826 344.979 554.437 346.153 553.862 347.106C553.294 348.07 552.569 348.767 551.687 349.197C550.813 349.638 549.826 349.78 548.726 349.622C548.075 349.529 547.466 349.28 546.899 348.877C546.332 348.473 545.854 347.99 545.466 347.426C545.077 346.872 544.815 346.317 544.679 345.761C544.184 346.832 543.443 347.678 542.455 348.299C541.468 348.919 540.301 349.127 538.953 348.924C537.863 348.759 536.915 348.291 536.107 347.521C535.3 346.751 534.705 345.752 534.324 344.526C533.952 343.31 533.875 341.937 534.095 340.406ZM533.109 350.132L551.118 362.444L550.488 365.201L528.863 368.706L529.548 365.709L534.959 364.879L536.975 356.058L532.443 353.044L533.109 350.132ZM539.122 357.337L537.455 364.631L547.524 363.006L539.122 357.337ZM527.932 371.646L547.216 377.986L546.365 380.576L529.463 375.019L526.293 384.661L543.195 390.218L542.344 392.808L523.059 386.468L527.932 371.646ZM517.938 385.471L522.855 387.087L523.512 385.09L525.895 385.874L524.437 390.309L517.136 387.909L517.938 385.471ZM520.777 392.828L539.596 400.438L538.574 402.965L519.755 395.355L520.777 392.828ZM518.212 398.973L523.285 408.533C524.245 407.064 525.378 406.105 526.685 405.658C527.987 405.22 529.375 405.353 530.849 406.057C531.896 406.557 532.688 407.252 533.227 408.142C533.775 409.036 534.046 410.06 534.041 411.215C534.036 412.369 533.725 413.592 533.108 414.883L530.006 421.372L511.691 412.619L512.866 410.159L520.467 413.792L521.786 411.031L516.824 401.878L518.212 398.973ZM524.512 410.743L522.573 414.798L529.049 417.893L530.881 414.06C531.482 412.804 531.678 411.687 531.47 410.709C531.263 409.732 530.657 409.003 529.654 408.524C528.625 408.032 527.664 407.958 526.771 408.303C525.877 408.647 525.124 409.461 524.512 410.743Z" fill="black"/>
<path d="M401.446 515.891C402.61 515.37 403.773 515.151 404.933 515.236C406.085 515.324 407.186 515.668 408.238 516.267C409.281 516.869 410.235 517.676 411.101 518.687C411.966 519.698 412.695 520.865 413.287 522.188C413.883 523.521 414.27 524.846 414.447 526.165C414.624 527.484 414.588 528.728 414.339 529.899C414.084 531.082 413.607 532.133 412.905 533.05C412.195 533.972 411.258 534.693 410.093 535.214C408.937 535.731 407.783 535.946 406.632 535.858C405.48 535.769 404.379 535.426 403.327 534.827C402.279 534.236 401.323 533.436 400.457 532.425C399.592 531.415 398.861 530.243 398.265 528.911C397.673 527.587 397.288 526.266 397.111 524.947C396.934 523.629 396.972 522.378 397.227 521.194C397.481 520.011 397.958 518.96 398.66 518.043C399.361 517.125 400.29 516.408 401.446 515.891ZM402.453 518.141C401.703 518.476 401.098 518.948 400.639 519.556C400.176 520.176 399.867 520.907 399.715 521.749C399.553 522.594 399.556 523.525 399.725 524.54C399.888 525.568 400.227 526.656 400.74 527.803C401.423 529.33 402.225 530.554 403.146 531.476C404.067 532.398 405.041 532.99 406.069 533.25C407.087 533.515 408.095 533.424 409.092 532.977C409.842 532.642 410.449 532.164 410.912 531.543C411.376 530.923 411.689 530.19 411.851 529.344C412.003 528.503 411.994 527.57 411.821 526.546C411.653 525.53 411.312 524.449 410.799 523.302C410.116 521.775 409.318 520.549 408.406 519.623C407.485 518.701 406.515 518.107 405.496 517.843C404.473 517.591 403.458 517.691 402.453 518.141ZM382.213 523.996L383.636 528.045L393.308 524.645L394.005 526.629L391.489 542.253L388.808 543.195L391.341 527.796L384.406 530.234L385.959 534.652L383.688 535.45L382.135 531.032L379.057 532.114L378.288 529.925L381.366 528.843L379.942 524.794L382.213 523.996ZM359.327 530.568L363.257 550.484L356.301 551.857C354.907 552.132 353.632 552.138 352.476 551.873C351.321 551.609 350.355 551.085 349.58 550.302C348.797 549.53 348.282 548.518 348.035 547.266C347.782 545.986 347.848 544.85 348.234 543.857C348.619 542.865 349.297 542.032 350.268 541.357C351.24 540.692 352.485 540.21 354.002 539.911L358.227 539.077L356.652 531.096L359.327 530.568ZM358.691 541.424L354.38 542.275C352.986 542.55 351.968 543.056 351.325 543.794C350.673 544.534 350.464 545.496 350.698 546.682C350.926 547.839 351.498 548.662 352.412 549.151C353.317 549.643 354.438 549.757 355.775 549.493L360.114 548.636L358.691 541.424ZM341.489 533.873L343.862 554.034L331.218 555.522L330.933 553.103L340.87 551.934L340.163 545.929L331.508 546.947L331.235 544.629L339.89 543.61L339.068 536.626L329.045 537.806L328.759 535.372L341.489 533.873ZM318.647 535.509C320.124 535.448 321.485 535.589 322.728 535.934C323.971 536.279 325.057 536.8 325.986 537.497L324.702 539.771C323.989 539.162 323.128 538.699 322.119 538.383C321.109 538.067 320.044 537.933 318.924 537.979C317.881 538.023 316.984 538.21 316.233 538.541C315.483 538.882 314.912 539.336 314.519 539.904C314.127 540.472 313.941 541.128 313.963 541.872C314.012 543.05 314.43 543.928 315.219 544.504C315.997 545.082 317.193 545.337 318.806 545.269L322.732 545.106L322.827 547.381L319.118 547.535C318.249 547.571 317.501 547.738 316.875 548.035C316.239 548.332 315.758 548.739 315.431 549.256C315.095 549.782 314.942 550.398 314.971 551.103C315 551.789 315.197 552.361 315.565 552.82C315.933 553.289 316.455 553.63 317.131 553.843C317.798 554.067 318.596 554.16 319.523 554.121C320.508 554.08 321.434 553.887 322.3 553.541C323.166 553.196 323.915 552.719 324.548 552.113L325.979 554.07C325.179 554.849 324.208 555.46 323.066 555.904C321.923 556.358 320.686 556.613 319.353 556.668C317.943 556.727 316.717 556.56 315.675 556.168C314.624 555.786 313.806 555.201 313.222 554.413C312.629 553.634 312.309 552.69 312.262 551.579C312.235 550.922 312.368 550.278 312.661 549.647C312.954 549.015 313.342 548.457 313.825 547.973C314.298 547.489 314.796 547.129 315.318 546.895C314.174 546.604 313.207 546.03 312.417 545.173C311.626 544.315 311.208 543.206 311.161 541.843C311.124 540.742 311.411 539.724 312.02 538.789C312.63 537.854 313.502 537.087 314.639 536.489C315.765 535.9 317.101 535.573 318.647 535.509ZM306.249 535.912L307.308 538.472C306.226 538.706 305.237 539.079 304.339 539.59C303.432 540.101 302.591 540.783 301.818 541.637C301.044 542.491 300.326 543.545 299.664 544.799L293.607 556.113L290.462 556.006L297.064 544.058C297.755 542.795 298.45 541.697 299.149 540.763C299.838 539.829 300.552 539.036 301.29 538.384C302.018 537.741 302.79 537.216 303.607 536.809C304.423 536.411 305.304 536.112 306.249 535.912ZM300.042 542.665L307.273 556.578L303.939 556.464L298.146 545.067L300.042 542.665ZM290.341 535.212L291.14 537.833C290.473 537.958 289.891 538.143 289.395 538.385C288.898 538.638 288.46 539 288.083 539.471C287.706 539.942 287.377 540.584 287.095 541.398C286.814 542.211 286.559 543.247 286.332 544.505C286.095 545.762 285.869 547.297 285.654 549.112L284.915 555.332L271.193 553.703L273.586 533.544L276.293 533.866L274.196 551.533L282.59 552.53L283.024 548.872C283.273 546.78 283.549 544.987 283.853 543.495C284.156 542.003 284.509 540.76 284.909 539.766C285.3 538.77 285.755 537.968 286.275 537.358C286.786 536.747 287.377 536.277 288.049 535.948C288.721 535.619 289.485 535.373 290.341 535.212ZM268.211 532.678L264.151 552.568L261.48 552.023L263.107 544.053L258.83 543.18C257.448 542.898 256.274 542.411 255.31 541.721C254.336 541.029 253.643 540.172 253.23 539.151C252.806 538.137 252.721 537.005 252.976 535.755C253.171 534.798 253.501 533.982 253.964 533.307C254.427 532.632 255.019 532.102 255.739 531.716C256.448 531.338 257.268 531.111 258.201 531.035C259.134 530.959 260.174 531.038 261.32 531.272L268.211 532.678ZM265.061 534.477L260.756 533.598C259.364 533.314 258.229 533.388 257.352 533.821C256.465 534.252 255.9 535.059 255.659 536.243C255.423 537.398 255.632 538.378 256.287 539.183C256.932 539.985 257.922 540.523 259.258 540.796L263.591 541.68L265.061 534.477ZM248.307 528.152L243.571 545.301L249.175 546.849L248.507 549.267L234.67 545.446L235.338 543.028L240.943 544.576L245.68 527.426L248.307 528.152ZM240.162 525.873L225.784 542.281L223.123 541.325L222.229 519.436L225.122 520.475L225.3 525.946L233.816 529.003L237.351 524.864L240.162 525.873ZM232.29 530.981L225.247 528.454L225.657 538.645L232.29 530.981ZM217.026 517.034L209.769 533.278L215.078 535.65L214.055 537.94L200.948 532.085L201.971 529.795L207.28 532.166L214.537 515.922L217.026 517.034Z" fill="black"/>
<path d="M258.488 87.4105C257.244 87.6943 256.061 87.6816 254.94 87.3724C253.828 87.0609 252.814 86.5089 251.9 85.7161C250.995 84.9212 250.216 83.9437 249.565 82.7835C248.913 81.6234 248.427 80.3364 248.104 78.9228C247.779 77.4997 247.659 76.1242 247.743 74.7963C247.826 73.4684 248.105 72.2547 248.578 71.1553C249.058 70.0443 249.731 69.1073 250.598 68.3444C251.475 67.5792 252.535 67.0547 253.779 66.7709C255.014 66.4892 256.187 66.5041 257.299 66.8155C258.411 67.1269 259.425 67.679 260.339 68.4717C261.252 69.2551 262.034 70.2268 262.685 71.387C263.336 72.5471 263.824 73.8388 264.149 75.2619C264.472 76.6755 264.591 78.0463 264.507 79.3742C264.424 80.7021 264.142 81.9215 263.661 83.0325C263.181 84.1435 262.508 85.0805 261.641 85.8435C260.774 86.6065 259.723 87.1288 258.488 87.4105ZM257.94 85.0073C258.741 84.8245 259.426 84.4798 259.994 83.9733C260.57 83.4553 261.015 82.7985 261.33 82.003C261.653 81.2053 261.832 80.2921 261.865 79.2633C261.905 78.223 261.785 77.0902 261.506 75.865C261.134 74.2346 260.586 72.8772 259.863 71.793C259.139 70.7087 258.299 69.9386 257.343 69.4827C256.395 69.0246 255.389 68.917 254.324 69.16C253.523 69.3428 252.835 69.6932 252.259 70.2113C251.683 70.7294 251.233 71.3872 250.909 72.1849C250.595 72.9804 250.423 73.8972 250.392 74.9354C250.359 75.9642 250.482 77.0912 250.762 78.3164C251.134 79.9468 251.677 81.3052 252.391 82.3917C253.114 83.4759 253.949 84.2471 254.896 84.7052C255.851 85.1517 256.865 85.2524 257.94 85.0073ZM269.219 84.6649L268.924 82.6418L272.712 77.9719C273.922 76.4866 274.893 75.2069 275.625 74.133C276.356 73.0496 276.87 72.0857 277.167 71.2413C277.463 70.3874 277.552 69.5587 277.435 68.7552C277.265 67.5882 276.724 66.7292 275.814 66.1781C274.913 65.6257 273.749 65.4534 272.324 65.6611C271.444 65.7894 270.614 66.0618 269.835 66.4783C269.056 66.8947 268.43 67.4256 267.957 68.0708L266.65 66.2393C267.334 65.4362 268.157 64.7838 269.119 64.2821C270.09 63.7694 271.149 63.4293 272.297 63.262C273.646 63.0654 274.867 63.1364 275.962 63.475C277.055 63.8041 277.949 64.3723 278.643 65.1796C279.345 65.9759 279.783 66.972 279.958 68.1677C280.079 68.9999 280.034 69.8612 279.822 70.7518C279.609 71.6424 279.15 72.6765 278.442 73.8543C277.743 75.021 276.715 76.4505 275.36 78.1427L272.379 81.8158L282.25 80.3766L282.591 82.7154L269.219 84.6649ZM301.487 81.3061L300.99 61.0122L303.715 60.9455L304.212 81.2394L301.487 81.3061ZM323.082 81.851L323.829 64.0752L315.296 63.7165L315.142 67.3962C315.036 69.8977 314.833 71.9838 314.53 73.6546C314.237 75.3258 313.833 76.6729 313.315 77.6961C312.798 78.7193 312.147 79.4949 311.36 80.023C310.573 80.5511 309.629 80.9226 308.527 81.1375L307.632 78.9375C308.52 78.7716 309.252 78.488 309.83 78.0866C310.418 77.6856 310.889 77.0668 311.244 76.2303C311.608 75.3942 311.883 74.2544 312.07 72.811C312.266 71.3679 312.411 69.5261 312.505 67.2854L312.765 61.0994L326.658 61.6834L325.806 81.9655L323.082 81.851ZM307.32 86.3695L307.632 78.9375L309.684 79.1544L310.801 78.824L329.127 79.5944L328.804 87.2726L326.24 87.1648L326.458 81.9929L310.102 81.3053L309.884 86.4773L307.32 86.3695ZM332.527 82.4865L335.149 62.3566L347.774 64.001L347.459 66.4166L337.538 65.1243L336.757 71.1201L345.398 72.2457L345.097 74.5607L336.455 73.4351L335.547 80.4086L345.554 81.7122L345.238 84.1422L332.527 82.4865ZM348.408 84.6525L356.517 77.4846C354.863 76.8952 353.667 76.0176 352.927 74.8519C352.196 73.6881 352.001 72.3074 352.341 70.7095C352.583 69.575 353.073 68.6417 353.812 67.9096C354.553 67.168 355.486 66.6649 356.61 66.4002C357.734 66.1355 358.995 66.1522 360.394 66.4503L367.429 67.9486L363.199 87.8032L360.533 87.2353L362.288 78.9956L359.296 78.3582L351.556 85.3231L348.408 84.6525ZM358.378 75.7759L362.775 76.7123L364.27 69.6923L360.115 68.8072C358.753 68.5172 357.621 68.5875 356.719 69.018C355.817 69.4485 355.25 70.2074 355.019 71.2946C354.781 72.4103 354.934 73.3621 355.478 74.15C356.022 74.9379 356.988 75.4799 358.378 75.7759Z" fill="black"/>
<rect x="261.5" y="261.5" width="95.8456" height="95.8456" stroke="black" stroke-width="3"/>
</svg>
