<svg width="618" height="618" viewBox="0 0 618 618" fill="none" xmlns="http://www.w3.org/2000/svg">
<circle cx="309" cy="309" r="307.5" stroke="black" stroke-width="3"/>
<path d="M96.4628 388.524C96.9062 389.721 97.0476 390.895 96.887 392.047C96.723 393.191 96.3075 394.267 95.6406 395.277C94.9703 396.278 94.1024 397.177 93.0369 397.974C91.9714 398.771 90.7589 399.421 89.3992 399.925C88.0305 400.432 86.6824 400.731 85.3549 400.821C84.0274 400.911 82.7879 400.793 81.6362 400.467C80.4722 400.135 79.4555 399.589 78.5861 398.829C77.7134 398.06 77.0553 397.077 76.612 395.88C76.1719 394.693 76.0339 393.528 76.1979 392.384C76.3618 391.241 76.7773 390.165 77.4442 389.155C78.1021 388.148 78.9638 387.246 80.0293 386.449C81.0948 385.652 82.3119 385 83.6806 384.493C85.0402 383.989 86.3838 383.692 87.7113 383.602C89.0388 383.513 90.2845 383.633 91.4486 383.965C92.6126 384.296 93.6294 384.842 94.4987 385.603C95.3681 386.363 96.0228 387.337 96.4628 388.524ZM94.1514 389.381C93.8659 388.61 93.435 387.976 92.8588 387.478C92.2702 386.975 91.561 386.619 90.7314 386.411C89.8984 386.194 88.9697 386.136 87.9454 386.237C86.9087 386.333 85.8011 386.599 84.6228 387.036C83.0546 387.617 81.7801 388.336 80.7993 389.195C79.8184 390.053 79.1642 390.986 78.8367 391.994C78.5058 392.993 78.5302 394.005 78.9098 395.029C79.1953 395.799 79.6323 396.436 80.221 396.94C80.8096 397.443 81.5204 397.804 82.3534 398.021C83.1831 398.229 84.1146 398.28 85.148 398.176C86.1723 398.075 87.2736 397.806 88.452 397.369C90.0201 396.788 91.2963 396.073 92.2805 395.223C93.2614 394.365 93.9173 393.436 94.2481 392.438C94.5666 391.433 94.5343 390.414 94.1514 389.381ZM90.8276 373.278L74.0475 378.2L77.5341 382.875L75.7166 384.148L70.2697 376.861L70.2126 376.666L90.1093 370.83L90.8276 373.278ZM85.8775 353.149L64.6104 348.288L64.1871 345.492L83.0257 334.31L83.4858 337.35L78.7553 340.104L80.1096 349.05L85.4304 350.195L85.8775 353.149ZM77.6434 348.646L76.5235 341.249L67.749 346.449L77.6434 348.646ZM82.8101 331.234L62.5459 332.44L62.3943 329.892L77.236 318.115L61.7484 319.036L61.5899 316.373L81.8541 315.167L82.0057 317.715L66.9894 329.488L82.6507 328.556L82.8101 331.234ZM81.7034 312.074L61.6453 303.495L61.7278 300.669L82.2595 293.029L82.1698 296.101L77.0236 297.967L76.7596 307.012L81.7906 309.088L81.7034 312.074ZM74.405 306.174L74.6234 298.695L65.0617 302.246L74.405 306.174ZM82.5447 289.957L62.348 287.912L62.6227 285.2L80.3236 286.993L81.2382 277.962L83.734 278.214L82.5447 289.957ZM84.8214 272.375L76.0852 270.902L63.6105 276.077L64.1337 272.974L73.7217 269.048L65.9445 262.237L66.4532 259.22L76.5552 268.202L85.2771 269.673L84.8214 272.375ZM89.0735 254.077C88.7426 255.399 88.2371 256.643 87.5569 257.808C86.8673 258.971 86.0677 259.897 85.1578 260.586L83.421 258.746C83.9462 258.359 84.427 257.892 84.8632 257.343C85.2994 256.795 85.6793 256.192 86.003 255.536C86.3267 254.88 86.5777 254.195 86.7561 253.482C87.1057 252.085 87.1142 250.896 86.7815 249.916C86.4512 248.927 85.7609 248.301 84.7106 248.038C83.9416 247.846 83.2183 247.968 82.5406 248.407C81.8653 248.836 81.1137 249.769 80.2858 251.206L79.1177 253.185C78.142 254.854 77.1231 255.999 76.0609 256.62C74.9987 257.241 73.8252 257.391 72.5405 257.07C71.6777 256.854 70.9428 256.486 70.3357 255.965C69.7286 255.444 69.2552 254.808 68.9154 254.055C68.5662 253.3 68.3671 252.463 68.3181 251.544C68.2621 250.613 68.3619 249.637 68.6177 248.615C68.9345 247.349 69.4166 246.219 70.0639 245.225C70.7042 244.219 71.4229 243.437 72.2202 242.879L73.8621 244.74C73.4002 245.073 72.9745 245.48 72.5852 245.96C72.1866 246.438 71.8441 246.971 71.558 247.557C71.2624 248.14 71.0349 248.751 70.8753 249.389C70.6618 250.242 70.5994 251.029 70.6884 251.748C70.7703 252.456 71.0093 253.054 71.4054 253.542C71.7945 254.018 72.3313 254.342 73.0158 254.513C73.5128 254.638 73.9782 254.629 74.412 254.489C74.8364 254.346 75.2761 254.022 75.731 253.519C76.186 253.015 76.6914 252.289 77.2472 251.342L78.4927 249.232C79.4472 247.608 80.4498 246.488 81.5003 245.874C82.5414 245.258 83.7418 245.12 85.1015 245.46C86.2456 245.747 87.1833 246.28 87.9146 247.061C88.6389 247.83 89.111 248.81 89.3312 250.001C89.5419 251.19 89.456 252.549 89.0735 254.077ZM91.6272 242.723L72.2487 236.676L73.0606 234.074L92.4392 240.121L91.6272 242.723ZM96.8979 229.078C96.417 230.353 95.7718 231.53 94.9621 232.61C94.1433 233.685 93.2424 234.513 92.2593 235.093L90.7457 233.065C91.3119 232.742 91.8433 232.332 92.3397 231.838C92.8361 231.343 93.2829 230.788 93.6799 230.174C94.077 229.559 94.4051 228.908 94.6643 228.22C95.1724 226.873 95.3176 225.693 95.0999 224.681C94.8856 223.66 94.2719 222.959 93.2588 222.577C92.5171 222.297 91.7845 222.336 91.0609 222.693C90.3407 223.042 89.4867 223.882 88.4989 225.214L87.1109 227.046C85.9496 228.592 84.8057 229.612 83.6791 230.107C82.5524 230.602 81.3695 230.615 80.1303 230.148C79.2982 229.834 78.6105 229.384 78.0673 228.797C77.5242 228.21 77.1271 227.523 76.8762 226.736C76.6162 225.946 76.5148 225.092 76.5718 224.173C76.6233 223.242 76.8348 222.284 77.2065 221.298C77.6669 220.077 78.2758 219.01 79.0331 218.097C79.7849 217.171 80.5888 216.478 81.445 216.015L82.8619 218.053C82.3647 218.33 81.8951 218.685 81.4531 219.118C81.002 219.547 80.6007 220.036 80.249 220.585C79.8882 221.131 79.5919 221.711 79.36 222.327C79.0497 223.15 78.8973 223.924 78.9028 224.649C78.9027 225.362 79.0713 225.983 79.4087 226.513C79.7404 227.031 80.2364 227.414 80.8967 227.663C81.3761 227.844 81.8393 227.889 82.2864 227.8C82.7244 227.707 83.1984 227.436 83.7083 226.988C84.2182 226.539 84.8037 225.877 85.4649 225L86.9448 223.048C88.08 221.544 89.2046 220.547 90.3188 220.058C91.4239 219.566 92.6322 219.567 93.9438 220.061C95.0473 220.477 95.9174 221.115 96.554 221.975C97.1849 222.822 97.5412 223.85 97.6228 225.059C97.6954 226.264 97.4537 227.603 96.8979 229.078Z" fill="black"/>
<path d="M515.1 212.696C514.561 211.539 514.325 210.38 514.392 209.219C514.463 208.066 514.789 206.959 515.372 205.898C515.959 204.846 516.751 203.88 517.748 202.999C518.746 202.119 519.901 201.372 521.216 200.759C522.539 200.143 523.858 199.736 525.174 199.539C526.49 199.341 527.735 199.358 528.909 199.59C530.096 199.826 531.154 200.287 532.082 200.974C533.014 201.67 533.75 202.597 534.289 203.753C534.824 204.901 535.056 206.051 534.985 207.204C534.915 208.357 534.588 209.464 534.005 210.524C533.431 211.581 532.646 212.55 531.648 213.431C530.651 214.311 529.491 215.06 528.168 215.677C526.853 216.289 525.538 216.694 524.223 216.891C522.907 217.089 521.655 217.069 520.468 216.833C519.281 216.597 518.223 216.136 517.295 215.448C516.367 214.761 515.635 213.844 515.1 212.696ZM517.335 211.655C517.682 212.399 518.163 212.996 518.777 213.446C519.405 213.9 520.141 214.197 520.984 214.337C521.832 214.486 522.763 214.468 523.775 214.284C524.801 214.105 525.883 213.75 527.022 213.219C528.538 212.512 529.75 211.692 530.658 210.757C531.566 209.822 532.142 208.838 532.387 207.807C532.636 206.785 532.529 205.779 532.068 204.788C531.721 204.044 531.233 203.444 530.606 202.99C529.978 202.536 529.241 202.235 528.393 202.086C527.549 201.946 526.616 201.97 525.595 202.158C524.582 202.342 523.506 202.699 522.367 203.23C520.851 203.937 519.637 204.753 518.725 205.679C517.817 206.615 517.239 207.593 516.99 208.616C516.754 209.643 516.869 210.656 517.335 211.655ZM521.877 228.701C521.592 227.93 521.387 227.14 521.262 226.331C521.141 225.53 521.099 224.762 521.136 224.027C521.182 223.289 521.309 222.644 521.518 222.092L523.998 222.195C523.694 222.987 523.552 223.885 523.573 224.888C523.603 225.887 523.78 226.826 524.106 227.705C524.445 228.621 524.894 229.362 525.454 229.928C526.023 230.49 526.662 230.851 527.371 231.012C528.08 231.172 528.824 231.108 529.603 230.819C530.773 230.386 531.524 229.618 531.858 228.515C532.205 227.418 532.114 226.158 531.587 224.735C531.453 224.372 531.293 224.009 531.107 223.645C530.924 223.29 530.718 222.928 530.488 222.56L531.915 221.15L540.21 225.222L536.983 216.506L539.173 215.696L543.562 227.553L541.536 228.303L533.449 224.417C533.935 225.618 534.173 226.818 534.163 228.018C534.163 229.214 533.86 230.289 533.255 231.245C532.66 232.198 531.718 232.912 530.431 233.389C529.234 233.832 528.074 233.926 526.949 233.673C525.833 233.416 524.833 232.858 523.949 232C523.064 231.142 522.374 230.042 521.877 228.701ZM530.162 253.751L549.99 249.398L552.72 261.833L550.341 262.355L548.195 252.583L542.289 253.879L544.158 262.391L541.878 262.892L540.009 254.38L533.14 255.888L535.304 265.745L532.911 266.27L530.162 253.751ZM533.461 269.109L544.692 274.327L553.626 266.746L554.064 269.964L546.912 276.015L555.472 280.309L555.894 283.412L545.122 278.132L535.809 286.365L535.369 283.132L542.96 276.436L533.887 272.242L533.461 269.109ZM536.074 289.976L556.346 288.899L557.021 301.613L554.588 301.742L554.058 291.751L548.02 292.071L548.482 300.774L546.15 300.897L545.688 292.195L538.666 292.568L539.201 302.646L536.754 302.776L536.074 289.976ZM536.109 316.686C536.165 314.589 536.648 312.764 537.56 311.212C538.481 309.67 539.745 308.485 541.353 307.658C542.97 306.84 544.842 306.459 546.968 306.516C548.504 306.557 549.908 306.85 551.18 307.396C552.461 307.943 553.563 308.697 554.485 309.66C555.407 310.622 556.112 311.748 556.6 313.038C557.088 314.337 557.312 315.745 557.271 317.262C557.232 318.76 557.008 320.064 556.602 321.175C556.205 322.286 555.653 323.239 554.945 324.032L552.751 322.523C553.358 321.882 553.818 321.13 554.131 320.268C554.444 319.406 554.614 318.449 554.642 317.395C554.674 316.207 554.519 315.124 554.177 314.148C553.836 313.172 553.326 312.332 552.649 311.627C551.981 310.933 551.163 310.389 550.197 309.996C549.231 309.603 548.139 309.39 546.921 309.358C545.24 309.313 543.796 309.599 542.591 310.214C541.385 310.84 540.452 311.744 539.792 312.925C539.142 314.107 538.795 315.514 538.751 317.148C538.723 318.201 538.851 319.215 539.135 320.189C539.428 321.174 539.921 322.101 540.613 322.97L538.26 324.184C537.504 323.168 536.944 322.036 536.58 320.789C536.227 319.551 536.069 318.184 536.109 316.686ZM534.64 335.507C534.85 333.731 535.385 332.295 536.245 331.199C537.115 330.105 538.199 329.333 539.498 328.884C540.807 328.435 542.22 328.301 543.737 328.481L556.178 329.955L555.857 332.662L543.517 331.2C541.606 330.973 540.124 331.28 539.071 332.118C538.026 332.968 537.408 334.199 537.217 335.812C537.027 337.415 537.342 338.747 538.16 339.808C538.987 340.879 540.356 341.528 542.266 341.754L554.606 343.216L554.286 345.923L541.845 344.449C540.328 344.27 538.99 343.809 537.832 343.069C536.674 342.328 535.8 341.324 535.21 340.057C534.621 338.79 534.43 337.273 534.64 335.507ZM532.5 352.638L549.939 356.166L551.091 350.466L553.55 350.964L550.704 365.034L548.245 364.536L549.398 358.837L531.96 355.31L532.5 352.638ZM529.958 364.475L549.613 369.552L548.931 372.192L529.276 367.114L529.958 364.475ZM524.323 381.082C524.807 379.643 525.508 378.395 526.425 377.337C527.348 376.291 528.417 375.463 529.633 374.852C530.845 374.25 532.145 373.903 533.533 373.809C534.921 373.715 536.325 373.907 537.745 374.385C539.175 374.866 540.414 375.564 541.463 376.478C542.512 377.392 543.337 378.455 543.939 379.667C544.537 380.889 544.883 382.193 544.977 383.582C545.068 384.979 544.871 386.397 544.387 387.835C543.906 389.264 543.204 390.502 542.281 391.548C541.357 392.593 540.284 393.42 539.059 394.028C537.834 394.636 536.528 394.987 535.14 395.08C533.758 395.186 532.366 395.003 530.964 394.532C529.544 394.054 528.311 393.353 527.266 392.43C526.217 391.516 525.393 390.448 524.794 389.227C524.196 388.005 523.845 386.699 523.742 385.308C523.648 383.92 523.842 382.511 524.323 381.082ZM526.783 381.91C526.434 382.945 526.289 383.967 526.347 384.976C526.403 385.994 526.647 386.949 527.082 387.839C527.526 388.733 528.151 389.525 528.96 390.216C529.765 390.915 530.735 391.456 531.871 391.838C533.401 392.353 534.845 392.472 536.203 392.195C537.558 391.927 538.735 391.338 539.734 390.43C540.743 389.525 541.478 388.386 541.941 387.012C542.289 385.976 542.431 384.948 542.367 383.927C542.309 382.918 542.06 381.962 541.619 381.059C541.184 380.168 540.563 379.378 539.755 378.687C538.956 378 537.984 377.464 536.839 377.079C535.318 376.567 533.88 376.445 532.525 376.713C531.167 376.99 529.984 377.581 528.976 378.486C527.976 379.394 527.245 380.535 526.783 381.91ZM519.756 395.153L538.244 403.535L537.191 405.859L518.57 409.357L532.7 415.764L531.598 418.194L513.11 409.811L514.164 407.487L532.937 404.074L518.648 397.596L519.756 395.153Z" fill="black"/>
<path d="M378.095 524.85C379.31 524.461 380.49 524.372 381.634 524.584C382.769 524.799 383.826 525.263 384.805 525.974C385.775 526.689 386.634 527.596 387.382 528.696C388.131 529.796 388.726 531.036 389.169 532.417C389.614 533.807 389.852 535.167 389.882 536.498C389.913 537.828 389.739 539.061 389.362 540.197C388.979 541.345 388.388 542.336 387.59 543.171C386.782 544.008 385.771 544.621 384.556 545.011C383.35 545.397 382.179 545.483 381.045 545.268C379.91 545.053 378.853 544.59 377.874 543.878C376.898 543.176 376.035 542.275 375.287 541.175C374.538 540.075 373.941 538.83 373.496 537.439C373.054 536.059 372.817 534.703 372.787 533.373C372.756 532.043 372.933 530.804 373.316 529.656C373.699 528.508 374.29 527.516 375.089 526.682C375.887 525.847 376.889 525.237 378.095 524.85ZM378.847 527.198C378.065 527.449 377.412 527.851 376.889 528.404C376.36 528.97 375.973 529.662 375.728 530.482C375.474 531.304 375.374 532.229 375.429 533.257C375.478 534.297 375.695 535.415 376.078 536.612C376.589 538.205 377.25 539.51 378.064 540.528C378.878 541.547 379.781 542.242 380.773 542.614C381.756 542.989 382.768 543.01 383.808 542.677C384.59 542.426 385.246 542.018 385.775 541.453C386.305 540.887 386.697 540.193 386.951 539.371C387.196 538.551 387.289 537.623 387.231 536.586C387.175 535.558 386.956 534.446 386.573 533.249C386.062 531.657 385.405 530.35 384.601 529.328C383.787 528.31 382.889 527.613 381.906 527.238C380.916 526.875 379.897 526.862 378.847 527.198ZM358.084 530.777L359.049 534.959L369.038 532.653L369.511 534.702L365.278 549.95L362.509 550.589L366.734 535.566L359.571 537.219L360.625 541.783L358.279 542.324L357.226 537.761L354.047 538.495L353.525 536.234L356.704 535.5L355.739 531.318L358.084 530.777ZM334.609 534.762L336.313 554.991L328.858 555.619C327.49 555.734 326.29 555.593 325.257 555.195C324.214 554.797 323.386 554.174 322.771 553.323C322.147 552.483 321.785 551.461 321.683 550.257C321.598 549.246 321.744 548.331 322.121 547.514C322.5 546.706 323.073 546.022 323.84 545.463C324.608 544.903 325.524 544.496 326.589 544.242L319.539 536.032L322.862 535.752L329.522 543.645L332.6 543.386L331.893 534.991L334.609 534.762ZM332.796 545.712L328.577 546.068C327.17 546.186 326.103 546.582 325.374 547.254C324.635 547.928 324.312 548.818 324.405 549.926C324.501 551.063 324.923 551.929 325.672 552.526C326.421 553.122 327.498 553.361 328.905 553.243L333.398 552.864L332.796 545.712ZM315.613 536.143L315.688 556.443L302.957 556.49L302.948 554.054L312.953 554.017L312.931 547.971L304.216 548.003L304.207 545.668L312.922 545.636L312.896 538.604L302.804 538.641L302.795 536.19L315.613 536.143ZM291.663 535.095C293.022 535.194 294.334 535.479 295.598 535.949C296.862 536.43 297.911 537.059 298.746 537.837L297.231 539.863C296.76 539.412 296.217 539.019 295.602 538.683C294.987 538.347 294.328 538.076 293.626 537.87C292.924 537.663 292.206 537.533 291.474 537.48C290.037 537.375 288.865 537.57 287.956 538.066C287.038 538.561 286.539 539.348 286.46 540.428C286.403 541.218 286.648 541.91 287.196 542.503C287.734 543.094 288.782 543.675 290.339 544.244L292.49 545.056C294.301 545.731 295.604 546.539 296.398 547.479C297.192 548.419 297.541 549.549 297.444 550.87C297.379 551.757 297.142 552.544 296.733 553.232C296.324 553.919 295.778 554.495 295.095 554.958C294.411 555.432 293.621 555.771 292.723 555.977C291.816 556.192 290.837 556.261 289.786 556.184C288.485 556.089 287.289 555.807 286.199 555.34C285.098 554.882 284.205 554.307 283.519 553.617L285.07 551.681C285.477 552.079 285.951 552.429 286.491 552.73C287.031 553.041 287.614 553.287 288.24 553.468C288.866 553.66 289.506 553.779 290.162 553.827C291.039 553.891 291.825 553.818 292.519 553.607C293.202 553.405 293.75 553.067 294.163 552.593C294.565 552.128 294.792 551.544 294.844 550.84C294.881 550.329 294.793 549.872 294.581 549.469C294.367 549.075 293.973 548.697 293.399 548.335C292.824 547.974 292.023 547.6 290.994 547.215L288.702 546.349C286.938 545.687 285.664 544.891 284.879 543.961C284.093 543.041 283.752 541.882 283.854 540.484C283.94 539.308 284.305 538.293 284.949 537.439C285.583 536.593 286.467 535.96 287.603 535.539C288.738 535.128 290.091 534.98 291.663 535.095ZM272.302 532.766C274.068 533.049 275.48 533.642 276.54 534.546C277.598 535.46 278.325 536.575 278.721 537.891C279.115 539.217 279.192 540.634 278.951 542.142L276.97 554.513L274.278 554.082L276.243 541.812C276.547 539.912 276.301 538.419 275.506 537.332C274.7 536.254 273.495 535.586 271.891 535.329C270.297 535.074 268.954 535.334 267.861 536.108C266.756 536.891 266.052 538.232 265.748 540.132L263.784 552.402L261.092 551.971L263.072 539.6C263.314 538.092 263.828 536.775 264.616 535.648C265.403 534.521 266.442 533.688 267.732 533.151C269.022 532.613 270.545 532.485 272.302 532.766ZM259.099 530.882L254.366 550.623L251.715 549.987L255.863 532.686L247.036 530.57L247.621 528.131L259.099 530.882ZM242.736 526.524L237.498 543.527L243.055 545.239L242.316 547.636L228.598 543.41L229.336 541.012L234.893 542.724L240.131 525.721L242.736 526.524Z" fill="black"/>
<path d="M261.576 86.7331C260.328 86.9993 259.146 86.9698 258.029 86.6446C256.921 86.3174 255.916 85.751 255.013 84.9454C254.119 84.1377 253.354 83.1492 252.72 81.9799C252.085 80.8106 251.616 79.5169 251.314 78.0988C251.009 76.6713 250.908 75.2942 251.011 73.9676C251.113 72.641 251.409 71.4315 251.897 70.3389C252.393 69.2348 253.08 68.3075 253.958 67.5569C254.845 66.8043 255.913 66.2949 257.161 66.0288C258.399 65.7646 259.572 65.7961 260.68 66.1233C261.787 66.4505 262.793 67.0169 263.696 67.8225C264.597 68.6187 265.365 69.6015 266 70.7708C266.635 71.9401 267.105 73.2385 267.409 74.6661C267.712 76.0842 267.812 77.4565 267.709 78.7831C267.606 80.1097 267.307 81.325 266.811 82.429C266.315 83.5331 265.628 84.4604 264.751 85.211C263.873 85.9616 262.815 86.469 261.576 86.7331ZM261.062 84.3223C261.866 84.1509 262.555 83.8161 263.131 83.3177C263.714 82.8078 264.169 82.1574 264.494 81.3665C264.829 80.5735 265.02 79.6629 265.068 78.6347C265.123 77.595 265.019 76.4607 264.757 75.2316C264.408 73.5961 263.88 72.2311 263.172 71.1367C262.464 70.0422 261.635 69.2603 260.685 68.7908C259.745 68.3193 258.74 68.1975 257.672 68.4254C256.868 68.5967 256.175 68.9374 255.592 69.4472C255.008 69.9571 254.549 70.6085 254.214 71.4014C253.889 72.1924 253.703 73.1067 253.658 74.1444C253.61 75.1726 253.718 76.3012 253.98 77.5302C254.328 79.1658 254.852 80.5318 255.55 81.6282C256.258 82.7226 257.083 83.5056 258.023 83.9771C258.971 84.4371 259.984 84.5522 261.062 84.3223ZM272.345 84.1396L272.078 82.1126L275.931 77.4957C277.161 76.0272 278.15 74.7612 278.897 73.6976C279.643 72.6243 280.17 71.6677 280.479 70.8275C280.786 69.9778 280.887 69.1504 280.781 68.3454C280.627 67.1761 280.098 66.3097 279.195 65.746C278.302 65.1812 277.141 64.9927 275.713 65.1807C274.832 65.2968 273.998 65.5576 273.213 65.9632C272.428 66.3688 271.795 66.891 271.313 67.5296L270.031 65.6801C270.727 64.8866 271.559 64.2457 272.528 63.7573C273.505 63.2581 274.569 62.9328 275.719 62.7814C277.071 62.6035 278.291 62.6914 279.381 63.0452C280.47 63.3894 281.355 63.9699 282.038 64.7868C282.729 65.5928 283.154 66.5948 283.311 67.7928C283.421 68.6267 283.364 69.4873 283.139 70.3749C282.915 71.2624 282.441 72.2901 281.717 73.4579C281.002 74.6148 279.955 76.0299 278.576 77.7032L275.544 81.3345L285.435 80.0324L285.743 82.3757L272.345 84.1396ZM304.656 81.2331L304.412 60.9346L307.138 60.9018L307.382 81.2004L304.656 81.2331ZM312.836 81.3063L313.869 61.0326L320.009 61.3455C321.998 61.4468 323.733 61.9708 325.214 62.9174C326.705 63.8549 327.846 65.1132 328.637 66.6925C329.428 68.2621 329.773 70.0365 329.672 72.0156C329.597 73.4927 329.277 74.8363 328.712 76.0464C328.156 77.2571 327.402 78.293 326.448 79.1543C325.495 80.0059 324.383 80.6509 323.112 81.0895C321.841 81.5184 320.463 81.6949 318.976 81.6192L312.836 81.3063ZM315.688 78.9108L318.656 79.0621C319.834 79.1221 320.905 79.0024 321.869 78.7031C322.843 78.3946 323.689 77.9296 324.408 77.308C325.127 76.6768 325.694 75.9072 326.108 74.9991C326.532 74.0818 326.774 73.0391 326.834 71.871C326.913 70.3166 326.658 68.9534 326.07 67.7813C325.481 66.5995 324.619 65.6699 323.482 64.9925C322.355 64.3156 321.005 63.937 319.431 63.8568L316.463 63.7055L315.688 78.9108ZM333.314 82.5735L336.004 62.4526L348.623 64.1402L348.3 66.5547L338.383 65.2285L337.582 71.2216L346.22 72.3768L345.91 74.6907L337.273 73.5355L336.34 80.5059L346.343 81.8437L346.018 84.2726L333.314 82.5735ZM348.379 84.6192L360.504 66.4835L363.267 67.0851L366.995 88.6725L363.992 88.0185L363.105 82.6168L354.264 80.6919L351.297 85.2546L348.379 84.6192ZM355.521 78.5318L362.832 80.1235L361.103 70.0716L355.521 78.5318Z" fill="black"/>
<rect x="261.5" y="261.5" width="95.8456" height="95.8456" stroke="black" stroke-width="3"/>
</svg>
