<svg width="278" height="282" viewBox="0 0 278 282" fill="none" xmlns="http://www.w3.org/2000/svg">
<mask id="mask0_1358_526" style="mask-type:luminance" maskUnits="userSpaceOnUse" x="0" y="0" width="278" height="282">
<path d="M139 1.5C214.923 1.5 276.5 63.7604 276.5 140.599C276.5 217.437 214.923 279.697 139 279.697C63.077 279.697 1.50004 217.437 1.5 140.599C1.5 63.7604 63.077 1.50001 139 1.5Z" fill="white" stroke="white" stroke-width="3"/>
</mask>
<g mask="url(#mask0_1358_526)">
<path d="M56.4346 140.599L56.8023 -48.6174" stroke="#323232" stroke-width="3" stroke-miterlimit="10"/>
<path d="M56.4347 140.599L32.9316 -42.7542" stroke="#323232" stroke-width="3" stroke-miterlimit="10"/>
<path d="M56.4338 140.599L12.3662 -27.0931" stroke="#323232" stroke-width="3" stroke-miterlimit="10"/>
<path d="M56.434 140.599L-9.73438 -21.8321" stroke="#323232" stroke-width="3" stroke-miterlimit="10"/>
<path d="M56.434 140.599L-31.8369 -14.6454" stroke="#323232" stroke-width="3" stroke-miterlimit="10"/>
<path d="M56.4348 140.599L-47.7949 2.7655" stroke="#323232" stroke-width="3" stroke-miterlimit="10"/>
<path d="M56.4345 140.599L-60.8477 21.6444" stroke="#323232" stroke-width="3" stroke-miterlimit="10"/>
<path d="M56.4346 140.599L-72.0479 40.6398" stroke="#323232" stroke-width="3" stroke-miterlimit="10"/>
<path d="M56.4341 140.599L-79.0312 61.3217" stroke="#323232" stroke-width="3" stroke-miterlimit="10"/>
<path d="M56.4348 140.599L-74.2061 85.7577" stroke="#323232" stroke-width="3" stroke-miterlimit="10"/>
<path d="M56.4344 140.599L-80.1689 103.524" stroke="#323232" stroke-width="3" stroke-miterlimit="10"/>
<path d="M56.4339 140.599L-83.7881 121.926" stroke="#323232" stroke-width="3" stroke-miterlimit="10"/>
<path d="M292.668 140.647H-85" stroke="#323232" stroke-width="3" stroke-miterlimit="10"/>
<path d="M309.7 108.248L56.4346 140.599" stroke="#323232" stroke-width="3" stroke-miterlimit="10"/>
<path d="M267.982 83.4111L56.4346 140.599" stroke="#323232" stroke-width="3" stroke-miterlimit="10"/>
<path d="M253.986 58.0316L56.4346 140.599" stroke="#323232" stroke-width="3" stroke-miterlimit="10"/>
<path d="M239.631 33.8773L56.4346 140.599" stroke="#323232" stroke-width="3" stroke-miterlimit="10"/>
<path d="M219.859 14.0901L56.4346 140.599" stroke="#323232" stroke-width="3" stroke-miterlimit="10"/>
<path d="M201.003 -5.2131L56.4346 140.599" stroke="#323232" stroke-width="3" stroke-miterlimit="10"/>
<path d="M177.904 -18.9908L56.4346 140.599" stroke="#323232" stroke-width="3" stroke-miterlimit="10"/>
<path d="M155.433 -32.1509L56.4346 140.599" stroke="#323232" stroke-width="3" stroke-miterlimit="10"/>
<path d="M131.879 -42.6892L56.4346 140.599" stroke="#323232" stroke-width="3" stroke-miterlimit="10"/>
<path d="M107.171 -49.4941L56.4346 140.599" stroke="#323232" stroke-width="3" stroke-miterlimit="10"/>
<path d="M81.3211 -47.7353L56.4346 140.599" stroke="#323232" stroke-width="3" stroke-miterlimit="10"/>
</g>
<mask id="mask1_1358_526" style="mask-type:luminance" maskUnits="userSpaceOnUse" x="0" y="0" width="278" height="282">
<path d="M139 1.54886C214.923 1.54886 276.5 63.8093 276.5 140.647C276.5 217.486 214.923 279.746 139 279.746C63.077 279.746 1.50004 217.486 1.5 140.647C1.5 63.8093 63.077 1.54887 139 1.54886Z" fill="white" stroke="white" stroke-width="3"/>
</mask>
<g mask="url(#mask1_1358_526)">
<path d="M223.265 140.647L222.898 329.862" stroke="#323232" stroke-width="3" stroke-miterlimit="10"/>
<path d="M223.265 140.647L246.769 324" stroke="#323232" stroke-width="3" stroke-miterlimit="10"/>
<path d="M223.265 140.647L267.332 308.339" stroke="#323232" stroke-width="3" stroke-miterlimit="10"/>
<path d="M223.265 140.647L289.434 303.078" stroke="#323232" stroke-width="3" stroke-miterlimit="10"/>
<path d="M223.265 140.647L311.536 295.89" stroke="#323232" stroke-width="3" stroke-miterlimit="10"/>
<path d="M223.265 140.647L327.495 278.479" stroke="#323232" stroke-width="3" stroke-miterlimit="10"/>
<path d="M223.265 140.647L340.547 259.601" stroke="#323232" stroke-width="3" stroke-miterlimit="10"/>
<path d="M223.265 140.647L351.747 240.605" stroke="#323232" stroke-width="3" stroke-miterlimit="10"/>
<path d="M223.265 140.647L358.73 219.923" stroke="#323232" stroke-width="3" stroke-miterlimit="10"/>
<path d="M223.265 140.647L353.905 195.487" stroke="#323232" stroke-width="3" stroke-miterlimit="10"/>
<path d="M223.265 140.647L359.868 177.722" stroke="#323232" stroke-width="3" stroke-miterlimit="10"/>
<path d="M223.265 140.647L363.487 159.32" stroke="#323232" stroke-width="3" stroke-miterlimit="10"/>
<path d="M-12.9688 140.599H364.7" stroke="#323232" stroke-width="3" stroke-miterlimit="10"/>
<path d="M-30 172.997L223.265 140.647" stroke="#323232" stroke-width="3" stroke-miterlimit="10"/>
<path d="M11.7178 197.835L223.266 140.647" stroke="#323232" stroke-width="3" stroke-miterlimit="10"/>
<path d="M25.7139 223.213L223.265 140.647" stroke="#323232" stroke-width="3" stroke-miterlimit="10"/>
<path d="M40.0693 247.368L223.265 140.647" stroke="#323232" stroke-width="3" stroke-miterlimit="10"/>
<path d="M59.8408 267.155L223.265 140.647" stroke="#323232" stroke-width="3" stroke-miterlimit="10"/>
<path d="M78.6963 286.458L223.265 140.647" stroke="#323232" stroke-width="3" stroke-miterlimit="10"/>
<path d="M101.796 300.237L223.265 140.647" stroke="#323232" stroke-width="3" stroke-miterlimit="10"/>
<path d="M124.267 313.397L223.265 140.647" stroke="#323232" stroke-width="3" stroke-miterlimit="10"/>
<path d="M147.82 323.934L223.265 140.647" stroke="#323232" stroke-width="3" stroke-miterlimit="10"/>
<path d="M172.529 330.739L223.266 140.647" stroke="#323232" stroke-width="3" stroke-miterlimit="10"/>
<path d="M198.379 328.98L223.265 140.647" stroke="#323232" stroke-width="3" stroke-miterlimit="10"/>
</g>
</svg>
