<svg width="1241" height="103" viewBox="0 0 1241 103" fill="none" xmlns="http://www.w3.org/2000/svg">
<path d="M955.462 2.83496L952.897 6.74996C943.267 21.69 934.987 34.92 928.057 46.44C921.217 57.87 915.502 68.4 910.912 78.03V100.845H875.677V75.735C872.347 68.985 868.432 62.055 863.932 54.945C859.432 47.745 853.042 37.89 844.762 25.38C838.282 15.84 833.332 8.32496 829.912 2.83496H867.712C870.412 8.32496 874.822 16.47 880.942 27.27C887.062 38.25 891.247 45.99 893.497 50.49C896.647 43.92 900.877 35.865 906.187 26.325C912.397 15.165 916.582 7.33496 918.742 2.83496H955.462Z" fill="#191919"/>
<path d="M831.26 35.505C831.26 43.335 829.325 49.95 825.455 55.35C821.675 60.75 815.15 64.665 805.88 67.095C806.96 68.535 807.725 69.66 808.175 70.47L830.045 100.845H793.325C789.365 93.465 783.11 83.025 774.56 69.525H754.715V100.845H722.855C723.575 83.385 723.935 67.05 723.935 51.84C723.935 36.63 723.575 20.295 722.855 2.83496H754.715V2.96996H782.39C800.57 2.96996 813.26 5.89496 820.46 11.745C827.66 17.595 831.26 25.515 831.26 35.505ZM754.715 28.89V44.28H772.94C780.59 44.28 786.35 44.055 790.22 43.605C794.18 43.065 796.925 42.255 798.455 41.175C799.985 40.095 800.75 38.52 800.75 36.45C800.75 34.47 800.03 32.94 798.59 31.86C797.15 30.78 794.45 30.015 790.49 29.565C786.53 29.115 780.68 28.89 772.94 28.89H754.715Z" fill="#191919"/>
<path d="M637.645 76.14C671.845 75.96 696.64 75.465 712.03 74.655C711.4 78.345 710.995 82.17 710.815 86.13C710.725 90 710.68 94.905 710.68 100.845H605.785C606.505 83.385 606.865 67.05 606.865 51.84C606.865 36.63 606.505 20.295 605.785 2.83496H710.68V27.27H637.645V40.23C641.965 40.32 648.355 40.365 656.815 40.365C671.125 40.365 685.93 40.095 701.23 39.555V62.775C685.93 62.235 671.125 61.965 656.815 61.965C648.355 61.965 641.965 62.01 637.645 62.1V76.14Z" fill="#191919"/>
<path d="M598.588 2.83496L589.677 23.49C581.847 41.76 575.682 56.385 571.182 67.365C566.682 78.345 562.543 89.505 558.763 100.845H518.398C514.708 89.685 510.612 78.66 506.112 67.77C501.702 56.79 495.763 42.75 488.293 25.65C487.033 22.77 483.748 15.165 478.438 2.83496H515.968C518.668 11.565 522.672 22.77 527.982 36.45C532.662 48.51 536.443 58.95 539.323 67.77C541.213 61.56 543.463 54.945 546.073 47.925C548.773 40.815 550.392 36.495 550.932 34.965C556.152 21.195 559.978 10.485 562.408 2.83496H598.588Z" fill="#191919"/>
<path d="M419.591 102.195C398.981 102.195 383.816 97.74 374.096 88.83C364.376 79.83 359.516 67.23 359.516 51.03C359.516 35.01 364.331 22.5 373.961 13.5C383.681 4.5 398.891 0 419.591 0C440.381 0 455.591 4.5 465.221 13.5C474.941 22.5 479.801 35.01 479.801 51.03C479.801 67.32 474.986 79.92 465.356 88.83C455.726 97.74 440.471 102.195 419.591 102.195ZM419.591 74.655C429.581 74.655 436.781 72.765 441.191 68.985C445.601 65.115 447.806 59.13 447.806 51.03C447.806 43.11 445.601 37.215 441.191 33.345C436.781 29.475 429.581 27.54 419.591 27.54C409.691 27.54 402.536 29.475 398.126 33.345C393.716 37.215 391.511 43.11 391.511 51.03C391.511 59.04 393.716 64.98 398.126 68.85C402.536 72.72 409.691 74.655 419.591 74.655Z" fill="#191919"/>
<path d="M295.65 102.195C275.31 102.195 260.325 97.875 250.695 89.235C241.065 80.595 236.25 68.265 236.25 52.245C236.25 36.135 241.065 23.4 250.695 14.04C260.325 4.68 275.31 0 295.65 0C324.09 0 343.125 9.765 352.755 29.295C344.655 32.085 335.16 36.27 324.27 41.85C321.66 36.81 317.52 33.075 311.85 30.645C306.27 28.215 300.555 27 294.705 27C286.065 27 279.63 29.295 275.4 33.885C271.17 38.385 269.055 43.965 269.055 50.625C269.055 57.825 271.305 63.72 275.805 68.31C280.395 72.81 287.37 75.06 296.73 75.06C304.2 75.06 310.14 73.845 314.55 71.415C318.96 68.895 322.2 64.935 324.27 59.535C331.65 63.495 341.1 67.95 352.62 72.9C348.12 83.79 340.605 91.395 330.075 95.715C319.545 100.035 308.07 102.195 295.65 102.195Z" fill="#191919"/>
<path d="M151.04 76.14C185.24 75.96 210.035 75.465 225.425 74.655C224.795 78.345 224.39 82.17 224.21 86.13C224.12 90 224.075 94.905 224.075 100.845H119.18C119.9 83.385 120.26 67.05 120.26 51.84C120.26 36.63 119.9 20.295 119.18 2.83496H224.075V27.27H151.04V40.23C155.36 40.32 161.75 40.365 170.21 40.365C184.52 40.365 199.325 40.095 214.625 39.555V62.775C199.325 62.235 184.52 61.965 170.21 61.965C161.75 61.965 155.36 62.01 151.04 62.1V76.14Z" fill="#191919"/>
<path d="M108.405 35.505C108.405 43.335 106.47 49.95 102.6 55.35C98.82 60.75 92.295 64.665 83.025 67.095C84.105 68.535 84.87 69.66 85.32 70.47L107.19 100.845H70.47C66.51 93.465 60.255 83.025 51.705 69.525H31.86V100.845H0C0.72 83.385 1.08 67.05 1.08 51.84C1.08 36.63 0.72 20.295 0 2.83496H31.86V2.96996H59.535C77.715 2.96996 90.405 5.89496 97.605 11.745C104.805 17.595 108.405 25.515 108.405 35.505ZM31.86 28.89V44.28H50.085C57.735 44.28 63.495 44.055 67.365 43.605C71.325 43.065 74.07 42.255 75.6 41.175C77.13 40.095 77.895 38.52 77.895 36.45C77.895 34.47 77.175 32.94 75.735 31.86C74.295 30.78 71.595 30.015 67.635 29.565C63.675 29.115 57.825 28.89 50.085 28.89H31.86Z" fill="#191919"/>
<path d="M1205.84 2.84497V27.6552H1215.86V75.979H1205.68V100.789H1240.21V2.84497H1205.84Z" fill="#191919"/>
<path d="M1096.98 2.84497V27.6552H1086.96V75.979H1097.14V100.789H1062.6V2.84497H1096.98Z" fill="#191919"/>
<g clip-path="url(#clip0_4263_140)">
<path d="M1151.03 100.838C1178.07 100.838 1200 78.9153 1200 51.8716C1200 24.828 1178.07 2.90479 1151.03 2.90479C1123.99 2.90479 1102.06 24.828 1102.06 51.8716C1102.06 78.9153 1123.99 100.838 1151.03 100.838Z" fill="#191919"/>
<path d="M1152.54 25.7531C1156.36 25.6828 1159.41 22.4015 1159.3 18.4499C1159.21 14.7664 1156.16 11.7532 1152.19 11.683C1147.67 11.6 1145.05 15.2771 1145.1 18.5457C1145.17 22.5484 1148.57 25.8297 1152.53 25.7531H1152.54Z" fill="#BFC7FF"/>
<path d="M1152.41 26.0719C1150.46 26.0719 1148.6 25.3058 1147.15 23.9141C1145.67 22.4777 1144.83 20.569 1144.79 18.5453C1144.76 16.694 1145.55 14.7788 1146.91 13.4254C1147.88 12.4551 1149.56 11.2996 1152.2 11.357C1156.26 11.4273 1159.53 14.5362 1159.63 18.4368C1159.68 20.4732 1158.94 22.4011 1157.56 23.8503C1156.23 25.242 1154.45 26.0336 1152.55 26.0655C1152.51 26.0655 1152.47 26.0655 1152.42 26.0655L1152.41 26.0719ZM1152.05 11.9954C1149.73 11.9954 1148.23 13.0105 1147.36 13.8723C1146.12 15.1044 1145.4 16.8472 1145.43 18.5325C1145.46 20.3838 1146.23 22.133 1147.59 23.4481C1148.95 24.7568 1150.7 25.4654 1152.54 25.4271H1152.54C1154.26 25.3952 1155.88 24.6802 1157.09 23.4098C1158.36 22.0819 1159.03 20.32 1158.99 18.4495C1158.9 14.8937 1155.91 12.0593 1152.18 11.9954C1152.14 11.9954 1152.09 11.9954 1152.04 11.9954H1152.05Z" fill="#BFC7FF"/>
<path d="M1180.82 56.0384L1164.18 29.9539C1163.67 29.3091 1163 28.7665 1162.2 28.626C1157.29 27.777 1147.16 27.943 1142.21 28.5941C1141.36 28.7026 1140.63 29.2644 1140.08 29.9539L1121.25 57.0279C1119.91 58.7004 1120.29 61.0561 1122.09 62.2946C1122.82 62.7925 1123.67 63.0351 1124.51 63.0351C1125.76 63.0351 1126.99 62.5052 1127.79 61.5093L1141.38 41.1895C1141.62 40.832 1142.21 40.9916 1142.21 41.4065L1142.19 87.7151C1142.19 90.0835 1144.16 92.1519 1146.72 92.2221C1149.38 92.2987 1151.55 90.3325 1151.55 87.8939V62.0903C1151.55 61.7072 1151.89 61.3944 1152.3 61.3944C1152.7 61.3944 1153.02 61.6753 1153.06 62.0392L1158.66 88.2131C1158.84 90.4857 1161.39 92.6435 1164.02 92.2221C1166.79 91.7753 1168.19 89.9559 1168 87.5747L1162.19 58.86V41.7577C1162.19 41.3299 1162.81 41.1831 1163.03 41.5598L1174.26 60.5198C1175.06 61.5157 1176.29 62.0456 1177.54 62.0456C1178.38 62.0456 1179.23 61.803 1179.96 61.3051C1181.77 60.0666 1182.15 57.7109 1180.81 56.0384H1180.82Z" fill="#BFC7FF"/>
<path d="M1163.36 92.5982C1162.26 92.5982 1161.14 92.2024 1160.21 91.4746C1159.12 90.6192 1158.44 89.4382 1158.34 88.2444L1152.75 62.1088C1152.73 61.8726 1152.54 61.7194 1152.31 61.7194C1152.06 61.7194 1151.87 61.8918 1151.87 62.0961V87.8997C1151.87 89.0998 1151.38 90.2425 1150.49 91.1107C1149.51 92.0619 1148.12 92.579 1146.71 92.5471C1144.04 92.4705 1141.86 90.3064 1141.86 87.7209L1141.89 41.4123C1141.89 41.3613 1141.84 41.3357 1141.81 41.323C1141.79 41.323 1141.69 41.291 1141.64 41.374L1128.05 61.6939C1127.19 62.76 1125.91 63.3601 1124.51 63.3601C1123.56 63.3601 1122.67 63.0856 1121.91 62.5685C1120.94 61.9109 1120.32 60.9406 1120.16 59.8362C1120 58.7701 1120.29 57.704 1120.98 56.8358L1139.8 29.7745C1140.29 29.1617 1141.08 28.4212 1142.16 28.2807C1147.28 27.6104 1157.38 27.4763 1162.24 28.319C1163.02 28.4531 1163.77 28.951 1164.42 29.7618L1181.06 55.859C1181.74 56.7208 1182.04 57.7806 1181.88 58.8467C1181.71 59.9447 1181.09 60.9151 1180.13 61.5726C1179.37 62.0897 1178.47 62.3642 1177.53 62.3642C1176.13 62.3642 1174.84 61.7641 1174 60.7172L1162.75 41.7251C1162.7 41.6422 1162.6 41.6677 1162.58 41.6741C1162.55 41.6868 1162.5 41.7124 1162.5 41.7634V58.8658L1168.3 87.5166C1168.52 90.1787 1166.89 92.0875 1164.06 92.5471C1163.82 92.5854 1163.59 92.6046 1163.34 92.6046L1163.36 92.5982ZM1152.31 61.081C1152.86 61.081 1153.33 61.496 1153.38 62.0195L1158.97 88.155C1159.06 89.1956 1159.67 90.2362 1160.61 90.9767C1161.6 91.7619 1162.83 92.1003 1163.98 91.9151C1166.49 91.5129 1167.87 89.9042 1167.69 87.606L1161.89 58.9297V41.7634C1161.89 41.4315 1162.11 41.1506 1162.44 41.0548C1162.79 40.9591 1163.14 41.0995 1163.32 41.3996L1174.55 60.3597C1175.22 61.2023 1176.36 61.7258 1177.55 61.7258C1178.36 61.7258 1179.13 61.4896 1179.79 61.0427C1180.61 60.4873 1181.13 59.6702 1181.26 58.7445C1181.4 57.8508 1181.15 56.9634 1180.57 56.2357L1180.55 56.2101L1163.91 30.1257C1163.55 29.6788 1162.93 29.0787 1162.14 28.9446C1157.34 28.1083 1147.33 28.2424 1142.26 28.9127C1141.4 29.0276 1140.73 29.6532 1140.33 30.1576L1121.51 57.2188C1120.92 57.9593 1120.67 58.8531 1120.8 59.7404C1120.94 60.6661 1121.47 61.4768 1122.28 62.0386C1122.93 62.4855 1123.71 62.7217 1124.52 62.7217C1125.71 62.7217 1126.84 62.1982 1127.54 61.3172L1141.12 41.0229C1141.31 40.7356 1141.66 40.6143 1142 40.7165C1142.32 40.8122 1142.53 41.0868 1142.53 41.4187L1142.51 87.7273C1142.51 89.9744 1144.4 91.8513 1146.74 91.9151C1147.98 91.947 1149.19 91.4938 1150.05 90.6575C1150.81 89.9106 1151.24 88.9339 1151.24 87.9061V62.1025C1151.24 61.5407 1151.72 61.0874 1152.31 61.0874L1152.31 61.081Z" fill="#BFC7FF"/>
<path d="M1174.78 59.0764C1174.37 59.0764 1173.96 59.0253 1173.55 58.9296C1172.21 58.604 1171.06 57.7741 1170.34 56.5931C1168.84 54.148 1169.61 50.9433 1172.06 49.4495C1174.5 47.9557 1177.7 48.7281 1179.2 51.1668C1180.7 53.6118 1179.92 56.8165 1177.48 58.3103C1176.66 58.8146 1175.72 59.0764 1174.78 59.0764ZM1174.77 50.2858C1174.13 50.2858 1173.48 50.4582 1172.9 50.8157C1171.2 51.8498 1170.67 54.0714 1171.7 55.7632C1172.74 57.4549 1174.96 57.9911 1176.65 56.9569C1178.34 55.9228 1178.88 53.7012 1177.84 52.0094C1177.17 50.905 1175.98 50.2922 1174.77 50.2922V50.2858Z" fill="#191919"/>
<path d="M1152.18 53.8031C1149.31 53.8031 1146.98 51.473 1146.98 48.6066C1146.98 45.7403 1149.31 43.4102 1152.18 43.4102C1155.05 43.4102 1157.38 45.7403 1157.38 48.6066C1157.38 51.473 1155.05 53.8031 1152.18 53.8031ZM1152.18 45.0125C1150.2 45.0125 1148.58 46.6276 1148.58 48.613C1148.58 50.5984 1150.2 52.2135 1152.18 52.2135C1154.17 52.2135 1155.78 50.5984 1155.78 48.613C1155.78 46.6276 1154.17 45.0125 1152.18 45.0125Z" fill="#191919"/>
<path d="M1160.59 37.6398C1157.73 37.6398 1155.4 35.3097 1155.4 32.4433C1155.4 29.5769 1157.73 27.2468 1160.59 27.2468C1163.46 27.2468 1165.79 29.5769 1165.79 32.4433C1165.79 35.3097 1163.46 37.6398 1160.59 37.6398ZM1160.59 28.8492C1158.61 28.8492 1156.99 30.4643 1156.99 32.4497C1156.99 34.4351 1158.61 36.0502 1160.59 36.0502C1162.58 36.0502 1164.19 34.4351 1164.19 32.4497C1164.19 30.4643 1162.58 28.8492 1160.59 28.8492Z" fill="#191919"/>
<path d="M1160.43 78.828C1158.03 78.828 1155.87 77.1554 1155.35 74.7168C1154.75 71.9143 1156.54 69.15 1159.34 68.55C1160.7 68.2627 1162.09 68.518 1163.25 69.2713C1164.41 70.0246 1165.22 71.1865 1165.5 72.5463C1165.79 73.8996 1165.54 75.2913 1164.78 76.4532C1164.03 77.6151 1162.87 78.4194 1161.51 78.7067C1161.14 78.7833 1160.78 78.8216 1160.42 78.8216L1160.43 78.828ZM1160.44 70.031C1160.18 70.031 1159.93 70.0566 1159.68 70.114C1157.74 70.529 1156.5 72.4441 1156.91 74.3848C1157.33 76.3255 1159.24 77.564 1161.18 77.149C1162.12 76.9511 1162.93 76.3957 1163.45 75.585C1163.97 74.7806 1164.15 73.8167 1163.95 72.8782C1163.75 71.9398 1163.19 71.1354 1162.38 70.612C1161.8 70.2289 1161.12 70.031 1160.44 70.031Z" fill="#191919"/>
<path d="M1154.92 52.2817L1153.4 52.7656L1158.75 69.5739L1160.27 69.09L1154.92 52.2817Z" fill="#191919"/>
<path d="M1157.89 35.4209L1153.63 44.4478L1155.08 45.1278L1159.33 36.1009L1157.89 35.4209Z" fill="#191919"/>
<path d="M1164.29 35.3432L1162.93 36.1812L1171.79 50.5466L1173.15 49.7087L1164.29 35.3432Z" fill="#191919"/>
</g>
<defs>
<clipPath id="clip0_4263_140">
<rect width="97.9403" height="97.9403" fill="white" transform="translate(1102.06 2.90479)"/>
</clipPath>
</defs>
</svg>
