<svg width="277" height="195" viewBox="0 0 277 195" fill="none" xmlns="http://www.w3.org/2000/svg">
<path d="M82.9462 138.008V152.375H88.748V180.358H82.8535V194.725H102.853V138.008H82.9462Z" fill="#191919"/>
<path d="M19.9063 138.008V152.374H14.1071V180.357H19.999V194.724H0V138.008H19.9063Z" fill="#191919"/>
<g clip-path="url(#clip0_4534_12)">
<path d="M51.202 194.752C66.8628 194.752 79.5583 182.057 79.5583 166.397C79.5583 150.738 66.8628 138.043 51.202 138.043C35.5413 138.043 22.8457 150.738 22.8457 166.397C22.8457 182.057 35.5413 194.752 51.202 194.752Z" fill="#191919"/>
<path d="M52.0807 151.275C54.2951 151.234 56.0585 149.334 55.9993 147.046C55.9439 144.913 54.1768 143.168 51.8774 143.128C49.26 143.08 47.7443 145.209 47.7739 147.101C47.8145 149.419 49.7813 151.319 52.077 151.275H52.0807Z" fill="#BFC7FF"/>
<path d="M52.0083 151.459C50.8771 151.459 49.8013 151.016 48.9621 150.21C48.1008 149.378 47.6165 148.273 47.5943 147.101C47.5758 146.029 48.0342 144.92 48.8179 144.137C49.3799 143.575 50.3558 142.906 51.8826 142.939C54.2375 142.979 56.1266 144.78 56.1858 147.038C56.2153 148.218 55.7902 149.334 54.988 150.173C54.2153 150.979 53.1876 151.437 52.0897 151.456C52.0638 151.456 52.0379 151.456 52.012 151.456L52.0083 151.459ZM51.7976 143.308C50.4556 143.308 49.5832 143.896 49.0804 144.395C48.3632 145.109 47.9492 146.118 47.964 147.094C47.9825 148.166 48.4261 149.179 49.2172 149.94C50.0009 150.698 51.0139 151.108 52.0786 151.086H52.0823C53.0767 151.068 54.0157 150.654 54.7181 149.918C55.4538 149.149 55.842 148.129 55.8161 147.046C55.7643 144.987 54.0342 143.345 51.8752 143.308C51.8494 143.308 51.8198 143.308 51.7939 143.308H51.7976Z" fill="#BFC7FF"/>
<path d="M68.4528 168.811L58.8189 153.707C58.5194 153.334 58.1313 153.019 57.6691 152.938C54.8263 152.446 48.9594 152.543 46.0943 152.92C45.6026 152.982 45.1775 153.308 44.8596 153.707L33.9539 169.384C33.1775 170.353 33.3993 171.717 34.4456 172.434C34.867 172.722 35.3587 172.863 35.8467 172.863C36.5675 172.863 37.281 172.556 37.7431 171.979L45.6137 160.213C45.7505 160.006 46.0943 160.098 46.0943 160.339L46.0795 187.154C46.0795 188.525 47.2256 189.723 48.708 189.764C50.2459 189.808 51.5028 188.669 51.5028 187.257V172.316C51.5028 172.094 51.6987 171.913 51.939 171.913C52.1682 171.913 52.3568 172.075 52.3753 172.286L55.6174 187.442C55.7246 188.758 57.1996 190.008 58.7227 189.764C60.3309 189.505 61.1368 188.451 61.0259 187.072L57.6655 170.445V160.542C57.6655 160.294 58.024 160.209 58.1534 160.427L64.6562 171.406C65.1183 171.983 65.8318 172.29 66.5527 172.29C67.0407 172.29 67.5323 172.149 67.9538 171.861C69 171.144 69.2218 169.78 68.4455 168.811H68.4528Z" fill="#BFC7FF"/>
<path d="M58.3419 189.981C57.7061 189.981 57.0591 189.752 56.5194 189.33C55.8872 188.835 55.4917 188.151 55.4362 187.46L52.1978 172.326C52.1867 172.189 52.0758 172.101 51.9427 172.101C51.8022 172.101 51.6913 172.2 51.6913 172.319V187.26C51.6913 187.955 51.4067 188.617 50.8891 189.12C50.3235 189.671 49.5176 189.97 48.7043 189.951C47.1553 189.907 45.8947 188.654 45.8947 187.157L45.9094 160.342C45.9094 160.312 45.8836 160.297 45.8614 160.29C45.8503 160.29 45.7948 160.271 45.7653 160.32L37.8947 172.086C37.3993 172.703 36.6562 173.051 35.8429 173.051C35.2958 173.051 34.7782 172.892 34.3383 172.592C33.7801 172.211 33.4215 171.65 33.3254 171.01C33.233 170.393 33.403 169.775 33.8023 169.273L44.7006 153.603C44.9852 153.248 45.4436 152.819 46.0647 152.738C49.0333 152.35 54.8817 152.272 57.695 152.76C58.146 152.838 58.5822 153.126 58.9556 153.595L68.5933 168.707C68.9889 169.206 69.1589 169.82 69.0665 170.437C68.9704 171.073 68.6118 171.635 68.0536 172.016C67.6136 172.315 67.0924 172.474 66.5489 172.474C65.7356 172.474 64.9926 172.126 64.5046 171.52L57.9907 160.523C57.9612 160.475 57.9057 160.49 57.8946 160.493C57.8724 160.501 57.8466 160.515 57.8466 160.545V170.448L61.2033 187.039C61.329 188.58 60.3863 189.685 58.7486 189.951C58.6118 189.974 58.475 189.985 58.3345 189.985L58.3419 189.981ZM51.9427 171.731C52.2643 171.731 52.5379 171.971 52.5638 172.274L55.8022 187.408C55.854 188.011 56.2052 188.613 56.7486 189.042C57.3253 189.497 58.0351 189.693 58.7005 189.585C60.1534 189.353 60.9556 188.421 60.8484 187.09L57.4917 170.485V160.545C57.4917 160.353 57.6174 160.19 57.8096 160.135C58.0129 160.079 58.2162 160.161 58.3198 160.334L64.8225 171.313C65.2144 171.801 65.8724 172.104 66.56 172.104C67.0295 172.104 67.4768 171.968 67.8576 171.709C68.3308 171.387 68.634 170.914 68.7116 170.378C68.7892 169.86 68.645 169.347 68.3086 168.925L68.2975 168.91L58.6636 153.806C58.4528 153.547 58.0942 153.2 57.6395 153.122C54.8558 152.638 49.0628 152.716 46.1239 153.104C45.6248 153.17 45.2403 153.533 45.0074 153.825L34.1091 169.494C33.7653 169.923 33.6211 170.441 33.6988 170.955C33.7801 171.491 34.0832 171.96 34.5527 172.285C34.9298 172.544 35.3808 172.681 35.8503 172.681C36.5416 172.681 37.196 172.378 37.6026 171.868L45.4621 160.116C45.573 159.95 45.7764 159.88 45.9723 159.939C46.1608 159.994 46.2828 160.153 46.2828 160.345L46.268 187.161C46.268 188.462 47.366 189.549 48.719 189.585C49.4362 189.604 50.1386 189.342 50.634 188.857C51.0776 188.425 51.3253 187.859 51.3253 187.264V172.322C51.3253 171.997 51.6026 171.735 51.9464 171.735L51.9427 171.731Z" fill="#BFC7FF"/>
<path d="M64.9631 170.57C64.7265 170.57 64.4899 170.54 64.2533 170.485C63.4732 170.296 62.8115 169.816 62.3901 169.132C61.525 167.716 61.9723 165.86 63.3882 164.995C64.8041 164.13 66.6562 164.578 67.525 165.99C68.39 167.406 67.9427 169.261 66.5268 170.126C66.0499 170.418 65.5102 170.57 64.9631 170.57ZM64.9557 165.48C64.586 165.48 64.2089 165.579 63.8725 165.786C62.8928 166.385 62.5823 167.672 63.1812 168.651C63.7801 169.631 65.0666 169.941 66.0462 169.343C67.0259 168.744 67.3364 167.457 66.7375 166.478C66.3457 165.838 65.6581 165.483 64.9557 165.483V165.48Z" fill="#191919"/>
<path d="M51.8745 167.516C50.2146 167.516 48.8652 166.167 48.8652 164.507C48.8652 162.848 50.2146 161.498 51.8745 161.498C53.5344 161.498 54.8837 162.848 54.8837 164.507C54.8837 166.167 53.5344 167.516 51.8745 167.516ZM51.8745 162.426C50.7248 162.426 49.7894 163.362 49.7894 164.511C49.7894 165.661 50.7248 166.596 51.8745 166.596C53.0242 166.596 53.9595 165.661 53.9595 164.511C53.9595 163.362 53.0242 162.426 51.8745 162.426Z" fill="#191919"/>
<path d="M56.7377 158.157C55.0779 158.157 53.7285 156.808 53.7285 155.148C53.7285 153.488 55.0779 152.139 56.7377 152.139C58.3976 152.139 59.747 153.488 59.747 155.148C59.747 156.808 58.3976 158.157 56.7377 158.157ZM56.7377 153.067C55.588 153.067 54.6527 154.002 54.6527 155.152C54.6527 156.301 55.588 157.236 56.7377 157.236C57.8875 157.236 58.8228 156.301 58.8228 155.152C58.8228 154.002 57.8875 153.067 56.7377 153.067Z" fill="#191919"/>
<path d="M56.6523 182.006C55.2623 182.006 54.0127 181.038 53.7096 179.625C53.3621 178.003 54.4009 176.402 56.0238 176.055C56.8075 175.888 57.6134 176.036 58.2863 176.472C58.9591 176.908 59.4249 177.581 59.5913 178.369C59.7576 179.152 59.6097 179.958 59.1735 180.631C58.7373 181.304 58.0645 181.77 57.277 181.936C57.0663 181.98 56.8556 182.002 56.6486 182.002L56.6523 182.006ZM56.656 176.912C56.5081 176.912 56.3639 176.927 56.216 176.96C55.0922 177.201 54.375 178.309 54.6153 179.433C54.8556 180.557 55.9647 181.274 57.0885 181.034C57.6319 180.919 58.0977 180.598 58.4009 180.128C58.704 179.662 58.8075 179.104 58.6892 178.561C58.5746 178.017 58.253 177.552 57.7835 177.249C57.4434 177.027 57.0515 176.912 56.656 176.912Z" fill="#191919"/>
<path d="M53.4588 166.635L52.5781 166.915L55.6751 176.648L56.5558 176.368L53.4588 166.635Z" fill="#191919"/>
<path d="M55.171 156.872L52.709 162.099L53.5451 162.493L56.0071 157.266L55.171 156.872Z" fill="#191919"/>
<path d="M58.8823 156.827L58.0957 157.312L63.2275 165.63L64.0141 165.145L58.8823 156.827Z" fill="#191919"/>
</g>
<path d="M274.606 70.0383L273.13 72.292C267.586 80.8924 262.82 88.5084 258.83 95.14C254.893 101.72 251.603 107.782 248.961 113.325V126.459H228.677V112.004C226.76 108.118 224.507 104.129 221.916 100.036C219.326 95.8913 215.647 90.2181 210.881 83.0166C207.15 77.5248 204.301 73.1987 202.332 70.0383H224.092C225.646 73.1987 228.185 77.8875 231.708 84.1046C235.231 90.4254 237.64 94.881 238.935 97.4714C240.749 93.6894 243.184 89.0524 246.241 83.5606C249.815 77.1362 252.225 72.6288 253.468 70.0383H274.606Z" fill="#191919"/>
<path d="M203.106 88.8452C203.106 93.3526 201.992 97.1606 199.764 100.269C197.588 103.378 193.832 105.631 188.495 107.03C189.117 107.859 189.557 108.507 189.817 108.973L202.406 126.459H181.268C178.988 122.21 175.388 116.201 170.466 108.429H159.042V126.459H140.701C141.116 116.408 141.323 107.004 141.323 98.2486C141.323 89.4928 141.116 80.0894 140.701 70.0383H159.042V70.116H174.973C185.439 70.116 192.744 71.7999 196.889 75.1675C201.033 78.5351 203.106 83.0943 203.106 88.8452ZM159.042 85.0372V93.8966H169.533C173.937 93.8966 177.253 93.7671 179.481 93.508C181.76 93.1972 183.34 92.7309 184.221 92.1092C185.102 91.4874 185.542 90.5808 185.542 89.3892C185.542 88.2494 185.128 87.3686 184.299 86.7469C183.47 86.1252 181.916 85.6848 179.636 85.4257C177.356 85.1667 173.989 85.0372 169.533 85.0372H159.042Z" fill="#191919"/>
<path d="M91.6394 112.237C111.327 112.134 125.6 111.849 134.46 111.382C134.097 113.506 133.864 115.708 133.76 117.988C133.709 120.216 133.683 123.039 133.683 126.459H73.2988C73.7133 116.408 73.9205 107.004 73.9205 98.2486C73.9205 89.4928 73.7133 80.0894 73.2988 70.0383H133.683V84.1046H91.6394V91.5652C94.1262 91.617 97.8047 91.6429 102.675 91.6429C110.912 91.6429 119.435 91.4874 128.243 91.1766V104.543C119.435 104.233 110.912 104.077 102.675 104.077C97.8047 104.077 94.1262 104.103 91.6394 104.155V112.237Z" fill="#191919"/>
<path d="M69.1656 70.0383L64.0365 81.9286C59.5291 92.4459 55.9801 100.865 53.3896 107.186C50.7992 113.506 48.4159 119.931 46.2399 126.459H23.0034C20.8792 120.034 18.5219 113.688 15.9314 107.419C13.3927 101.098 9.97333 93.0158 5.67314 83.172C4.94781 81.5141 3.05676 77.1362 0 70.0383H21.6046C23.1588 75.0638 25.4643 81.5141 28.5211 89.3892C31.2152 96.3316 33.3912 102.342 35.0491 107.419C36.1371 103.844 37.4323 100.036 38.9348 95.9949C40.4891 91.9019 41.4217 89.4151 41.7325 88.5343C44.7375 80.6075 46.9394 74.4421 48.3382 70.0383H69.1656Z" fill="#191919"/>
<path d="M241.538 58.8297C229.674 58.8297 220.944 56.2651 215.348 51.136C209.753 45.955 206.955 38.7017 206.955 29.376C206.955 20.1539 209.727 12.9524 215.271 7.77142C220.866 2.59047 229.622 0 241.538 0C253.506 0 262.262 2.59047 267.805 7.77142C273.401 12.9524 276.198 20.1539 276.198 29.376C276.198 38.7535 273.427 46.0068 267.883 51.136C262.339 56.2651 253.558 58.8297 241.538 58.8297ZM241.538 42.976C247.289 42.976 251.434 41.888 253.972 39.712C256.511 37.4842 257.78 34.0388 257.78 29.376C257.78 24.8167 256.511 21.4232 253.972 19.1954C251.434 16.9676 247.289 15.8537 241.538 15.8537C235.839 15.8537 231.72 16.9676 229.181 19.1954C226.643 21.4232 225.373 24.8167 225.373 29.376C225.373 33.987 226.643 37.4064 229.181 39.6342C231.72 41.8621 235.839 42.976 241.538 42.976Z" fill="#191919"/>
<path d="M170.186 58.8297C158.477 58.8297 149.851 56.3428 144.308 51.3691C138.764 46.3954 135.992 39.2975 135.992 30.0754C135.992 20.8015 138.764 13.4705 144.308 8.08228C149.851 2.69409 158.477 0 170.186 0C186.558 0 197.516 5.62133 203.06 16.864C198.397 18.4701 192.931 20.8792 186.662 24.0914C185.159 21.1901 182.776 19.04 179.512 17.6411C176.3 16.2423 173.01 15.5428 169.642 15.5428C164.669 15.5428 160.964 16.864 158.529 19.5063C156.094 22.0967 154.877 25.3089 154.877 29.1428C154.877 33.2876 156.172 36.6811 158.762 39.3234C161.405 41.9139 165.42 43.2091 170.808 43.2091C175.108 43.2091 178.528 42.5097 181.066 41.1108C183.605 39.6602 185.47 37.3805 186.662 34.272C190.91 36.5516 196.35 39.1162 202.982 41.9657C200.391 48.2346 196.065 52.6125 190.004 55.0994C183.942 57.5862 177.336 58.8297 170.186 58.8297Z" fill="#191919"/>
<path d="M86.946 43.8306C106.634 43.727 120.907 43.4421 129.767 42.9758C129.404 45.1 129.171 47.3019 129.067 49.5815C129.015 51.8093 128.989 54.6329 128.989 58.0523H68.6055C69.0199 48.0013 69.2272 38.5979 69.2272 29.8421C69.2272 21.0863 69.0199 11.6829 68.6055 1.63184H128.989V15.6981H86.946V23.1587C89.4329 23.2105 93.1114 23.2364 97.9814 23.2364C106.219 23.2364 114.742 23.081 123.549 22.7701V36.1369C114.742 35.8261 106.219 35.6707 97.9814 35.6707C93.1114 35.6707 89.4329 35.6966 86.946 35.7484V43.8306Z" fill="#191919"/>
<path d="M62.4045 20.4387C62.4045 24.9461 61.2906 28.7541 59.0628 31.8627C56.8868 34.9712 53.1306 37.2249 47.7942 38.6238C48.4159 39.4527 48.8563 40.1004 49.1154 40.5667L61.7051 58.0523H40.5668C38.2872 53.804 34.6864 47.7941 29.7645 40.0227H18.3406V58.0523H0C0.414476 48.0013 0.621713 38.5979 0.621713 29.8421C0.621713 21.0863 0.414476 11.6829 0 1.63184H18.3406V1.70955H34.272C44.7375 1.70955 52.0426 3.39336 56.1874 6.76097C60.3321 10.1286 62.4045 14.6878 62.4045 20.4387ZM18.3406 16.6307V25.4901H28.832C33.2358 25.4901 36.5516 25.3606 38.7794 25.1015C41.059 24.7907 42.6392 24.3244 43.5199 23.7027C44.4007 23.081 44.8411 22.1743 44.8411 20.9827C44.8411 19.8429 44.4266 18.9621 43.5977 18.3404C42.7687 17.7187 41.2144 17.2783 38.9348 17.0192C36.6552 16.7602 33.2876 16.6307 28.832 16.6307H18.3406Z" fill="#191919"/>
<defs>
<clipPath id="clip0_4534_12">
<rect width="56.7148" height="56.7141" fill="white" transform="translate(22.8516 138.042)"/>
</clipPath>
</defs>
</svg>
