<svg width="156" height="197" viewBox="0 0 156 197" fill="none" xmlns="http://www.w3.org/2000/svg">
<path d="M77.8691 0.764289L78.3408 0.777961C88.2097 1.18342 95.8158 8.77355 96.0585 18.1041V18.1051C96.3187 28.1787 88.549 36.6078 78.7089 36.7887C78.7016 36.7888 78.6938 36.7897 78.6865 36.7897H78.6708V36.7887C68.5374 36.9712 59.892 28.601 59.7128 18.3854V18.3834C59.5817 9.99366 66.2929 0.551963 77.8691 0.764289ZM77.8251 3.1637C67.7998 2.97979 62.0015 11.1113 62.1132 18.3434L62.1259 18.7594C62.5062 27.4778 69.9809 34.5568 78.6484 34.3893H78.665C87.1016 34.2341 93.8859 26.9801 93.6581 18.1666C93.4467 10.0398 86.7074 3.32077 77.8261 3.1637H77.8251Z" fill="#191919"/>
<path d="M77.8911 0.00521175L77.8901 0.00618832C88.0439 0.183605 96.2999 7.8427 96.8051 17.6263L96.8237 18.0931V18.0951C96.9535 23.2737 95.0846 28.1926 91.5483 31.8919L91.5473 31.8929C88.1442 35.4426 83.6009 37.4742 78.7397 37.556L78.7192 37.557H78.561C78.5027 37.5657 78.4438 37.5716 78.3842 37.5716C73.3936 37.5716 68.6587 35.6123 64.9809 32.0804L64.979 32.0785C61.1996 28.4289 59.0649 23.566 58.9672 18.4066V18.4046C58.8852 13.6421 60.9136 8.7553 64.3686 5.30013C66.8526 2.81617 71.1796 -0.140965 77.8911 0.00521175ZM77.5141 3.93099C72.3675 3.93104 69.0552 6.17352 67.146 8.06869C64.4122 10.7891 62.8377 14.6413 62.893 18.3333L62.9047 18.7171C63.066 22.5465 64.6464 26.1615 67.4165 28.9593L67.6977 29.2367L67.6997 29.2386C70.7141 32.1535 74.5889 33.7148 78.6489 33.6302H78.6665C82.4448 33.56 86.0173 31.9893 88.6987 29.181L88.6997 29.18C91.5087 26.2439 92.9968 22.3451 92.8979 18.1859L92.8842 17.8206C92.4961 10.1841 86.0009 4.07118 77.8139 3.93099H77.5141Z" fill="#191919"/>
<path d="M75.1213 122.424C75.1214 120.758 76.558 119.561 78.1213 119.561C79.5746 119.561 80.8985 120.578 81.0988 122.065L94.4758 184.603L94.4983 184.756C94.6867 187.069 96.0993 189.43 98.2561 191.112C100.402 192.785 103.166 193.691 105.926 193.249C109.023 192.751 111.227 191.51 112.607 189.848C113.971 188.204 114.622 186.037 114.428 183.481L100.577 114.943C100.562 114.864 100.554 114.784 100.554 114.704V73.8323C100.554 72.6359 101.443 71.906 102.285 71.7073C103.073 71.5216 104.078 71.7292 104.684 72.5706L104.8 72.7473L131.585 117.975C133.244 120.009 135.807 121.117 138.43 121.117C140.215 121.117 142.006 120.603 143.534 119.557C147.301 116.974 148.053 112.14 145.305 108.712C145.226 108.614 145.166 108.505 145.122 108.391L105.542 46.3313C104.403 44.9246 103.049 43.8946 101.565 43.6321C89.9879 41.6299 65.9039 42.0177 54.1574 43.5637L54.1535 43.5647C52.5642 43.7679 51.0709 44.8396 49.8654 46.344L4.884 111.011C4.86848 111.033 4.85216 111.055 4.83517 111.076C2.08734 114.505 2.83944 119.34 6.60665 121.922C8.13552 122.968 9.92492 123.482 11.7102 123.482C14.343 123.482 16.9147 122.365 18.5735 120.317L51.0197 71.8069C51.6394 70.8748 52.7065 70.6636 53.5285 70.8811C54.3513 71.0989 55.2014 71.8302 55.2014 72.9934L55.1399 183.664C55.1403 188.653 59.3318 193.084 64.8205 193.235H64.8225C70.5824 193.401 75.1211 189.156 75.1213 184.091V122.424ZM77.5217 184.091C77.5215 190.682 71.686 195.834 64.7531 195.634C58.0071 195.448 52.7395 189.994 52.7395 183.663L52.8 73.4631L20.5344 121.703C20.5153 121.732 20.4953 121.76 20.4738 121.786C18.3175 124.477 15.0137 125.882 11.7102 125.882C9.46778 125.882 7.19977 125.236 5.25021 123.903C0.400764 120.578 -0.688535 114.19 2.92208 109.627L47.9201 44.9378C47.9349 44.9165 47.9509 44.8955 47.967 44.8753C49.382 43.0985 51.3896 41.4972 53.8488 41.1829C65.3795 39.666 88.5784 39.2376 100.823 41.0813L101.974 41.2669L101.977 41.2678C104.145 41.6495 105.894 43.0315 107.196 44.5637L107.45 44.8723L107.526 44.9778L147.284 107.316C147.31 107.356 147.332 107.398 147.353 107.441C150.798 111.99 149.678 118.256 144.891 121.537L144.89 121.538C142.94 122.872 140.672 123.518 138.43 123.518C135.127 123.518 131.823 122.113 129.667 119.422C129.632 119.378 129.599 119.331 129.571 119.282L102.954 74.3411V114.587L116.798 183.09C116.808 183.137 116.815 183.184 116.819 183.232C117.069 186.341 116.286 189.174 114.453 191.381C112.625 193.583 109.847 195.05 106.308 195.619C102.782 196.184 99.3598 195.016 96.7805 193.005C94.236 191.021 92.3949 188.124 92.1135 185.039L78.7483 122.553C78.738 122.505 78.7301 122.456 78.7258 122.407C78.7099 122.227 78.5168 121.961 78.1213 121.961C77.7017 121.961 77.5218 122.259 77.5217 122.424V184.091Z" fill="#191919"/>
<path d="M54.9104 40.3004C67.5532 38.8175 90.6778 38.5701 102.075 40.5465C104.306 40.9305 106.347 42.3341 108.014 44.4303C108.04 44.4629 108.065 44.4977 108.087 44.5328L147.835 106.862C149.633 109.162 150.417 112.001 149.989 114.864L149.988 114.866C149.539 117.835 147.864 120.441 145.297 122.192L145.296 122.193C143.277 123.567 140.89 124.293 138.411 124.293C134.709 124.293 131.292 122.707 129.039 119.909C129.004 119.864 128.971 119.817 128.942 119.768L103.699 77.1461V114.614L117.528 182.964L117.547 183.105C117.829 186.564 116.912 189.619 114.931 191.963C112.958 194.297 110.014 195.824 106.413 196.41C105.786 196.512 105.156 196.562 104.512 196.562C104.437 196.562 104.364 196.555 104.292 196.542C101.465 196.484 98.6368 195.446 96.2825 193.608L96.2806 193.606C93.4788 191.41 91.6486 188.335 91.3626 185.127L78.2962 124.06V184.118C78.2962 187.322 76.9805 190.359 74.6214 192.651L74.6224 192.652C72.0412 195.166 68.3969 196.508 64.7415 196.424H64.7347C57.7313 196.224 51.9739 190.557 51.9739 183.691L52.0325 75.9957L21.1565 122.158C21.1373 122.187 21.1167 122.215 21.095 122.242C18.8137 125.085 15.3972 126.672 11.6917 126.672C9.19707 126.672 6.82502 125.947 4.80692 124.573L4.80594 124.572C2.23858 122.821 0.563973 120.213 0.115515 117.229L0.114538 117.228C-0.314014 114.365 0.471055 111.51 2.28446 109.195L47.261 44.5231L47.3098 44.4577C48.5506 42.9107 50.6942 40.8441 53.72 40.4479L54.9104 40.3004ZM101.438 44.4078C90.1049 42.4363 66.3274 42.7462 54.2776 44.3375C52.7 44.5482 51.3737 45.7221 50.472 46.8453L5.52176 111.481C5.50622 111.503 5.48996 111.525 5.47294 111.547C4.2523 113.069 3.76212 114.871 4.02958 116.642L4.0911 116.989C4.44582 118.71 5.47073 120.233 7.05106 121.328C8.39921 122.252 10.0201 122.747 11.722 122.747C14.2242 122.747 16.5571 121.651 17.9934 119.866L50.3909 71.4225C51.1537 70.2798 52.5476 69.8182 53.8411 70.2086C55.1058 70.5838 55.9757 71.6919 55.9759 73.0358L55.9153 183.707L55.9261 184.143C56.1639 188.631 60.0417 192.383 64.8626 192.514C67.5194 192.583 70.0966 191.608 71.8938 189.851L71.8948 189.849C73.5079 188.276 74.385 186.247 74.385 184.133V122.467C74.385 120.482 75.9958 118.964 77.9124 118.848C77.9844 118.835 78.058 118.826 78.1331 118.826C80.0002 118.826 81.6694 120.197 81.8811 122.07L95.2347 184.477C95.2451 184.526 95.2528 184.576 95.2571 184.626C95.4378 186.729 96.6827 188.929 98.7093 190.529C100.849 192.216 103.445 192.914 105.831 192.53L105.832 192.529C108.622 192.082 110.665 190.986 111.959 189.482C113.233 188.003 113.876 186.019 113.693 183.576L99.8567 115.123C99.8409 115.044 99.8333 114.964 99.8333 114.884V73.86C99.8333 72.5045 100.733 71.3826 102.013 71.0133L102.03 71.0084C103.372 70.6423 104.77 71.1811 105.482 72.3756L105.484 72.3786L132.268 117.603C133.643 119.278 135.976 120.367 138.457 120.367C140.158 120.367 141.769 119.873 143.138 118.942C144.829 117.793 145.879 116.129 146.149 114.27L146.15 114.264C146.418 112.474 145.926 110.686 144.736 109.195C144.728 109.186 144.72 109.176 144.713 109.167L144.667 109.105C144.649 109.081 144.632 109.056 144.616 109.031L104.901 46.7614C104.075 45.7588 102.85 44.6483 101.442 44.4078H101.438Z" fill="#191919"/>
<path d="M82.3485 123.746C81.8242 125.031 81.3795 125.961 81.0536 126.586C80.8907 126.898 80.7573 127.135 80.6591 127.303C80.61 127.386 80.569 127.453 80.538 127.503C80.5226 127.527 80.5096 127.549 80.4989 127.565C80.4936 127.573 80.4884 127.58 80.4843 127.587C80.4822 127.59 80.4802 127.594 80.4784 127.596C80.4776 127.598 80.4772 127.599 80.4765 127.6L80.4745 127.602C80.4742 127.603 80.474 127.603 78.4696 126.282C76.5445 125.013 76.468 124.964 76.4647 124.963L76.4628 124.965C76.4622 124.966 76.4623 124.967 76.4618 124.968C76.4709 124.953 76.4903 124.921 76.5185 124.873C76.5753 124.776 76.6691 124.609 76.7958 124.366C77.0494 123.88 77.4324 123.087 77.9032 121.932L82.3485 123.746ZM86.3896 109.552C86.2685 110.508 86.0929 111.471 85.8583 112.439C85.5267 113.809 85.1961 115.07 84.871 116.228L80.2489 114.931C80.558 113.83 80.8738 112.625 81.1923 111.309C81.3842 110.517 81.5279 109.73 81.6269 108.949L86.3896 109.552ZM85.4599 98.0565C85.9572 99.8883 86.3193 101.777 86.4901 103.716L81.7079 104.138C81.5652 102.518 81.2602 100.91 80.8271 99.3143L85.4599 98.0565ZM81.248 87.7166C82.0874 89.3286 82.8925 91.0003 83.6112 92.7244L79.1806 94.5721C78.5267 93.0034 77.7835 91.4578 76.9901 89.9344L81.248 87.7166ZM75.9267 78.3504C76.8222 79.9039 77.633 81.2608 78.6132 82.9559L74.4569 85.3592C73.6004 83.8779 72.5813 82.1596 71.7675 80.7479L75.9267 78.3504ZM71.6708 69.0408C71.9121 69.9116 72.1914 70.7526 72.497 71.5604C72.7654 72.2699 73.0932 73.0182 73.4745 73.8074L69.1513 75.8953C68.7244 75.0117 68.3366 74.1313 68.0067 73.2596C67.6535 72.326 67.3272 71.3457 67.0439 70.3231L71.6708 69.0408ZM71.0692 58.7039C70.7638 60.4931 70.692 62.2231 70.7929 63.8797L66.0009 64.1707C65.879 62.1697 65.9656 60.0698 66.3368 57.8953L71.0692 58.7039ZM74.996 49.033C73.9543 50.6279 73.1403 52.188 72.5165 53.7049L68.0761 51.8787C68.8189 50.0723 69.7758 48.2451 70.9765 46.407L74.996 49.033ZM80.1591 42.7938C79.49 43.457 78.8649 44.1165 78.2812 44.7713L74.6972 41.577C75.3489 40.8459 76.043 40.1143 76.7802 39.3836L80.1591 42.7938Z" fill="#191919"/>
<path d="M153.5 107.229L153.5 85.0658L131.337 85.0658C125.546 80.2737 111.45 73.7313 103.782 87.1491L101.985 91.0559C97.0228 91.0559 93 95.0786 93 100.041L93 101.239C93 106.863 97.5581 111.422 103.182 111.422L121.752 111.422C125.586 111.422 129.739 108.627 131.337 107.229L153.5 107.229Z" fill="#F5FF2E"/>
<path d="M95 101.058C95 96.539 98.6642 92.8748 103.184 92.8748L117.763 92.8748L117.763 88.8748L104.996 88.8748L105.519 87.9607C107.262 84.9089 109.298 83.11 111.375 82.1102C113.463 81.105 115.737 80.839 118.051 81.0867C122.747 81.5897 127.361 84.1907 130.062 86.4256L130.616 86.8846L151.5 86.8846L151.5 105.048L130.585 105.048L130.02 105.543C129.34 106.138 128.039 107.092 126.477 107.887C124.893 108.692 123.223 109.241 121.753 109.241L103.183 109.241C98.6636 109.241 95.0003 105.578 95 101.058ZM91 101.058C91.0002 107.787 96.4539 113.241 103.183 113.241L121.753 113.241C124.116 113.241 126.439 112.393 128.29 111.451C129.802 110.682 131.119 109.786 132.054 109.048L155.5 109.048L155.5 82.8846L132.038 82.8846C128.888 80.4323 123.853 77.6849 118.477 77.1092C115.584 76.7995 112.533 77.1136 109.641 78.5057C106.737 79.9031 104.136 82.3187 102.046 85.9754L101.054 87.7117L103.091 88.8758C96.4048 88.9254 91 94.3606 91 101.058Z" fill="#191919"/>
<path d="M60 58.2012L47.5 65.417V60.2002H30V56.2002H47.5V50.9834L60 58.2012Z" fill="#F5FF2E"/>
<path d="M45.6982 47.8652C46.8121 47.2223 48.1841 47.2232 49.2979 47.8662L61.7979 55.084C62.9116 55.7271 63.5977 56.9151 63.5977 58.2012C63.5976 59.4873 62.9117 60.6763 61.7979 61.3193L49.2979 68.5352C48.184 69.1781 46.812 69.1772 45.6982 68.5342C44.5845 67.8911 43.8984 66.7031 43.8984 65.417V63.7998H29.998C28.0098 63.7998 26.3984 62.1884 26.3984 60.2002V56.2002C26.3984 54.212 28.0098 52.6006 29.998 52.6006H43.8984V50.9834C43.8984 49.6972 44.5844 48.5083 45.6982 47.8652ZM29.998 60.2002H47.498V65.417L59.998 58.2012L47.498 50.9834V56.2002H29.998V60.2002Z" fill="#191919"/>
</svg>
