<svg width="168" height="59" viewBox="0 0 168 59" fill="none" xmlns="http://www.w3.org/2000/svg">
<path d="M28.1987 11.1146H32.7176V32.763H10.9927V11.1146H15.5117V0H0V43.88H43.7103V0H28.1987V11.1146Z" fill="#191919"/>
<path d="M98.6224 10.9429H87.5078V43.9903H98.6224V10.9429Z" fill="#191919"/>
<path d="M81.9565 10.7795V43.9894H70.8109V21.9061H60.1886V43.9894H49.043V10.7795H81.9589H81.9565Z" fill="#191919"/>
<path d="M156.962 10.9231V33.8453H146.23V10.9231H135.191V43.9705H135.301V43.992H154.749L143.14 58.8584H156.109L168 43.992V10.9231H156.962Z" fill="#191919"/>
<path d="M122.234 3.44373H111.119V10.945H103.934V20.958H111.119V43.9948H129.888V33.8481H122.232V20.958H129.888V10.945H122.232V3.44373H122.234Z" fill="#191919"/>
<path d="M138.884 51.2253L138.684 51.5303C137.934 52.6938 137.289 53.7242 136.749 54.6214C136.217 55.5116 135.771 56.3317 135.414 57.0817V58.8586H132.67V56.903C132.41 56.3773 132.105 55.8375 131.755 55.2838C131.405 54.723 130.907 53.9555 130.262 52.9812C129.757 52.2382 129.372 51.6529 129.105 51.2253H132.049C132.26 51.6529 132.603 52.2873 133.08 53.1284C133.556 53.9835 133.882 54.5864 134.058 54.9368C134.303 54.4251 134.632 53.7978 135.046 53.0548C135.53 52.1856 135.856 51.5758 136.024 51.2253H138.884Z" fill="#191919"/>
<path d="M129.212 53.7698C129.212 54.3796 129.062 54.8948 128.76 55.3153C128.466 55.7359 127.958 56.0408 127.236 56.2301C127.32 56.3422 127.379 56.4298 127.414 56.4929L129.118 58.8586H126.258C125.949 58.2838 125.462 57.4707 124.796 56.4193H123.251V58.8586H120.77C120.826 57.4988 120.854 56.2266 120.854 55.042C120.854 53.8574 120.826 52.5852 120.77 51.2253H123.251V51.2359H125.406C126.822 51.2359 127.81 51.4637 128.371 51.9193C128.932 52.3749 129.212 52.9917 129.212 53.7698ZM123.251 53.2546V54.4532H124.67C125.266 54.4532 125.715 54.4357 126.016 54.4006C126.324 54.3585 126.538 54.2955 126.657 54.2114C126.777 54.1272 126.836 54.0046 126.836 53.8434C126.836 53.6892 126.78 53.57 126.668 53.4859C126.556 53.4018 126.346 53.3422 126.037 53.3071C125.729 53.2721 125.273 53.2546 124.67 53.2546H123.251Z" fill="#191919"/>
<path d="M114.13 56.9345C116.793 56.9205 118.724 56.8819 119.923 56.8189C119.874 57.1062 119.842 57.4041 119.828 57.7126C119.821 58.014 119.818 58.396 119.818 58.8586H111.648C111.705 57.4988 111.733 56.2266 111.733 55.042C111.733 53.8574 111.705 52.5852 111.648 51.2253H119.818V53.1284H114.13V54.1378C114.466 54.1448 114.964 54.1483 115.623 54.1483C116.737 54.1483 117.89 54.1272 119.082 54.0852V55.8936C117.89 55.8516 116.737 55.8305 115.623 55.8305C114.964 55.8305 114.466 55.834 114.13 55.841V56.9345Z" fill="#191919"/>
<path d="M111.092 51.2253L110.398 52.834C109.788 54.2569 109.308 55.3959 108.958 56.2511C108.607 57.1062 108.285 57.9754 107.99 58.8586H104.847C104.559 57.9894 104.24 57.1308 103.89 56.2826C103.546 55.4275 103.084 54.334 102.502 53.0022C102.404 52.7779 102.148 52.1856 101.734 51.2253H104.657C104.868 51.9053 105.18 52.7779 105.593 53.8434C105.958 54.7826 106.252 55.5957 106.476 56.2826C106.623 55.799 106.799 55.2838 107.002 54.7371C107.212 54.1833 107.338 53.8469 107.38 53.7277C107.787 52.6553 108.085 51.8211 108.274 51.2253H111.092Z" fill="#191919"/>
<path d="M97.1475 58.9643C95.5424 58.9643 94.3613 58.6174 93.6043 57.9234C92.8473 57.2225 92.4688 56.2412 92.4688 54.9795C92.4688 53.7318 92.8438 52.7575 93.5938 52.0565C94.3508 51.3556 95.5354 51.0051 97.1475 51.0051C98.7667 51.0051 99.9513 51.3556 100.701 52.0565C101.458 52.7575 101.837 53.7318 101.837 54.9795C101.837 56.2482 101.462 57.2295 100.712 57.9234C99.9618 58.6174 98.7737 58.9643 97.1475 58.9643ZM97.1475 56.8194C97.9256 56.8194 98.4863 56.6722 98.8298 56.3778C99.1733 56.0764 99.345 55.6103 99.345 54.9795C99.345 54.3626 99.1733 53.9035 98.8298 53.6021C98.4863 53.3007 97.9256 53.15 97.1475 53.15C96.3765 53.15 95.8193 53.3007 95.4758 53.6021C95.1323 53.9035 94.9606 54.3626 94.9606 54.9795C94.9606 55.6033 95.1323 56.0659 95.4758 56.3673C95.8193 56.6687 96.3765 56.8194 97.1475 56.8194Z" fill="#191919"/>
<path d="M87.4973 58.9643C85.9132 58.9643 84.7461 58.6279 83.9961 57.955C83.2461 57.2821 82.8711 56.3218 82.8711 55.0741C82.8711 53.8194 83.2461 52.8276 83.9961 52.0986C84.7461 51.3696 85.9132 51.0051 87.4973 51.0051C89.7123 51.0051 91.1948 51.7656 91.9448 53.2867C91.3139 53.504 90.5744 53.8299 89.7263 54.2645C89.523 53.872 89.2006 53.5811 88.759 53.3918C88.3244 53.2026 87.8793 53.108 87.4237 53.108C86.7508 53.108 86.2496 53.2867 85.9202 53.6442C85.5907 53.9946 85.426 54.4292 85.426 54.9479C85.426 55.5087 85.6013 55.9678 85.9517 56.3253C86.3092 56.6757 86.8524 56.851 87.5814 56.851C88.1632 56.851 88.6258 56.7564 88.9693 56.5671C89.3127 56.3708 89.5651 56.0624 89.7263 55.6419C90.3011 55.9503 91.0371 56.2972 91.9343 56.6828C91.5838 57.5309 90.9985 58.1232 90.1784 58.4596C89.3583 58.7961 88.4646 58.9643 87.4973 58.9643Z" fill="#191919"/>
<path d="M76.2313 56.9345C78.8949 56.9205 80.826 56.8819 82.0246 56.8189C81.9756 57.1062 81.944 57.4041 81.93 57.7126C81.923 58.014 81.9195 58.396 81.9195 58.8586H73.75C73.8061 57.4988 73.8341 56.2266 73.8341 55.042C73.8341 53.8574 73.8061 52.5852 73.75 51.2253H81.9195V53.1284H76.2313V54.1378C76.5678 54.1448 77.0655 54.1483 77.7243 54.1483C78.8388 54.1483 79.9919 54.1272 81.1835 54.0852V55.8936C79.9919 55.8516 78.8388 55.8305 77.7243 55.8305C77.0655 55.8305 76.5678 55.834 76.2313 55.841V56.9345Z" fill="#191919"/>
<path d="M72.9155 53.7698C72.9155 54.3796 72.7648 54.8948 72.4634 55.3153C72.169 55.7359 71.6608 56.0408 70.9388 56.2301C71.023 56.3422 71.0825 56.4298 71.1176 56.4929L72.8209 58.8586H69.961C69.6526 58.2838 69.1655 57.4707 68.4996 56.4193H66.954V58.8586H64.4727C64.5287 57.4988 64.5568 56.2266 64.5568 55.042C64.5568 53.8574 64.5287 52.5852 64.4727 51.2253H66.954V51.2359H69.1094C70.5253 51.2359 71.5136 51.4637 72.0744 51.9193C72.6351 52.3749 72.9155 52.9917 72.9155 53.7698ZM66.954 53.2546V54.4532H68.3734C68.9692 54.4532 69.4178 54.4357 69.7192 54.4006C70.0276 54.3585 70.2414 54.2955 70.3606 54.2114C70.4797 54.1272 70.5393 54.0046 70.5393 53.8434C70.5393 53.6892 70.4832 53.57 70.3711 53.4859C70.2589 53.4018 70.0486 53.3422 69.7402 53.3071C69.4318 53.2721 68.9762 53.2546 68.3734 53.2546H66.954Z" fill="#191919"/>
</svg>
