<svg width="787" height="54" viewBox="0 0 787 54" fill="none" xmlns="http://www.w3.org/2000/svg">
<mask id="path-1-outside-1_1147_78" maskUnits="userSpaceOnUse" x="-0.911133" y="-0.836426" width="788" height="55" fill="black">
<rect fill="white" x="-0.911133" y="-0.836426" width="788" height="55"/>
<path d="M3.73887 53.1636H0.213867V0.663571H3.43887L14.6139 36.5136L25.9389 0.663571H29.1639V53.1636H25.6389V12.2886L15.8889 43.0386H13.4889L3.73887 12.2886V53.1636ZM33.2209 53.1636H29.2459L41.3959 0.663571H45.5209L57.6709 53.1636H53.6959L50.6959 39.8886H36.1459L33.2209 53.1636ZM43.4209 6.81357L36.8959 36.4386H49.9459L43.4209 6.81357ZM61.6178 30.7386V53.1636H57.7178V0.663571H68.1428C71.5928 0.663571 74.4178 1.91357 76.6178 4.41357C78.8178 6.91357 79.9178 10.1636 79.9178 14.1636V17.2386C79.9178 20.3386 79.2178 23.0386 77.8178 25.3386C76.4678 27.5886 74.6178 29.1386 72.2678 29.9886L81.3428 53.1636H77.4428L68.9678 30.7386H61.6178ZM68.0678 4.11357H61.6178V27.3636H68.0678C70.4178 27.3636 72.3178 26.4636 73.7678 24.6636C75.2678 22.8636 76.0178 20.5136 76.0178 17.6136V13.7886C76.0178 10.8886 75.2678 8.56357 73.7678 6.81357C72.3178 5.01357 70.4178 4.11357 68.0678 4.11357ZM83.1006 53.1636V0.663571H87.0006V53.1636H83.1006ZM102.226 53.1636L88.0506 26.0136L101.401 0.663571H105.676L92.1756 26.0136L106.501 53.1636H102.226ZM125.545 49.7136V53.1636H106.945V0.663571H125.545V4.11357H110.845V25.3386H124.12V28.7886H110.845V49.7136H125.545ZM149.317 0.663571V4.11357H138.817V53.1636H134.917V4.11357H124.417V0.663571H149.317ZM149.947 53.1636V0.663571H153.847V53.1636H149.947ZM161.355 53.1636H157.605V0.663571H160.98L177.555 42.9636V0.663571H181.305V53.1636H177.93L161.355 10.9386V53.1636ZM196.739 26.0136H208.289V40.1136C208.289 44.1136 207.164 47.3636 204.914 49.8636C202.714 52.3636 199.889 53.6136 196.439 53.6136C192.989 53.6136 190.139 52.3636 187.889 49.8636C185.689 47.3636 184.589 44.1136 184.589 40.1136V13.7136C184.589 9.71357 185.689 6.46357 187.889 3.96357C190.139 1.46357 192.989 0.213572 196.439 0.213572C199.889 0.213572 202.714 1.46357 204.914 3.96357C207.164 6.46357 208.289 9.71357 208.289 13.7136V16.4886H204.464V13.3386C204.464 10.4386 203.714 8.08857 202.214 6.28857C200.714 4.48857 198.789 3.58857 196.439 3.58857C194.089 3.58857 192.164 4.48857 190.664 6.28857C189.214 8.08857 188.489 10.4386 188.489 13.3386V40.5636C188.489 43.4136 189.214 45.7386 190.664 47.5386C192.164 49.3386 194.089 50.2386 196.439 50.2386C198.789 50.2386 200.714 49.3386 202.214 47.5386C203.714 45.7386 204.464 43.3886 204.464 40.4886V29.4636H196.739V26.0136ZM239.537 0.663571V4.11357H229.037V53.1636H225.137V4.11357H214.637V0.663571H239.537ZM244.067 53.1636H240.167V0.663571H244.067V25.3386H260.042V0.663571H263.942V53.1636H260.042V28.7886H244.067V53.1636ZM267.901 53.1636H263.926L276.076 0.663571H280.201L292.351 53.1636H288.376L285.376 39.8886H270.826L267.901 53.1636ZM278.101 6.81357L271.576 36.4386H284.626L278.101 6.81357ZM311.438 0.663571V4.11357H300.938V53.1636H297.038V4.11357H286.538V0.663571H311.438ZM318.627 53.1636V0.663571H329.877C333.377 0.663571 336.202 1.91357 338.352 4.41357C340.552 6.91357 341.652 10.1636 341.652 14.1636V39.6636C341.652 43.6636 340.552 46.9136 338.352 49.4136C336.202 51.9136 333.377 53.1636 329.877 53.1636H318.627ZM329.802 4.11357H322.527V49.7136H329.802C332.152 49.7136 334.077 48.8386 335.577 47.0886C337.077 45.2886 337.827 42.9386 337.827 40.0386V13.7886C337.827 10.8886 337.077 8.56357 335.577 6.81357C334.077 5.01357 332.152 4.11357 329.802 4.11357ZM368.212 40.1136C368.212 44.1136 367.087 47.3636 364.837 49.8636C362.637 52.3636 359.812 53.6136 356.362 53.6136C352.912 53.6136 350.062 52.3636 347.812 49.8636C345.612 47.3636 344.512 44.1136 344.512 40.1136V13.7136C344.512 9.71357 345.612 6.46357 347.812 3.96357C350.062 1.46357 352.912 0.213572 356.362 0.213572C359.812 0.213572 362.637 1.46357 364.837 3.96357C367.087 6.46357 368.212 9.71357 368.212 13.7136V40.1136ZM364.387 40.4886V13.3386C364.387 10.4386 363.637 8.08857 362.137 6.28857C360.637 4.48857 358.712 3.58857 356.362 3.58857C354.012 3.58857 352.087 4.48857 350.587 6.28857C349.137 8.08857 348.412 10.4386 348.412 13.3386V40.4886C348.412 43.3886 349.137 45.7386 350.587 47.5386C352.087 49.3386 354.012 50.2386 356.362 50.2386C358.712 50.2386 360.637 49.3386 362.137 47.5386C363.637 45.7386 364.387 43.3886 364.387 40.4886ZM390.117 49.7136V53.1636H371.517V0.663571H390.117V4.11357H375.417V25.3386H388.692V28.7886H375.417V49.7136H390.117ZM408.939 15.5136V13.4136C408.939 10.5136 408.264 8.16357 406.914 6.36357C405.564 4.51357 403.839 3.58857 401.739 3.58857C399.689 3.58857 397.989 4.46357 396.639 6.21357C395.339 7.91357 394.689 10.2136 394.689 13.1136C394.689 17.2136 395.889 20.0886 398.289 21.7386L408.639 29.2386C411.789 31.5386 413.364 35.2886 413.364 40.4886C413.364 44.4886 412.289 47.6886 410.139 50.0886C407.989 52.4386 405.239 53.6136 401.889 53.6136C398.439 53.6136 395.639 52.3886 393.489 49.9386C391.339 47.4886 390.264 44.2886 390.264 40.3386V37.9386H394.164V40.3386C394.164 43.2886 394.864 45.6886 396.264 47.5386C397.714 49.3386 399.589 50.2386 401.889 50.2386C404.089 50.2386 405.889 49.3886 407.289 47.6886C408.689 45.9386 409.389 43.5886 409.389 40.6386C409.389 36.5386 408.189 33.6886 405.789 32.0886L395.589 24.5886C392.339 22.1886 390.714 18.4386 390.714 13.3386C390.714 9.28857 391.739 6.08857 393.789 3.73857C395.839 1.38857 398.464 0.213572 401.664 0.213572C405.014 0.213572 407.714 1.43857 409.764 3.88857C411.864 6.28857 412.914 9.46357 412.914 13.4136V15.5136H408.939ZM419.367 53.1636H415.617V0.663571H418.992L435.567 42.9636V0.663571H439.317V53.1636H435.942L419.367 10.9386V53.1636ZM442.001 16.1136L443.876 0.663571H448.076L444.326 16.7136L442.001 16.1136ZM472.532 0.663571V4.11357H462.032V53.1636H458.132V4.11357H447.632V0.663571H472.532ZM496.522 15.5136V13.4136C496.522 10.5136 495.847 8.16357 494.497 6.36357C493.147 4.51357 491.422 3.58857 489.322 3.58857C487.272 3.58857 485.572 4.46357 484.222 6.21357C482.922 7.91357 482.272 10.2136 482.272 13.1136C482.272 17.2136 483.472 20.0886 485.872 21.7386L496.222 29.2386C499.372 31.5386 500.947 35.2886 500.947 40.4886C500.947 44.4886 499.872 47.6886 497.722 50.0886C495.572 52.4386 492.822 53.6136 489.472 53.6136C486.022 53.6136 483.222 52.3886 481.072 49.9386C478.922 47.4886 477.847 44.2886 477.847 40.3386V37.9386H481.747V40.3386C481.747 43.2886 482.447 45.6886 483.847 47.5386C485.297 49.3386 487.172 50.2386 489.472 50.2386C491.672 50.2386 493.472 49.3886 494.872 47.6886C496.272 45.9386 496.972 43.5886 496.972 40.6386C496.972 36.5386 495.772 33.6886 493.372 32.0886L483.172 24.5886C479.922 22.1886 478.297 18.4386 478.297 13.3386C478.297 9.28857 479.322 6.08857 481.372 3.73857C483.422 1.38857 486.047 0.213572 489.247 0.213572C492.597 0.213572 495.297 1.43857 497.347 3.88857C499.447 6.28857 500.497 9.46357 500.497 13.4136V15.5136H496.522ZM507.1 53.1636H503.2V0.663571H507.1V25.3386H523.075V0.663571H526.975V53.1636H523.075V28.7886H507.1V53.1636ZM553.884 40.1136C553.884 44.1136 552.759 47.3636 550.509 49.8636C548.309 52.3636 545.484 53.6136 542.034 53.6136C538.584 53.6136 535.734 52.3636 533.484 49.8636C531.284 47.3636 530.184 44.1136 530.184 40.1136V13.7136C530.184 9.71357 531.284 6.46357 533.484 3.96357C535.734 1.46357 538.584 0.213572 542.034 0.213572C545.484 0.213572 548.309 1.46357 550.509 3.96357C552.759 6.46357 553.884 9.71357 553.884 13.7136V40.1136ZM550.059 40.4886V13.3386C550.059 10.4386 549.309 8.08857 547.809 6.28857C546.309 4.48857 544.384 3.58857 542.034 3.58857C539.684 3.58857 537.759 4.48857 536.259 6.28857C534.809 8.08857 534.084 10.4386 534.084 13.3386V40.4886C534.084 43.3886 534.809 45.7386 536.259 47.5386C537.759 49.3386 539.684 50.2386 542.034 50.2386C544.384 50.2386 546.309 49.3386 547.809 47.5386C549.309 45.7386 550.059 43.3886 550.059 40.4886ZM576.688 0.663571H580.588V40.1136C580.588 44.1136 579.463 47.3636 577.213 49.8636C575.013 52.3636 572.163 53.6136 568.663 53.6136C565.213 53.6136 562.363 52.3636 560.113 49.8636C557.913 47.3636 556.813 44.1136 556.813 40.1136V0.663571H560.713V40.5636C560.713 43.4136 561.438 45.7386 562.888 47.5386C564.388 49.3386 566.313 50.2386 568.663 50.2386C571.013 50.2386 572.938 49.3386 574.438 47.5386C575.938 45.7386 576.688 43.3886 576.688 40.4886V0.663571ZM605.713 0.663571V4.11357H595.213V53.1636H591.313V4.11357H580.813V0.663571H605.713ZM611.852 30.9636V27.7386H647.627V30.9636H611.852ZM656.856 53.1636V0.663571H660.756V53.1636H656.856ZM686.265 0.663571V4.11357H675.765V53.1636H671.865V4.11357H661.365V0.663571H686.265ZM693.754 53.1636H689.779L701.929 0.663571H706.054L718.204 53.1636H714.229L711.229 39.8886H696.679L693.754 53.1636ZM703.954 6.81357L697.429 36.4386H710.479L703.954 6.81357ZM736.797 37.4136H740.622V40.1136C740.622 44.1136 739.497 47.3636 737.247 49.8636C735.047 52.3636 732.222 53.6136 728.772 53.6136C725.322 53.6136 722.472 52.3636 720.222 49.8636C718.022 47.3636 716.922 44.1136 716.922 40.1136V13.7136C716.922 9.71357 718.022 6.46357 720.222 3.96357C722.472 1.46357 725.322 0.213572 728.772 0.213572C732.222 0.213572 735.047 1.46357 737.247 3.96357C739.497 6.46357 740.622 9.71357 740.622 13.7136V16.4886H736.797V13.3386C736.797 10.4386 736.047 8.08857 734.547 6.28857C733.047 4.48857 731.122 3.58857 728.772 3.58857C726.422 3.58857 724.497 4.48857 722.997 6.28857C721.547 8.08857 720.822 10.4386 720.822 13.3386V40.5636C720.822 43.4136 721.547 45.7386 722.997 47.5386C724.497 49.3386 726.422 50.2386 728.772 50.2386C731.122 50.2386 733.047 49.3386 734.547 47.5386C736.047 45.7386 736.797 43.3886 736.797 40.4886V37.4136ZM765.091 0.663571V4.11357H754.591V53.1636H750.691V4.11357H740.191V0.663571H765.091ZM781.788 15.5136V13.4136C781.788 10.5136 781.113 8.16357 779.763 6.36357C778.413 4.51357 776.688 3.58857 774.588 3.58857C772.538 3.58857 770.838 4.46357 769.488 6.21357C768.188 7.91357 767.538 10.2136 767.538 13.1136C767.538 17.2136 768.738 20.0886 771.138 21.7386L781.488 29.2386C784.638 31.5386 786.213 35.2886 786.213 40.4886C786.213 44.4886 785.138 47.6886 782.988 50.0886C780.838 52.4386 778.088 53.6136 774.738 53.6136C771.288 53.6136 768.488 52.3886 766.338 49.9386C764.188 47.4886 763.113 44.2886 763.113 40.3386V37.9386H767.013V40.3386C767.013 43.2886 767.713 45.6886 769.113 47.5386C770.563 49.3386 772.438 50.2386 774.738 50.2386C776.938 50.2386 778.738 49.3886 780.138 47.6886C781.538 45.9386 782.238 43.5886 782.238 40.6386C782.238 36.5386 781.038 33.6886 778.638 32.0886L768.438 24.5886C765.188 22.1886 763.563 18.4386 763.563 13.3386C763.563 9.28857 764.588 6.08857 766.638 3.73857C768.688 1.38857 771.313 0.213572 774.513 0.213572C777.863 0.213572 780.563 1.43857 782.613 3.88857C784.713 6.28857 785.763 9.46357 785.763 13.4136V15.5136H781.788Z"/>
</mask>
<path d="M3.73887 53.1636H0.213867V0.663571H3.43887L14.6139 36.5136L25.9389 0.663571H29.1639V53.1636H25.6389V12.2886L15.8889 43.0386H13.4889L3.73887 12.2886V53.1636ZM33.2209 53.1636H29.2459L41.3959 0.663571H45.5209L57.6709 53.1636H53.6959L50.6959 39.8886H36.1459L33.2209 53.1636ZM43.4209 6.81357L36.8959 36.4386H49.9459L43.4209 6.81357ZM61.6178 30.7386V53.1636H57.7178V0.663571H68.1428C71.5928 0.663571 74.4178 1.91357 76.6178 4.41357C78.8178 6.91357 79.9178 10.1636 79.9178 14.1636V17.2386C79.9178 20.3386 79.2178 23.0386 77.8178 25.3386C76.4678 27.5886 74.6178 29.1386 72.2678 29.9886L81.3428 53.1636H77.4428L68.9678 30.7386H61.6178ZM68.0678 4.11357H61.6178V27.3636H68.0678C70.4178 27.3636 72.3178 26.4636 73.7678 24.6636C75.2678 22.8636 76.0178 20.5136 76.0178 17.6136V13.7886C76.0178 10.8886 75.2678 8.56357 73.7678 6.81357C72.3178 5.01357 70.4178 4.11357 68.0678 4.11357ZM83.1006 53.1636V0.663571H87.0006V53.1636H83.1006ZM102.226 53.1636L88.0506 26.0136L101.401 0.663571H105.676L92.1756 26.0136L106.501 53.1636H102.226ZM125.545 49.7136V53.1636H106.945V0.663571H125.545V4.11357H110.845V25.3386H124.12V28.7886H110.845V49.7136H125.545ZM149.317 0.663571V4.11357H138.817V53.1636H134.917V4.11357H124.417V0.663571H149.317ZM149.947 53.1636V0.663571H153.847V53.1636H149.947ZM161.355 53.1636H157.605V0.663571H160.98L177.555 42.9636V0.663571H181.305V53.1636H177.93L161.355 10.9386V53.1636ZM196.739 26.0136H208.289V40.1136C208.289 44.1136 207.164 47.3636 204.914 49.8636C202.714 52.3636 199.889 53.6136 196.439 53.6136C192.989 53.6136 190.139 52.3636 187.889 49.8636C185.689 47.3636 184.589 44.1136 184.589 40.1136V13.7136C184.589 9.71357 185.689 6.46357 187.889 3.96357C190.139 1.46357 192.989 0.213572 196.439 0.213572C199.889 0.213572 202.714 1.46357 204.914 3.96357C207.164 6.46357 208.289 9.71357 208.289 13.7136V16.4886H204.464V13.3386C204.464 10.4386 203.714 8.08857 202.214 6.28857C200.714 4.48857 198.789 3.58857 196.439 3.58857C194.089 3.58857 192.164 4.48857 190.664 6.28857C189.214 8.08857 188.489 10.4386 188.489 13.3386V40.5636C188.489 43.4136 189.214 45.7386 190.664 47.5386C192.164 49.3386 194.089 50.2386 196.439 50.2386C198.789 50.2386 200.714 49.3386 202.214 47.5386C203.714 45.7386 204.464 43.3886 204.464 40.4886V29.4636H196.739V26.0136ZM239.537 0.663571V4.11357H229.037V53.1636H225.137V4.11357H214.637V0.663571H239.537ZM244.067 53.1636H240.167V0.663571H244.067V25.3386H260.042V0.663571H263.942V53.1636H260.042V28.7886H244.067V53.1636ZM267.901 53.1636H263.926L276.076 0.663571H280.201L292.351 53.1636H288.376L285.376 39.8886H270.826L267.901 53.1636ZM278.101 6.81357L271.576 36.4386H284.626L278.101 6.81357ZM311.438 0.663571V4.11357H300.938V53.1636H297.038V4.11357H286.538V0.663571H311.438ZM318.627 53.1636V0.663571H329.877C333.377 0.663571 336.202 1.91357 338.352 4.41357C340.552 6.91357 341.652 10.1636 341.652 14.1636V39.6636C341.652 43.6636 340.552 46.9136 338.352 49.4136C336.202 51.9136 333.377 53.1636 329.877 53.1636H318.627ZM329.802 4.11357H322.527V49.7136H329.802C332.152 49.7136 334.077 48.8386 335.577 47.0886C337.077 45.2886 337.827 42.9386 337.827 40.0386V13.7886C337.827 10.8886 337.077 8.56357 335.577 6.81357C334.077 5.01357 332.152 4.11357 329.802 4.11357ZM368.212 40.1136C368.212 44.1136 367.087 47.3636 364.837 49.8636C362.637 52.3636 359.812 53.6136 356.362 53.6136C352.912 53.6136 350.062 52.3636 347.812 49.8636C345.612 47.3636 344.512 44.1136 344.512 40.1136V13.7136C344.512 9.71357 345.612 6.46357 347.812 3.96357C350.062 1.46357 352.912 0.213572 356.362 0.213572C359.812 0.213572 362.637 1.46357 364.837 3.96357C367.087 6.46357 368.212 9.71357 368.212 13.7136V40.1136ZM364.387 40.4886V13.3386C364.387 10.4386 363.637 8.08857 362.137 6.28857C360.637 4.48857 358.712 3.58857 356.362 3.58857C354.012 3.58857 352.087 4.48857 350.587 6.28857C349.137 8.08857 348.412 10.4386 348.412 13.3386V40.4886C348.412 43.3886 349.137 45.7386 350.587 47.5386C352.087 49.3386 354.012 50.2386 356.362 50.2386C358.712 50.2386 360.637 49.3386 362.137 47.5386C363.637 45.7386 364.387 43.3886 364.387 40.4886ZM390.117 49.7136V53.1636H371.517V0.663571H390.117V4.11357H375.417V25.3386H388.692V28.7886H375.417V49.7136H390.117ZM408.939 15.5136V13.4136C408.939 10.5136 408.264 8.16357 406.914 6.36357C405.564 4.51357 403.839 3.58857 401.739 3.58857C399.689 3.58857 397.989 4.46357 396.639 6.21357C395.339 7.91357 394.689 10.2136 394.689 13.1136C394.689 17.2136 395.889 20.0886 398.289 21.7386L408.639 29.2386C411.789 31.5386 413.364 35.2886 413.364 40.4886C413.364 44.4886 412.289 47.6886 410.139 50.0886C407.989 52.4386 405.239 53.6136 401.889 53.6136C398.439 53.6136 395.639 52.3886 393.489 49.9386C391.339 47.4886 390.264 44.2886 390.264 40.3386V37.9386H394.164V40.3386C394.164 43.2886 394.864 45.6886 396.264 47.5386C397.714 49.3386 399.589 50.2386 401.889 50.2386C404.089 50.2386 405.889 49.3886 407.289 47.6886C408.689 45.9386 409.389 43.5886 409.389 40.6386C409.389 36.5386 408.189 33.6886 405.789 32.0886L395.589 24.5886C392.339 22.1886 390.714 18.4386 390.714 13.3386C390.714 9.28857 391.739 6.08857 393.789 3.73857C395.839 1.38857 398.464 0.213572 401.664 0.213572C405.014 0.213572 407.714 1.43857 409.764 3.88857C411.864 6.28857 412.914 9.46357 412.914 13.4136V15.5136H408.939ZM419.367 53.1636H415.617V0.663571H418.992L435.567 42.9636V0.663571H439.317V53.1636H435.942L419.367 10.9386V53.1636ZM442.001 16.1136L443.876 0.663571H448.076L444.326 16.7136L442.001 16.1136ZM472.532 0.663571V4.11357H462.032V53.1636H458.132V4.11357H447.632V0.663571H472.532ZM496.522 15.5136V13.4136C496.522 10.5136 495.847 8.16357 494.497 6.36357C493.147 4.51357 491.422 3.58857 489.322 3.58857C487.272 3.58857 485.572 4.46357 484.222 6.21357C482.922 7.91357 482.272 10.2136 482.272 13.1136C482.272 17.2136 483.472 20.0886 485.872 21.7386L496.222 29.2386C499.372 31.5386 500.947 35.2886 500.947 40.4886C500.947 44.4886 499.872 47.6886 497.722 50.0886C495.572 52.4386 492.822 53.6136 489.472 53.6136C486.022 53.6136 483.222 52.3886 481.072 49.9386C478.922 47.4886 477.847 44.2886 477.847 40.3386V37.9386H481.747V40.3386C481.747 43.2886 482.447 45.6886 483.847 47.5386C485.297 49.3386 487.172 50.2386 489.472 50.2386C491.672 50.2386 493.472 49.3886 494.872 47.6886C496.272 45.9386 496.972 43.5886 496.972 40.6386C496.972 36.5386 495.772 33.6886 493.372 32.0886L483.172 24.5886C479.922 22.1886 478.297 18.4386 478.297 13.3386C478.297 9.28857 479.322 6.08857 481.372 3.73857C483.422 1.38857 486.047 0.213572 489.247 0.213572C492.597 0.213572 495.297 1.43857 497.347 3.88857C499.447 6.28857 500.497 9.46357 500.497 13.4136V15.5136H496.522ZM507.1 53.1636H503.2V0.663571H507.1V25.3386H523.075V0.663571H526.975V53.1636H523.075V28.7886H507.1V53.1636ZM553.884 40.1136C553.884 44.1136 552.759 47.3636 550.509 49.8636C548.309 52.3636 545.484 53.6136 542.034 53.6136C538.584 53.6136 535.734 52.3636 533.484 49.8636C531.284 47.3636 530.184 44.1136 530.184 40.1136V13.7136C530.184 9.71357 531.284 6.46357 533.484 3.96357C535.734 1.46357 538.584 0.213572 542.034 0.213572C545.484 0.213572 548.309 1.46357 550.509 3.96357C552.759 6.46357 553.884 9.71357 553.884 13.7136V40.1136ZM550.059 40.4886V13.3386C550.059 10.4386 549.309 8.08857 547.809 6.28857C546.309 4.48857 544.384 3.58857 542.034 3.58857C539.684 3.58857 537.759 4.48857 536.259 6.28857C534.809 8.08857 534.084 10.4386 534.084 13.3386V40.4886C534.084 43.3886 534.809 45.7386 536.259 47.5386C537.759 49.3386 539.684 50.2386 542.034 50.2386C544.384 50.2386 546.309 49.3386 547.809 47.5386C549.309 45.7386 550.059 43.3886 550.059 40.4886ZM576.688 0.663571H580.588V40.1136C580.588 44.1136 579.463 47.3636 577.213 49.8636C575.013 52.3636 572.163 53.6136 568.663 53.6136C565.213 53.6136 562.363 52.3636 560.113 49.8636C557.913 47.3636 556.813 44.1136 556.813 40.1136V0.663571H560.713V40.5636C560.713 43.4136 561.438 45.7386 562.888 47.5386C564.388 49.3386 566.313 50.2386 568.663 50.2386C571.013 50.2386 572.938 49.3386 574.438 47.5386C575.938 45.7386 576.688 43.3886 576.688 40.4886V0.663571ZM605.713 0.663571V4.11357H595.213V53.1636H591.313V4.11357H580.813V0.663571H605.713ZM611.852 30.9636V27.7386H647.627V30.9636H611.852ZM656.856 53.1636V0.663571H660.756V53.1636H656.856ZM686.265 0.663571V4.11357H675.765V53.1636H671.865V4.11357H661.365V0.663571H686.265ZM693.754 53.1636H689.779L701.929 0.663571H706.054L718.204 53.1636H714.229L711.229 39.8886H696.679L693.754 53.1636ZM703.954 6.81357L697.429 36.4386H710.479L703.954 6.81357ZM736.797 37.4136H740.622V40.1136C740.622 44.1136 739.497 47.3636 737.247 49.8636C735.047 52.3636 732.222 53.6136 728.772 53.6136C725.322 53.6136 722.472 52.3636 720.222 49.8636C718.022 47.3636 716.922 44.1136 716.922 40.1136V13.7136C716.922 9.71357 718.022 6.46357 720.222 3.96357C722.472 1.46357 725.322 0.213572 728.772 0.213572C732.222 0.213572 735.047 1.46357 737.247 3.96357C739.497 6.46357 740.622 9.71357 740.622 13.7136V16.4886H736.797V13.3386C736.797 10.4386 736.047 8.08857 734.547 6.28857C733.047 4.48857 731.122 3.58857 728.772 3.58857C726.422 3.58857 724.497 4.48857 722.997 6.28857C721.547 8.08857 720.822 10.4386 720.822 13.3386V40.5636C720.822 43.4136 721.547 45.7386 722.997 47.5386C724.497 49.3386 726.422 50.2386 728.772 50.2386C731.122 50.2386 733.047 49.3386 734.547 47.5386C736.047 45.7386 736.797 43.3886 736.797 40.4886V37.4136ZM765.091 0.663571V4.11357H754.591V53.1636H750.691V4.11357H740.191V0.663571H765.091ZM781.788 15.5136V13.4136C781.788 10.5136 781.113 8.16357 779.763 6.36357C778.413 4.51357 776.688 3.58857 774.588 3.58857C772.538 3.58857 770.838 4.46357 769.488 6.21357C768.188 7.91357 767.538 10.2136 767.538 13.1136C767.538 17.2136 768.738 20.0886 771.138 21.7386L781.488 29.2386C784.638 31.5386 786.213 35.2886 786.213 40.4886C786.213 44.4886 785.138 47.6886 782.988 50.0886C780.838 52.4386 778.088 53.6136 774.738 53.6136C771.288 53.6136 768.488 52.3886 766.338 49.9386C764.188 47.4886 763.113 44.2886 763.113 40.3386V37.9386H767.013V40.3386C767.013 43.2886 767.713 45.6886 769.113 47.5386C770.563 49.3386 772.438 50.2386 774.738 50.2386C776.938 50.2386 778.738 49.3886 780.138 47.6886C781.538 45.9386 782.238 43.5886 782.238 40.6386C782.238 36.5386 781.038 33.6886 778.638 32.0886L768.438 24.5886C765.188 22.1886 763.563 18.4386 763.563 13.3386C763.563 9.28857 764.588 6.08857 766.638 3.73857C768.688 1.38857 771.313 0.213572 774.513 0.213572C777.863 0.213572 780.563 1.43857 782.613 3.88857C784.713 6.28857 785.763 9.46357 785.763 13.4136V15.5136H781.788Z" fill="#2F2F2F"/>
<path d="M3.73887 53.1636V53.3772H3.95254V53.1636H3.73887ZM0.213868 53.1636H0.000196695V53.3772H0.213868V53.1636ZM0.213868 0.663571V0.4499H0.000196695V0.663571H0.213868ZM3.43887 0.663571L3.64286 0.599984L3.59607 0.4499H3.43887V0.663571ZM14.6139 36.5136L14.4099 36.5772L14.6125 37.2272L14.8176 36.5779L14.6139 36.5136ZM25.9389 0.663571V0.4499H25.7823L25.7351 0.599207L25.9389 0.663571ZM29.1639 0.663571H29.3775V0.4499H29.1639V0.663571ZM29.1639 53.1636V53.3772H29.3775V53.1636H29.1639ZM25.6389 53.1636H25.4252V53.3772H25.6389V53.1636ZM25.6389 12.2886H25.8525L25.4352 12.224L25.6389 12.2886ZM15.8889 43.0386V43.2522H16.0453L16.0925 43.1032L15.8889 43.0386ZM13.4889 43.0386L13.2852 43.1032L13.3325 43.2522H13.4889V43.0386ZM3.73887 12.2886L3.94254 12.224L3.5252 12.2886H3.73887ZM3.73887 53.1636V52.9499H0.213868V53.1636V53.3772H3.73887V53.1636ZM0.213868 53.1636H0.427538V0.663571H0.213868H0.000196695V53.1636H0.213868ZM0.213868 0.663571V0.877241H3.43887V0.663571V0.4499H0.213868V0.663571ZM3.43887 0.663571L3.23488 0.727157L14.4099 36.5772L14.6139 36.5136L14.8179 36.45L3.64286 0.599984L3.43887 0.663571ZM14.6139 36.5136L14.8176 36.5779L26.1426 0.727934L25.9389 0.663571L25.7351 0.599207L14.4101 36.4492L14.6139 36.5136ZM25.9389 0.663571V0.877241H29.1639V0.663571V0.4499H25.9389V0.663571ZM29.1639 0.663571H28.9502V53.1636H29.1639H29.3775V0.663571H29.1639ZM29.1639 53.1636V52.9499H25.6389V53.1636V53.3772H29.1639V53.1636ZM25.6389 53.1636H25.8525V12.2886H25.6389H25.4252V53.1636H25.6389ZM25.6389 12.2886L25.4352 12.224L15.6852 42.974L15.8889 43.0386L16.0925 43.1032L25.8425 12.3532L25.6389 12.2886ZM15.8889 43.0386V42.8249H13.4889V43.0386V43.2522H15.8889V43.0386ZM13.4889 43.0386L13.6925 42.974L3.94254 12.224L3.73887 12.2886L3.53519 12.3532L13.2852 43.1032L13.4889 43.0386ZM3.73887 12.2886H3.5252V53.1636H3.73887H3.95254V12.2886H3.73887ZM33.2209 53.1636V53.3772H33.3926L33.4296 53.2096L33.2209 53.1636ZM29.2459 53.1636L29.0377 53.1154L28.9771 53.3772H29.2459V53.1636ZM41.3959 0.663571V0.4499H41.226L41.1877 0.615394L41.3959 0.663571ZM45.5209 0.663571L45.7291 0.615394L45.6908 0.4499H45.5209V0.663571ZM57.6709 53.1636V53.3772H57.9397L57.8791 53.1154L57.6709 53.1636ZM53.6959 53.1636L53.4875 53.2107L53.5251 53.3772H53.6959V53.1636ZM50.6959 39.8886L50.9043 39.8415L50.8667 39.6749H50.6959V39.8886ZM36.1459 39.8886V39.6749H35.9742L35.9372 39.8426L36.1459 39.8886ZM43.4209 6.81357L43.6296 6.76761H43.2122L43.4209 6.81357ZM36.8959 36.4386L36.6872 36.3926L36.63 36.6522H36.8959V36.4386ZM49.9459 36.4386V36.6522H50.2118L50.1546 36.3926L49.9459 36.4386ZM33.2209 53.1636V52.9499H29.2459V53.1636V53.3772H33.2209V53.1636ZM29.2459 53.1636L29.4541 53.2118L41.6041 0.711747L41.3959 0.663571L41.1877 0.615394L29.0377 53.1154L29.2459 53.1636ZM41.3959 0.663571V0.877241H45.5209V0.663571V0.4499H41.3959V0.663571ZM45.5209 0.663571L45.3127 0.711747L57.4627 53.2118L57.6709 53.1636L57.8791 53.1154L45.7291 0.615394L45.5209 0.663571ZM57.6709 53.1636V52.9499H53.6959V53.1636V53.3772H57.6709V53.1636ZM53.6959 53.1636L53.9043 53.1165L50.9043 39.8415L50.6959 39.8886L50.4875 39.9357L53.4875 53.2107L53.6959 53.1636ZM50.6959 39.8886V39.6749H36.1459V39.8886V40.1022H50.6959V39.8886ZM36.1459 39.8886L35.9372 39.8426L33.0122 53.1176L33.2209 53.1636L33.4296 53.2096L36.3546 39.9346L36.1459 39.8886ZM43.4209 6.81357L43.2122 6.76761L36.6872 36.3926L36.8959 36.4386L37.1046 36.4845L43.6296 6.85953L43.4209 6.81357ZM36.8959 36.4386V36.6522H49.9459V36.4386V36.2249H36.8959V36.4386ZM49.9459 36.4386L50.1546 36.3926L43.6296 6.76761L43.4209 6.81357L43.2122 6.85953L49.7372 36.4845L49.9459 36.4386ZM61.6178 30.7386V30.5249H61.4041V30.7386H61.6178ZM61.6178 53.1636V53.3772H61.8314V53.1636H61.6178ZM57.7178 53.1636H57.5041V53.3772H57.7178V53.1636ZM57.7178 0.663571V0.4499H57.5041V0.663571H57.7178ZM77.8178 25.3386L77.6353 25.2275L77.6346 25.2286L77.8178 25.3386ZM72.2678 29.9886L72.1951 29.7876L71.9888 29.8622L72.0688 30.0665L72.2678 29.9886ZM81.3428 53.1636V53.3772H81.6559L81.5417 53.0857L81.3428 53.1636ZM77.4428 53.1636L77.2429 53.2391L77.2951 53.3772H77.4428V53.1636ZM68.9678 30.7386L69.1676 30.663L69.1154 30.5249H68.9678V30.7386ZM61.6178 4.11357V3.8999H61.4041V4.11357H61.6178ZM61.6178 27.3636H61.4041V27.5772H61.6178V27.3636ZM73.7678 24.6636L73.6036 24.5268L73.6014 24.5295L73.7678 24.6636ZM73.7678 6.81357L73.6013 6.94768L73.6055 6.95263L73.7678 6.81357ZM61.6178 30.7386H61.4041V53.1636H61.6178H61.8314V30.7386H61.6178ZM61.6178 53.1636V52.9499H57.7178V53.1636V53.3772H61.6178V53.1636ZM57.7178 53.1636H57.9314V0.663571H57.7178H57.5041V53.1636H57.7178ZM57.7178 0.663571V0.877241H68.1428V0.663571V0.4499H57.7178V0.663571ZM68.1428 0.663571V0.877241C71.5339 0.877241 74.2996 2.10268 76.4574 4.55473L76.6178 4.41357L76.7782 4.27241C74.536 1.72446 71.6517 0.4499 68.1428 0.4499V0.663571ZM76.6178 4.41357L76.4574 4.55473C78.6164 7.0082 79.7041 10.2046 79.7041 14.1636H79.9178H80.1314C80.1314 10.1226 79.0191 6.81894 76.7782 4.27241L76.6178 4.41357ZM79.9178 14.1636H79.7041V17.2386H79.9178H80.1314V14.1636H79.9178ZM79.9178 17.2386H79.7041C79.7041 20.3054 79.012 22.9658 77.6353 25.2275L77.8178 25.3386L78.0003 25.4497C79.4236 23.1114 80.1314 20.3717 80.1314 17.2386H79.9178ZM77.8178 25.3386L77.6346 25.2286C76.3085 27.4388 74.4964 28.9552 72.1951 29.7876L72.2678 29.9886L72.3405 30.1895C74.7391 29.3219 76.6271 27.7384 78.001 25.4485L77.8178 25.3386ZM72.2678 29.9886L72.0688 30.0665L81.1438 53.2415L81.3428 53.1636L81.5417 53.0857L72.4667 29.9107L72.2678 29.9886ZM81.3428 53.1636V52.9499H77.4428V53.1636V53.3772H81.3428V53.1636ZM77.4428 53.1636L77.6426 53.088L69.1676 30.663L68.9678 30.7386L68.7679 30.8141L77.2429 53.2391L77.4428 53.1636ZM68.9678 30.7386V30.5249H61.6178V30.7386V30.9522H68.9678V30.7386ZM68.0678 4.11357V3.8999H61.6178V4.11357V4.32724H68.0678V4.11357ZM61.6178 4.11357H61.4041V27.3636H61.6178H61.8314V4.11357H61.6178ZM61.6178 27.3636V27.5772H68.0678V27.3636V27.1499H61.6178V27.3636ZM68.0678 27.3636V27.5772C70.4812 27.5772 72.4428 26.6489 73.9342 24.7976L73.7678 24.6636L73.6014 24.5295C72.1927 26.2782 70.3544 27.1499 68.0678 27.1499V27.3636ZM73.7678 24.6636L73.9319 24.8004C75.471 22.9535 76.2314 20.5513 76.2314 17.6136H76.0178H75.8041C75.8041 20.4758 75.0646 22.7737 73.6036 24.5268L73.7678 24.6636ZM76.0178 17.6136H76.2314V13.7886H76.0178H75.8041V17.6136H76.0178ZM76.0178 13.7886H76.2314C76.2314 10.8511 75.4711 8.47243 73.93 6.67452L73.7678 6.81357L73.6055 6.95263C75.0645 8.65471 75.8041 10.926 75.8041 13.7886H76.0178ZM73.7678 6.81357L73.9342 6.67953C72.4428 4.82821 70.4812 3.8999 68.0678 3.8999V4.11357V4.32724C70.3544 4.32724 72.1927 5.19894 73.6014 6.94761L73.7678 6.81357ZM83.1006 53.1636H82.8869V53.3772H83.1006V53.1636ZM83.1006 0.663571V0.4499H82.8869V0.663571H83.1006ZM87.0006 0.663571H87.2143V0.4499H87.0006V0.663571ZM87.0006 53.1636V53.3772H87.2143V53.1636H87.0006ZM102.226 53.1636L102.036 53.2625L102.096 53.3772H102.226V53.1636ZM88.0506 26.0136L87.8615 25.914L87.8093 26.0131L87.8612 26.1125L88.0506 26.0136ZM101.401 0.663571V0.4499H101.272L101.212 0.564008L101.401 0.663571ZM105.676 0.663571L105.864 0.764006L106.031 0.4499H105.676V0.663571ZM92.1756 26.0136L91.987 25.9131L91.9338 26.0131L91.9866 26.1133L92.1756 26.0136ZM106.501 53.1636V53.3772H106.855L106.69 53.0639L106.501 53.1636ZM83.1006 53.1636H83.3143V0.663571H83.1006H82.8869V53.1636H83.1006ZM83.1006 0.663571V0.877241H87.0006V0.663571V0.4499H83.1006V0.663571ZM87.0006 0.663571H86.7869V53.1636H87.0006H87.2143V0.663571H87.0006ZM87.0006 53.1636V52.9499H83.1006V53.1636V53.3772H87.0006V53.1636ZM102.226 53.1636L102.415 53.0647L88.24 25.9147L88.0506 26.0136L87.8612 26.1125L102.036 53.2625L102.226 53.1636ZM88.0506 26.0136L88.2396 26.1131L101.59 0.763133L101.401 0.663571L101.212 0.564008L87.8615 25.914L88.0506 26.0136ZM101.401 0.663571V0.877241H105.676V0.663571V0.4499H101.401V0.663571ZM105.676 0.663571L105.487 0.563136L91.987 25.9131L92.1756 26.0136L92.3642 26.114L105.864 0.764006L105.676 0.663571ZM92.1756 26.0136L91.9866 26.1133L106.312 53.2633L106.501 53.1636L106.69 53.0639L92.3646 25.9139L92.1756 26.0136ZM106.501 53.1636V52.9499H102.226V53.1636V53.3772H106.501V53.1636ZM125.545 49.7136H125.759V49.4999H125.545V49.7136ZM125.545 53.1636V53.3772H125.759V53.1636H125.545ZM106.945 53.1636H106.732V53.3772H106.945V53.1636ZM106.945 0.663571V0.4499H106.732V0.663571H106.945ZM125.545 0.663571H125.759V0.4499H125.545V0.663571ZM125.545 4.11357V4.32724H125.759V4.11357H125.545ZM110.845 4.11357V3.8999H110.632V4.11357H110.845ZM110.845 25.3386H110.632V25.5522H110.845V25.3386ZM124.12 25.3386H124.334V25.1249H124.12V25.3386ZM124.12 28.7886V29.0022H124.334V28.7886H124.12ZM110.845 28.7886V28.5749H110.632V28.7886H110.845ZM110.845 49.7136H110.632V49.9272H110.845V49.7136ZM125.545 49.7136H125.332V53.1636H125.545H125.759V49.7136H125.545ZM125.545 53.1636V52.9499H106.945V53.1636V53.3772H125.545V53.1636ZM106.945 53.1636H107.159V0.663571H106.945H106.732V53.1636H106.945ZM106.945 0.663571V0.877241H125.545V0.663571V0.4499H106.945V0.663571ZM125.545 0.663571H125.332V4.11357H125.545H125.759V0.663571H125.545ZM125.545 4.11357V3.8999H110.845V4.11357V4.32724H125.545V4.11357ZM110.845 4.11357H110.632V25.3386H110.845H111.059V4.11357H110.845ZM110.845 25.3386V25.5522H124.12V25.3386V25.1249H110.845V25.3386ZM124.12 25.3386H123.907V28.7886H124.12H124.334V25.3386H124.12ZM124.12 28.7886V28.5749H110.845V28.7886V29.0022H124.12V28.7886ZM110.845 28.7886H110.632V49.7136H110.845H111.059V28.7886H110.845ZM110.845 49.7136V49.9272H125.545V49.7136V49.4999H110.845V49.7136ZM149.317 0.663571H149.531V0.4499H149.317V0.663571ZM149.317 4.11357V4.32724H149.531V4.11357H149.317ZM138.817 4.11357V3.8999H138.604V4.11357H138.817ZM138.817 53.1636V53.3772H139.031V53.1636H138.817ZM134.917 53.1636H134.704V53.3772H134.917V53.1636ZM134.917 4.11357H135.131V3.8999H134.917V4.11357ZM124.417 4.11357H124.204V4.32724H124.417V4.11357ZM124.417 0.663571V0.4499H124.204V0.663571H124.417ZM149.317 0.663571H149.104V4.11357H149.317H149.531V0.663571H149.317ZM149.317 4.11357V3.8999H138.817V4.11357V4.32724H149.317V4.11357ZM138.817 4.11357H138.604V53.1636H138.817H139.031V4.11357H138.817ZM138.817 53.1636V52.9499H134.917V53.1636V53.3772H138.817V53.1636ZM134.917 53.1636H135.131V4.11357H134.917H134.704V53.1636H134.917ZM134.917 4.11357V3.8999H124.417V4.11357V4.32724H134.917V4.11357ZM124.417 4.11357H124.631V0.663571H124.417H124.204V4.11357H124.417ZM124.417 0.663571V0.877241H149.317V0.663571V0.4499H124.417V0.663571ZM149.947 53.1636H149.734V53.3772H149.947V53.1636ZM149.947 0.663571V0.4499H149.734V0.663571H149.947ZM153.847 0.663571H154.061V0.4499H153.847V0.663571ZM153.847 53.1636V53.3772H154.061V53.1636H153.847ZM149.947 53.1636H150.161V0.663571H149.947H149.734V53.1636H149.947ZM149.947 0.663571V0.877241H153.847V0.663571V0.4499H149.947V0.663571ZM153.847 0.663571H153.634V53.1636H153.847H154.061V0.663571H153.847ZM153.847 53.1636V52.9499H149.947V53.1636V53.3772H153.847V53.1636ZM161.355 53.1636V53.3772H161.569V53.1636H161.355ZM157.605 53.1636H157.392V53.3772H157.605V53.1636ZM157.605 0.663571V0.4499H157.392V0.663571H157.605ZM160.98 0.663571L161.179 0.585616L161.126 0.4499H160.98V0.663571ZM177.555 42.9636L177.357 43.0415L177.769 42.9636H177.555ZM177.555 0.663571V0.4499H177.342V0.663571H177.555ZM181.305 0.663571H181.519V0.4499H181.305V0.663571ZM181.305 53.1636V53.3772H181.519V53.1636H181.305ZM177.93 53.1636L177.732 53.2416L177.785 53.3772H177.93V53.1636ZM161.355 10.9386L161.554 10.8605L161.142 10.9386H161.355ZM161.355 53.1636V52.9499H157.605V53.1636V53.3772H161.355V53.1636ZM157.605 53.1636H157.819V0.663571H157.605H157.392V53.1636H157.605ZM157.605 0.663571V0.877241H160.98V0.663571V0.4499H157.605V0.663571ZM160.98 0.663571L160.782 0.741525L177.357 43.0415L177.555 42.9636L177.754 42.8856L161.179 0.585616L160.98 0.663571ZM177.555 42.9636H177.769V0.663571H177.555H177.342V42.9636H177.555ZM177.555 0.663571V0.877241H181.305V0.663571V0.4499H177.555V0.663571ZM181.305 0.663571H181.092V53.1636H181.305H181.519V0.663571H181.305ZM181.305 53.1636V52.9499H177.93V53.1636V53.3772H181.305V53.1636ZM177.93 53.1636L178.129 53.0855L161.554 10.8605L161.355 10.9386L161.157 11.0166L177.732 53.2416L177.93 53.1636ZM161.355 10.9386H161.142V53.1636H161.355H161.569V10.9386H161.355ZM196.739 26.0136V25.7999H196.525V26.0136H196.739ZM208.289 26.0136H208.503V25.7999H208.289V26.0136ZM204.914 49.8636L204.755 49.7206L204.754 49.7224L204.914 49.8636ZM187.889 49.8636L187.729 50.0047L187.73 50.0065L187.889 49.8636ZM187.889 3.96357L187.73 3.82063L187.729 3.82242L187.889 3.96357ZM204.914 3.96357L204.754 4.10474L204.755 4.10651L204.914 3.96357ZM208.289 16.4886V16.7022H208.503V16.4886H208.289ZM204.464 16.4886H204.25V16.7022H204.464V16.4886ZM202.214 6.28857L202.05 6.42536V6.42536L202.214 6.28857ZM190.664 6.28857L190.5 6.15177L190.498 6.15453L190.664 6.28857ZM190.664 47.5386L190.498 47.6726L190.5 47.6754L190.664 47.5386ZM202.214 47.5386L202.378 47.6754V47.6754L202.214 47.5386ZM204.464 29.4636H204.678V29.2499H204.464V29.4636ZM196.739 29.4636H196.525V29.6772H196.739V29.4636ZM196.739 26.0136V26.2272H208.289V26.0136V25.7999H196.739V26.0136ZM208.289 26.0136H208.075V40.1136H208.289H208.503V26.0136H208.289ZM208.289 40.1136H208.075C208.075 44.0713 206.963 47.2671 204.755 49.7206L204.914 49.8636L205.073 50.0065C207.365 47.4601 208.503 44.1558 208.503 40.1136H208.289ZM204.914 49.8636L204.754 49.7224C202.596 52.1745 199.83 53.3999 196.439 53.3999V53.6136V53.8272C199.948 53.8272 202.832 52.5527 205.074 50.0047L204.914 49.8636ZM196.439 53.6136V53.3999C193.048 53.3999 190.256 52.1743 188.048 49.7206L187.889 49.8636L187.73 50.0065C190.022 52.5528 192.93 53.8272 196.439 53.8272V53.6136ZM187.889 49.8636L188.049 49.7224C185.89 47.2689 184.803 44.0726 184.803 40.1136H184.589H184.375C184.375 44.1546 185.488 47.4582 187.729 50.0047L187.889 49.8636ZM184.589 40.1136H184.803V13.7136H184.589H184.375V40.1136H184.589ZM184.589 13.7136H184.803C184.803 9.75456 185.89 6.5582 188.049 4.10473L187.889 3.96357L187.729 3.82242C185.488 6.36894 184.375 9.67258 184.375 13.7136H184.589ZM187.889 3.96357L188.048 4.10651C190.256 1.65284 193.048 0.427243 196.439 0.427243V0.213572V-9.88096e-05C192.93 -9.88096e-05 190.022 1.27431 187.73 3.82063L187.889 3.96357ZM196.439 0.213572V0.427243C199.83 0.427243 202.596 1.65268 204.754 4.10473L204.914 3.96357L205.074 3.82242C202.832 1.27446 199.948 -9.88096e-05 196.439 -9.88096e-05V0.213572ZM204.914 3.96357L204.755 4.10651C206.963 6.56008 208.075 9.7558 208.075 13.7136H208.289H208.503C208.503 9.67134 207.365 6.36707 205.073 3.82063L204.914 3.96357ZM208.289 13.7136H208.075V16.4886H208.289H208.503V13.7136H208.289ZM208.289 16.4886V16.2749H204.464V16.4886V16.7022H208.289V16.4886ZM204.464 16.4886H204.678V13.3386H204.464H204.25V16.4886H204.464ZM204.464 13.3386H204.678C204.678 10.4008 203.917 7.99865 202.378 6.15179L202.214 6.28857L202.05 6.42536C203.511 8.17849 204.25 10.4763 204.25 13.3386H204.464ZM202.214 6.28857L202.378 6.15179C200.837 4.3029 198.852 3.3749 196.439 3.3749V3.58857V3.80224C198.726 3.80224 200.591 4.67424 202.05 6.42536L202.214 6.28857ZM196.439 3.58857V3.3749C194.026 3.3749 192.041 4.3029 190.5 6.15179L190.664 6.28857L190.828 6.42536C192.287 4.67424 194.152 3.80224 196.439 3.80224V3.58857ZM190.664 6.28857L190.498 6.15453C189.01 8.00134 188.275 10.4025 188.275 13.3386H188.489H188.703C188.703 10.4746 189.418 8.1758 190.83 6.42262L190.664 6.28857ZM188.489 13.3386H188.275V40.5636H188.489H188.703V13.3386H188.489ZM188.489 40.5636H188.275C188.275 43.4506 189.01 45.8264 190.498 47.6726L190.664 47.5386L190.83 47.4045C189.418 45.6507 188.703 43.3765 188.703 40.5636H188.489ZM190.664 47.5386L190.5 47.6754C192.041 49.5242 194.026 50.4522 196.439 50.4522V50.2386V50.0249C194.152 50.0249 192.287 49.1529 190.828 47.4018L190.664 47.5386ZM196.439 50.2386V50.4522C198.852 50.4522 200.837 49.5242 202.378 47.6754L202.214 47.5386L202.05 47.4018C200.591 49.1529 198.726 50.0249 196.439 50.0249V50.2386ZM202.214 47.5386L202.378 47.6754C203.917 45.8285 204.678 43.4263 204.678 40.4886H204.464H204.25C204.25 43.3508 203.511 45.6487 202.05 47.4018L202.214 47.5386ZM204.464 40.4886H204.678V29.4636H204.464H204.25V40.4886H204.464ZM204.464 29.4636V29.2499H196.739V29.4636V29.6772H204.464V29.4636ZM196.739 29.4636H196.953V26.0136H196.739H196.525V29.4636H196.739ZM239.537 0.663571H239.751V0.4499H239.537V0.663571ZM239.537 4.11357V4.32724H239.751V4.11357H239.537ZM229.037 4.11357V3.8999H228.823V4.11357H229.037ZM229.037 53.1636V53.3772H229.251V53.1636H229.037ZM225.137 53.1636H224.923V53.3772H225.137V53.1636ZM225.137 4.11357H225.351V3.8999H225.137V4.11357ZM214.637 4.11357H214.423V4.32724H214.637V4.11357ZM214.637 0.663571V0.4499H214.423V0.663571H214.637ZM239.537 0.663571H239.323V4.11357H239.537H239.751V0.663571H239.537ZM239.537 4.11357V3.8999H229.037V4.11357V4.32724H239.537V4.11357ZM229.037 4.11357H228.823V53.1636H229.037H229.251V4.11357H229.037ZM229.037 53.1636V52.9499H225.137V53.1636V53.3772H229.037V53.1636ZM225.137 53.1636H225.351V4.11357H225.137H224.923V53.1636H225.137ZM225.137 4.11357V3.8999H214.637V4.11357V4.32724H225.137V4.11357ZM214.637 4.11357H214.851V0.663571H214.637H214.423V4.11357H214.637ZM214.637 0.663571V0.877241H239.537V0.663571V0.4499H214.637V0.663571ZM244.067 53.1636V53.3772H244.281V53.1636H244.067ZM240.167 53.1636H239.953V53.3772H240.167V53.1636ZM240.167 0.663571V0.4499H239.953V0.663571H240.167ZM244.067 0.663571H244.281V0.4499H244.067V0.663571ZM244.067 25.3386H243.853V25.5522H244.067V25.3386ZM260.042 25.3386V25.5522H260.256V25.3386H260.042ZM260.042 0.663571V0.4499H259.828V0.663571H260.042ZM263.942 0.663571H264.156V0.4499H263.942V0.663571ZM263.942 53.1636V53.3772H264.156V53.1636H263.942ZM260.042 53.1636H259.828V53.3772H260.042V53.1636ZM260.042 28.7886H260.256V28.5749H260.042V28.7886ZM244.067 28.7886V28.5749H243.853V28.7886H244.067ZM244.067 53.1636V52.9499H240.167V53.1636V53.3772H244.067V53.1636ZM240.167 53.1636H240.381V0.663571H240.167H239.953V53.1636H240.167ZM240.167 0.663571V0.877241H244.067V0.663571V0.4499H240.167V0.663571ZM244.067 0.663571H243.853V25.3386H244.067H244.281V0.663571H244.067ZM244.067 25.3386V25.5522H260.042V25.3386V25.1249H244.067V25.3386ZM260.042 25.3386H260.256V0.663571H260.042H259.828V25.3386H260.042ZM260.042 0.663571V0.877241H263.942V0.663571V0.4499H260.042V0.663571ZM263.942 0.663571H263.728V53.1636H263.942H264.156V0.663571H263.942ZM263.942 53.1636V52.9499H260.042V53.1636V53.3772H263.942V53.1636ZM260.042 53.1636H260.256V28.7886H260.042H259.828V53.1636H260.042ZM260.042 28.7886V28.5749H244.067V28.7886V29.0022H260.042V28.7886ZM244.067 28.7886H243.853V53.1636H244.067H244.281V28.7886H244.067ZM267.901 53.1636V53.3772H268.072L268.109 53.2096L267.901 53.1636ZM263.926 53.1636L263.717 53.1154L263.657 53.3772H263.926V53.1636ZM276.076 0.663571V0.4499H275.906L275.867 0.615394L276.076 0.663571ZM280.201 0.663571L280.409 0.615394L280.37 0.4499H280.201V0.663571ZM292.351 53.1636V53.3772H292.619L292.559 53.1154L292.351 53.1636ZM288.376 53.1636L288.167 53.2107L288.205 53.3772H288.376V53.1636ZM285.376 39.8886L285.584 39.8415L285.546 39.6749H285.376V39.8886ZM270.826 39.8886V39.6749H270.654L270.617 39.8426L270.826 39.8886ZM278.101 6.81357L278.309 6.76761H277.892L278.101 6.81357ZM271.576 36.4386L271.367 36.3926L271.31 36.6522H271.576V36.4386ZM284.626 36.4386V36.6522H284.891L284.834 36.3926L284.626 36.4386ZM267.901 53.1636V52.9499H263.926V53.1636V53.3772H267.901V53.1636ZM263.926 53.1636L264.134 53.2118L276.284 0.711747L276.076 0.663571L275.867 0.615394L263.717 53.1154L263.926 53.1636ZM276.076 0.663571V0.877241H280.201V0.663571V0.4499H276.076V0.663571ZM280.201 0.663571L279.992 0.711747L292.142 53.2118L292.351 53.1636L292.559 53.1154L280.409 0.615394L280.201 0.663571ZM292.351 53.1636V52.9499H288.376V53.1636V53.3772H292.351V53.1636ZM288.376 53.1636L288.584 53.1165L285.584 39.8415L285.376 39.8886L285.167 39.9357L288.167 53.2107L288.376 53.1636ZM285.376 39.8886V39.6749H270.826V39.8886V40.1022H285.376V39.8886ZM270.826 39.8886L270.617 39.8426L267.692 53.1176L267.901 53.1636L268.109 53.2096L271.034 39.9346L270.826 39.8886ZM278.101 6.81357L277.892 6.76761L271.367 36.3926L271.576 36.4386L271.784 36.4845L278.309 6.85953L278.101 6.81357ZM271.576 36.4386V36.6522H284.626V36.4386V36.2249H271.576V36.4386ZM284.626 36.4386L284.834 36.3926L278.309 6.76761L278.101 6.81357L277.892 6.85953L284.417 36.4845L284.626 36.4386ZM311.438 0.663571H311.651V0.4499H311.438V0.663571ZM311.438 4.11357V4.32724H311.651V4.11357H311.438ZM300.938 4.11357V3.8999H300.724V4.11357H300.938ZM300.938 53.1636V53.3772H301.151V53.1636H300.938ZM297.038 53.1636H296.824V53.3772H297.038V53.1636ZM297.038 4.11357H297.251V3.8999H297.038V4.11357ZM286.538 4.11357H286.324V4.32724H286.538V4.11357ZM286.538 0.663571V0.4499H286.324V0.663571H286.538ZM311.438 0.663571H311.224V4.11357H311.438H311.651V0.663571H311.438ZM311.438 4.11357V3.8999H300.938V4.11357V4.32724H311.438V4.11357ZM300.938 4.11357H300.724V53.1636H300.938H301.151V4.11357H300.938ZM300.938 53.1636V52.9499H297.038V53.1636V53.3772H300.938V53.1636ZM297.038 53.1636H297.251V4.11357H297.038H296.824V53.1636H297.038ZM297.038 4.11357V3.8999H286.538V4.11357V4.32724H297.038V4.11357ZM286.538 4.11357H286.751V0.663571H286.538H286.324V4.11357H286.538ZM286.538 0.663571V0.877241H311.438V0.663571V0.4499H286.538V0.663571ZM318.627 53.1636H318.413V53.3772H318.627V53.1636ZM318.627 0.663571V0.4499H318.413V0.663571H318.627ZM338.352 4.41357L338.19 4.5529L338.192 4.55473L338.352 4.41357ZM338.352 49.4136L338.192 49.2724L338.19 49.2743L338.352 49.4136ZM322.527 4.11357V3.8999H322.313V4.11357H322.527ZM322.527 49.7136H322.313V49.9272H322.527V49.7136ZM335.577 47.0886L335.739 47.2276L335.741 47.2254L335.577 47.0886ZM335.577 6.81357L335.413 6.95037L335.415 6.95263L335.577 6.81357ZM318.627 53.1636H318.841V0.663571H318.627H318.413V53.1636H318.627ZM318.627 0.663571V0.877241H329.877V0.663571V0.4499H318.627V0.663571ZM329.877 0.663571V0.877241C333.319 0.877241 336.083 2.1033 338.19 4.55289L338.352 4.41357L338.514 4.27425C336.321 1.72385 333.435 0.4499 329.877 0.4499V0.663571ZM338.352 4.41357L338.192 4.55473C340.351 7.0082 341.438 10.2046 341.438 14.1636H341.652H341.866C341.866 10.1226 340.753 6.81894 338.512 4.27241L338.352 4.41357ZM341.652 14.1636H341.438V39.6636H341.652H341.866V14.1636H341.652ZM341.652 39.6636H341.438C341.438 43.6226 340.351 46.8189 338.192 49.2724L338.352 49.4136L338.512 49.5547C340.753 47.0082 341.866 43.7046 341.866 39.6636H341.652ZM338.352 49.4136L338.19 49.2743C336.083 51.7239 333.319 52.9499 329.877 52.9499V53.1636V53.3772C333.435 53.3772 336.321 52.1033 338.514 49.5529L338.352 49.4136ZM329.877 53.1636V52.9499H318.627V53.1636V53.3772H329.877V53.1636ZM329.802 4.11357V3.8999H322.527V4.11357V4.32724H329.802V4.11357ZM322.527 4.11357H322.313V49.7136H322.527H322.741V4.11357H322.527ZM322.527 49.7136V49.9272H329.802V49.7136V49.4999H322.527V49.7136ZM329.802 49.7136V49.9272C332.213 49.9272 334.198 49.026 335.739 47.2276L335.577 47.0886L335.415 46.9495C333.956 48.6511 332.091 49.4999 329.802 49.4999V49.7136ZM335.577 47.0886L335.741 47.2254C337.28 45.3785 338.041 42.9763 338.041 40.0386H337.827H337.613C337.613 42.9008 336.874 45.1987 335.413 46.9518L335.577 47.0886ZM337.827 40.0386H338.041V13.7886H337.827H337.613V40.0386H337.827ZM337.827 13.7886H338.041C338.041 10.8511 337.28 8.47243 335.739 6.67452L335.577 6.81357L335.415 6.95263C336.874 8.65471 337.613 10.926 337.613 13.7886H337.827ZM335.577 6.81357L335.741 6.67678C334.2 4.8279 332.215 3.8999 329.802 3.8999V4.11357V4.32724C332.089 4.32724 333.954 5.19924 335.413 6.95036L335.577 6.81357ZM364.837 49.8636L364.678 49.7206L364.677 49.7224L364.837 49.8636ZM347.812 49.8636L347.651 50.0047L347.653 50.0065L347.812 49.8636ZM347.812 3.96357L347.653 3.82063L347.652 3.82242L347.812 3.96357ZM364.837 3.96357L364.677 4.10474L364.678 4.10651L364.837 3.96357ZM362.137 6.28857L361.973 6.42536V6.42536L362.137 6.28857ZM350.587 6.28857L350.423 6.15177L350.421 6.15453L350.587 6.28857ZM350.587 47.5386L350.421 47.6726L350.423 47.6754L350.587 47.5386ZM362.137 47.5386L362.301 47.6754V47.6754L362.137 47.5386ZM368.212 40.1136H367.998C367.998 44.0713 366.886 47.2671 364.678 49.7206L364.837 49.8636L364.996 50.0065C367.288 47.4601 368.426 44.1558 368.426 40.1136H368.212ZM364.837 49.8636L364.677 49.7224C362.519 52.1745 359.753 53.3999 356.362 53.3999V53.6136V53.8272C359.871 53.8272 362.755 52.5527 364.997 50.0047L364.837 49.8636ZM356.362 53.6136V53.3999C352.971 53.3999 350.179 52.1743 347.971 49.7206L347.812 49.8636L347.653 50.0065C349.945 52.5528 352.853 53.8272 356.362 53.8272V53.6136ZM347.812 49.8636L347.972 49.7224C345.813 47.2689 344.726 44.0726 344.726 40.1136H344.512H344.298C344.298 44.1546 345.411 47.4582 347.652 50.0047L347.812 49.8636ZM344.512 40.1136H344.726V13.7136H344.512H344.298V40.1136H344.512ZM344.512 13.7136H344.726C344.726 9.75456 345.813 6.5582 347.972 4.10473L347.812 3.96357L347.652 3.82242C345.411 6.36894 344.298 9.67258 344.298 13.7136H344.512ZM347.812 3.96357L347.971 4.10651C350.179 1.65284 352.971 0.427243 356.362 0.427243V0.213572V-9.88096e-05C352.853 -9.88096e-05 349.945 1.27431 347.653 3.82063L347.812 3.96357ZM356.362 0.213572V0.427243C359.753 0.427243 362.519 1.65268 364.677 4.10473L364.837 3.96357L364.997 3.82242C362.755 1.27446 359.871 -9.88096e-05 356.362 -9.88096e-05V0.213572ZM364.837 3.96357L364.678 4.10651C366.886 6.56008 367.998 9.7558 367.998 13.7136H368.212H368.426C368.426 9.67134 367.288 6.36707 364.996 3.82063L364.837 3.96357ZM368.212 13.7136H367.998V40.1136H368.212H368.426V13.7136H368.212ZM364.387 40.4886H364.601V13.3386H364.387H364.173V40.4886H364.387ZM364.387 13.3386H364.601C364.601 10.4008 363.84 7.99865 362.301 6.15179L362.137 6.28857L361.973 6.42536C363.434 8.17849 364.173 10.4763 364.173 13.3386H364.387ZM362.137 6.28857L362.301 6.15179C360.76 4.3029 358.775 3.3749 356.362 3.3749V3.58857V3.80224C358.649 3.80224 360.513 4.67424 361.973 6.42536L362.137 6.28857ZM356.362 3.58857V3.3749C353.949 3.3749 351.964 4.3029 350.423 6.15179L350.587 6.28857L350.751 6.42536C352.21 4.67424 354.075 3.80224 356.362 3.80224V3.58857ZM350.587 6.28857L350.421 6.15453C348.933 8.00134 348.198 10.4025 348.198 13.3386H348.412H348.626C348.626 10.4746 349.341 8.1758 350.753 6.42262L350.587 6.28857ZM348.412 13.3386H348.198V40.4886H348.412H348.626V13.3386H348.412ZM348.412 40.4886H348.198C348.198 43.4246 348.933 45.8258 350.421 47.6726L350.587 47.5386L350.753 47.4045C349.341 45.6513 348.626 43.3525 348.626 40.4886H348.412ZM350.587 47.5386L350.423 47.6754C351.964 49.5242 353.949 50.4522 356.362 50.4522V50.2386V50.0249C354.075 50.0249 352.21 49.1529 350.751 47.4018L350.587 47.5386ZM356.362 50.2386V50.4522C358.775 50.4522 360.76 49.5242 362.301 47.6754L362.137 47.5386L361.973 47.4018C360.513 49.1529 358.649 50.0249 356.362 50.0249V50.2386ZM362.137 47.5386L362.301 47.6754C363.84 45.8285 364.601 43.4263 364.601 40.4886H364.387H364.173C364.173 43.3508 363.434 45.6487 361.973 47.4018L362.137 47.5386ZM390.117 49.7136H390.33V49.4999H390.117V49.7136ZM390.117 53.1636V53.3772H390.33V53.1636H390.117ZM371.517 53.1636H371.303V53.3772H371.517V53.1636ZM371.517 0.663571V0.4499H371.303V0.663571H371.517ZM390.117 0.663571H390.33V0.4499H390.117V0.663571ZM390.117 4.11357V4.32724H390.33V4.11357H390.117ZM375.417 4.11357V3.8999H375.203V4.11357H375.417ZM375.417 25.3386H375.203V25.5522H375.417V25.3386ZM388.692 25.3386H388.905V25.1249H388.692V25.3386ZM388.692 28.7886V29.0022H388.905V28.7886H388.692ZM375.417 28.7886V28.5749H375.203V28.7886H375.417ZM375.417 49.7136H375.203V49.9272H375.417V49.7136ZM390.117 49.7136H389.903V53.1636H390.117H390.33V49.7136H390.117ZM390.117 53.1636V52.9499H371.517V53.1636V53.3772H390.117V53.1636ZM371.517 53.1636H371.73V0.663571H371.517H371.303V53.1636H371.517ZM371.517 0.663571V0.877241H390.117V0.663571V0.4499H371.517V0.663571ZM390.117 0.663571H389.903V4.11357H390.117H390.33V0.663571H390.117ZM390.117 4.11357V3.8999H375.417V4.11357V4.32724H390.117V4.11357ZM375.417 4.11357H375.203V25.3386H375.417H375.63V4.11357H375.417ZM375.417 25.3386V25.5522H388.692V25.3386V25.1249H375.417V25.3386ZM388.692 25.3386H388.478V28.7886H388.692H388.905V25.3386H388.692ZM388.692 28.7886V28.5749H375.417V28.7886V29.0022H388.692V28.7886ZM375.417 28.7886H375.203V49.7136H375.417H375.63V28.7886H375.417ZM375.417 49.7136V49.9272H390.117V49.7136V49.4999H375.417V49.7136ZM408.939 15.5136H408.725V15.7272H408.939V15.5136ZM406.914 6.36357L406.741 6.48954L406.743 6.49178L406.914 6.36357ZM396.639 6.21357L396.469 6.08306L396.469 6.08378L396.639 6.21357ZM398.289 21.7386L398.414 21.5655L398.41 21.5625L398.289 21.7386ZM408.639 29.2386L408.765 29.066L408.764 29.0656L408.639 29.2386ZM410.139 50.0886L410.296 50.2328L410.298 50.2311L410.139 50.0886ZM393.489 49.9386L393.649 49.7976V49.7976L393.489 49.9386ZM390.264 37.9386V37.7249H390.05V37.9386H390.264ZM394.164 37.9386H394.377V37.7249H394.164V37.9386ZM396.264 47.5386L396.093 47.6676L396.097 47.6726L396.264 47.5386ZM407.289 47.6886L407.454 47.8244L407.456 47.8221L407.289 47.6886ZM405.789 32.0886L405.662 32.2609L405.67 32.2664L405.789 32.0886ZM395.589 24.5886L395.462 24.7605L395.462 24.7607L395.589 24.5886ZM393.789 3.73857L393.95 3.87903V3.87903L393.789 3.73857ZM409.764 3.88857L409.6 4.02572L409.603 4.02928L409.764 3.88857ZM412.914 15.5136V15.7272H413.127V15.5136H412.914ZM408.939 15.5136H409.152V13.4136H408.939H408.725V15.5136H408.939ZM408.939 13.4136H409.152C409.152 10.4808 408.469 8.08182 407.085 6.23537L406.914 6.36357L406.743 6.49178C408.058 8.24533 408.725 10.5464 408.725 13.4136H408.939ZM406.914 6.36357L407.086 6.23762C405.7 4.3383 403.914 3.3749 401.739 3.3749V3.58857V3.80224C403.764 3.80224 405.427 4.68884 406.741 6.48953L406.914 6.36357ZM401.739 3.58857V3.3749C399.617 3.3749 397.856 4.28535 396.469 6.08306L396.639 6.21357L396.808 6.34408C398.121 4.64179 399.761 3.80224 401.739 3.80224V3.58857ZM396.639 6.21357L396.469 6.08378C395.132 7.83231 394.475 10.1831 394.475 13.1136H394.689H394.902C394.902 10.244 395.546 7.99484 396.808 6.34337L396.639 6.21357ZM394.689 13.1136H394.475C394.475 17.253 395.688 20.21 398.168 21.9146L398.289 21.7386L398.41 21.5625C396.089 19.9672 394.902 17.1742 394.902 13.1136H394.689ZM398.289 21.7386L398.163 21.9116L408.513 29.4116L408.639 29.2386L408.764 29.0656L398.414 21.5656L398.289 21.7386ZM408.639 29.2386L408.513 29.4111C411.59 31.6582 413.15 35.332 413.15 40.4886H413.364H413.577C413.577 35.2451 411.987 31.4189 408.765 29.066L408.639 29.2386ZM413.364 40.4886H413.15C413.15 44.4492 412.086 47.594 409.98 49.946L410.139 50.0886L410.298 50.2311C412.491 47.7831 413.577 44.528 413.577 40.4886H413.364ZM410.139 50.0886L409.981 49.9443C407.874 52.2476 405.182 53.3999 401.889 53.3999V53.6136V53.8272C405.295 53.8272 408.104 52.6296 410.296 50.2328L410.139 50.0886ZM401.889 53.6136V53.3999C398.496 53.3999 395.756 52.1984 393.649 49.7976L393.489 49.9386L393.328 50.0795C395.521 52.5787 398.381 53.8272 401.889 53.8272V53.6136ZM393.489 49.9386L393.649 49.7976C391.54 47.3945 390.477 44.2482 390.477 40.3386H390.264H390.05C390.05 44.3289 391.137 47.5827 393.328 50.0795L393.489 49.9386ZM390.264 40.3386H390.477V37.9386H390.264H390.05V40.3386H390.264ZM390.264 37.9386V38.1522H394.164V37.9386V37.7249H390.264V37.9386ZM394.164 37.9386H393.95V40.3386H394.164H394.377V37.9386H394.164ZM394.164 40.3386H393.95C393.95 43.3223 394.658 45.7714 396.093 47.6675L396.264 47.5386L396.434 47.4096C395.069 45.6058 394.377 43.2548 394.377 40.3386H394.164ZM396.264 47.5386L396.097 47.6726C397.588 49.5227 399.524 50.4522 401.889 50.4522V50.2386V50.0249C399.654 50.0249 397.84 49.1545 396.43 47.4045L396.264 47.5386ZM401.889 50.2386V50.4522C404.153 50.4522 406.013 49.5736 407.454 47.8244L407.289 47.6886L407.124 47.5527C405.764 49.2035 404.025 50.0249 401.889 50.0249V50.2386ZM407.289 47.6886L407.456 47.8221C408.894 46.0237 409.602 43.6217 409.602 40.6386H409.389H409.175C409.175 43.5555 408.483 45.8535 407.122 47.5551L407.289 47.6886ZM409.389 40.6386H409.602C409.602 36.4997 408.389 33.5656 405.907 31.9108L405.789 32.0886L405.67 32.2664C407.988 33.8116 409.175 36.5774 409.175 40.6386H409.389ZM405.789 32.0886L405.915 31.9164L395.715 24.4164L395.589 24.5886L395.462 24.7607L405.662 32.2607L405.789 32.0886ZM395.589 24.5886L395.716 24.4167C392.534 22.0674 390.927 18.3905 390.927 13.3386H390.714H390.5C390.5 18.4867 392.143 22.3097 395.462 24.7605L395.589 24.5886ZM390.714 13.3386H390.927C390.927 9.32445 391.943 6.17968 393.95 3.87903L393.789 3.73857L393.628 3.59811C391.535 5.99746 390.5 9.25269 390.5 13.3386H390.714ZM393.789 3.73857L393.95 3.87903C395.958 1.57692 398.524 0.427243 401.664 0.427243V0.213572V-9.88096e-05C398.404 -9.88096e-05 395.719 1.20022 393.628 3.59811L393.789 3.73857ZM401.664 0.213572V0.427243C404.954 0.427243 407.593 1.62685 409.6 4.02569L409.764 3.88857L409.928 3.75146C407.835 1.25029 405.073 -9.88096e-05 401.664 -9.88096e-05V0.213572ZM409.764 3.88857L409.603 4.02928C411.661 6.38165 412.7 9.5025 412.7 13.4136H412.914H413.127C413.127 9.42464 412.066 6.1955 409.924 3.74787L409.764 3.88857ZM412.914 13.4136H412.7V15.5136H412.914H413.127V13.4136H412.914ZM412.914 15.5136V15.2999H408.939V15.5136V15.7272H412.914V15.5136ZM419.367 53.1636V53.3772H419.581V53.1636H419.367ZM415.617 53.1636H415.404V53.3772H415.617V53.1636ZM415.617 0.663571V0.4499H415.404V0.663571H415.617ZM418.992 0.663571L419.191 0.585616L419.138 0.4499H418.992V0.663571ZM435.567 42.9636L435.368 43.0415L435.781 42.9636H435.567ZM435.567 0.663571V0.4499H435.354V0.663571H435.567ZM439.317 0.663571H439.531V0.4499H439.317V0.663571ZM439.317 53.1636V53.3772H439.531V53.1636H439.317ZM435.942 53.1636L435.743 53.2416L435.797 53.3772H435.942V53.1636ZM419.367 10.9386L419.566 10.8605L419.154 10.9386H419.367ZM419.367 53.1636V52.9499H415.617V53.1636V53.3772H419.367V53.1636ZM415.617 53.1636H415.831V0.663571H415.617H415.404V53.1636H415.617ZM415.617 0.663571V0.877241H418.992V0.663571V0.4499H415.617V0.663571ZM418.992 0.663571L418.793 0.741525L435.368 43.0415L435.567 42.9636L435.766 42.8856L419.191 0.585616L418.992 0.663571ZM435.567 42.9636H435.781V0.663571H435.567H435.354V42.9636H435.567ZM435.567 0.663571V0.877241H439.317V0.663571V0.4499H435.567V0.663571ZM439.317 0.663571H439.104V53.1636H439.317H439.531V0.663571H439.317ZM439.317 53.1636V52.9499H435.942V53.1636V53.3772H439.317V53.1636ZM435.942 53.1636L436.141 53.0855L419.566 10.8605L419.367 10.9386L419.168 11.0166L435.743 53.2416L435.942 53.1636ZM419.367 10.9386H419.154V53.1636H419.367H419.581V10.9386H419.367ZM442.001 16.1136L441.789 16.0878L441.766 16.2737L441.947 16.3205L442.001 16.1136ZM443.876 0.663571V0.4499H443.686L443.664 0.637829L443.876 0.663571ZM448.076 0.663571L448.284 0.712184L448.345 0.4499H448.076V0.663571ZM444.326 16.7136L444.272 16.9205L444.484 16.9751L444.534 16.7622L444.326 16.7136ZM442.001 16.1136L442.213 16.1393L444.088 0.689313L443.876 0.663571L443.664 0.637829L441.789 16.0878L442.001 16.1136ZM443.876 0.663571V0.877241H448.076V0.663571V0.4499H443.876V0.663571ZM448.076 0.663571L447.868 0.614957L444.118 16.665L444.326 16.7136L444.534 16.7622L448.284 0.712184L448.076 0.663571ZM444.326 16.7136L444.379 16.5067L442.054 15.9067L442.001 16.1136L441.947 16.3205L444.272 16.9205L444.326 16.7136ZM472.532 0.663571H472.746V0.4499H472.532V0.663571ZM472.532 4.11357V4.32724H472.746V4.11357H472.532ZM462.032 4.11357V3.8999H461.819V4.11357H462.032ZM462.032 53.1636V53.3772H462.246V53.1636H462.032ZM458.132 53.1636H457.919V53.3772H458.132V53.1636ZM458.132 4.11357H458.346V3.8999H458.132V4.11357ZM447.632 4.11357H447.419V4.32724H447.632V4.11357ZM447.632 0.663571V0.4499H447.419V0.663571H447.632ZM472.532 0.663571H472.319V4.11357H472.532H472.746V0.663571H472.532ZM472.532 4.11357V3.8999H462.032V4.11357V4.32724H472.532V4.11357ZM462.032 4.11357H461.819V53.1636H462.032H462.246V4.11357H462.032ZM462.032 53.1636V52.9499H458.132V53.1636V53.3772H462.032V53.1636ZM458.132 53.1636H458.346V4.11357H458.132H457.919V53.1636H458.132ZM458.132 4.11357V3.8999H447.632V4.11357V4.32724H458.132V4.11357ZM447.632 4.11357H447.846V0.663571H447.632H447.419V4.11357H447.632ZM447.632 0.663571V0.877241H472.532V0.663571V0.4499H447.632V0.663571ZM496.522 15.5136H496.308V15.7272H496.522V15.5136ZM494.497 6.36357L494.324 6.48954L494.326 6.49178L494.497 6.36357ZM484.222 6.21357L484.052 6.08306L484.052 6.08378L484.222 6.21357ZM485.872 21.7386L485.997 21.5655L485.993 21.5625L485.872 21.7386ZM496.222 29.2386L496.348 29.066L496.347 29.0656L496.222 29.2386ZM497.722 50.0886L497.879 50.2328L497.881 50.2311L497.722 50.0886ZM481.072 49.9386L481.232 49.7976V49.7976L481.072 49.9386ZM477.847 37.9386V37.7249H477.633V37.9386H477.847ZM481.747 37.9386H481.96V37.7249H481.747V37.9386ZM483.847 47.5386L483.676 47.6676L483.68 47.6726L483.847 47.5386ZM494.872 47.6886L495.037 47.8244L495.039 47.8221L494.872 47.6886ZM493.372 32.0886L493.245 32.2609L493.253 32.2664L493.372 32.0886ZM483.172 24.5886L483.045 24.7605L483.045 24.7607L483.172 24.5886ZM481.372 3.73857L481.533 3.87903V3.87903L481.372 3.73857ZM497.347 3.88857L497.183 4.02572L497.186 4.02928L497.347 3.88857ZM500.497 15.5136V15.7272H500.71V15.5136H500.497ZM496.522 15.5136H496.735V13.4136H496.522H496.308V15.5136H496.522ZM496.522 13.4136H496.735C496.735 10.4808 496.052 8.08182 494.668 6.23537L494.497 6.36357L494.326 6.49178C495.641 8.24533 496.308 10.5464 496.308 13.4136H496.522ZM494.497 6.36357L494.669 6.23762C493.283 4.3383 491.497 3.3749 489.322 3.3749V3.58857V3.80224C491.347 3.80224 493.01 4.68884 494.324 6.48953L494.497 6.36357ZM489.322 3.58857V3.3749C487.2 3.3749 485.439 4.28535 484.052 6.08306L484.222 6.21357L484.391 6.34408C485.704 4.64179 487.344 3.80224 489.322 3.80224V3.58857ZM484.222 6.21357L484.052 6.08378C482.715 7.83231 482.058 10.1831 482.058 13.1136H482.272H482.485C482.485 10.244 483.129 7.99484 484.391 6.34337L484.222 6.21357ZM482.272 13.1136H482.058C482.058 17.253 483.271 20.21 485.751 21.9146L485.872 21.7386L485.993 21.5625C483.672 19.9672 482.485 17.1742 482.485 13.1136H482.272ZM485.872 21.7386L485.746 21.9116L496.096 29.4116L496.222 29.2386L496.347 29.0656L485.997 21.5656L485.872 21.7386ZM496.222 29.2386L496.096 29.4111C499.173 31.6582 500.733 35.332 500.733 40.4886H500.947H501.16C501.16 35.2451 499.57 31.4189 496.348 29.066L496.222 29.2386ZM500.947 40.4886H500.733C500.733 44.4492 499.669 47.594 497.563 49.946L497.722 50.0886L497.881 50.2311C500.074 47.7831 501.16 44.528 501.16 40.4886H500.947ZM497.722 50.0886L497.564 49.9443C495.457 52.2476 492.765 53.3999 489.472 53.3999V53.6136V53.8272C492.878 53.8272 495.687 52.6296 497.879 50.2328L497.722 50.0886ZM489.472 53.6136V53.3999C486.079 53.3999 483.339 52.1984 481.232 49.7976L481.072 49.9386L480.911 50.0795C483.104 52.5787 485.964 53.8272 489.472 53.8272V53.6136ZM481.072 49.9386L481.232 49.7976C479.123 47.3945 478.06 44.2482 478.06 40.3386H477.847H477.633C477.633 44.3289 478.72 47.5827 480.911 50.0795L481.072 49.9386ZM477.847 40.3386H478.06V37.9386H477.847H477.633V40.3386H477.847ZM477.847 37.9386V38.1522H481.747V37.9386V37.7249H477.847V37.9386ZM481.747 37.9386H481.533V40.3386H481.747H481.96V37.9386H481.747ZM481.747 40.3386H481.533C481.533 43.3223 482.241 45.7714 483.676 47.6675L483.847 47.5386L484.017 47.4096C482.652 45.6058 481.96 43.2548 481.96 40.3386H481.747ZM483.847 47.5386L483.68 47.6726C485.171 49.5227 487.107 50.4522 489.472 50.4522V50.2386V50.0249C487.237 50.0249 485.423 49.1545 484.013 47.4045L483.847 47.5386ZM489.472 50.2386V50.4522C491.736 50.4522 493.596 49.5736 495.037 47.8244L494.872 47.6886L494.707 47.5527C493.347 49.2035 491.608 50.0249 489.472 50.0249V50.2386ZM494.872 47.6886L495.039 47.8221C496.477 46.0237 497.185 43.6217 497.185 40.6386H496.972H496.758C496.758 43.5555 496.066 45.8535 494.705 47.5551L494.872 47.6886ZM496.972 40.6386H497.185C497.185 36.4997 495.972 33.5656 493.49 31.9108L493.372 32.0886L493.253 32.2664C495.571 33.8116 496.758 36.5774 496.758 40.6386H496.972ZM493.372 32.0886L493.498 31.9164L483.298 24.4164L483.172 24.5886L483.045 24.7607L493.245 32.2607L493.372 32.0886ZM483.172 24.5886L483.299 24.4167C480.117 22.0674 478.51 18.3905 478.51 13.3386H478.297H478.083C478.083 18.4867 479.726 22.3097 483.045 24.7605L483.172 24.5886ZM478.297 13.3386H478.51C478.51 9.32445 479.526 6.17968 481.533 3.87903L481.372 3.73857L481.211 3.59811C479.118 5.99746 478.083 9.25269 478.083 13.3386H478.297ZM481.372 3.73857L481.533 3.87903C483.541 1.57692 486.107 0.427243 489.247 0.427243V0.213572V-9.88096e-05C485.987 -9.88096e-05 483.302 1.20022 481.211 3.59811L481.372 3.73857ZM489.247 0.213572V0.427243C492.537 0.427243 495.176 1.62685 497.183 4.02569L497.347 3.88857L497.511 3.75146C495.418 1.25029 492.656 -9.88096e-05 489.247 -9.88096e-05V0.213572ZM497.347 3.88857L497.186 4.02928C499.244 6.38165 500.283 9.5025 500.283 13.4136H500.497H500.71C500.71 9.42464 499.649 6.1955 497.507 3.74787L497.347 3.88857ZM500.497 13.4136H500.283V15.5136H500.497H500.71V13.4136H500.497ZM500.497 15.5136V15.2999H496.522V15.5136V15.7272H500.497V15.5136ZM507.1 53.1636V53.3772H507.314V53.1636H507.1ZM503.2 53.1636H502.987V53.3772H503.2V53.1636ZM503.2 0.663571V0.4499H502.987V0.663571H503.2ZM507.1 0.663571H507.314V0.4499H507.1V0.663571ZM507.1 25.3386H506.887V25.5522H507.1V25.3386ZM523.075 25.3386V25.5522H523.289V25.3386H523.075ZM523.075 0.663571V0.4499H522.862V0.663571H523.075ZM526.975 0.663571H527.189V0.4499H526.975V0.663571ZM526.975 53.1636V53.3772H527.189V53.1636H526.975ZM523.075 53.1636H522.862V53.3772H523.075V53.1636ZM523.075 28.7886H523.289V28.5749H523.075V28.7886ZM507.1 28.7886V28.5749H506.887V28.7886H507.1ZM507.1 53.1636V52.9499H503.2V53.1636V53.3772H507.1V53.1636ZM503.2 53.1636H503.414V0.663571H503.2H502.987V53.1636H503.2ZM503.2 0.663571V0.877241H507.1V0.663571V0.4499H503.2V0.663571ZM507.1 0.663571H506.887V25.3386H507.1H507.314V0.663571H507.1ZM507.1 25.3386V25.5522H523.075V25.3386V25.1249H507.1V25.3386ZM523.075 25.3386H523.289V0.663571H523.075H522.862V25.3386H523.075ZM523.075 0.663571V0.877241H526.975V0.663571V0.4499H523.075V0.663571ZM526.975 0.663571H526.762V53.1636H526.975H527.189V0.663571H526.975ZM526.975 53.1636V52.9499H523.075V53.1636V53.3772H526.975V53.1636ZM523.075 53.1636H523.289V28.7886H523.075H522.862V53.1636H523.075ZM523.075 28.7886V28.5749H507.1V28.7886V29.0022H523.075V28.7886ZM507.1 28.7886H506.887V53.1636H507.1H507.314V28.7886H507.1ZM550.509 49.8636L550.35 49.7206L550.348 49.7224L550.509 49.8636ZM533.484 49.8636L533.323 50.0047L533.325 50.0065L533.484 49.8636ZM533.484 3.96357L533.325 3.82063L533.323 3.82242L533.484 3.96357ZM550.509 3.96357L550.348 4.10474L550.35 4.10651L550.509 3.96357ZM547.809 6.28857L547.645 6.42536V6.42536L547.809 6.28857ZM536.259 6.28857L536.095 6.15177L536.092 6.15453L536.259 6.28857ZM536.259 47.5386L536.092 47.6726L536.095 47.6754L536.259 47.5386ZM547.809 47.5386L547.973 47.6754V47.6754L547.809 47.5386ZM553.884 40.1136H553.67C553.67 44.0713 552.558 47.2671 550.35 49.7206L550.509 49.8636L550.668 50.0065C552.959 47.4601 554.097 44.1558 554.097 40.1136H553.884ZM550.509 49.8636L550.348 49.7224C548.191 52.1745 545.425 53.3999 542.034 53.3999V53.6136V53.8272C545.543 53.8272 548.427 52.5527 550.669 50.0047L550.509 49.8636ZM542.034 53.6136V53.3999C538.643 53.3999 535.851 52.1743 533.643 49.7206L533.484 49.8636L533.325 50.0065C535.617 52.5528 538.525 53.8272 542.034 53.8272V53.6136ZM533.484 49.8636L533.644 49.7224C531.485 47.2689 530.397 44.0726 530.397 40.1136H530.184H529.97C529.97 44.1546 531.082 47.4582 533.323 50.0047L533.484 49.8636ZM530.184 40.1136H530.397V13.7136H530.184H529.97V40.1136H530.184ZM530.184 13.7136H530.397C530.397 9.75456 531.485 6.5582 533.644 4.10473L533.484 3.96357L533.323 3.82242C531.082 6.36894 529.97 9.67258 529.97 13.7136H530.184ZM533.484 3.96357L533.643 4.10651C535.851 1.65284 538.643 0.427243 542.034 0.427243V0.213572V-9.88096e-05C538.525 -9.88096e-05 535.617 1.27431 533.325 3.82063L533.484 3.96357ZM542.034 0.213572V0.427243C545.425 0.427243 548.191 1.65268 550.348 4.10473L550.509 3.96357L550.669 3.82242C548.427 1.27446 545.543 -9.88096e-05 542.034 -9.88096e-05V0.213572ZM550.509 3.96357L550.35 4.10651C552.558 6.56008 553.67 9.7558 553.67 13.7136H553.884H554.097C554.097 9.67134 552.959 6.36707 550.668 3.82063L550.509 3.96357ZM553.884 13.7136H553.67V40.1136H553.884H554.097V13.7136H553.884ZM550.059 40.4886H550.272V13.3386H550.059H549.845V40.4886H550.059ZM550.059 13.3386H550.272C550.272 10.4008 549.512 7.99865 547.973 6.15179L547.809 6.28857L547.645 6.42536C549.106 8.17849 549.845 10.4763 549.845 13.3386H550.059ZM547.809 6.28857L547.973 6.15179C546.432 4.3029 544.447 3.3749 542.034 3.3749V3.58857V3.80224C544.321 3.80224 546.185 4.67424 547.645 6.42536L547.809 6.28857ZM542.034 3.58857V3.3749C539.621 3.3749 537.635 4.3029 536.095 6.15179L536.259 6.28857L536.423 6.42536C537.882 4.67424 539.747 3.80224 542.034 3.80224V3.58857ZM536.259 6.28857L536.092 6.15453C534.605 8.00134 533.87 10.4025 533.87 13.3386H534.084H534.297C534.297 10.4746 535.013 8.1758 536.425 6.42262L536.259 6.28857ZM534.084 13.3386H533.87V40.4886H534.084H534.297V13.3386H534.084ZM534.084 40.4886H533.87C533.87 43.4246 534.605 45.8258 536.092 47.6726L536.259 47.5386L536.425 47.4045C535.013 45.6513 534.297 43.3525 534.297 40.4886H534.084ZM536.259 47.5386L536.095 47.6754C537.635 49.5242 539.621 50.4522 542.034 50.4522V50.2386V50.0249C539.747 50.0249 537.882 49.1529 536.423 47.4018L536.259 47.5386ZM542.034 50.2386V50.4522C544.447 50.4522 546.432 49.5242 547.973 47.6754L547.809 47.5386L547.645 47.4018C546.185 49.1529 544.321 50.0249 542.034 50.0249V50.2386ZM547.809 47.5386L547.973 47.6754C549.512 45.8285 550.272 43.4263 550.272 40.4886H550.059H549.845C549.845 43.3508 549.106 45.6487 547.645 47.4018L547.809 47.5386ZM576.688 0.663571V0.4499H576.475V0.663571H576.688ZM580.589 0.663571H580.802V0.4499H580.589V0.663571ZM577.214 49.8636L577.055 49.7206L577.053 49.7224L577.214 49.8636ZM560.113 49.8636L559.953 50.0047L559.955 50.0065L560.113 49.8636ZM556.813 0.663571V0.4499H556.6V0.663571H556.813ZM560.714 0.663571H560.927V0.4499H560.714V0.663571ZM562.888 47.5386L562.722 47.6726L562.724 47.6754L562.888 47.5386ZM574.438 47.5386L574.603 47.6754V47.6754L574.438 47.5386ZM576.688 0.663571V0.877241H580.589V0.663571V0.4499H576.688V0.663571ZM580.589 0.663571H580.375V40.1136H580.589H580.802V0.663571H580.589ZM580.589 40.1136H580.375C580.375 44.0713 579.263 47.2671 577.055 49.7206L577.214 49.8636L577.372 50.0065C579.664 47.4601 580.802 44.1558 580.802 40.1136H580.589ZM577.214 49.8636L577.053 49.7224C574.896 52.1737 572.106 53.3999 568.663 53.3999V53.6136V53.8272C572.221 53.8272 575.131 52.5534 577.374 50.0047L577.214 49.8636ZM568.663 53.6136V53.3999C565.272 53.3999 562.481 52.1743 560.272 49.7206L560.113 49.8636L559.955 50.0065C562.246 52.5528 565.155 53.8272 568.663 53.8272V53.6136ZM560.113 49.8636L560.274 49.7224C558.115 47.2689 557.027 44.0726 557.027 40.1136H556.813H556.6C556.6 44.1546 557.712 47.4582 559.953 50.0047L560.113 49.8636ZM556.813 40.1136H557.027V0.663571H556.813H556.6V40.1136H556.813ZM556.813 0.663571V0.877241H560.714V0.663571V0.4499H556.813V0.663571ZM560.714 0.663571H560.5V40.5636H560.714H560.927V0.663571H560.714ZM560.714 40.5636H560.5C560.5 43.4506 561.235 45.8264 562.722 47.6726L562.888 47.5386L563.055 47.4045C561.642 45.6507 560.927 43.3765 560.927 40.5636H560.714ZM562.888 47.5386L562.724 47.6754C564.265 49.5242 566.25 50.4522 568.663 50.4522V50.2386V50.0249C566.377 50.0249 564.512 49.1529 563.053 47.4018L562.888 47.5386ZM568.663 50.2386V50.4522C571.077 50.4522 573.062 49.5242 574.603 47.6754L574.438 47.5386L574.274 47.4018C572.815 49.1529 570.95 50.0249 568.663 50.0249V50.2386ZM574.438 47.5386L574.603 47.6754C576.142 45.8285 576.902 43.4263 576.902 40.4886H576.688H576.475C576.475 43.3508 575.735 45.6487 574.274 47.4018L574.438 47.5386ZM576.688 40.4886H576.902V0.663571H576.688H576.475V40.4886H576.688ZM605.713 0.663571H605.927V0.4499H605.713V0.663571ZM605.713 4.11357V4.32724H605.927V4.11357H605.713ZM595.213 4.11357V3.8999H594.999V4.11357H595.213ZM595.213 53.1636V53.3772H595.427V53.1636H595.213ZM591.313 53.1636H591.099V53.3772H591.313V53.1636ZM591.313 4.11357H591.527V3.8999H591.313V4.11357ZM580.813 4.11357H580.599V4.32724H580.813V4.11357ZM580.813 0.663571V0.4499H580.599V0.663571H580.813ZM605.713 0.663571H605.499V4.11357H605.713H605.927V0.663571H605.713ZM605.713 4.11357V3.8999H595.213V4.11357V4.32724H605.713V4.11357ZM595.213 4.11357H594.999V53.1636H595.213H595.427V4.11357H595.213ZM595.213 53.1636V52.9499H591.313V53.1636V53.3772H595.213V53.1636ZM591.313 53.1636H591.527V4.11357H591.313H591.099V53.1636H591.313ZM591.313 4.11357V3.8999H580.813V4.11357V4.32724H591.313V4.11357ZM580.813 4.11357H581.027V0.663571H580.813H580.599V4.11357H580.813ZM580.813 0.663571V0.877241H605.713V0.663571V0.4499H580.813V0.663571ZM611.852 30.9636H611.639V31.1772H611.852V30.9636ZM611.852 27.7386V27.5249H611.639V27.7386H611.852ZM647.627 27.7386H647.841V27.5249H647.627V27.7386ZM647.627 30.9636V31.1772H647.841V30.9636H647.627ZM611.852 30.9636H612.066V27.7386H611.852H611.639V30.9636H611.852ZM611.852 27.7386V27.9522H647.627V27.7386V27.5249H611.852V27.7386ZM647.627 27.7386H647.414V30.9636H647.627H647.841V27.7386H647.627ZM647.627 30.9636V30.7499H611.852V30.9636V31.1772H647.627V30.9636ZM656.856 53.1636H656.643V53.3772H656.856V53.1636ZM656.856 0.663571V0.4499H656.643V0.663571H656.856ZM660.756 0.663571H660.97V0.4499H660.756V0.663571ZM660.756 53.1636V53.3772H660.97V53.1636H660.756ZM656.856 53.1636H657.07V0.663571H656.856H656.643V53.1636H656.856ZM656.856 0.663571V0.877241H660.756V0.663571V0.4499H656.856V0.663571ZM660.756 0.663571H660.543V53.1636H660.756H660.97V0.663571H660.756ZM660.756 53.1636V52.9499H656.856V53.1636V53.3772H660.756V53.1636ZM686.265 0.663571H686.478V0.4499H686.265V0.663571ZM686.265 4.11357V4.32724H686.478V4.11357H686.265ZM675.765 4.11357V3.8999H675.551V4.11357H675.765ZM675.765 53.1636V53.3772H675.978V53.1636H675.765ZM671.865 53.1636H671.651V53.3772H671.865V53.1636ZM671.865 4.11357H672.078V3.8999H671.865V4.11357ZM661.365 4.11357H661.151V4.32724H661.365V4.11357ZM661.365 0.663571V0.4499H661.151V0.663571H661.365ZM686.265 0.663571H686.051V4.11357H686.265H686.478V0.663571H686.265ZM686.265 4.11357V3.8999H675.765V4.11357V4.32724H686.265V4.11357ZM675.765 4.11357H675.551V53.1636H675.765H675.978V4.11357H675.765ZM675.765 53.1636V52.9499H671.865V53.1636V53.3772H675.765V53.1636ZM671.865 53.1636H672.078V4.11357H671.865H671.651V53.1636H671.865ZM671.865 4.11357V3.8999H661.365V4.11357V4.32724H671.865V4.11357ZM661.365 4.11357H661.578V0.663571H661.365H661.151V4.11357H661.365ZM661.365 0.663571V0.877241H686.265V0.663571V0.4499H661.365V0.663571ZM693.754 53.1636V53.3772H693.926L693.963 53.2096L693.754 53.1636ZM689.779 53.1636L689.571 53.1154L689.51 53.3772H689.779V53.1636ZM701.929 0.663571V0.4499H701.759L701.721 0.615394L701.929 0.663571ZM706.054 0.663571L706.262 0.615394L706.224 0.4499H706.054V0.663571ZM718.204 53.1636V53.3772H718.473L718.412 53.1154L718.204 53.1636ZM714.229 53.1636L714.021 53.2107L714.058 53.3772H714.229V53.1636ZM711.229 39.8886L711.438 39.8415L711.4 39.6749H711.229V39.8886ZM696.679 39.8886V39.6749H696.507L696.47 39.8426L696.679 39.8886ZM703.954 6.81357L704.163 6.76761H703.745L703.954 6.81357ZM697.429 36.4386L697.22 36.3926L697.163 36.6522H697.429V36.4386ZM710.479 36.4386V36.6522H710.745L710.688 36.3926L710.479 36.4386ZM693.754 53.1636V52.9499H689.779V53.1636V53.3772H693.754V53.1636ZM689.779 53.1636L689.987 53.2118L702.137 0.711747L701.929 0.663571L701.721 0.615394L689.571 53.1154L689.779 53.1636ZM701.929 0.663571V0.877241H706.054V0.663571V0.4499H701.929V0.663571ZM706.054 0.663571L705.846 0.711747L717.996 53.2118L718.204 53.1636L718.412 53.1154L706.262 0.615394L706.054 0.663571ZM718.204 53.1636V52.9499H714.229V53.1636V53.3772H718.204V53.1636ZM714.229 53.1636L714.438 53.1165L711.438 39.8415L711.229 39.8886L711.021 39.9357L714.021 53.2107L714.229 53.1636ZM711.229 39.8886V39.6749H696.679V39.8886V40.1022H711.229V39.8886ZM696.679 39.8886L696.47 39.8426L693.545 53.1176L693.754 53.1636L693.963 53.2096L696.888 39.9346L696.679 39.8886ZM703.954 6.81357L703.745 6.76761L697.22 36.3926L697.429 36.4386L697.638 36.4845L704.163 6.85953L703.954 6.81357ZM697.429 36.4386V36.6522H710.479V36.4386V36.2249H697.429V36.4386ZM710.479 36.4386L710.688 36.3926L704.163 6.76761L703.954 6.81357L703.745 6.85953L710.27 36.4845L710.479 36.4386ZM736.797 37.4136V37.1999H736.583V37.4136H736.797ZM740.622 37.4136H740.836V37.1999H740.622V37.4136ZM737.247 49.8636L737.088 49.7206L737.087 49.7224L737.247 49.8636ZM720.222 49.8636L720.062 50.0047L720.063 50.0065L720.222 49.8636ZM720.222 3.96357L720.063 3.82063L720.062 3.82242L720.222 3.96357ZM737.247 3.96357L737.087 4.10474L737.088 4.10651L737.247 3.96357ZM740.622 16.4886V16.7022H740.836V16.4886H740.622ZM736.797 16.4886H736.583V16.7022H736.797V16.4886ZM734.547 6.28857L734.383 6.42536V6.42536L734.547 6.28857ZM722.997 6.28857L722.833 6.15177L722.831 6.15453L722.997 6.28857ZM722.997 47.5386L722.831 47.6726L722.833 47.6754L722.997 47.5386ZM734.547 47.5386L734.711 47.6754V47.6754L734.547 47.5386ZM736.797 37.4136V37.6272H740.622V37.4136V37.1999H736.797V37.4136ZM740.622 37.4136H740.408V40.1136H740.622H740.836V37.4136H740.622ZM740.622 40.1136H740.408C740.408 44.0713 739.296 47.2671 737.088 49.7206L737.247 49.8636L737.406 50.0065C739.698 47.4601 740.836 44.1558 740.836 40.1136H740.622ZM737.247 49.8636L737.087 49.7224C734.929 52.1745 732.163 53.3999 728.772 53.3999V53.6136V53.8272C732.281 53.8272 735.165 52.5527 737.407 50.0047L737.247 49.8636ZM728.772 53.6136V53.3999C725.381 53.3999 722.589 52.1743 720.381 49.7206L720.222 49.8636L720.063 50.0065C722.355 52.5528 725.263 53.8272 728.772 53.8272V53.6136ZM720.222 49.8636L720.382 49.7224C718.223 47.2689 717.136 44.0726 717.136 40.1136H716.922H716.708C716.708 44.1546 717.821 47.4582 720.062 50.0047L720.222 49.8636ZM716.922 40.1136H717.136V13.7136H716.922H716.708V40.1136H716.922ZM716.922 13.7136H717.136C717.136 9.75456 718.223 6.5582 720.382 4.10473L720.222 3.96357L720.062 3.82242C717.821 6.36894 716.708 9.67258 716.708 13.7136H716.922ZM720.222 3.96357L720.381 4.10651C722.589 1.65284 725.381 0.427243 728.772 0.427243V0.213572V-9.88096e-05C725.263 -9.88096e-05 722.355 1.27431 720.063 3.82063L720.222 3.96357ZM728.772 0.213572V0.427243C732.163 0.427243 734.929 1.65268 737.087 4.10473L737.247 3.96357L737.407 3.82242C735.165 1.27446 732.281 -9.88096e-05 728.772 -9.88096e-05V0.213572ZM737.247 3.96357L737.088 4.10651C739.296 6.56008 740.408 9.7558 740.408 13.7136H740.622H740.836C740.836 9.67134 739.698 6.36707 737.406 3.82063L737.247 3.96357ZM740.622 13.7136H740.408V16.4886H740.622H740.836V13.7136H740.622ZM740.622 16.4886V16.2749H736.797V16.4886V16.7022H740.622V16.4886ZM736.797 16.4886H737.011V13.3386H736.797H736.583V16.4886H736.797ZM736.797 13.3386H737.011C737.011 10.4008 736.25 7.99865 734.711 6.15179L734.547 6.28857L734.383 6.42536C735.844 8.17849 736.583 10.4763 736.583 13.3386H736.797ZM734.547 6.28857L734.711 6.15179C733.17 4.3029 731.185 3.3749 728.772 3.3749V3.58857V3.80224C731.059 3.80224 732.924 4.67424 734.383 6.42536L734.547 6.28857ZM728.772 3.58857V3.3749C726.359 3.3749 724.374 4.3029 722.833 6.15179L722.997 6.28857L723.161 6.42536C724.62 4.67424 726.485 3.80224 728.772 3.80224V3.58857ZM722.997 6.28857L722.831 6.15453C721.343 8.00134 720.608 10.4025 720.608 13.3386H720.822H721.036C721.036 10.4746 721.751 8.1758 723.163 6.42262L722.997 6.28857ZM720.822 13.3386H720.608V40.5636H720.822H721.036V13.3386H720.822ZM720.822 40.5636H720.608C720.608 43.4506 721.343 45.8264 722.831 47.6726L722.997 47.5386L723.163 47.4045C721.751 45.6507 721.036 43.3765 721.036 40.5636H720.822ZM722.997 47.5386L722.833 47.6754C724.374 49.5242 726.359 50.4522 728.772 50.4522V50.2386V50.0249C726.485 50.0249 724.62 49.1529 723.161 47.4018L722.997 47.5386ZM728.772 50.2386V50.4522C731.185 50.4522 733.17 49.5242 734.711 47.6754L734.547 47.5386L734.383 47.4018C732.924 49.1529 731.059 50.0249 728.772 50.0249V50.2386ZM734.547 47.5386L734.711 47.6754C736.25 45.8285 737.011 43.4263 737.011 40.4886H736.797H736.583C736.583 43.3508 735.844 45.6487 734.383 47.4018L734.547 47.5386ZM736.797 40.4886H737.011V37.4136H736.797H736.583V40.4886H736.797ZM765.091 0.663571H765.305V0.4499H765.091V0.663571ZM765.091 4.11357V4.32724H765.305V4.11357H765.091ZM754.591 4.11357V3.8999H754.377V4.11357H754.591ZM754.591 53.1636V53.3772H754.805V53.1636H754.591ZM750.691 53.1636H750.477V53.3772H750.691V53.1636ZM750.691 4.11357H750.904V3.8999H750.691V4.11357ZM740.191 4.11357H739.977V4.32724H740.191V4.11357ZM740.191 0.663571V0.4499H739.977V0.663571H740.191ZM765.091 0.663571H764.877V4.11357H765.091H765.305V0.663571H765.091ZM765.091 4.11357V3.8999H754.591V4.11357V4.32724H765.091V4.11357ZM754.591 4.11357H754.377V53.1636H754.591H754.805V4.11357H754.591ZM754.591 53.1636V52.9499H750.691V53.1636V53.3772H754.591V53.1636ZM750.691 53.1636H750.904V4.11357H750.691H750.477V53.1636H750.691ZM750.691 4.11357V3.8999H740.191V4.11357V4.32724H750.691V4.11357ZM740.191 4.11357H740.404V0.663571H740.191H739.977V4.11357H740.191ZM740.191 0.663571V0.877241H765.091V0.663571V0.4499H740.191V0.663571ZM781.788 15.5136H781.575V15.7272H781.788V15.5136ZM779.763 6.36357L779.591 6.48954L779.592 6.49178L779.763 6.36357ZM769.488 6.21357L769.319 6.08306L769.319 6.08378L769.488 6.21357ZM771.138 21.7386L771.264 21.5655L771.259 21.5625L771.138 21.7386ZM781.488 29.2386L781.614 29.066L781.614 29.0656L781.488 29.2386ZM782.988 50.0886L783.146 50.2328L783.147 50.2311L782.988 50.0886ZM766.338 49.9386L766.499 49.7976V49.7976L766.338 49.9386ZM763.113 37.9386V37.7249H762.9V37.9386H763.113ZM767.013 37.9386H767.227V37.7249H767.013V37.9386ZM769.113 47.5386L768.943 47.6676L768.947 47.6726L769.113 47.5386ZM780.138 47.6886L780.303 47.8244L780.305 47.8221L780.138 47.6886ZM778.638 32.0886L778.512 32.2609L778.52 32.2664L778.638 32.0886ZM768.438 24.5886L768.311 24.7605L768.312 24.7607L768.438 24.5886ZM766.638 3.73857L766.799 3.87903V3.87903L766.638 3.73857ZM782.613 3.88857L782.449 4.02572L782.452 4.02928L782.613 3.88857ZM785.763 15.5136V15.7272H785.977V15.5136H785.763ZM781.788 15.5136H782.002V13.4136H781.788H781.575V15.5136H781.788ZM781.788 13.4136H782.002C782.002 10.4808 781.319 8.08182 779.934 6.23537L779.763 6.36357L779.592 6.49178C780.908 8.24533 781.575 10.5464 781.575 13.4136H781.788ZM779.763 6.36357L779.936 6.23762C778.55 4.3383 776.763 3.3749 774.588 3.3749V3.58857V3.80224C776.613 3.80224 778.277 4.68884 779.591 6.48953L779.763 6.36357ZM774.588 3.58857V3.3749C772.466 3.3749 770.706 4.28535 769.319 6.08306L769.488 6.21357L769.657 6.34408C770.971 4.64179 772.61 3.80224 774.588 3.80224V3.58857ZM769.488 6.21357L769.319 6.08378C767.981 7.83231 767.325 10.1831 767.325 13.1136H767.538H767.752C767.752 10.244 768.395 7.99484 769.658 6.34337L769.488 6.21357ZM767.538 13.1136H767.325C767.325 17.253 768.538 20.21 771.017 21.9146L771.138 21.7386L771.259 21.5625C768.939 19.9672 767.752 17.1742 767.752 13.1136H767.538ZM771.138 21.7386L771.013 21.9116L781.363 29.4116L781.488 29.2386L781.614 29.0656L771.264 21.5656L771.138 21.7386ZM781.488 29.2386L781.362 29.4111C784.44 31.6582 786 35.332 786 40.4886H786.213H786.427C786.427 35.2451 784.837 31.4189 781.614 29.066L781.488 29.2386ZM786.213 40.4886H786C786 44.4492 784.936 47.594 782.829 49.946L782.988 50.0886L783.147 50.2311C785.34 47.7831 786.427 44.528 786.427 40.4886H786.213ZM782.988 50.0886L782.831 49.9443C780.723 52.2476 778.032 53.3999 774.738 53.3999V53.6136V53.8272C778.145 53.8272 780.953 52.6296 783.146 50.2328L782.988 50.0886ZM774.738 53.6136V53.3999C771.346 53.3999 768.606 52.1984 766.499 49.7976L766.338 49.9386L766.178 50.0795C768.371 52.5787 771.231 53.8272 774.738 53.8272V53.6136ZM766.338 49.9386L766.499 49.7976C764.39 47.3945 763.327 44.2482 763.327 40.3386H763.113H762.9C762.9 44.3289 763.987 47.5827 766.178 50.0795L766.338 49.9386ZM763.113 40.3386H763.327V37.9386H763.113H762.9V40.3386H763.113ZM763.113 37.9386V38.1522H767.013V37.9386V37.7249H763.113V37.9386ZM767.013 37.9386H766.8V40.3386H767.013H767.227V37.9386H767.013ZM767.013 40.3386H766.8C766.8 43.3223 767.508 45.7714 768.943 47.6675L769.113 47.5386L769.284 47.4096C767.919 45.6058 767.227 43.2548 767.227 40.3386H767.013ZM769.113 47.5386L768.947 47.6726C770.437 49.5227 772.373 50.4522 774.738 50.4522V50.2386V50.0249C772.503 50.0249 770.689 49.1545 769.28 47.4045L769.113 47.5386ZM774.738 50.2386V50.4522C777.002 50.4522 778.863 49.5736 780.303 47.8244L780.138 47.6886L779.973 47.5527C778.614 49.2035 776.874 50.0249 774.738 50.0249V50.2386ZM780.138 47.6886L780.305 47.8221C781.744 46.0237 782.452 43.6217 782.452 40.6386H782.238H782.025C782.025 43.5555 781.333 45.8535 779.971 47.5551L780.138 47.6886ZM782.238 40.6386H782.452C782.452 36.4997 781.239 33.5656 778.757 31.9108L778.638 32.0886L778.52 32.2664C780.838 33.8116 782.025 36.5774 782.025 40.6386H782.238ZM778.638 32.0886L778.765 31.9164L768.565 24.4164L768.438 24.5886L768.312 24.7607L778.512 32.2607L778.638 32.0886ZM768.438 24.5886L768.565 24.4167C765.384 22.0674 763.777 18.3905 763.777 13.3386H763.563H763.35C763.35 18.4867 764.993 22.3097 768.311 24.7605L768.438 24.5886ZM763.563 13.3386H763.777C763.777 9.32445 764.792 6.17968 766.799 3.87903L766.638 3.73857L766.477 3.59811C764.384 5.99746 763.35 9.25269 763.35 13.3386H763.563ZM766.638 3.73857L766.799 3.87903C768.807 1.57692 771.373 0.427243 774.513 0.427243V0.213572V-9.88096e-05C771.253 -9.88096e-05 768.569 1.20022 766.477 3.59811L766.638 3.73857ZM774.513 0.213572V0.427243C777.804 0.427243 780.442 1.62685 782.449 4.02569L782.613 3.88857L782.777 3.75146C780.684 1.25029 777.923 -9.88096e-05 774.513 -9.88096e-05V0.213572ZM782.613 3.88857L782.452 4.02928C784.511 6.38165 785.55 9.5025 785.55 13.4136H785.763H785.977C785.977 9.42464 784.916 6.1955 782.774 3.74787L782.613 3.88857ZM785.763 13.4136H785.55V15.5136H785.763H785.977V13.4136H785.763ZM785.763 15.5136V15.2999H781.788V15.5136V15.7272H785.763V15.5136Z" fill="black" mask="url(#path-1-outside-1_1147_78)"/>
</svg>
