<svg width="32" height="33" viewBox="0 0 32 33" fill="none" xmlns="http://www.w3.org/2000/svg">
<mask id="mask0_4280_293" style="mask-type:alpha" maskUnits="userSpaceOnUse" x="0" y="0" width="32" height="33">
<rect y="32.7999" width="32.7999" height="31.0365" rx="10" transform="rotate(-90 0 32.7999)" fill="white"/>
</mask>
<g mask="url(#mask0_4280_293)">
<path d="M15.7643 19.4545C19.4326 19.3872 22.3539 16.2394 22.2559 12.4485C22.164 8.91486 19.2367 6.02426 15.4274 5.95689C11.0915 5.87728 8.58062 9.40479 8.62961 12.5404C8.69698 16.3802 11.955 19.528 15.7581 19.4545H15.7643Z" fill="#191919"/>
<path d="M15.6413 19.7611C13.7673 19.7611 11.9851 19.0262 10.595 17.6911C9.16803 16.3132 8.36576 14.4821 8.32902 12.5407C8.2984 10.7647 9.05779 8.92747 10.3561 7.62915C11.287 6.69828 12.9038 5.5898 15.433 5.64492C19.3341 5.71229 22.4636 8.69475 22.5616 12.4366C22.6106 14.3902 21.9063 16.2397 20.5773 17.6299C19.2974 18.965 17.5949 19.7244 15.776 19.755C15.7331 19.755 15.6903 19.755 15.6474 19.755L15.6413 19.7611ZM15.2922 6.25734C13.0691 6.25734 11.6238 7.23108 10.7909 8.05784C9.60284 9.2398 8.91694 10.9117 8.94143 12.5285C8.97205 14.3045 9.70695 15.9825 11.0175 17.2441C12.3158 18.4995 13.9939 19.1793 15.7576 19.1426H15.7637C17.4111 19.112 18.9667 18.426 20.1303 17.2073C21.349 15.9335 21.992 14.2432 21.9492 12.4489C21.8634 9.03771 18.9973 6.31858 15.4208 6.25734C15.3779 6.25734 15.3289 6.25734 15.2861 6.25734H15.2922Z" fill="#191919"/>
<path d="M42.8953 49.3891L26.9357 24.3658C26.4397 23.7472 25.7966 23.2267 25.0311 23.092C20.3216 22.2774 10.6026 22.4367 5.85637 23.0613C5.04186 23.1655 4.33758 23.7044 3.8109 24.3658L-14.2554 50.3384C-15.5415 51.9429 -15.174 54.2027 -13.4409 55.3908C-12.7427 55.8685 -11.9282 56.1012 -11.1198 56.1012C-9.92559 56.1012 -8.74363 55.5929 -7.97811 54.6375L5.06023 35.1443C5.28683 34.8014 5.85637 34.9545 5.85637 35.3525L5.83187 79.7772C5.83187 82.0493 7.73037 84.0335 10.1862 84.1009C12.7338 84.1744 14.816 82.2881 14.816 79.9487V55.1948C14.816 54.8274 15.1406 54.5273 15.5387 54.5273C15.9184 54.5273 16.2307 54.7967 16.2613 55.1458L21.6322 80.2549C21.8098 82.4351 24.2533 84.5051 26.7765 84.1009C29.4405 83.6722 30.7756 81.9268 30.5919 79.6425L25.025 52.096V35.6894C25.025 35.279 25.619 35.1382 25.8334 35.4995L36.6058 53.6883C37.3713 54.6436 38.5533 55.1519 39.7475 55.1519C40.5559 55.1519 41.3704 54.9192 42.0685 54.4415C43.8017 53.2535 44.1691 50.9936 42.8831 49.3891H42.8953Z" fill="#191919"/>
<path d="M26.1431 84.4624C25.0897 84.4624 24.018 84.0827 23.1239 83.3845C22.0766 82.5639 21.4214 81.4309 21.3295 80.2857L15.9647 55.2134C15.9464 54.9868 15.7626 54.8398 15.5422 54.8398C15.3094 54.8398 15.1257 55.0052 15.1257 55.2011V79.955C15.1257 81.1063 14.6542 82.2026 13.7968 83.0354C12.8598 83.9479 11.5247 84.444 10.1774 84.4134C7.61138 84.3399 5.52304 82.2638 5.52304 79.7835L5.54754 35.3588C5.54754 35.3099 5.50467 35.2854 5.46792 35.2731C5.44955 35.2731 5.35769 35.2425 5.30869 35.3221L-7.72964 54.8153C-8.55028 55.838 -9.78124 56.4137 -11.1286 56.4137C-12.0349 56.4137 -12.8923 56.1504 -13.6211 55.6543C-14.5458 55.0235 -15.1399 54.0927 -15.2991 53.0332C-15.4522 52.0104 -15.1705 50.9877 -14.5091 50.1548L3.54494 24.1945C4.0165 23.6066 4.77589 22.8962 5.80475 22.7614C10.7225 22.1184 20.4109 21.9898 25.0714 22.7982C25.8185 22.9268 26.5412 23.4045 27.1597 24.1822L43.1254 49.2178C43.7807 50.0446 44.0624 51.0612 43.9093 52.0839C43.75 53.1373 43.156 54.0682 42.2313 54.6989C41.5025 55.195 40.639 55.4583 39.7387 55.4583C38.3914 55.4583 37.1605 54.8827 36.3521 53.8783L25.5613 35.6589C25.5123 35.5793 25.4204 35.6038 25.4021 35.6099C25.3653 35.6222 25.3225 35.6467 25.3225 35.6957V52.1023L30.8832 79.5876C31.0914 82.1413 29.5297 83.9724 26.8167 84.4134C26.5901 84.4501 26.3636 84.4685 26.1308 84.4685L26.1431 84.4624ZM15.5422 54.2274C16.075 54.2274 16.5282 54.6255 16.571 55.1276L21.9358 80.2C22.0215 81.1982 22.6033 82.1964 23.5036 82.9068C24.4589 83.6601 25.6348 83.9847 26.7371 83.8071C29.1439 83.4213 30.4729 81.878 30.2953 79.6733L24.7345 52.1635V35.6957C24.7345 35.3772 24.9428 35.1078 25.2612 35.0159C25.598 34.924 25.9349 35.0588 26.1063 35.3466L36.8787 53.5354C37.5279 54.3437 38.618 54.8459 39.7571 54.8459C40.5349 54.8459 41.2759 54.6193 41.9067 54.1906C42.6906 53.6578 43.1927 52.8739 43.3214 51.9859C43.45 51.1286 43.2111 50.2773 42.6538 49.5791L42.6354 49.5547L26.6759 24.5313C26.3268 24.1026 25.7328 23.527 24.9795 23.3984C20.368 22.5961 10.7714 22.7247 5.90274 23.3677C5.07598 23.478 4.43906 24.0781 4.05324 24.5619L-14.0008 50.5223C-14.5703 51.2327 -14.8092 52.0901 -14.6806 52.9413C-14.5458 53.8293 -14.0437 54.6071 -13.2659 55.146C-12.6412 55.5747 -11.8941 55.8013 -11.1163 55.8013C-9.97109 55.8013 -8.88711 55.2991 -8.21345 54.454L4.80651 34.9853C4.99024 34.7097 5.32707 34.5933 5.65165 34.6913C5.96398 34.7832 6.16608 35.0465 6.16608 35.365L6.14158 79.7896C6.14158 81.9453 7.96045 83.7459 10.2019 83.8071C11.39 83.8377 12.5536 83.4029 13.3742 82.6006C14.1091 81.8841 14.5194 80.9471 14.5194 79.9611V55.2073C14.5194 54.6683 14.9787 54.2335 15.5483 54.2335L15.5422 54.2274Z" fill="#191919"/>
</g>
</svg>
