<svg width="106" height="134" viewBox="0 0 106 134" fill="none" xmlns="http://www.w3.org/2000/svg">
<path d="M55.1034 23.6384C61.6031 23.5231 66.779 18.1356 66.6054 11.6475C66.4426 5.59956 61.2559 0.652231 54.5066 0.536933C46.8242 0.400672 42.3754 6.43809 42.4622 11.8047C42.5815 18.3767 48.3542 23.7642 55.0926 23.6384H55.1034Z" fill="#191919"/>
<path d="M54.8911 24.1635C51.5707 24.1635 48.4131 22.9057 45.95 20.6207C43.4217 18.2624 42.0003 15.1284 41.9352 11.8057C41.8809 8.76602 43.2264 5.62153 45.5268 3.39943C47.1761 1.80622 50.0408 -0.0909522 54.5222 0.0033825C61.4342 0.11868 66.979 5.22323 67.1526 11.6275C67.2394 14.9711 65.9916 18.1366 63.6369 20.5159C61.3691 22.8009 58.3525 24.1006 55.1298 24.1531C55.0539 24.1531 54.9779 24.1531 54.902 24.1531L54.8911 24.1635ZM54.2726 1.05155C50.3337 1.05155 47.7729 2.71812 46.2972 4.13314C44.1922 6.1561 42.9769 9.01758 43.0203 11.7847C43.0745 14.8244 44.3766 17.6964 46.6987 19.8556C48.9991 22.0043 51.9722 23.1678 55.0973 23.1049H55.1081C58.027 23.0525 60.7831 21.8785 62.8448 19.7927C65.0041 17.6125 66.1435 14.7196 66.0675 11.6485C65.9156 5.8102 60.8374 1.15636 54.5005 1.05155C54.4245 1.05155 54.3377 1.05155 54.2618 1.05155H54.2726Z" fill="#191919"/>
<path d="M103.18 73.3641L74.9024 30.5362C74.0235 29.4776 72.8841 28.5866 71.5278 28.356C63.1835 26.962 45.9631 27.2345 37.5537 28.3036C36.1106 28.4818 34.8627 29.4042 33.9295 30.5362L1.91945 74.9888C-0.359228 77.735 0.291824 81.6027 3.36262 83.6361C4.59962 84.4537 6.04278 84.852 7.4751 84.852C9.59102 84.852 11.6852 83.982 13.0416 82.3469L36.1431 48.9839C36.5446 48.3969 37.5537 48.6589 37.5537 49.3402L37.5103 125.374C37.5103 129.263 40.8741 132.659 45.2253 132.774C49.7392 132.9 53.4285 129.671 53.4285 125.667L53.4285 83.3007C53.4285 82.6718 54.0036 82.1582 54.7089 82.1582C55.3817 82.1582 55.9351 82.6194 55.9893 83.2169L65.5056 126.192C65.8202 129.923 70.1497 133.466 74.6203 132.774C79.3404 132.04 81.7059 129.053 81.3804 125.143L71.5169 77.997V49.9167C71.5169 49.2145 72.5695 48.9734 72.9493 49.5918L92.0359 80.7222C93.3923 82.3574 95.4865 83.2274 97.6024 83.2274C99.0348 83.2274 100.478 82.8291 101.715 82.0115C104.786 79.9781 105.437 76.1103 103.158 73.3641H103.18Z" fill="#191919"/>
<path d="M73.5 133.392C71.6337 133.392 69.7348 132.743 68.1505 131.548C66.295 130.143 65.134 128.204 64.9712 126.244L55.4659 83.3322C55.4333 82.9444 55.1078 82.6928 54.7172 82.6928C54.3048 82.6928 53.9793 82.9758 53.9793 83.3113L53.9793 125.678C53.9793 127.649 53.1438 129.525 51.6247 130.95C49.9645 132.512 47.599 133.361 45.2118 133.309C40.6653 133.183 36.9651 129.63 36.9651 125.385L37.0085 49.3508C37.0085 49.2669 36.9326 49.225 36.8675 49.204C36.8349 49.204 36.6722 49.1516 36.5854 49.2879L13.4839 82.6509C12.0298 84.4013 9.84882 85.3866 7.46162 85.3866C5.8557 85.3866 4.33657 84.9359 3.04532 84.0869C1.40684 83.0073 0.354303 81.4141 0.0721806 79.6008C-0.199091 77.8503 0.30005 76.0999 1.47194 74.6744L33.4603 30.2428C34.2958 29.2365 35.6413 28.0207 37.4643 27.7901C46.1775 26.6895 63.3436 26.4694 71.6011 27.853C72.9249 28.0731 74.2053 28.8906 75.3013 30.2218L103.589 73.0707C104.751 74.4857 105.25 76.2257 104.978 77.9761C104.696 79.7789 103.644 81.3722 102.005 82.4518C100.714 83.3008 99.184 83.7515 97.5889 83.7515C95.2018 83.7515 93.0207 82.7662 91.5884 81.0472L72.4692 49.8644C72.3824 49.7281 72.2196 49.7701 72.1871 49.7805C72.122 49.8015 72.046 49.8434 72.046 49.9273V78.0076L81.8986 125.049C82.2675 129.42 79.5005 132.554 74.6936 133.309C74.2921 133.371 73.8906 133.403 73.4783 133.403L73.5 133.392ZM54.7172 81.6447C55.6612 81.6447 56.4641 82.326 56.5401 83.1855L66.0455 126.097C66.1974 127.806 67.2282 129.514 68.8233 130.73C70.516 132.019 72.5994 132.575 74.5526 132.271C78.8169 131.611 81.1716 128.969 80.8569 125.196L71.0043 78.1124V49.9273C71.0043 49.3822 71.3732 48.921 71.9375 48.7638C72.5343 48.6066 73.1311 48.8372 73.4349 49.3298L92.5216 80.4603C93.6718 81.8438 95.6032 82.7033 97.6215 82.7033C98.9996 82.7033 100.313 82.3155 101.43 81.5818C102.819 80.6699 103.709 79.3282 103.937 77.8084C104.165 76.341 103.741 74.884 102.754 73.6891L102.721 73.6472L74.444 30.8193C73.8255 30.0856 72.773 29.1003 71.4383 28.8802C63.2676 27.5071 46.2643 27.7272 37.6379 28.8278C36.173 29.0164 35.0445 30.0436 34.3609 30.8717L2.37257 75.3033C1.36344 76.5192 0.94025 77.9866 1.16812 79.4435C1.40684 80.9634 2.29661 82.2945 3.67467 83.2169C4.78146 83.9506 6.10527 84.3385 7.48333 84.3385C9.51244 84.3385 11.433 83.479 12.6266 82.0325L35.6956 48.7114C36.0211 48.2397 36.6179 48.0406 37.193 48.2083C37.7464 48.3655 38.1045 48.8162 38.1045 49.3613L38.0611 125.395C38.0611 129.085 41.2838 132.166 45.2552 132.271C47.3603 132.323 49.4219 131.579 50.8759 130.206C52.1781 128.98 52.9051 127.376 52.9051 125.688L52.9051 83.3217C52.9051 82.3994 53.7189 81.6552 54.728 81.6552L54.7172 81.6447Z" fill="#191919"/>
<path d="M92.9047 78.3536C92.2103 78.3536 91.5158 78.2698 90.8214 78.1126C88.5318 77.578 86.5895 76.2154 85.3525 74.2763C82.8134 70.2618 84.1264 65 88.2823 62.5473C92.4381 60.0946 97.8744 61.3629 100.424 65.3669C102.963 69.3814 101.651 74.6431 97.4946 77.0958C96.0949 77.9239 94.5107 78.3536 92.9047 78.3536ZM92.883 63.9204C91.7979 63.9204 90.6912 64.2034 89.7037 64.7904C86.8282 66.4884 85.9168 70.136 87.6746 72.9137C89.4325 75.6913 93.2086 76.5718 96.084 74.8737C98.9595 73.1757 99.871 69.5281 98.1131 66.7505C96.963 64.9371 94.9447 63.9309 92.883 63.9309V63.9204Z" fill="#F5FF2E"/>
<path d="M54.5006 69.6962C49.6285 69.6962 45.668 65.8704 45.668 61.1641C45.668 56.4579 49.6285 52.6321 54.5006 52.6321C59.3726 52.6321 63.3332 56.4579 63.3332 61.1641C63.3332 65.8704 59.3726 69.6962 54.5006 69.6962ZM54.5006 55.263C51.126 55.263 48.3807 57.9148 48.3807 61.1746C48.3807 64.4344 51.126 67.0863 54.5006 67.0863C57.8752 67.0863 60.6205 64.4344 60.6205 61.1746C60.6205 57.9148 57.8752 55.263 54.5006 55.263Z" fill="#F5FF2E"/>
<path d="M68.7896 43.1574C63.9176 43.1574 59.957 39.3316 59.957 34.6253C59.957 29.9191 63.9176 26.0933 68.7896 26.0933C73.6617 26.0933 77.6222 29.9191 77.6222 34.6253C77.6222 39.3316 73.6617 43.1574 68.7896 43.1574ZM68.7896 28.7242C65.415 28.7242 62.6697 31.376 62.6697 34.6358C62.6697 37.8956 65.415 40.5474 68.7896 40.5474C72.1643 40.5474 74.9095 37.8956 74.9095 34.6358C74.9095 31.376 72.1643 28.7242 68.7896 28.7242Z" fill="#F5FF2E"/>
<path d="M68.5215 110.784C64.4415 110.784 60.7739 108.038 59.8842 104.034C58.8642 99.4321 61.9133 94.8935 66.6768 93.9083C68.9772 93.4366 71.3427 93.8559 73.3175 95.0927C75.2924 96.3295 76.6596 98.2372 77.1479 100.47C77.6362 102.692 77.2022 104.977 75.9217 106.885C74.6413 108.792 72.6665 110.113 70.3552 110.585C69.7367 110.71 69.1183 110.773 68.5106 110.773L68.5215 110.784ZM68.5323 96.34C68.0983 96.34 67.6751 96.3819 67.2411 96.4763C63.9424 97.1576 61.8373 100.302 62.5426 103.488C63.2479 106.675 66.5032 108.708 69.8019 108.027C71.3969 107.702 72.7641 106.79 73.6539 105.459C74.5437 104.138 74.8475 102.556 74.5003 101.015C74.1639 99.474 73.2199 98.1533 71.8418 97.2938C70.8435 96.6649 69.6934 96.34 68.5323 96.34Z" fill="#F5FF2E"/>
<path d="M59.1631 67.1976L56.5781 67.9921L65.6684 95.5895L68.2534 94.795L59.1631 67.1976Z" fill="#F5FF2E"/>
<path d="M64.1953 39.5145L56.9688 54.3357L59.4229 55.4522L66.6494 40.6311L64.1953 39.5145Z" fill="#F5FF2E"/>
<path d="M75.0783 39.3858L72.7695 40.7616L87.8324 64.3481L90.1411 62.9723L75.0783 39.3858Z" fill="#F5FF2E"/>
</svg>
