<svg width="653" height="435" viewBox="0 0 653 435" fill="none" xmlns="http://www.w3.org/2000/svg">
<mask id="mask0_4064_113" style="mask-type:alpha" maskUnits="userSpaceOnUse" x="0" y="0" width="653" height="435">
<rect width="653" height="435" rx="35" fill="#191919"/>
</mask>
<g mask="url(#mask0_4064_113)">
<rect width="653" height="435" rx="35" fill="#191919"/>
<path opacity="0.1" d="M332.403 668.327C300.567 651.526 286.459 614.095 297.745 580.932L105.655 478.976C93.7901 490.438 78.0529 497.799 60.3299 498.954C20.4914 501.529 -13.9188 471.293 -16.4994 431.541C-19.0537 391.662 11.1669 357.203 50.8795 354.602C73.8034 353.089 94.9597 362.521 109.243 378.409L206.356 324.542C202.945 316.985 200.852 308.783 200.202 299.963C197.648 260.084 227.869 225.625 267.581 223.024C307.42 220.449 341.83 250.685 344.411 290.437C344.873 297.64 344.203 304.605 342.677 311.259L558.331 364.73C569.034 331.84 602.06 310.337 637.386 315.501C671.678 320.58 696.87 349.017 699.081 382.376C699.363 387.303 699.089 392.378 698.41 397.499C695.708 416.67 685.61 433.502 670.035 445.108C654.612 456.614 635.467 461.419 616.443 458.749C597.293 456.053 580.482 445.952 568.896 430.366C559.451 417.729 554.749 402.533 554.869 386.9L334.205 332.248C322.439 352.02 301.519 365.927 276.727 367.576C253.677 369.062 232.421 359.477 218.038 343.437L121.078 397.204C124.589 404.914 126.781 413.268 127.404 422.215C128.283 436.215 125.079 449.623 118.84 461.211L307.741 561.447C328.618 533.32 367.437 523.689 399.3 540.365C416.321 549.458 428.948 564.472 434.68 582.91C436.394 588.532 437.451 594.149 437.853 599.759C438.664 612.825 435.892 626.06 429.699 638.052C411.127 673.373 367.374 687.102 332.098 668.527L332.403 668.327ZM619.905 436.579C633.158 438.566 646.36 435.148 656.956 427.236C667.703 419.224 674.751 407.542 676.589 394.375C680.604 367.057 661.642 341.505 634.354 337.498C607.067 333.492 581.532 352.485 577.517 379.803C576.904 383.358 576.82 386.894 576.989 390.482C577.632 399.959 580.952 409.207 586.808 417.013C594.807 427.768 606.473 434.818 619.627 436.652L619.905 436.579ZM275.749 345.265C303.344 343.414 324.257 319.505 322.421 291.883C320.585 264.261 296.71 243.337 269.115 245.188C241.52 247.038 220.608 270.947 222.444 298.57C224.28 326.192 248.155 347.115 275.749 345.265ZM105.719 423.461C103.883 395.839 80.0082 374.915 52.4134 376.766C24.8187 378.616 3.90592 402.525 5.74206 430.148C7.5782 457.77 31.4531 478.693 59.0479 476.843C86.6426 474.992 107.555 451.084 105.719 423.461ZM410.496 627.45C423.365 603.04 413.834 572.621 389.455 559.75C365.076 546.88 334.685 556.434 321.816 580.844C317.423 589.266 315.621 598.494 316.27 607.314C317.475 624.146 327.015 640.093 342.983 648.57C367.362 661.441 397.753 651.886 410.622 627.476L410.496 627.45Z" fill="#BFC7FF"/>
<path opacity="0.1" d="M332.403 668.327C300.567 651.526 286.459 614.095 297.745 580.932L105.655 478.976C93.7901 490.438 78.0529 497.799 60.3299 498.954C20.4914 501.529 -13.9188 471.293 -16.4994 431.541C-19.0537 391.662 11.1669 357.203 50.8795 354.602C73.8034 353.089 94.9597 362.521 109.243 378.409L206.356 324.542C202.945 316.985 200.852 308.783 200.202 299.963C197.648 260.084 227.869 225.625 267.581 223.024C307.42 220.449 341.83 250.685 344.411 290.437C344.873 297.64 344.203 304.605 342.677 311.259L558.331 364.73C569.034 331.84 602.06 310.337 637.386 315.501C671.678 320.58 696.87 349.017 699.081 382.376C699.363 387.303 699.089 392.378 698.41 397.499C695.708 416.67 685.61 433.502 670.035 445.108C654.612 456.614 635.468 461.419 616.443 458.749C597.293 456.053 580.482 445.952 568.896 430.366C559.451 417.729 554.749 402.533 554.869 386.9L334.205 332.248C322.439 352.02 301.519 365.927 276.727 367.576C253.677 369.062 232.421 359.477 218.038 343.437L121.078 397.204C124.589 404.914 126.781 413.268 127.404 422.215C128.283 436.215 125.079 449.623 118.84 461.211L307.741 561.447C328.618 533.32 367.437 523.689 399.3 540.365C416.321 549.458 428.948 564.472 434.68 582.91C436.394 588.532 437.451 594.149 437.853 599.759C438.664 612.825 435.892 626.06 429.699 638.052C411.127 673.373 367.374 687.102 332.098 668.527L332.403 668.327ZM619.905 436.579C633.158 438.566 646.36 435.148 656.956 427.236C667.703 419.224 674.751 407.542 676.589 394.375C680.604 367.057 661.642 341.505 634.354 337.498C607.067 333.492 581.532 352.485 577.517 379.803C576.904 383.358 576.82 386.894 576.989 390.482C577.632 399.959 580.952 409.207 586.808 417.013C594.807 427.768 606.473 434.818 619.627 436.652L619.905 436.579ZM275.75 345.265C303.344 343.414 324.257 319.505 322.421 291.883C320.585 264.261 296.71 243.337 269.115 245.188C241.52 247.038 220.608 270.947 222.444 298.57C224.28 326.192 248.155 347.115 275.75 345.265ZM105.719 423.461C103.883 395.839 80.0082 374.915 52.4134 376.766C24.8187 378.616 3.90592 402.525 5.74206 430.148C7.5782 457.77 31.4531 478.693 59.0479 476.843C86.6426 474.992 107.555 451.084 105.719 423.461ZM410.496 627.45C423.365 603.04 413.834 572.621 389.455 559.75C365.076 546.88 334.685 556.434 321.816 580.844C317.423 589.266 315.621 598.494 316.27 607.314C317.475 624.146 327.015 640.092 342.983 648.57C367.362 661.441 397.753 651.886 410.622 627.476L410.496 627.45Z" fill="white"/>
</g>
</svg>
