<svg width="340" height="435" viewBox="0 0 340 435" fill="none" xmlns="http://www.w3.org/2000/svg">
<rect width="340" height="435" rx="30" fill="#191919"/>
<mask id="mask0_4299_546" style="mask-type:alpha" maskUnits="userSpaceOnUse" x="0" y="0" width="340" height="435">
<rect width="340" height="435" rx="27" fill="#191919"/>
</mask>
<g mask="url(#mask0_4299_546)">
<path opacity="0.1" d="M268.83 543.035C243.053 529.348 231.63 498.857 240.767 471.841L85.2348 388.785C75.6281 398.122 62.8859 404.119 48.5359 405.06C16.2792 407.158 -11.5823 382.527 -13.6718 350.144C-15.74 317.658 8.72921 289.586 40.884 287.467C59.4451 286.235 76.5751 293.919 88.1405 306.861L166.771 262.98C164.009 256.824 162.314 250.142 161.789 242.957C159.72 210.471 184.19 182.4 216.344 180.281C248.601 178.183 276.462 202.814 278.552 235.197C278.927 241.065 278.384 246.739 277.148 252.159L451.761 295.718C460.426 268.925 487.167 251.408 515.77 255.615C543.536 259.752 563.934 282.918 565.724 310.093C565.952 314.107 565.73 318.24 565.181 322.412C562.993 338.03 554.816 351.741 542.206 361.196C529.718 370.569 514.217 374.483 498.813 372.308C483.307 370.112 469.696 361.883 460.314 349.187C452.667 338.892 448.86 326.513 448.958 313.778L270.289 269.257C260.762 285.364 243.823 296.693 223.75 298.036C205.086 299.247 187.876 291.439 176.23 278.372L97.7226 322.172C100.565 328.453 102.341 335.258 102.845 342.546C103.556 353.951 100.963 364.874 95.9106 374.314L248.862 455.968C265.765 433.055 297.197 425.21 322.995 438.794C336.777 446.201 347.001 458.432 351.642 473.452C353.029 478.033 353.886 482.608 354.211 487.178C354.868 497.822 352.623 508.603 347.609 518.373C332.571 547.146 297.145 558.33 268.583 543.198L268.83 543.035ZM501.616 354.248C512.347 355.867 523.037 353.082 531.615 346.637C540.318 340.11 546.024 330.594 547.513 319.867C550.763 297.614 535.41 276.798 513.315 273.534C491.221 270.271 470.546 285.743 467.295 307.996C466.799 310.893 466.731 313.773 466.867 316.696C467.388 324.416 470.076 331.95 474.818 338.309C481.294 347.07 490.741 352.813 501.391 354.308L501.616 354.248ZM222.958 279.861C245.301 278.354 262.234 258.877 260.747 236.375C259.261 213.873 239.929 196.829 217.586 198.336C195.243 199.844 178.31 219.32 179.797 241.822C181.284 264.324 200.615 281.369 222.958 279.861ZM85.2869 343.562C83.8002 321.06 64.469 304.015 42.126 305.523C19.7829 307.03 2.85011 326.507 4.33681 349.009C5.82351 371.511 25.1547 388.555 47.4978 387.048C69.8409 385.54 86.7736 366.064 85.2869 343.562ZM332.061 509.736C342.48 489.851 334.763 465.071 315.024 454.586C295.285 444.101 270.677 451.884 260.257 471.769C256.7 478.63 255.241 486.147 255.767 493.333C256.743 507.044 264.467 520.035 277.396 526.94C297.135 537.425 321.743 529.642 332.163 509.757L332.061 509.736Z" fill="#BFC7FF"/>
<path opacity="0.1" d="M268.83 543.035C243.053 529.348 231.63 498.857 240.767 471.841L85.2348 388.785C75.6281 398.122 62.8859 404.119 48.5359 405.06C16.2792 407.158 -11.5823 382.527 -13.6718 350.144C-15.74 317.658 8.72921 289.586 40.884 287.467C59.4451 286.235 76.5751 293.919 88.1405 306.861L166.771 262.98C164.009 256.824 162.314 250.142 161.789 242.957C159.72 210.471 184.19 182.4 216.344 180.281C248.601 178.183 276.462 202.814 278.552 235.197C278.927 241.065 278.384 246.739 277.148 252.159L451.761 295.718C460.426 268.925 487.167 251.408 515.77 255.615C543.536 259.752 563.934 282.918 565.724 310.093C565.952 314.107 565.73 318.24 565.181 322.412C562.993 338.03 554.816 351.741 542.206 361.196C529.718 370.569 514.217 374.483 498.813 372.308C483.307 370.112 469.696 361.883 460.314 349.187C452.667 338.892 448.86 326.513 448.958 313.778L270.289 269.257C260.762 285.364 243.823 296.693 223.75 298.036C205.086 299.247 187.876 291.439 176.23 278.372L97.7226 322.172C100.565 328.453 102.341 335.258 102.845 342.546C103.556 353.951 100.963 364.874 95.9106 374.314L248.862 455.968C265.765 433.055 297.197 425.21 322.995 438.794C336.777 446.201 347.001 458.432 351.642 473.452C353.029 478.033 353.886 482.608 354.211 487.178C354.868 497.822 352.623 508.603 347.609 518.373C332.571 547.146 297.145 558.33 268.583 543.198L268.83 543.035ZM501.616 354.248C512.347 355.867 523.037 353.082 531.615 346.637C540.317 340.11 546.024 330.594 547.513 319.867C550.763 297.614 535.41 276.798 513.315 273.534C491.221 270.271 470.546 285.743 467.295 307.996C466.799 310.893 466.731 313.773 466.867 316.696C467.388 324.416 470.076 331.95 474.818 338.309C481.294 347.07 490.741 352.813 501.391 354.308L501.616 354.248ZM222.958 279.861C245.301 278.354 262.234 258.877 260.747 236.375C259.261 213.873 239.929 196.829 217.586 198.336C195.243 199.844 178.31 219.32 179.797 241.822C181.284 264.324 200.615 281.369 222.958 279.861ZM85.2869 343.562C83.8002 321.06 64.469 304.015 42.126 305.523C19.7829 307.03 2.85011 326.507 4.33681 349.009C5.82351 371.51 25.1547 388.555 47.4978 387.048C69.8409 385.54 86.7736 366.064 85.2869 343.562ZM332.061 509.736C342.48 489.851 334.763 465.071 315.024 454.586C295.285 444.101 270.677 451.884 260.257 471.769C256.7 478.63 255.241 486.147 255.767 493.333C256.743 507.044 264.467 520.035 277.396 526.94C297.135 537.425 321.743 529.642 332.163 509.757L332.061 509.736Z" fill="white"/>
</g>
</svg>
