<svg width="53" height="35" viewBox="0 0 53 35" fill="none" xmlns="http://www.w3.org/2000/svg">
<path d="M5.18519 22.3975C1.37507 21.1227 -0.807748 17.0585 0.278941 13.1387L0.278941 13.1357C1.40434 9.09092 5.60103 6.72529 9.6432 7.84863L9.64418 7.84863C10.7402 8.15388 11.7163 8.68501 12.5328 9.38085L23.4762 6.21679C23.971 3.617 25.8021 1.36284 28.4362 0.443349C28.5643 0.382997 28.6988 0.332574 28.8375 0.292958C32.8801 -0.861339 37.0832 1.50039 38.2321 5.53222L38.237 5.55175C38.6102 6.89978 38.6146 8.31504 38.2477 9.64843L38.2409 9.67284C38.0781 10.2431 37.8504 10.7892 37.5651 11.3086L37.5573 11.3213C36.5661 13.1017 34.935 14.3725 33.0133 14.9336L32.9918 14.9394C30.1391 15.7463 27.2091 14.8034 25.3287 12.7607L15.1666 15.6973C15.1323 16.1976 15.0478 16.7017 14.9098 17.2021L14.9049 17.2197C14.8869 17.2833 14.8678 17.3465 14.8483 17.4092L17.7135 19.8867C19.1416 19.3715 20.7409 19.2731 22.3209 19.7119L22.3268 19.7129C24.1217 20.2153 25.5779 21.3192 26.5494 22.7363L38.692 22.2959C39.1064 21.5071 39.6632 20.7849 40.358 20.1719C41.8752 18.8289 43.837 18.1423 45.8766 18.2783L45.8786 18.2783C47.8788 18.4128 49.7481 19.3177 51.0895 20.8369C52.4318 22.3561 53.1191 24.3205 52.983 26.3633L52.9811 26.3848C52.9448 26.8694 52.8692 27.3833 52.7291 27.9023L52.7233 27.9258C51.7764 31.3114 48.5761 33.6952 44.9352 33.4785L44.9303 33.4775C42.0633 33.3014 39.6803 31.5561 38.5348 29.1387L27.4869 29.543C26.1906 33.3194 22.1529 35.4758 18.2584 34.3935L18.2565 34.3926C14.2162 33.2659 11.8532 29.0653 12.9752 25.0185L12.9821 24.9941C12.9962 24.9451 13.011 24.8962 13.026 24.8476L10.1393 22.3516C8.71702 22.8585 7.12707 22.9501 5.56019 22.5127L5.18519 22.3975ZM49.9616 21.8535L49.9596 21.8516L47.9772 23.6074L49.9616 21.8535Z" fill="white"/>
<path d="M29.5784 2.85802C27.2049 3.53817 25.7315 5.85243 26.0226 8.23736L11.6938 12.3801C11.0585 11.4438 10.1056 10.7283 8.93216 10.4015C6.29403 9.66832 3.55885 11.2141 2.82653 13.8464C2.0942 16.4875 3.63826 19.2257 6.26756 19.9589C7.78514 20.3829 9.33802 20.0472 10.5203 19.1816L16.2819 24.1634C15.9466 24.6227 15.6907 25.1439 15.5231 25.7269C14.7907 28.368 16.3348 31.1062 18.9641 31.8394C21.6022 32.5725 24.3374 31.0267 25.0697 28.3945C25.2021 27.9175 25.255 27.4405 25.2462 26.9723L40.475 26.4158C40.7308 28.7743 42.6455 30.6822 45.0895 30.8324C47.4629 30.9737 49.554 29.4191 50.1716 27.2108C50.2599 26.884 50.3128 26.5395 50.3393 26.1862C50.4275 24.8612 49.9863 23.5893 49.104 22.5911C48.2305 21.6018 47.0129 21.01 45.6983 20.9217C44.3748 20.8333 43.1043 21.275 42.1073 22.1583C41.2955 22.8738 40.7661 23.8278 40.5544 24.8789L24.9727 25.4442C24.4609 23.9514 23.2522 22.7236 21.611 22.2643C20.0846 21.8403 18.5229 22.1848 17.3318 23.0593L11.5791 18.0862C11.9232 17.6181 12.1879 17.0881 12.3555 16.4963C12.6114 15.5688 12.5849 14.6237 12.3291 13.758L26.4197 9.68599C27.4255 11.8678 29.896 13.0602 32.2694 12.3889C33.54 12.0179 34.5987 11.1876 35.2428 10.0305C35.4369 9.67716 35.5869 9.315 35.6928 8.94401C35.931 8.07837 35.931 7.1509 35.684 6.25875C34.934 3.62649 32.19 2.08954 29.5607 2.84035L29.5784 2.85802ZM45.6189 22.4586C46.5365 22.5116 47.3747 22.9268 47.9747 23.6069C48.5835 24.2959 48.8923 25.1792 48.8305 26.089C48.7158 27.9793 47.0835 29.4279 45.1954 29.3131C43.3072 29.1983 41.8602 27.5641 41.9749 25.6739C41.9837 25.4265 42.0278 25.188 42.0896 24.9496C42.2661 24.3224 42.619 23.7483 43.1219 23.3066C43.8101 22.6971 44.6924 22.388 45.6012 22.4498L45.6189 22.4586ZM21.2316 23.7483C23.058 24.2606 24.1256 26.1597 23.6139 27.9881C23.1022 29.8166 21.2052 30.8854 19.3788 30.3731C17.5524 29.8607 16.4848 27.9616 16.9965 26.1332C17.5083 24.3047 19.4053 23.2359 21.2316 23.7483ZM10.9174 16.1076C10.4056 17.9361 8.50864 19.0049 6.68225 18.4926C4.85585 17.9803 3.78825 16.0811 4.29999 14.2527C4.81174 12.4242 6.70872 11.3554 8.53511 11.8678C10.3615 12.3801 11.4291 14.2792 10.9174 16.1076ZM34.2458 6.70041C34.7664 8.52002 33.6988 10.428 31.8812 10.9491C30.0636 11.4703 28.1578 10.4015 27.6373 8.58185C27.4608 7.9547 27.4696 7.30989 27.6373 6.72691C27.9549 5.61394 28.8196 4.67763 30.0107 4.33314C31.8283 3.81199 33.7341 4.88079 34.2546 6.70041L34.2458 6.70041Z" fill="white"/>
<path d="M29.5784 2.85802C27.2049 3.53817 25.7315 5.85243 26.0226 8.23736L11.6938 12.3801C11.0585 11.4438 10.1056 10.7283 8.93216 10.4015C6.29403 9.66832 3.55885 11.2141 2.82653 13.8464C2.0942 16.4875 3.63826 19.2257 6.26756 19.9589C7.78514 20.3829 9.33802 20.0472 10.5203 19.1816L16.2819 24.1634C15.9466 24.6227 15.6907 25.1439 15.5231 25.7269C14.7907 28.368 16.3348 31.1062 18.9641 31.8394C21.6022 32.5725 24.3374 31.0267 25.0697 28.3945C25.2021 27.9175 25.255 27.4405 25.2462 26.9723L40.475 26.4158C40.7308 28.7743 42.6455 30.6822 45.0895 30.8324C47.4629 30.9737 49.554 29.4191 50.1716 27.2108C50.2599 26.884 50.3128 26.5395 50.3393 26.1862C50.4275 24.8612 49.9863 23.5893 49.104 22.5911C48.2305 21.6018 47.0129 21.01 45.6983 20.9217C44.3748 20.8333 43.1043 21.275 42.1073 22.1583C41.2955 22.8738 40.7661 23.8278 40.5544 24.8789L24.9727 25.4442C24.4609 23.9514 23.2522 22.7236 21.611 22.2643C20.0846 21.8403 18.5229 22.1848 17.3318 23.0593L11.5791 18.0862C11.9232 17.6181 12.1879 17.0881 12.3555 16.4963C12.6114 15.5688 12.5849 14.6237 12.3291 13.758L26.4197 9.68599C27.4255 11.8678 29.896 13.0602 32.2694 12.3889C33.54 12.0179 34.5987 11.1876 35.2428 10.0305C35.4369 9.67716 35.5869 9.315 35.6928 8.94401C35.931 8.07837 35.931 7.1509 35.684 6.25875C34.934 3.62649 32.19 2.08954 29.5607 2.84035L29.5784 2.85802ZM45.6189 22.4586C46.5365 22.5116 47.3747 22.9268 47.9747 23.6069C48.5835 24.2959 48.8923 25.1792 48.8305 26.089C48.7158 27.9793 47.0835 29.4279 45.1954 29.3131C43.3072 29.1983 41.8602 27.5641 41.9749 25.6739C41.9837 25.4265 42.0278 25.188 42.0896 24.9496C42.2661 24.3224 42.619 23.7483 43.1219 23.3066C43.8101 22.6971 44.6924 22.388 45.6012 22.4498L45.6189 22.4586ZM21.2316 23.7483C23.058 24.2606 24.1256 26.1597 23.6139 27.9881C23.1022 29.8166 21.2052 30.8854 19.3788 30.3731C17.5524 29.8607 16.4848 27.9616 16.9965 26.1332C17.5083 24.3047 19.4053 23.2359 21.2316 23.7483ZM10.9174 16.1076C10.4056 17.9361 8.50864 19.0049 6.68225 18.4926C4.85585 17.9803 3.78825 16.0811 4.29999 14.2527C4.81174 12.4242 6.70872 11.3554 8.53511 11.8678C10.3615 12.3801 11.4291 14.2792 10.9174 16.1076ZM34.2458 6.70041C34.7664 8.52002 33.6988 10.428 31.8812 10.9491C30.0636 11.4703 28.1578 10.4015 27.6373 8.58185C27.4608 7.9547 27.4696 7.30989 27.6373 6.72691C27.9549 5.61394 28.8196 4.67763 30.0107 4.33314C31.8283 3.81199 33.7341 4.88079 34.2546 6.70041L34.2458 6.70041Z" fill="#191919"/>
</svg>
