<svg width="111" height="91" viewBox="0 0 111 91" fill="none" xmlns="http://www.w3.org/2000/svg">
<path d="M22.4588 66.5069C15.0533 66.7786 8.73194 61.0768 8.25664 53.6298L8.25628 53.6257C7.78012 46.0609 13.5349 39.5411 21.094 39.063L21.0971 39.063C23.147 38.9345 25.1256 39.2609 26.9302 39.9641L43.7203 28.0875C43.0245 23.3604 44.8125 18.4311 48.7606 15.303C48.9434 15.1242 49.1421 14.9588 49.3552 14.8091C55.5663 10.4462 64.1346 11.9855 68.4817 18.1818L68.5012 18.2112C69.9362 20.2892 70.7811 22.7008 70.9449 25.1923L70.9473 25.238C71.0075 26.3068 70.9425 27.3722 70.7635 28.4269L70.7592 28.4532C70.1233 32.077 68.0929 35.2111 65.1476 37.3062L65.1151 37.3289C60.7276 40.3945 55.1711 40.5219 50.7544 38.1514L35.1629 49.1777C35.4006 50.0514 35.555 50.9609 35.6159 51.8963L35.6182 51.9296C35.6251 52.0486 35.6304 52.1674 35.6343 52.2858L41.9878 54.8133C44.1183 53.0889 46.7878 51.9739 49.7424 51.7867L49.7523 51.7853C53.111 51.5792 56.2486 52.5991 58.7448 54.4405L79.1921 46.499C79.4316 44.9085 79.9552 43.3479 80.7771 41.8911C82.5694 38.702 85.5083 36.3678 89.0678 35.392L89.0697 35.3914C92.5609 34.436 96.2858 34.8718 99.4734 36.6685C102.662 38.4645 104.997 41.4084 105.975 44.9728L105.985 45.0107C106.21 45.8588 106.386 46.7803 106.454 47.7486L106.458 47.7918C106.848 54.1268 102.801 60.0876 96.4625 61.874L96.4539 61.876C91.46 63.2734 86.3627 61.7082 82.9774 58.2637L64.3737 65.4948C64.3993 72.703 58.7915 78.7711 51.5088 79.2317L51.5047 79.232C43.9468 79.7034 37.4286 73.9386 36.9458 66.3724L36.9433 66.3267C36.9384 66.2347 36.9336 66.1427 36.9303 66.051L30.5297 63.5038C28.4041 65.2108 25.7462 66.3079 22.8147 66.4898L22.4588 66.5069ZM98.1512 39.0711L98.1475 39.0693L95.8063 43.2378L98.1512 39.0711Z" fill="#191919"/>
<path d="M52.1433 18.7452C48.4982 21.3107 47.3558 26.1303 49.2647 30.0253L27.2804 45.5763C25.6425 44.3557 23.5936 43.6997 21.3987 43.8373C16.4652 44.1492 12.7158 48.4054 13.0257 53.3283C13.3408 58.2664 17.5958 62.022 22.5142 61.7153C25.3535 61.5397 27.8032 60.0476 29.3069 57.8711L42.0834 62.9556C41.7836 63.9375 41.6559 64.9779 41.7152 66.0714C42.0303 71.0095 46.2853 74.7651 51.2037 74.4584C56.1372 74.1465 59.8866 69.8903 59.5767 64.9674C59.52 64.0755 59.3278 63.2306 59.0355 62.4374L84.6785 52.4698C86.5116 56.3405 90.9068 58.4607 95.164 57.2694C99.2956 56.1049 101.941 52.2151 101.687 48.0832C101.644 47.4735 101.53 46.8546 101.366 46.2364C100.732 43.9244 99.2261 42.0164 97.1302 40.8366C95.0546 39.6666 92.6276 39.3783 90.3331 40.0062C88.0236 40.6393 86.1183 42.145 84.941 44.2419C83.9803 45.9429 83.6424 47.8834 83.9037 49.8015L57.664 59.9932C55.9072 57.7503 53.1186 56.3722 50.0477 56.5607C47.1933 56.7415 44.7338 58.2539 43.2203 60.4507L30.464 55.3761C30.7736 54.3739 30.9112 53.3132 30.8466 52.2046C30.7338 50.4713 30.1289 48.875 29.1799 47.5502L50.7998 32.2608C53.8073 35.3861 58.7269 35.9568 62.3772 33.4064C64.3243 32.0212 65.6384 29.9781 66.0516 27.6232C66.1734 26.9057 66.2148 26.1992 66.1756 25.5037C66.0693 23.8863 65.52 22.3045 64.5703 20.9293C61.7324 16.8841 56.1424 15.8879 52.1028 18.7255L52.1433 18.7452ZM91.1079 42.6745C92.7042 42.2215 94.3796 42.4331 95.8057 43.2378C97.252 44.0523 98.3018 45.3759 98.7352 46.9642C99.6591 50.2559 97.7331 53.6932 94.4448 54.6156C91.1566 55.5379 87.721 53.6078 86.7972 50.3161C86.6658 49.889 86.5998 49.4561 86.5639 49.0128C86.4934 47.8387 86.7553 46.6505 87.3515 45.5994C88.1643 44.1524 89.486 43.1026 91.0726 42.6699L91.1079 42.6745ZM50.2794 59.3163C53.6977 59.1084 56.6432 61.7151 56.8532 65.1365C57.0633 68.558 54.4609 71.5042 51.0426 71.7121C47.6243 71.9199 44.6789 69.3133 44.4688 65.8918C44.2588 62.4703 46.8611 59.5241 50.2794 59.3163ZM28.1637 52.3935C28.3737 55.8149 25.7714 58.7611 22.3531 58.969C18.9348 59.1768 15.9893 56.5702 15.7793 53.1487C15.5693 49.7273 18.1716 46.781 21.5899 46.5732C25.0082 46.3653 27.9536 48.972 28.1637 52.3935ZM62.3791 22.5342C64.3445 25.3293 63.6536 29.2155 60.8624 31.1807C58.0712 33.1459 54.1879 32.4517 52.2225 29.6567C51.5501 28.6916 51.1833 27.5866 51.124 26.4931C51.0066 24.4068 51.9268 22.2979 53.7542 21.005C56.5455 19.0398 60.4287 19.734 62.3941 22.529L62.3791 22.5342Z" fill="#191919"/>
<path d="M52.1433 18.7452C48.4982 21.3107 47.3558 26.1303 49.2647 30.0253L27.2804 45.5763C25.6425 44.3557 23.5936 43.6997 21.3987 43.8373C16.4652 44.1492 12.7158 48.4054 13.0257 53.3283C13.3408 58.2664 17.5958 62.022 22.5142 61.7153C25.3535 61.5397 27.8032 60.0476 29.3069 57.8711L42.0834 62.9556C41.7836 63.9375 41.6559 64.9779 41.7152 66.0714C42.0303 71.0095 46.2853 74.7651 51.2037 74.4584C56.1372 74.1465 59.8866 69.8903 59.5767 64.9674C59.52 64.0755 59.3278 63.2306 59.0355 62.4374L84.6785 52.4698C86.5116 56.3405 90.9068 58.4607 95.164 57.2694C99.2956 56.1049 101.941 52.2151 101.687 48.0832C101.644 47.4735 101.53 46.8546 101.366 46.2364C100.732 43.9244 99.2261 42.0164 97.1302 40.8366C95.0546 39.6666 92.6276 39.3783 90.3331 40.0062C88.0236 40.6393 86.1183 42.145 84.941 44.2419C83.9803 45.9429 83.6424 47.8834 83.9037 49.8015L57.664 59.9932C55.9072 57.7503 53.1186 56.3722 50.0477 56.5607C47.1933 56.7415 44.7338 58.2539 43.2203 60.4507L30.464 55.3761C30.7736 54.3739 30.9112 53.3132 30.8466 52.2046C30.7338 50.4713 30.1289 48.875 29.1799 47.5502L50.7998 32.2608C53.8073 35.3861 58.7269 35.9568 62.3772 33.4064C64.3243 32.0212 65.6384 29.9781 66.0516 27.6232C66.1734 26.9057 66.2148 26.1992 66.1756 25.5037C66.0693 23.8863 65.52 22.3045 64.5703 20.9293C61.7324 16.8841 56.1424 15.8879 52.1028 18.7255L52.1433 18.7452ZM91.1079 42.6745C92.7042 42.2215 94.3796 42.4331 95.8057 43.2378C97.252 44.0523 98.3018 45.3759 98.7352 46.9642C99.6591 50.2559 97.7331 53.6932 94.4448 54.6156C91.1566 55.5379 87.721 53.6078 86.7972 50.3161C86.6658 49.889 86.5998 49.4561 86.5639 49.0128C86.4934 47.8387 86.7553 46.6505 87.3515 45.5994C88.1643 44.1524 89.486 43.1026 91.0726 42.6699L91.1079 42.6745ZM50.2794 59.3163C53.6977 59.1084 56.6432 61.7151 56.8532 65.1365C57.0633 68.558 54.4609 71.5042 51.0426 71.7121C47.6243 71.9199 44.6789 69.3133 44.4688 65.8918C44.2588 62.4703 46.8611 59.5241 50.2794 59.3163ZM28.1637 52.3935C28.3737 55.8149 25.7714 58.7611 22.3531 58.969C18.9348 59.1768 15.9893 56.5702 15.7793 53.1487C15.5693 49.7273 18.1716 46.781 21.5899 46.5732C25.0082 46.3653 27.9536 48.972 28.1637 52.3935ZM62.3791 22.5342C64.3445 25.3293 63.6536 29.2155 60.8624 31.1807C58.0712 33.1459 54.1879 32.4517 52.2225 29.6567C51.5501 28.6916 51.1833 27.5866 51.124 26.4931C51.0066 24.4068 51.9268 22.2979 53.7542 21.005C56.5455 19.0398 60.4287 19.734 62.3941 22.529L62.3791 22.5342Z" fill="white"/>
</svg>
