<svg width="1380" height="56" viewBox="0 0 1380 56" fill="none" xmlns="http://www.w3.org/2000/svg">
<path d="M4.125 55.1985V2.69845H8.025V51.7485H22.875V55.1985H4.125ZM43.2738 51.7485V55.1985H24.6738V2.69845H43.2738V6.14845H28.5738V27.3735H41.8488V30.8235H28.5738V51.7485H43.2738ZM62.0959 17.5485V15.4485C62.0959 12.5485 61.4209 10.1985 60.0709 8.39845C58.7209 6.54845 56.9959 5.62345 54.8959 5.62345C52.8459 5.62345 51.1459 6.49845 49.7959 8.24845C48.4959 9.94845 47.8459 12.2485 47.8459 15.1485C47.8459 19.2485 49.0459 22.1235 51.4459 23.7735L61.7959 31.2735C64.9459 33.5735 66.5209 37.3235 66.5209 42.5235C66.5209 46.5235 65.4459 49.7235 63.2959 52.1235C61.1459 54.4735 58.3959 55.6485 55.0459 55.6485C51.5959 55.6485 48.7959 54.4235 46.6459 51.9735C44.4959 49.5235 43.4209 46.3235 43.4209 42.3735V39.9735H47.3209V42.3735C47.3209 45.3235 48.0209 47.7235 49.4209 49.5735C50.8709 51.3735 52.7459 52.2735 55.0459 52.2735C57.2459 52.2735 59.0459 51.4235 60.4459 49.7235C61.8459 47.9735 62.5459 45.6235 62.5459 42.6735C62.5459 38.5735 61.3459 35.7235 58.9459 34.1235L48.7459 26.6235C45.4959 24.2235 43.8709 20.4735 43.8709 15.3735C43.8709 11.3235 44.8959 8.12345 46.9459 5.77345C48.9959 3.42345 51.6209 2.24845 54.8209 2.24845C58.1709 2.24845 60.8709 3.47345 62.9209 5.92346C65.0209 8.32345 66.0709 11.4985 66.0709 15.4485V17.5485H62.0959ZM85.5744 17.5485V15.4485C85.5744 12.5485 84.8994 10.1985 83.5494 8.39845C82.1994 6.54845 80.4744 5.62345 78.3744 5.62345C76.3244 5.62345 74.6244 6.49845 73.2744 8.24845C71.9744 9.94845 71.3244 12.2485 71.3244 15.1485C71.3244 19.2485 72.5244 22.1235 74.9244 23.7735L85.2744 31.2735C88.4244 33.5735 89.9994 37.3235 89.9994 42.5235C89.9994 46.5235 88.9244 49.7235 86.7744 52.1235C84.6244 54.4735 81.8744 55.6485 78.5244 55.6485C75.0744 55.6485 72.2744 54.4235 70.1244 51.9735C67.9744 49.5235 66.8994 46.3235 66.8994 42.3735V39.9735H70.7994V42.3735C70.7994 45.3235 71.4994 47.7235 72.8994 49.5735C74.3494 51.3735 76.2244 52.2735 78.5244 52.2735C80.7244 52.2735 82.5244 51.4235 83.9244 49.7235C85.3244 47.9735 86.0244 45.6235 86.0244 42.6735C86.0244 38.5735 84.8244 35.7235 82.4244 34.1235L72.2244 26.6235C68.9744 24.2235 67.3494 20.4735 67.3494 15.3735C67.3494 11.3235 68.3744 8.12345 70.4244 5.77345C72.4744 3.42345 75.0994 2.24845 78.2994 2.24845C81.6494 2.24845 84.3494 3.47345 86.3994 5.92346C88.4994 8.32345 89.5494 11.4985 89.5494 15.4485V17.5485H85.5744ZM102.563 55.1985H98.8125V2.69845H102.188L118.763 44.9985V2.69845H122.513V55.1985H119.138L102.563 12.9735V55.1985ZM149.496 42.1485C149.496 46.1485 148.371 49.3985 146.121 51.8985C143.921 54.3985 141.096 55.6485 137.646 55.6485C134.196 55.6485 131.346 54.3985 129.096 51.8985C126.896 49.3985 125.796 46.1485 125.796 42.1485V15.7485C125.796 11.7485 126.896 8.49846 129.096 5.99845C131.346 3.49845 134.196 2.24845 137.646 2.24845C141.096 2.24845 143.921 3.49845 146.121 5.99845C148.371 8.49846 149.496 11.7485 149.496 15.7485V42.1485ZM145.671 42.5235V15.3735C145.671 12.4735 144.921 10.1235 143.421 8.32346C141.921 6.52346 139.996 5.62345 137.646 5.62345C135.296 5.62345 133.371 6.52346 131.871 8.32346C130.421 10.1235 129.696 12.4735 129.696 15.3735V42.5235C129.696 45.4235 130.421 47.7735 131.871 49.5735C133.371 51.3735 135.296 52.2735 137.646 52.2735C139.996 52.2735 141.921 51.3735 143.421 49.5735C144.921 47.7735 145.671 45.4235 145.671 42.5235ZM152.801 55.1985V2.69845H156.701V55.1985H152.801ZM177.259 17.5485V15.4485C177.259 12.5485 176.584 10.1985 175.234 8.39845C173.884 6.54845 172.159 5.62345 170.059 5.62345C168.009 5.62345 166.309 6.49845 164.959 8.24845C163.659 9.94845 163.009 12.2485 163.009 15.1485C163.009 19.2485 164.209 22.1235 166.609 23.7735L176.959 31.2735C180.109 33.5735 181.684 37.3235 181.684 42.5235C181.684 46.5235 180.609 49.7235 178.459 52.1235C176.309 54.4735 173.559 55.6485 170.209 55.6485C166.759 55.6485 163.959 54.4235 161.809 51.9735C159.659 49.5235 158.584 46.3235 158.584 42.3735V39.9735H162.484V42.3735C162.484 45.3235 163.184 47.7235 164.584 49.5735C166.034 51.3735 167.909 52.2735 170.209 52.2735C172.409 52.2735 174.209 51.4235 175.609 49.7235C177.009 47.9735 177.709 45.6235 177.709 42.6735C177.709 38.5735 176.509 35.7235 174.109 34.1235L163.909 26.6235C160.659 24.2235 159.034 20.4735 159.034 15.3735C159.034 11.3235 160.059 8.12345 162.109 5.77345C164.159 3.42345 166.784 2.24845 169.984 2.24845C173.334 2.24845 176.034 3.47345 178.084 5.92346C180.184 8.32345 181.234 11.4985 181.234 15.4485V17.5485H177.259ZM202.538 51.7485V55.1985H183.938V2.69845H202.538V6.14845H187.838V27.3735H201.113V30.8235H187.838V51.7485H202.538ZM210.069 32.9985V29.7735H245.844V32.9985H210.069ZM258.598 55.1985H255.073V2.69845H258.298L269.473 38.5485L280.798 2.69845H284.023V55.1985H280.498V14.3235L270.748 45.0735H268.348L258.598 14.3235V55.1985ZM311.03 42.1485C311.03 46.1485 309.905 49.3985 307.655 51.8985C305.455 54.3985 302.63 55.6485 299.18 55.6485C295.73 55.6485 292.88 54.3985 290.63 51.8985C288.43 49.3985 287.33 46.1485 287.33 42.1485V15.7485C287.33 11.7485 288.43 8.49846 290.63 5.99845C292.88 3.49845 295.73 2.24845 299.18 2.24845C302.63 2.24845 305.455 3.49845 307.655 5.99845C309.905 8.49846 311.03 11.7485 311.03 15.7485V42.1485ZM307.205 42.5235V15.3735C307.205 12.4735 306.455 10.1235 304.955 8.32346C303.455 6.52346 301.53 5.62345 299.18 5.62345C296.83 5.62345 294.905 6.52346 293.405 8.32346C291.955 10.1235 291.23 12.4735 291.23 15.3735V42.5235C291.23 45.4235 291.955 47.7735 293.405 49.5735C294.905 51.3735 296.83 52.2735 299.18 52.2735C301.53 52.2735 303.455 51.3735 304.955 49.5735C306.455 47.7735 307.205 45.4235 307.205 42.5235ZM318.235 32.7735V55.1985H314.335V2.69845H324.76C328.21 2.69845 331.035 3.94845 333.235 6.44845C335.435 8.94845 336.535 12.1985 336.535 16.1985V19.2735C336.535 22.3735 335.835 25.0735 334.435 27.3735C333.085 29.6235 331.235 31.1735 328.885 32.0235L337.96 55.1985H334.06L325.585 32.7735H318.235ZM324.685 6.14845H318.235V29.3985H324.685C327.035 29.3985 328.935 28.4985 330.385 26.6985C331.885 24.8985 332.635 22.5485 332.635 19.6485V15.8235C332.635 12.9235 331.885 10.5985 330.385 8.84845C328.935 7.04845 327.035 6.14845 324.685 6.14845ZM358.318 51.7485V55.1985H339.718V2.69845H358.318V6.14845H343.618V27.3735H356.893V30.8235H343.618V51.7485H358.318ZM366.899 55.1985V2.69845H370.799V55.1985H366.899ZM378.083 55.1985H374.558V2.69845H377.783L388.958 38.5485L400.283 2.69845H403.508V55.1985H399.983V14.3235L390.233 45.0735H387.833L378.083 14.3235V55.1985ZM417.915 32.7735H411.165V55.1985H407.265V2.69845H417.915C421.365 2.69845 424.19 3.94845 426.39 6.44845C428.64 8.94845 429.765 12.1985 429.765 16.1985V19.2735C429.765 23.2735 428.64 26.5235 426.39 29.0235C424.19 31.5235 421.365 32.7735 417.915 32.7735ZM417.84 6.14845H411.165V29.3985H417.84C420.19 29.3985 422.09 28.4985 423.54 26.6985C425.04 24.8985 425.79 22.5485 425.79 19.6485V15.8235C425.79 12.9235 425.04 10.5985 423.54 8.84845C422.09 7.04845 420.19 6.14845 417.84 6.14845ZM429.432 55.1985H425.457L437.607 2.69845H441.732L453.882 55.1985H449.907L446.907 41.9235H432.357L429.432 55.1985ZM439.632 8.84845L433.107 38.4735H446.157L439.632 8.84845ZM472.475 39.4485H476.3V42.1485C476.3 46.1485 475.175 49.3985 472.925 51.8985C470.725 54.3985 467.9 55.6485 464.45 55.6485C461 55.6485 458.15 54.3985 455.9 51.8985C453.7 49.3985 452.6 46.1485 452.6 42.1485V15.7485C452.6 11.7485 453.7 8.49846 455.9 5.99845C458.15 3.49845 461 2.24845 464.45 2.24845C467.9 2.24845 470.725 3.49845 472.925 5.99845C475.175 8.49846 476.3 11.7485 476.3 15.7485V18.5235H472.475V15.3735C472.475 12.4735 471.725 10.1235 470.225 8.32346C468.725 6.52346 466.8 5.62345 464.45 5.62345C462.1 5.62345 460.175 6.52346 458.675 8.32346C457.225 10.1235 456.5 12.4735 456.5 15.3735V42.5985C456.5 45.4485 457.225 47.7735 458.675 49.5735C460.175 51.3735 462.1 52.2735 464.45 52.2735C466.8 52.2735 468.725 51.3735 470.225 49.5735C471.725 47.7735 472.475 45.4235 472.475 42.5235V39.4485ZM500.769 2.69845V6.14845H490.269V55.1985H486.369V6.14845H475.869V2.69845H500.769Z" fill="#2F2F2F"/>
<path d="M552.255 31.8507H552.703V16.9642H532.895V54.6076H536.372V31.8507H552.255ZM549.306 22.9026H536.392V19.9537H549.306V22.9026ZM549.306 28.8409H536.392V25.831H549.306V28.8409Z" fill="#2F2F2F"/>
<path d="M632.462 50.8044C631.405 49.8486 630.022 48.8724 628.375 47.8556C626.768 46.7981 625.039 45.8219 623.209 44.8864C621.399 43.9103 619.65 43.0561 617.922 42.3037L617.678 42.202L617.474 42.3647L615.461 43.9306L614.871 44.3983L615.563 44.7034C617.271 45.4355 619.02 46.31 620.83 47.3065C622.64 48.303 624.348 49.3198 625.955 50.357C627.541 51.3942 628.822 52.35 629.819 53.2245L630.103 53.4889L630.408 53.2448L632.483 51.5162L632.889 51.1908L632.503 50.8451L632.462 50.8044Z" fill="#2F2F2F"/>
<path d="M615.074 40.9208C618.816 40.8191 622.538 40.7174 626.199 40.6564C627.724 41.7749 628.964 42.8121 629.9 43.7476L630.205 44.0527L630.51 43.7883L632.462 42.1003L632.828 41.7953L632.503 41.4495C631.466 40.392 630.164 39.2938 628.578 38.155C627.012 36.9958 625.324 35.8569 623.514 34.7181C621.745 33.5996 620.016 32.6234 618.328 31.7896L618.064 31.6676L617.84 31.8506L615.949 33.4165L615.42 33.8436L616.03 34.1486C617.738 35.0435 619.447 36.0603 621.196 37.1992C621.399 37.3415 621.582 37.4635 621.785 37.5856C619.467 37.6262 617.169 37.6669 614.83 37.7076C610.763 37.7889 606.838 37.8499 603.035 37.9313C603.035 37.9313 603.035 37.9313 603.015 37.9313C603.584 37.5652 604.153 37.1992 604.743 36.7924C606.98 35.2672 609.197 33.6809 611.353 32.0336C613.529 30.3457 615.481 28.7391 617.25 27.2138L617.738 26.7867L617.169 26.4817L614.708 25.1395L614.424 24.9768L614.179 25.2005C612.654 26.563 610.865 28.0883 608.77 29.7762C606.736 31.4235 604.621 33.0301 602.425 34.5961C601.672 34.0673 600.839 33.5182 599.883 32.9284C599.171 32.481 598.378 32.0336 597.605 31.5862C598.764 30.7321 599.964 29.7762 601.225 28.6781C602.913 27.2138 604.459 25.7699 605.862 24.3667H632.645V21.1128H609.441V17.5335H626.605V14.3406H609.441V10.8224H630.124V7.6295H609.441V2.83002H605.801V7.6295H585.83V10.8224H605.801V14.3406H589.023V17.5335H605.801V21.1128H582.922V24.3667H600.961C600.696 24.631 600.452 24.8751 600.167 25.1598C599.13 26.1563 598.052 27.1528 596.934 28.1086C596.141 28.8001 595.388 29.4102 594.656 29.9796C593.334 29.2678 592.073 28.6374 590.874 28.1086L590.609 27.9866L590.385 28.19L588.596 29.8169L588.087 30.2643L588.698 30.549C590.141 31.2202 591.646 31.9929 593.192 32.8878C594.758 33.7419 596.202 34.6164 597.585 35.5112C598.235 35.9179 598.805 36.3043 599.334 36.6907C598.622 37.1585 597.91 37.6262 597.219 38.0533C595.531 38.0736 593.883 38.1143 592.297 38.155C588.982 38.1957 586.054 38.216 583.512 38.216H583.003L583.064 38.7244L583.41 41.1852L583.471 41.5716H583.878C586.521 41.5309 589.511 41.4699 592.826 41.4089C596.181 41.3275 599.72 41.2665 603.442 41.1852C604.235 41.1852 605.028 41.1445 605.841 41.1445V54.6684H609.421V41.0835C611.271 41.0428 613.122 41.0225 615.013 40.9818L615.074 40.9208Z" fill="#2F2F2F"/>
<path d="M557.847 16.9843H557.399V31.8708H574.503V50.4993C574.503 50.8044 574.421 50.9467 574.34 51.0281C574.259 51.1094 574.076 51.2111 573.75 51.2111C573.323 51.2518 572.449 51.2518 571.066 51.2111C569.683 51.2111 568.137 51.2111 566.429 51.1501H565.676L566.002 51.8009C566.185 52.1669 566.368 52.5737 566.551 53.0414C566.734 53.5092 566.856 53.9159 566.917 54.2616L566.998 54.6277H567.364C569.5 54.6277 571.228 54.6277 572.571 54.5667C573.954 54.526 575.052 54.404 575.825 54.1599C576.618 53.9159 577.207 53.4685 577.533 52.8177C577.838 52.228 577.98 51.4552 577.98 50.4993V17.0047H557.847V16.9843ZM560.816 25.8308H574.503V28.8407H560.816V25.8308ZM560.816 19.9535H574.503V22.9023H560.816V19.9535Z" fill="#2F2F2F"/>
<path d="M560.878 7.42627C561.508 6.32809 562.098 5.18923 562.586 4.03004L562.789 3.54195L562.26 3.41994L559.576 2.80983L559.21 2.72849L559.068 3.09455C558.193 5.29092 556.973 7.36527 555.387 9.35827C555.244 9.52096 555.102 9.66332 554.96 9.82601V7.44662H539.117C539.707 6.34843 540.256 5.22991 540.724 4.11139L540.927 3.6233L540.419 3.50128L537.856 2.83017L537.47 2.72849L537.328 3.11488C536.473 5.31125 535.355 7.44661 533.972 9.50063C532.569 11.514 531.044 13.2629 529.396 14.7272L528.908 15.1746L529.498 15.4796C529.701 15.5813 529.945 15.7237 530.25 15.9067C530.535 16.0897 530.8 16.2728 531.044 16.4761H531.064L531.084 16.5168C531.369 16.6998 531.552 16.8422 531.674 16.9642L531.999 17.2896L532.325 16.9642C533.952 15.3373 535.497 13.3849 536.962 11.1276C537.043 10.9852 537.145 10.8429 537.226 10.7208H539.931C540.398 11.514 540.846 12.3681 541.273 13.3036C541.822 14.4831 542.229 15.5 542.473 16.3338L542.595 16.7609L543.022 16.6388L545.483 15.9067L545.91 15.7847L545.767 15.3576C545.503 14.4628 545.056 13.4256 544.466 12.2258C544.222 11.697 543.957 11.2292 543.693 10.7615H554.166C552.946 12.1037 551.665 13.3443 550.262 14.3611L549.611 14.8289L550.343 15.1339C550.567 15.2356 550.811 15.378 551.096 15.5813V15.6017C551.38 15.7847 551.665 15.9677 551.909 16.1508H551.929C552.214 16.3541 552.438 16.4965 552.56 16.5982L552.845 16.8015L553.109 16.5778C554.96 15.0932 556.749 13.2629 558.437 11.0869C558.519 10.9852 558.6 10.8632 558.681 10.7615H563.338C564.03 11.575 564.701 12.4495 565.372 13.4053C566.246 14.6255 566.857 15.7033 567.223 16.6185L567.385 17.0456L567.812 16.8625L570.212 15.8457L570.639 15.6627L570.456 15.2356C570.029 14.2594 569.358 13.1612 568.463 11.9207C568.179 11.4936 567.873 11.1276 567.568 10.7412H580.36V7.48729H560.837L560.878 7.42627Z" fill="#2F2F2F"/>
<path d="M597.036 42.2833L596.792 42.1816L596.588 42.3647C594.778 43.9713 592.602 45.5575 589.999 47.0625C587.437 48.547 584.895 49.8079 582.332 50.8451L581.539 51.1705L582.251 51.6382C582.454 51.7806 582.678 51.9433 582.942 52.167C583.227 52.3907 583.512 52.5941 583.756 52.8178C584 53.0211 584.183 53.2245 584.305 53.3668L584.529 53.6312L584.854 53.4889C586.501 52.7364 588.21 51.8416 589.979 50.7841C591.728 49.7672 593.456 48.6894 595.144 47.5302C596.832 46.3303 598.317 45.1305 599.618 43.9103L600.147 43.4018L599.456 43.1578L596.995 42.263L597.036 42.2833Z" fill="#2F2F2F"/>
<path d="M566.022 50.1945V34.1894H544.607V52.2485H548.024V50.1741H566.022V50.1945ZM548.024 43.6053H562.605V47.2253H548.024V43.6053ZM548.024 37.1789H562.605V40.6972H548.024V37.1789Z" fill="#2F2F2F"/>
<path d="M708.202 18.1082C705.234 15.1812 701.738 13.7584 697.49 13.7584C693.242 13.7584 689.746 15.1812 686.778 18.1082C683.81 21.0352 682.367 24.5111 682.367 28.6983C682.367 32.8856 683.81 36.3411 686.778 39.2884C689.746 42.2155 693.242 43.6383 697.49 43.6383C701.738 43.6383 705.234 42.2155 708.202 39.2884C711.17 36.3614 712.613 32.8856 712.613 28.6983C712.613 24.5111 711.17 21.0352 708.202 18.1082ZM697.49 40.2235C694.278 40.2235 691.494 39.0852 689.238 36.8696C686.981 34.6337 685.843 31.8896 685.843 28.7187C685.843 25.5477 686.981 22.7833 689.238 20.5677C691.494 18.3522 694.258 17.2139 697.49 17.2139C700.722 17.2139 703.486 18.3522 705.722 20.5677C707.979 22.8037 709.117 25.5477 709.117 28.7187C709.117 31.8896 707.979 34.654 705.722 36.8696C703.466 39.1055 700.702 40.2235 697.49 40.2235Z" fill="#2F2F2F"/>
<path d="M721.028 10.364C713.974 5.6279 706.067 3.22937 697.49 3.22937C688.912 3.22937 680.985 5.6279 673.952 10.364C667.142 14.9374 662.081 21.0964 658.89 28.6985C662.081 36.3006 667.142 42.4595 673.952 47.033C681.005 51.769 688.912 54.1676 697.49 54.1676C706.067 54.1676 713.974 51.769 721.028 47.033C727.837 42.4595 732.898 36.3006 736.09 28.6985C732.898 21.0964 727.837 14.9374 721.028 10.364ZM732.573 28.6985L731.801 30.2636C728.549 36.4835 723.894 41.5245 717.918 45.2442C711.739 49.0859 704.868 51.0373 697.51 51.0373C690.152 51.0373 683.281 49.0859 677.102 45.2442C670.943 41.4025 666.167 36.1583 662.894 29.6538L662.426 28.7188L663.524 26.5845C666.756 20.6288 671.329 15.7911 677.102 12.1934C683.261 8.35164 690.131 6.40031 697.51 6.40031C704.888 6.40031 711.739 8.35164 717.918 12.1934C724.077 16.0351 728.853 21.2793 732.126 27.7838L732.593 28.7188L732.573 28.6985Z" fill="#2F2F2F"/>
<path d="M767.122 55.1985V2.69845H771.022V51.7485H785.872V55.1985H767.122ZM806.271 51.7485V55.1985H787.671V2.69845H806.271V6.14845H791.571V27.3735H804.846V30.8235H791.571V51.7485H806.271ZM825.093 17.5485V15.4485C825.093 12.5485 824.418 10.1985 823.068 8.39845C821.718 6.54845 819.993 5.62345 817.893 5.62345C815.843 5.62345 814.143 6.49845 812.793 8.24845C811.493 9.94845 810.843 12.2485 810.843 15.1485C810.843 19.2485 812.043 22.1235 814.443 23.7735L824.793 31.2735C827.943 33.5735 829.518 37.3235 829.518 42.5235C829.518 46.5235 828.443 49.7235 826.293 52.1235C824.143 54.4735 821.393 55.6485 818.043 55.6485C814.593 55.6485 811.793 54.4235 809.643 51.9735C807.493 49.5235 806.418 46.3235 806.418 42.3735V39.9735H810.318V42.3735C810.318 45.3235 811.018 47.7235 812.418 49.5735C813.868 51.3735 815.743 52.2735 818.043 52.2735C820.243 52.2735 822.043 51.4235 823.443 49.7235C824.843 47.9735 825.543 45.6235 825.543 42.6735C825.543 38.5735 824.343 35.7235 821.943 34.1235L811.743 26.6235C808.493 24.2235 806.868 20.4735 806.868 15.3735C806.868 11.3235 807.893 8.12345 809.943 5.77345C811.993 3.42345 814.618 2.24845 817.818 2.24845C821.168 2.24845 823.868 3.47345 825.918 5.92346C828.018 8.32345 829.068 11.4985 829.068 15.4485V17.5485H825.093ZM848.571 17.5485V15.4485C848.571 12.5485 847.896 10.1985 846.546 8.39845C845.196 6.54845 843.471 5.62345 841.371 5.62345C839.321 5.62345 837.621 6.49845 836.271 8.24845C834.971 9.94845 834.321 12.2485 834.321 15.1485C834.321 19.2485 835.521 22.1235 837.921 23.7735L848.271 31.2735C851.421 33.5735 852.996 37.3235 852.996 42.5235C852.996 46.5235 851.921 49.7235 849.771 52.1235C847.621 54.4735 844.871 55.6485 841.521 55.6485C838.071 55.6485 835.271 54.4235 833.121 51.9735C830.971 49.5235 829.896 46.3235 829.896 42.3735V39.9735H833.796V42.3735C833.796 45.3235 834.496 47.7235 835.896 49.5735C837.346 51.3735 839.221 52.2735 841.521 52.2735C843.721 52.2735 845.521 51.4235 846.921 49.7235C848.321 47.9735 849.021 45.6235 849.021 42.6735C849.021 38.5735 847.821 35.7235 845.421 34.1235L835.221 26.6235C831.971 24.2235 830.346 20.4735 830.346 15.3735C830.346 11.3235 831.371 8.12345 833.421 5.77345C835.471 3.42345 838.096 2.24845 841.296 2.24845C844.646 2.24845 847.346 3.47345 849.396 5.92346C851.496 8.32345 852.546 11.4985 852.546 15.4485V17.5485H848.571ZM865.56 55.1985H861.81V2.69845H865.185L881.76 44.9985V2.69845H885.51V55.1985H882.135L865.56 12.9735V55.1985ZM912.493 42.1485C912.493 46.1485 911.368 49.3985 909.118 51.8985C906.918 54.3985 904.093 55.6485 900.643 55.6485C897.193 55.6485 894.343 54.3985 892.093 51.8985C889.893 49.3985 888.793 46.1485 888.793 42.1485V15.7485C888.793 11.7485 889.893 8.49846 892.093 5.99845C894.343 3.49845 897.193 2.24845 900.643 2.24845C904.093 2.24845 906.918 3.49845 909.118 5.99845C911.368 8.49846 912.493 11.7485 912.493 15.7485V42.1485ZM908.668 42.5235V15.3735C908.668 12.4735 907.918 10.1235 906.418 8.32346C904.918 6.52346 902.993 5.62345 900.643 5.62345C898.293 5.62345 896.368 6.52346 894.868 8.32346C893.418 10.1235 892.693 12.4735 892.693 15.3735V42.5235C892.693 45.4235 893.418 47.7735 894.868 49.5735C896.368 51.3735 898.293 52.2735 900.643 52.2735C902.993 52.2735 904.918 51.3735 906.418 49.5735C907.918 47.7735 908.668 45.4235 908.668 42.5235ZM915.798 55.1985V2.69845H919.698V55.1985H915.798ZM940.256 17.5485V15.4485C940.256 12.5485 939.581 10.1985 938.231 8.39845C936.881 6.54845 935.156 5.62345 933.056 5.62345C931.006 5.62345 929.306 6.49845 927.956 8.24845C926.656 9.94845 926.006 12.2485 926.006 15.1485C926.006 19.2485 927.206 22.1235 929.606 23.7735L939.956 31.2735C943.106 33.5735 944.681 37.3235 944.681 42.5235C944.681 46.5235 943.606 49.7235 941.456 52.1235C939.306 54.4735 936.556 55.6485 933.206 55.6485C929.756 55.6485 926.956 54.4235 924.806 51.9735C922.656 49.5235 921.581 46.3235 921.581 42.3735V39.9735H925.481V42.3735C925.481 45.3235 926.181 47.7235 927.581 49.5735C929.031 51.3735 930.906 52.2735 933.206 52.2735C935.406 52.2735 937.206 51.4235 938.606 49.7235C940.006 47.9735 940.706 45.6235 940.706 42.6735C940.706 38.5735 939.506 35.7235 937.106 34.1235L926.906 26.6235C923.656 24.2235 922.031 20.4735 922.031 15.3735C922.031 11.3235 923.056 8.12345 925.106 5.77345C927.156 3.42345 929.781 2.24845 932.981 2.24845C936.331 2.24845 939.031 3.47345 941.081 5.92346C943.181 8.32345 944.231 11.4985 944.231 15.4485V17.5485H940.256ZM965.535 51.7485V55.1985H946.935V2.69845H965.535V6.14845H950.835V27.3735H964.11V30.8235H950.835V51.7485H965.535ZM973.066 32.9985V29.7735H1008.84V32.9985H973.066ZM1021.6 55.1985H1018.07V2.69845H1021.3L1032.47 38.5485L1043.8 2.69845H1047.02V55.1985H1043.5V14.3235L1033.75 45.0735H1031.35L1021.6 14.3235V55.1985ZM1074.03 42.1485C1074.03 46.1485 1072.9 49.3985 1070.65 51.8985C1068.45 54.3985 1065.63 55.6485 1062.18 55.6485C1058.73 55.6485 1055.88 54.3985 1053.63 51.8985C1051.43 49.3985 1050.33 46.1485 1050.33 42.1485V15.7485C1050.33 11.7485 1051.43 8.49846 1053.63 5.99845C1055.88 3.49845 1058.73 2.24845 1062.18 2.24845C1065.63 2.24845 1068.45 3.49845 1070.65 5.99845C1072.9 8.49846 1074.03 11.7485 1074.03 15.7485V42.1485ZM1070.2 42.5235V15.3735C1070.2 12.4735 1069.45 10.1235 1067.95 8.32346C1066.45 6.52346 1064.53 5.62345 1062.18 5.62345C1059.83 5.62345 1057.9 6.52346 1056.4 8.32346C1054.95 10.1235 1054.23 12.4735 1054.23 15.3735V42.5235C1054.23 45.4235 1054.95 47.7735 1056.4 49.5735C1057.9 51.3735 1059.83 52.2735 1062.18 52.2735C1064.53 52.2735 1066.45 51.3735 1067.95 49.5735C1069.45 47.7735 1070.2 45.4235 1070.2 42.5235ZM1081.23 32.7735V55.1985H1077.33V2.69845H1087.76C1091.21 2.69845 1094.03 3.94845 1096.23 6.44845C1098.43 8.94845 1099.53 12.1985 1099.53 16.1985V19.2735C1099.53 22.3735 1098.83 25.0735 1097.43 27.3735C1096.08 29.6235 1094.23 31.1735 1091.88 32.0235L1100.96 55.1985H1097.06L1088.58 32.7735H1081.23ZM1087.68 6.14845H1081.23V29.3985H1087.68C1090.03 29.3985 1091.93 28.4985 1093.38 26.6985C1094.88 24.8985 1095.63 22.5485 1095.63 19.6485V15.8235C1095.63 12.9235 1094.88 10.5985 1093.38 8.84845C1091.93 7.04845 1090.03 6.14845 1087.68 6.14845ZM1121.31 51.7485V55.1985H1102.71V2.69845H1121.31V6.14845H1106.61V27.3735H1119.89V30.8235H1106.61V51.7485H1121.31ZM1129.9 55.1985V2.69845H1133.8V55.1985H1129.9ZM1141.08 55.1985H1137.55V2.69845H1140.78L1151.95 38.5485L1163.28 2.69845H1166.5V55.1985H1162.98V14.3235L1153.23 45.0735H1150.83L1141.08 14.3235V55.1985ZM1180.91 32.7735H1174.16V55.1985H1170.26V2.69845H1180.91C1184.36 2.69845 1187.19 3.94845 1189.39 6.44845C1191.64 8.94845 1192.76 12.1985 1192.76 16.1985V19.2735C1192.76 23.2735 1191.64 26.5235 1189.39 29.0235C1187.19 31.5235 1184.36 32.7735 1180.91 32.7735ZM1180.84 6.14845H1174.16V29.3985H1180.84C1183.19 29.3985 1185.09 28.4985 1186.54 26.6985C1188.04 24.8985 1188.79 22.5485 1188.79 19.6485V15.8235C1188.79 12.9235 1188.04 10.5985 1186.54 8.84845C1185.09 7.04845 1183.19 6.14845 1180.84 6.14845ZM1192.43 55.1985H1188.45L1200.6 2.69845H1204.73L1216.88 55.1985H1212.9L1209.9 41.9235H1195.35L1192.43 55.1985ZM1202.63 8.84845L1196.1 38.4735H1209.15L1202.63 8.84845ZM1235.47 39.4485H1239.3V42.1485C1239.3 46.1485 1238.17 49.3985 1235.92 51.8985C1233.72 54.3985 1230.9 55.6485 1227.45 55.6485C1224 55.6485 1221.15 54.3985 1218.9 51.8985C1216.7 49.3985 1215.6 46.1485 1215.6 42.1485V15.7485C1215.6 11.7485 1216.7 8.49846 1218.9 5.99845C1221.15 3.49845 1224 2.24845 1227.45 2.24845C1230.9 2.24845 1233.72 3.49845 1235.92 5.99845C1238.17 8.49846 1239.3 11.7485 1239.3 15.7485V18.5235H1235.47V15.3735C1235.47 12.4735 1234.72 10.1235 1233.22 8.32346C1231.72 6.52346 1229.8 5.62345 1227.45 5.62345C1225.1 5.62345 1223.17 6.52346 1221.67 8.32346C1220.22 10.1235 1219.5 12.4735 1219.5 15.3735V42.5985C1219.5 45.4485 1220.22 47.7735 1221.67 49.5735C1223.17 51.3735 1225.1 52.2735 1227.45 52.2735C1229.8 52.2735 1231.72 51.3735 1233.22 49.5735C1234.72 47.7735 1235.47 45.4235 1235.47 42.5235V39.4485ZM1263.77 2.69845V6.14845H1253.27V55.1985H1249.37V6.14845H1238.87V2.69845H1263.77Z" fill="#2F2F2F"/>
<mask id="path-12-outside-1_1147_205" maskUnits="userSpaceOnUse" x="1292.9" y="-0.801544" width="109" height="55" fill="black">
<rect fill="white" x="1292.9" y="-0.801544" width="109" height="55"/>
<path d="M1298.28 15.3845H1300.95V53.4905H1298.28V15.3845ZM1310.41 33.2485H1313.02V51.0545H1310.41V33.2485ZM1311.57 33.2485H1331.69V48.9085H1311.57V46.7625H1329.08V35.3945H1311.57V33.2485ZM1299.62 15.3845H1317.89V29.8845H1299.62V27.6805H1315.28V17.5305H1299.62V15.3845ZM1299.79 21.5325H1316.44V23.6205H1299.79V21.5325ZM1311.68 39.9765H1330.42V42.0645H1311.68V39.9765ZM1325.2 21.5325H1342.54V23.6205H1325.2V21.5325ZM1342.19 15.3845V17.5305H1326.3V27.6805H1342.19V29.8845H1323.69V15.3845H1342.19ZM1341.44 15.3845H1344.1V49.6625C1344.1 50.6291 1343.97 51.3638 1343.7 51.8665C1343.43 52.4078 1342.92 52.7945 1342.19 53.0265C1341.46 53.2585 1340.37 53.3938 1338.94 53.4325C1337.55 53.4711 1335.75 53.4905 1333.55 53.4905C1333.47 53.1038 1333.34 52.6591 1333.14 52.1565C1332.95 51.6538 1332.76 51.2091 1332.56 50.8225C1334.34 50.8611 1335.95 50.8805 1337.38 50.8805C1338.81 50.9191 1339.75 50.9191 1340.22 50.8805C1341.03 50.8418 1341.44 50.4358 1341.44 49.6625V15.3845ZM1301.18 5.46646H1320.21V7.90246H1301.18V5.46646ZM1323.46 5.46646H1346.6V7.90246H1323.46V5.46646ZM1302.81 0.652455L1305.48 1.34845C1304.43 3.82312 1303.14 6.22045 1301.59 8.54045C1300.08 10.8605 1298.5 12.8518 1296.83 14.5145C1296.68 14.3598 1296.45 14.1858 1296.14 13.9925C1295.87 13.7605 1295.58 13.5478 1295.27 13.3545C1294.96 13.1611 1294.69 13.0065 1294.46 12.8905C1296.2 11.3438 1297.8 9.50712 1299.27 7.38045C1300.74 5.21512 1301.92 2.97246 1302.81 0.652455ZM1325.37 0.652455L1328.15 1.29045C1327.11 3.80379 1325.72 6.18179 1323.98 8.42446C1322.24 10.6671 1320.42 12.5425 1318.53 14.0505C1318.37 13.9345 1318.14 13.7798 1317.83 13.5865C1317.56 13.3931 1317.27 13.1998 1316.96 13.0065C1316.65 12.7745 1316.36 12.6005 1316.09 12.4845C1318.06 11.0538 1319.86 9.31379 1321.48 7.26445C1323.15 5.17645 1324.44 2.97246 1325.37 0.652455ZM1305.01 7.38045L1307.51 6.74245C1308.16 7.74779 1308.78 8.86912 1309.36 10.1065C1309.98 11.3438 1310.43 12.4071 1310.7 13.2965L1308.14 14.0505C1307.87 13.1611 1307.45 12.0978 1306.87 10.8605C1306.29 9.58446 1305.67 8.42446 1305.01 7.38045ZM1329.14 7.32245L1331.58 6.45245C1332.54 7.45779 1333.47 8.59845 1334.36 9.87445C1335.29 11.1505 1335.96 12.2718 1336.39 13.2385L1333.9 14.2825C1333.51 13.2771 1332.85 12.1365 1331.92 10.8605C1331.03 9.54579 1330.11 8.36645 1329.14 7.32245ZM1373.97 37.9465H1376.76V53.4905H1373.97V37.9465ZM1370.78 20.7785L1373.39 22.0545C1371.89 23.5625 1370.22 25.1091 1368.41 26.6945C1366.63 28.2411 1364.95 29.5558 1363.36 30.6385L1361.27 29.4785C1362.32 28.7051 1363.42 27.8158 1364.58 26.8105C1365.74 25.8051 1366.86 24.7805 1367.94 23.7365C1369.06 22.6538 1370.01 21.6678 1370.78 20.7785ZM1382.44 23.7945L1384.99 25.1865C1383.18 26.7718 1381.15 28.4345 1378.9 30.1745C1376.66 31.8758 1374.38 33.5191 1372.06 35.1045C1369.78 36.6511 1367.61 38.0045 1365.56 39.1645L1363.59 37.8885C1365.64 36.6898 1367.81 35.2785 1370.09 33.6545C1372.41 31.9918 1374.65 30.2905 1376.82 28.5505C1378.98 26.8105 1380.86 25.2251 1382.44 23.7945ZM1355.94 28.5505L1357.79 26.8685C1359.26 27.5258 1360.81 28.2991 1362.43 29.1885C1364.09 30.0778 1365.64 30.9671 1367.07 31.8565C1368.54 32.7458 1369.76 33.5771 1370.73 34.3505L1368.7 36.2645C1367.81 35.4525 1366.65 34.6018 1365.22 33.7125C1363.79 32.7845 1362.26 31.8758 1360.63 30.9865C1359.01 30.0585 1357.44 29.2465 1355.94 28.5505ZM1384.24 32.3205L1386.21 30.6965C1387.95 31.5471 1389.73 32.5525 1391.55 33.7125C1393.4 34.8725 1395.14 36.0518 1396.77 37.2505C1398.39 38.4105 1399.73 39.5318 1400.77 40.6145L1398.74 42.3545C1397.73 41.3491 1396.42 40.2471 1394.8 39.0485C1393.21 37.8498 1391.49 36.6705 1389.63 35.5105C1387.82 34.3118 1386.02 33.2485 1384.24 32.3205ZM1383.72 43.2245L1385.81 41.6005C1387.58 42.3738 1389.4 43.2631 1391.26 44.2685C1393.15 45.2351 1394.93 46.2598 1396.59 47.3425C1398.3 48.3865 1399.69 49.3918 1400.77 50.3585L1398.62 52.1565C1397.58 51.2285 1396.23 50.2231 1394.56 49.1405C1392.9 48.0578 1391.12 46.9945 1389.23 45.9505C1387.33 44.9065 1385.5 43.9978 1383.72 43.2245ZM1350.37 37.3665C1353 37.3665 1356.03 37.3471 1359.47 37.3085C1362.92 37.2311 1366.61 37.1731 1370.55 37.1345C1374.5 37.0571 1378.58 36.9798 1382.79 36.9025C1387.04 36.8251 1391.26 36.7478 1395.43 36.6705L1395.2 38.9905C1391.18 39.0678 1387.12 39.1645 1383.02 39.2805C1378.92 39.3578 1374.92 39.4351 1371.02 39.5125C1367.15 39.5898 1363.48 39.6671 1360 39.7445C1356.55 39.8218 1353.46 39.8798 1350.72 39.9185L1350.37 37.3665ZM1364.17 41.6005L1366.72 42.5285C1365.41 43.7658 1363.88 45.0031 1362.14 46.2405C1360.4 47.4391 1358.62 48.5605 1356.81 49.6045C1354.99 50.6871 1353.23 51.6151 1351.53 52.3885C1351.37 52.1951 1351.16 51.9825 1350.89 51.7505C1350.62 51.5185 1350.33 51.2865 1350.02 51.0545C1349.75 50.8225 1349.5 50.6291 1349.27 50.4745C1351.93 49.3918 1354.6 48.0771 1357.27 46.5305C1359.98 44.9451 1362.28 43.3018 1364.17 41.6005ZM1373.92 0.710454H1376.76V21.2425H1373.92V0.710454ZM1353.21 5.69845H1398.22V8.07645H1353.21V5.69845ZM1356.52 12.6585H1394.56V15.0365H1356.52V12.6585ZM1350.19 19.6765H1400.83V22.1125H1350.19V19.6765Z"/>
</mask>
<path d="M1298.28 15.3845H1300.95V53.4905H1298.28V15.3845ZM1310.41 33.2485H1313.02V51.0545H1310.41V33.2485ZM1311.57 33.2485H1331.69V48.9085H1311.57V46.7625H1329.08V35.3945H1311.57V33.2485ZM1299.62 15.3845H1317.89V29.8845H1299.62V27.6805H1315.28V17.5305H1299.62V15.3845ZM1299.79 21.5325H1316.44V23.6205H1299.79V21.5325ZM1311.68 39.9765H1330.42V42.0645H1311.68V39.9765ZM1325.2 21.5325H1342.54V23.6205H1325.2V21.5325ZM1342.19 15.3845V17.5305H1326.3V27.6805H1342.19V29.8845H1323.69V15.3845H1342.19ZM1341.44 15.3845H1344.1V49.6625C1344.1 50.6291 1343.97 51.3638 1343.7 51.8665C1343.43 52.4078 1342.92 52.7945 1342.19 53.0265C1341.46 53.2585 1340.37 53.3938 1338.94 53.4325C1337.55 53.4711 1335.75 53.4905 1333.55 53.4905C1333.47 53.1038 1333.34 52.6591 1333.14 52.1565C1332.95 51.6538 1332.76 51.2091 1332.56 50.8225C1334.34 50.8611 1335.95 50.8805 1337.38 50.8805C1338.81 50.9191 1339.75 50.9191 1340.22 50.8805C1341.03 50.8418 1341.44 50.4358 1341.44 49.6625V15.3845ZM1301.18 5.46646H1320.21V7.90246H1301.18V5.46646ZM1323.46 5.46646H1346.6V7.90246H1323.46V5.46646ZM1302.81 0.652455L1305.48 1.34845C1304.43 3.82312 1303.14 6.22045 1301.59 8.54045C1300.08 10.8605 1298.5 12.8518 1296.83 14.5145C1296.68 14.3598 1296.45 14.1858 1296.14 13.9925C1295.87 13.7605 1295.58 13.5478 1295.27 13.3545C1294.96 13.1611 1294.69 13.0065 1294.46 12.8905C1296.2 11.3438 1297.8 9.50712 1299.27 7.38045C1300.74 5.21512 1301.92 2.97246 1302.81 0.652455ZM1325.37 0.652455L1328.15 1.29045C1327.11 3.80379 1325.72 6.18179 1323.98 8.42446C1322.24 10.6671 1320.42 12.5425 1318.53 14.0505C1318.37 13.9345 1318.14 13.7798 1317.83 13.5865C1317.56 13.3931 1317.27 13.1998 1316.96 13.0065C1316.65 12.7745 1316.36 12.6005 1316.09 12.4845C1318.06 11.0538 1319.86 9.31379 1321.48 7.26445C1323.15 5.17645 1324.44 2.97246 1325.37 0.652455ZM1305.01 7.38045L1307.51 6.74245C1308.16 7.74779 1308.78 8.86912 1309.36 10.1065C1309.98 11.3438 1310.43 12.4071 1310.7 13.2965L1308.14 14.0505C1307.87 13.1611 1307.45 12.0978 1306.87 10.8605C1306.29 9.58446 1305.67 8.42446 1305.01 7.38045ZM1329.14 7.32245L1331.58 6.45245C1332.54 7.45779 1333.47 8.59845 1334.36 9.87445C1335.29 11.1505 1335.96 12.2718 1336.39 13.2385L1333.9 14.2825C1333.51 13.2771 1332.85 12.1365 1331.92 10.8605C1331.03 9.54579 1330.11 8.36645 1329.14 7.32245ZM1373.97 37.9465H1376.76V53.4905H1373.97V37.9465ZM1370.78 20.7785L1373.39 22.0545C1371.89 23.5625 1370.22 25.1091 1368.41 26.6945C1366.63 28.2411 1364.95 29.5558 1363.36 30.6385L1361.27 29.4785C1362.32 28.7051 1363.42 27.8158 1364.58 26.8105C1365.74 25.8051 1366.86 24.7805 1367.94 23.7365C1369.06 22.6538 1370.01 21.6678 1370.78 20.7785ZM1382.44 23.7945L1384.99 25.1865C1383.18 26.7718 1381.15 28.4345 1378.9 30.1745C1376.66 31.8758 1374.38 33.5191 1372.06 35.1045C1369.78 36.6511 1367.61 38.0045 1365.56 39.1645L1363.59 37.8885C1365.64 36.6898 1367.81 35.2785 1370.09 33.6545C1372.41 31.9918 1374.65 30.2905 1376.82 28.5505C1378.98 26.8105 1380.86 25.2251 1382.44 23.7945ZM1355.94 28.5505L1357.79 26.8685C1359.26 27.5258 1360.81 28.2991 1362.43 29.1885C1364.09 30.0778 1365.64 30.9671 1367.07 31.8565C1368.54 32.7458 1369.76 33.5771 1370.73 34.3505L1368.7 36.2645C1367.81 35.4525 1366.65 34.6018 1365.22 33.7125C1363.79 32.7845 1362.26 31.8758 1360.63 30.9865C1359.01 30.0585 1357.44 29.2465 1355.94 28.5505ZM1384.24 32.3205L1386.21 30.6965C1387.95 31.5471 1389.73 32.5525 1391.55 33.7125C1393.4 34.8725 1395.14 36.0518 1396.77 37.2505C1398.39 38.4105 1399.73 39.5318 1400.77 40.6145L1398.74 42.3545C1397.73 41.3491 1396.42 40.2471 1394.8 39.0485C1393.21 37.8498 1391.49 36.6705 1389.63 35.5105C1387.82 34.3118 1386.02 33.2485 1384.24 32.3205ZM1383.72 43.2245L1385.81 41.6005C1387.58 42.3738 1389.4 43.2631 1391.26 44.2685C1393.15 45.2351 1394.93 46.2598 1396.59 47.3425C1398.3 48.3865 1399.69 49.3918 1400.77 50.3585L1398.62 52.1565C1397.58 51.2285 1396.23 50.2231 1394.56 49.1405C1392.9 48.0578 1391.12 46.9945 1389.23 45.9505C1387.33 44.9065 1385.5 43.9978 1383.72 43.2245ZM1350.37 37.3665C1353 37.3665 1356.03 37.3471 1359.47 37.3085C1362.92 37.2311 1366.61 37.1731 1370.55 37.1345C1374.5 37.0571 1378.58 36.9798 1382.79 36.9025C1387.04 36.8251 1391.26 36.7478 1395.43 36.6705L1395.2 38.9905C1391.18 39.0678 1387.12 39.1645 1383.02 39.2805C1378.92 39.3578 1374.92 39.4351 1371.02 39.5125C1367.15 39.5898 1363.48 39.6671 1360 39.7445C1356.55 39.8218 1353.46 39.8798 1350.72 39.9185L1350.37 37.3665ZM1364.17 41.6005L1366.72 42.5285C1365.41 43.7658 1363.88 45.0031 1362.14 46.2405C1360.4 47.4391 1358.62 48.5605 1356.81 49.6045C1354.99 50.6871 1353.23 51.6151 1351.53 52.3885C1351.37 52.1951 1351.16 51.9825 1350.89 51.7505C1350.62 51.5185 1350.33 51.2865 1350.02 51.0545C1349.75 50.8225 1349.5 50.6291 1349.27 50.4745C1351.93 49.3918 1354.6 48.0771 1357.27 46.5305C1359.98 44.9451 1362.28 43.3018 1364.17 41.6005ZM1373.92 0.710454H1376.76V21.2425H1373.92V0.710454ZM1353.21 5.69845H1398.22V8.07645H1353.21V5.69845ZM1356.52 12.6585H1394.56V15.0365H1356.52V12.6585ZM1350.19 19.6765H1400.83V22.1125H1350.19V19.6765Z" fill="#2F2F2F"/>
<path d="M1298.28 15.3845V14.8378H1297.74V15.3845H1298.28ZM1300.95 15.3845H1301.5V14.8378H1300.95V15.3845ZM1300.95 53.4905V54.0371H1301.5V53.4905H1300.95ZM1298.28 53.4905H1297.74V54.0371H1298.28V53.4905ZM1310.41 33.2485V32.7018H1309.86V33.2485H1310.41ZM1313.02 33.2485H1313.56V32.7018H1313.02V33.2485ZM1313.02 51.0545V51.6011H1313.56V51.0545H1313.02ZM1310.41 51.0545H1309.86V51.6011H1310.41V51.0545ZM1311.57 33.2485V32.7018H1311.02V33.2485H1311.57ZM1331.69 33.2485H1332.24V32.7018H1331.69V33.2485ZM1331.69 48.9085V49.4551H1332.24V48.9085H1331.69ZM1311.57 48.9085H1311.02V49.4551H1311.57V48.9085ZM1311.57 46.7625V46.2158H1311.02V46.7625H1311.57ZM1329.08 46.7625V47.3091H1329.63V46.7625H1329.08ZM1329.08 35.3945H1329.63V34.8478H1329.08V35.3945ZM1311.57 35.3945H1311.02V35.9411H1311.57V35.3945ZM1299.62 15.3845V14.8378H1299.07V15.3845H1299.62ZM1317.89 15.3845H1318.43V14.8378H1317.89V15.3845ZM1317.89 29.8845V30.4311H1318.43V29.8845H1317.89ZM1299.62 29.8845H1299.07V30.4311H1299.62V29.8845ZM1299.62 27.6805V27.1338H1299.07V27.6805H1299.62ZM1315.28 27.6805V28.2271H1315.82V27.6805H1315.28ZM1315.28 17.5305H1315.82V16.9838H1315.28V17.5305ZM1299.62 17.5305H1299.07V18.0771H1299.62V17.5305ZM1299.79 21.5325V20.9858H1299.25V21.5325H1299.79ZM1316.44 21.5325H1316.98V20.9858H1316.44V21.5325ZM1316.44 23.6205V24.1671H1316.98V23.6205H1316.44ZM1299.79 23.6205H1299.25V24.1671H1299.79V23.6205ZM1311.68 39.9765V39.4298H1311.14V39.9765H1311.68ZM1330.42 39.9765H1330.96V39.4298H1330.42V39.9765ZM1330.42 42.0645V42.6111H1330.96V42.0645H1330.42ZM1311.68 42.0645H1311.14V42.6111H1311.68V42.0645ZM1325.2 21.5325V20.9858H1324.65V21.5325H1325.2ZM1342.54 21.5325H1343.08V20.9858H1342.54V21.5325ZM1342.54 23.6205V24.1671H1343.08V23.6205H1342.54ZM1325.2 23.6205H1324.65V24.1671H1325.2V23.6205ZM1342.19 15.3845H1342.74V14.8378H1342.19V15.3845ZM1342.19 17.5305V18.0771H1342.74V17.5305H1342.19ZM1326.3 17.5305V16.9838H1325.75V17.5305H1326.3ZM1326.3 27.6805H1325.75V28.2271H1326.3V27.6805ZM1342.19 27.6805H1342.74V27.1338H1342.19V27.6805ZM1342.19 29.8845V30.4311H1342.74V29.8845H1342.19ZM1323.69 29.8845H1323.14V30.4311H1323.69V29.8845ZM1323.69 15.3845V14.8378H1323.14V15.3845H1323.69ZM1341.44 15.3845V14.8378H1340.89V15.3845H1341.44ZM1344.1 15.3845H1344.65V14.8378H1344.1V15.3845ZM1343.7 51.8665L1343.22 51.6073L1343.21 51.6146L1343.21 51.622L1343.7 51.8665ZM1342.19 53.0265L1342.03 52.5052V52.5052L1342.19 53.0265ZM1338.94 53.4325L1338.93 52.886L1338.93 52.886L1338.94 53.4325ZM1333.55 53.4905L1333.01 53.5977L1333.1 54.0371H1333.55V53.4905ZM1332.56 50.8225L1332.57 50.2759L1331.67 50.2562L1332.07 51.0669L1332.56 50.8225ZM1337.38 50.8805L1337.39 50.334L1337.38 50.3338H1337.38V50.8805ZM1340.22 50.8805L1340.19 50.3344L1340.18 50.3349L1340.17 50.3357L1340.22 50.8805ZM1301.18 5.46646V4.91978H1300.64V5.46646H1301.18ZM1320.21 5.46646H1320.75V4.91978H1320.21V5.46646ZM1320.21 7.90246V8.44913H1320.75V7.90246H1320.21ZM1301.18 7.90246H1300.64V8.44913H1301.18V7.90246ZM1323.46 5.46646V4.91978H1322.91V5.46646H1323.46ZM1346.6 5.46646H1347.14V4.91978H1346.6V5.46646ZM1346.6 7.90246V8.44913H1347.14V7.90246H1346.6ZM1323.46 7.90246H1322.91V8.44913H1323.46V7.90246ZM1302.81 0.652455L1302.95 0.12348L1302.47 -2.86102e-06L1302.3 0.456779L1302.81 0.652455ZM1305.48 1.34845L1305.98 1.56095L1306.23 0.97893L1305.61 0.819478L1305.48 1.34845ZM1301.59 8.54045L1301.14 8.23719L1301.13 8.24252L1301.59 8.54045ZM1296.83 14.5145L1296.45 14.901L1296.83 15.2876L1297.22 14.901L1296.83 14.5145ZM1296.14 13.9925L1295.78 14.4075L1295.81 14.4343L1295.85 14.456L1296.14 13.9925ZM1295.27 13.3545L1295.56 12.8909H1295.56L1295.27 13.3545ZM1294.46 12.8905L1294.09 12.4819L1293.49 13.0183L1294.21 13.3794L1294.46 12.8905ZM1299.27 7.38045L1299.72 7.69122L1299.72 7.68742L1299.27 7.38045ZM1325.37 0.652455L1325.49 0.11959L1325.04 0.0150986L1324.86 0.449424L1325.37 0.652455ZM1328.15 1.29045L1328.66 1.50016L1328.91 0.902219L1328.28 0.757589L1328.15 1.29045ZM1323.98 8.42446L1324.41 8.75957V8.75957L1323.98 8.42446ZM1318.53 14.0505L1318.2 14.4878L1318.54 14.7413L1318.87 14.4782L1318.53 14.0505ZM1317.83 13.5865L1317.51 14.0313L1317.53 14.0411L1317.54 14.05L1317.83 13.5865ZM1316.96 13.0065L1316.63 13.4438L1316.65 13.4577L1316.67 13.47L1316.96 13.0065ZM1316.09 12.4845L1315.77 12.042L1314.99 12.6075L1315.87 12.9869L1316.09 12.4845ZM1321.48 7.26445L1321.06 6.92391L1321.06 6.92492L1321.48 7.26445ZM1305.01 7.38045L1304.88 6.85083L1304.15 7.03679L1304.55 7.67173L1305.01 7.38045ZM1307.51 6.74245L1307.96 6.44328L1307.75 6.11588L1307.37 6.21283L1307.51 6.74245ZM1309.36 10.1065L1308.87 10.3386L1308.87 10.3509L1309.36 10.1065ZM1310.7 13.2965L1310.85 13.8207L1311.38 13.6646L1311.22 13.1373L1310.7 13.2965ZM1308.14 14.0505L1307.62 14.2096L1307.78 14.7284L1308.3 14.5747L1308.14 14.0505ZM1306.87 10.8605L1306.37 11.0867L1306.37 11.0925L1306.87 10.8605ZM1329.14 7.32245L1328.96 6.80762L1328.18 7.08617L1328.74 7.69387L1329.14 7.32245ZM1331.58 6.45245L1331.97 6.07355L1331.73 5.81873L1331.39 5.93762L1331.58 6.45245ZM1334.36 9.87445L1333.91 10.1871L1333.92 10.196L1334.36 9.87445ZM1336.39 13.2385L1336.6 13.7427L1337.11 13.5278L1336.89 13.0183L1336.39 13.2385ZM1333.9 14.2825L1333.39 14.4787L1333.59 15.0041L1334.11 14.7867L1333.9 14.2825ZM1331.92 10.8605L1331.47 11.1668L1331.48 11.1745L1331.48 11.182L1331.92 10.8605ZM1298.28 15.3845V15.9311H1300.95V15.3845V14.8378H1298.28V15.3845ZM1300.95 15.3845H1300.41V53.4905H1300.95H1301.5V15.3845H1300.95ZM1300.95 53.4905V52.9438H1298.28V53.4905V54.0371H1300.95V53.4905ZM1298.28 53.4905H1298.83V15.3845H1298.28H1297.74V53.4905H1298.28ZM1310.41 33.2485V33.7951H1313.02V33.2485V32.7018H1310.41V33.2485ZM1313.02 33.2485H1312.47V51.0545H1313.02H1313.56V33.2485H1313.02ZM1313.02 51.0545V50.5078H1310.41V51.0545V51.6011H1313.02V51.0545ZM1310.41 51.0545H1310.95V33.2485H1310.41H1309.86V51.0545H1310.41ZM1311.57 33.2485V33.7951H1331.69V33.2485V32.7018H1311.57V33.2485ZM1331.69 33.2485H1331.15V48.9085H1331.69H1332.24V33.2485H1331.69ZM1331.69 48.9085V48.3618H1311.57V48.9085V49.4551H1331.69V48.9085ZM1311.57 48.9085H1312.11V46.7625H1311.57H1311.02V48.9085H1311.57ZM1311.57 46.7625V47.3091H1329.08V46.7625V46.2158H1311.57V46.7625ZM1329.08 46.7625H1329.63V35.3945H1329.08H1328.54V46.7625H1329.08ZM1329.08 35.3945V34.8478H1311.57V35.3945V35.9411H1329.08V35.3945ZM1311.57 35.3945H1312.11V33.2485H1311.57H1311.02V35.3945H1311.57ZM1299.62 15.3845V15.9311H1317.89V15.3845V14.8378H1299.62V15.3845ZM1317.89 15.3845H1317.34V29.8845H1317.89H1318.43V15.3845H1317.89ZM1317.89 29.8845V29.3378H1299.62V29.8845V30.4311H1317.89V29.8845ZM1299.62 29.8845H1300.16V27.6805H1299.62H1299.07V29.8845H1299.62ZM1299.62 27.6805V28.2271H1315.28V27.6805V27.1338H1299.62V27.6805ZM1315.28 27.6805H1315.82V17.5305H1315.28H1314.73V27.6805H1315.28ZM1315.28 17.5305V16.9838H1299.62V17.5305V18.0771H1315.28V17.5305ZM1299.62 17.5305H1300.16V15.3845H1299.62H1299.07V17.5305H1299.62ZM1299.79 21.5325V22.0791H1316.44V21.5325V20.9858H1299.79V21.5325ZM1316.44 21.5325H1315.89V23.6205H1316.44H1316.98V21.5325H1316.44ZM1316.44 23.6205V23.0738H1299.79V23.6205V24.1671H1316.44V23.6205ZM1299.79 23.6205H1300.34V21.5325H1299.79H1299.25V23.6205H1299.79ZM1311.68 39.9765V40.5231H1330.42V39.9765V39.4298H1311.68V39.9765ZM1330.42 39.9765H1329.87V42.0645H1330.42H1330.96V39.9765H1330.42ZM1330.42 42.0645V41.5178H1311.68V42.0645V42.6111H1330.42V42.0645ZM1311.68 42.0645H1312.23V39.9765H1311.68H1311.14V42.0645H1311.68ZM1325.2 21.5325V22.0791H1342.54V21.5325V20.9858H1325.2V21.5325ZM1342.54 21.5325H1341.99V23.6205H1342.54H1343.08V21.5325H1342.54ZM1342.54 23.6205V23.0738H1325.2V23.6205V24.1671H1342.54V23.6205ZM1325.2 23.6205H1325.74V21.5325H1325.2H1324.65V23.6205H1325.2ZM1342.19 15.3845H1341.64V17.5305H1342.19H1342.74V15.3845H1342.19ZM1342.19 17.5305V16.9838H1326.3V17.5305V18.0771H1342.19V17.5305ZM1326.3 17.5305H1325.75V27.6805H1326.3H1326.84V17.5305H1326.3ZM1326.3 27.6805V28.2271H1342.19V27.6805V27.1338H1326.3V27.6805ZM1342.19 27.6805H1341.64V29.8845H1342.19H1342.74V27.6805H1342.19ZM1342.19 29.8845V29.3378H1323.69V29.8845V30.4311H1342.19V29.8845ZM1323.69 29.8845H1324.23V15.3845H1323.69H1323.14V29.8845H1323.69ZM1323.69 15.3845V15.9311H1342.19V15.3845V14.8378H1323.69V15.3845ZM1341.44 15.3845V15.9311H1344.1V15.3845V14.8378H1341.44V15.3845ZM1344.1 15.3845H1343.56V49.6625H1344.1H1344.65V15.3845H1344.1ZM1344.1 49.6625H1343.56C1343.56 50.5936 1343.42 51.2216 1343.22 51.6073L1343.7 51.8665L1344.18 52.1256C1344.51 51.506 1344.65 50.6647 1344.65 49.6625H1344.1ZM1343.7 51.8665L1343.21 51.622C1343.02 51.9971 1342.66 52.3049 1342.03 52.5052L1342.19 53.0265L1342.35 53.5478C1343.19 53.284 1343.83 52.8185 1344.19 52.1109L1343.7 51.8665ZM1342.19 53.0265L1342.03 52.5052C1341.36 52.7139 1340.34 52.8477 1338.93 52.886L1338.94 53.4325L1338.96 53.9789C1340.4 53.9399 1341.55 53.803 1342.35 53.5478L1342.19 53.0265ZM1338.94 53.4325L1338.93 52.886C1337.54 52.9245 1335.75 52.9438 1333.55 52.9438V53.4905V54.0371C1335.75 54.0371 1337.56 54.0178 1338.96 53.9789L1338.94 53.4325ZM1333.55 53.4905L1334.08 53.3832C1334 52.9575 1333.85 52.4821 1333.65 51.9602L1333.14 52.1565L1332.63 52.3527C1332.82 52.8362 1332.94 53.2501 1333.01 53.5977L1333.55 53.4905ZM1333.14 52.1565L1333.65 51.9602C1333.45 51.4449 1333.25 50.9836 1333.05 50.578L1332.56 50.8225L1332.07 51.0669C1332.26 51.4346 1332.44 51.8627 1332.63 52.3527L1333.14 52.1565ZM1332.56 50.8225L1332.55 51.369C1334.33 51.4077 1335.94 51.4271 1337.38 51.4271V50.8805V50.3338C1335.95 50.3338 1334.35 50.3145 1332.57 50.2759L1332.56 50.8225ZM1337.38 50.8805L1337.36 51.4269C1338.79 51.4655 1339.76 51.4668 1340.26 51.4252L1340.22 50.8805L1340.17 50.3357C1339.74 50.3714 1338.83 50.3728 1337.39 50.334L1337.38 50.8805ZM1340.22 50.8805L1340.24 51.4265C1340.73 51.4034 1341.19 51.2662 1341.52 50.9335C1341.86 50.5964 1341.98 50.1423 1341.98 49.6625H1341.44H1340.89C1340.89 49.9559 1340.81 50.0915 1340.75 50.1604C1340.67 50.2337 1340.52 50.3189 1340.19 50.3344L1340.22 50.8805ZM1341.44 49.6625H1341.98V15.3845H1341.44H1340.89V49.6625H1341.44ZM1301.18 5.46646V6.01313H1320.21V5.46646V4.91978H1301.18V5.46646ZM1320.21 5.46646H1319.66V7.90246H1320.21H1320.75V5.46646H1320.21ZM1320.21 7.90246V7.35578H1301.18V7.90246V8.44913H1320.21V7.90246ZM1301.18 7.90246H1301.73V5.46646H1301.18H1300.64V7.90246H1301.18ZM1323.46 5.46646V6.01313H1346.6V5.46646V4.91978H1323.46V5.46646ZM1346.6 5.46646H1346.05V7.90246H1346.6H1347.14V5.46646H1346.6ZM1346.6 7.90246V7.35578H1323.46V7.90246V8.44913H1346.6V7.90246ZM1323.46 7.90246H1324V5.46646H1323.46H1322.91V7.90246H1323.46ZM1302.81 0.652455L1302.67 1.18143L1305.34 1.87743L1305.48 1.34845L1305.61 0.819478L1302.95 0.12348L1302.81 0.652455ZM1305.48 1.34845L1304.97 1.13596C1303.94 3.57772 1302.66 5.94477 1301.14 8.23721L1301.59 8.54045L1302.05 8.8437C1303.61 6.49614 1304.92 4.06852 1305.98 1.56095L1305.48 1.34845ZM1301.59 8.54045L1301.13 8.24252C1299.64 10.536 1298.08 12.4964 1296.45 14.1279L1296.83 14.5145L1297.22 14.901C1298.91 13.2072 1300.52 11.1849 1302.05 8.83839L1301.59 8.54045ZM1296.83 14.5145L1297.22 14.1279C1297.02 13.931 1296.75 13.7317 1296.43 13.5289L1296.14 13.9925L1295.85 14.456C1296.14 14.6399 1296.34 14.7885 1296.45 14.901L1296.83 14.5145ZM1296.14 13.9925L1296.49 13.5774C1296.2 13.3272 1295.89 13.0984 1295.56 12.8909L1295.27 13.3545L1294.98 13.818C1295.27 13.9972 1295.53 14.1937 1295.78 14.4075L1296.14 13.9925ZM1295.27 13.3545L1295.56 12.8909C1295.24 12.6917 1294.95 12.5276 1294.7 12.4015L1294.46 12.8905L1294.21 13.3794C1294.42 13.4853 1294.68 13.6305 1294.98 13.818L1295.27 13.3545ZM1294.46 12.8905L1294.82 13.299C1296.6 11.7204 1298.23 9.84993 1299.72 7.6912L1299.27 7.38045L1298.82 7.06971C1297.37 9.16431 1295.8 10.9672 1294.09 12.4819L1294.46 12.8905ZM1299.27 7.38045L1299.72 7.68742C1301.21 5.48918 1302.41 3.20936 1303.32 0.848131L1302.81 0.652455L1302.3 0.456779C1301.42 2.73555 1300.26 4.94106 1298.82 7.07349L1299.27 7.38045ZM1325.37 0.652455L1325.25 1.18532L1328.03 1.82332L1328.15 1.29045L1328.28 0.757589L1325.49 0.11959L1325.37 0.652455ZM1328.15 1.29045L1327.65 1.08074C1326.62 3.54733 1325.26 5.8834 1323.55 8.08934L1323.98 8.42446L1324.41 8.75957C1326.18 6.48018 1327.6 4.06024 1328.66 1.50016L1328.15 1.29045ZM1323.98 8.42446L1323.55 8.08934C1321.83 10.3033 1320.04 12.146 1318.19 13.6227L1318.53 14.0505L1318.87 14.4782C1320.8 12.9389 1322.65 11.0309 1324.41 8.75957L1323.98 8.42446ZM1318.53 14.0505L1318.85 13.6131C1318.68 13.483 1318.43 13.3186 1318.12 13.1229L1317.83 13.5865L1317.54 14.05C1317.85 14.241 1318.06 14.3859 1318.2 14.4878L1318.53 14.0505ZM1317.83 13.5865L1318.15 13.1416C1317.87 12.9412 1317.57 12.7416 1317.25 12.5429L1316.96 13.0065L1316.67 13.47C1316.97 13.658 1317.25 13.8451 1317.51 14.0313L1317.83 13.5865ZM1316.96 13.0065L1317.29 12.5691C1316.95 12.3186 1316.63 12.1195 1316.31 11.982L1316.09 12.4845L1315.87 12.9869C1316.1 13.0814 1316.35 13.2303 1316.63 13.4438L1316.96 13.0065ZM1316.09 12.4845L1316.41 12.9269C1318.43 11.465 1320.26 9.68953 1321.91 7.60398L1321.48 7.26445L1321.06 6.92492C1319.46 8.93805 1317.7 10.6426 1315.77 12.042L1316.09 12.4845ZM1321.48 7.26445L1321.91 7.60499C1323.61 5.47814 1324.93 3.22824 1325.88 0.855486L1325.37 0.652455L1324.86 0.449424C1323.96 2.71667 1322.69 4.87477 1321.06 6.92391L1321.48 7.26445ZM1305.01 7.38045L1305.15 7.91008L1307.64 7.27208L1307.51 6.74245L1307.37 6.21283L1304.88 6.85083L1305.01 7.38045ZM1307.51 6.74245L1307.05 7.04162C1307.69 8.0228 1308.3 9.12128 1308.87 10.3385L1309.36 10.1065L1309.86 9.87443C1309.27 8.61696 1308.64 7.47278 1307.96 6.44328L1307.51 6.74245ZM1309.36 10.1065L1308.87 10.3509C1309.48 11.5727 1309.91 12.6061 1310.17 13.4556L1310.7 13.2965L1311.22 13.1373C1310.94 12.2082 1310.48 11.1149 1309.85 9.86197L1309.36 10.1065ZM1310.7 13.2965L1310.54 12.7722L1307.99 13.5262L1308.14 14.0505L1308.3 14.5747L1310.85 13.8207L1310.7 13.2965ZM1308.14 14.0505L1308.67 13.8913C1308.39 12.9684 1307.95 11.8795 1307.36 10.6284L1306.87 10.8605L1306.37 11.0925C1306.95 12.3161 1307.36 13.3538 1307.62 14.2096L1308.14 14.0505ZM1306.87 10.8605L1307.37 10.6342C1306.78 9.33875 1306.15 8.15663 1305.47 7.08918L1305.01 7.38045L1304.55 7.67173C1305.19 8.69228 1305.8 9.83016 1306.37 11.0867L1306.87 10.8605ZM1329.14 7.32245L1329.32 7.83728L1331.76 6.96728L1331.58 6.45245L1331.39 5.93762L1328.96 6.80762L1329.14 7.32245ZM1331.58 6.45245L1331.18 6.83136C1332.13 7.81385 1333.04 8.9319 1333.91 10.187L1334.36 9.87445L1334.81 9.56187C1333.9 8.26501 1332.96 7.10172 1331.97 6.07355L1331.58 6.45245ZM1334.36 9.87445L1333.92 10.196C1334.83 11.4543 1335.49 12.5406 1335.89 13.4586L1336.39 13.2385L1336.89 13.0183C1336.44 12.003 1335.74 10.8466 1334.8 9.55291L1334.36 9.87445ZM1336.39 13.2385L1336.18 12.7342L1333.69 13.7782L1333.9 14.2825L1334.11 14.7867L1336.6 13.7427L1336.39 13.2385ZM1333.9 14.2825L1334.41 14.0862C1334 13.0209 1333.31 11.8374 1332.37 10.5389L1331.92 10.8605L1331.48 11.182C1332.39 12.4355 1333.02 13.5333 1333.39 14.4787L1333.9 14.2825ZM1331.92 10.8605L1332.38 10.5541C1331.47 9.21909 1330.53 8.01757 1329.54 6.95103L1329.14 7.32245L1328.74 7.69387C1329.68 8.71534 1330.6 9.87249 1331.47 11.1668L1331.92 10.8605ZM1373.97 37.9465V37.3998H1373.43V37.9465H1373.97ZM1376.76 37.9465H1377.3V37.3998H1376.76V37.9465ZM1376.76 53.4905V54.0371H1377.3V53.4905H1376.76ZM1373.97 53.4905H1373.43V54.0371H1373.97V53.4905ZM1370.78 20.7785L1371.02 20.2873L1370.65 20.1029L1370.37 20.4197L1370.78 20.7785ZM1373.39 22.0545L1373.78 22.441L1374.32 21.8996L1373.63 21.5633L1373.39 22.0545ZM1368.41 26.6945L1368.77 27.107L1368.77 27.1064L1368.41 26.6945ZM1363.36 30.6385L1363.09 31.1163L1363.39 31.2803L1363.67 31.0899L1363.36 30.6385ZM1361.27 29.4785L1360.95 29.0392L1360.27 29.5442L1361.01 29.9563L1361.27 29.4785ZM1364.58 26.8105L1364.94 27.2236V27.2236L1364.58 26.8105ZM1367.94 23.7365L1368.32 24.13L1368.32 24.1297L1367.94 23.7365ZM1382.44 23.7945L1382.7 23.3145L1382.36 23.1289L1382.08 23.3886L1382.44 23.7945ZM1384.99 25.1865L1385.35 25.5984L1385.95 25.0824L1385.26 24.7065L1384.99 25.1865ZM1378.9 30.1745L1379.23 30.61L1379.24 30.6064L1378.9 30.1745ZM1372.06 35.1045L1372.37 35.5569L1372.37 35.5558L1372.06 35.1045ZM1365.56 39.1645L1365.27 39.6234L1365.55 39.8033L1365.83 39.6402L1365.56 39.1645ZM1363.59 37.8885L1363.32 37.4166L1362.55 37.865L1363.3 38.3474L1363.59 37.8885ZM1370.09 33.6545L1370.41 34.0998L1370.41 34.0988L1370.09 33.6545ZM1376.82 28.5505L1377.16 28.9766V28.9766L1376.82 28.5505ZM1355.94 28.5505L1355.57 28.1454L1354.96 28.7004L1355.71 29.0468L1355.94 28.5505ZM1357.79 26.8685L1358.02 26.3694L1357.69 26.2237L1357.43 26.4634L1357.79 26.8685ZM1362.43 29.1885L1362.17 29.668L1362.17 29.6705L1362.43 29.1885ZM1367.07 31.8565L1366.78 32.3208L1366.79 32.3241L1367.07 31.8565ZM1370.73 34.3505L1371.1 34.7482L1371.56 34.3166L1371.07 33.9236L1370.73 34.3505ZM1368.7 36.2645L1368.33 36.6682L1368.7 37.0102L1369.07 36.6622L1368.7 36.2645ZM1365.22 33.7125L1364.92 34.1712L1364.93 34.1767L1365.22 33.7125ZM1360.63 30.9865L1360.36 31.4612L1360.37 31.4659L1360.63 30.9865ZM1384.24 32.3205L1383.89 31.8985L1383.26 32.4233L1383.99 32.8051L1384.24 32.3205ZM1386.21 30.6965L1386.45 30.2053L1386.14 30.0508L1385.86 30.2745L1386.21 30.6965ZM1391.55 33.7125L1391.25 34.1733L1391.26 34.176L1391.55 33.7125ZM1396.77 37.2505L1396.44 37.6904L1396.45 37.6953L1396.77 37.2505ZM1400.77 40.6145L1401.13 41.0295L1401.57 40.6523L1401.16 40.235L1400.77 40.6145ZM1398.74 42.3545L1398.35 42.741L1398.71 43.099L1399.1 42.7695L1398.74 42.3545ZM1394.8 39.0485L1394.47 39.4845L1394.47 39.4883L1394.8 39.0485ZM1389.63 35.5105L1389.33 35.9669L1389.34 35.974L1389.63 35.5105ZM1383.72 43.2245L1383.38 42.7929L1382.66 43.3585L1383.5 43.7258L1383.72 43.2245ZM1385.81 41.6005L1386.02 41.0991L1385.73 40.9698L1385.47 41.1689L1385.81 41.6005ZM1391.26 44.2685L1391 44.7493L1391.01 44.7554L1391.26 44.2685ZM1396.59 47.3425L1396.3 47.8006L1396.3 47.8046L1396.31 47.8084L1396.59 47.3425ZM1400.77 50.3585L1401.12 50.7775L1401.61 50.3716L1401.13 49.9507L1400.77 50.3585ZM1398.62 52.1565L1398.26 52.565L1398.61 52.8785L1398.98 52.5755L1398.62 52.1565ZM1394.56 49.1405L1394.27 49.5986L1394.56 49.1405ZM1389.23 45.9505L1388.96 46.4293V46.4293L1389.23 45.9505ZM1350.37 37.3665V36.8198H1349.74L1349.83 37.4403L1350.37 37.3665ZM1359.47 37.3085L1359.48 37.8551L1359.49 37.855L1359.47 37.3085ZM1370.55 37.1345L1370.56 37.6811L1370.56 37.681L1370.55 37.1345ZM1382.79 36.9025L1382.78 36.3559L1382.78 36.3559L1382.79 36.9025ZM1395.43 36.6705L1395.98 36.7249L1396.04 36.1125L1395.42 36.1239L1395.43 36.6705ZM1395.2 38.9905L1395.21 39.537L1395.7 39.5277L1395.75 39.0449L1395.2 38.9905ZM1383.02 39.2805L1383.03 39.8271L1383.04 39.8269L1383.02 39.2805ZM1371.02 39.5125L1371.01 38.9659L1371.01 38.9659L1371.02 39.5125ZM1360 39.7445L1359.98 39.1979L1359.98 39.1979L1360 39.7445ZM1350.72 39.9185L1350.17 39.9923L1350.24 40.4719L1350.72 40.4651L1350.72 39.9185ZM1364.17 41.6005L1364.36 41.0867L1364.05 40.9746L1363.81 41.1937L1364.17 41.6005ZM1366.72 42.5285L1367.1 42.9265L1367.75 42.3181L1366.91 42.0147L1366.72 42.5285ZM1362.14 46.2405L1362.45 46.6907L1362.46 46.686L1362.14 46.2405ZM1356.81 49.6045L1356.53 49.1304L1356.53 49.1348L1356.81 49.6045ZM1351.53 52.3885L1351.1 52.73L1351.37 53.0622L1351.75 52.8861L1351.53 52.3885ZM1350.89 51.7505L1351.25 51.3354V51.3354L1350.89 51.7505ZM1350.02 51.0545L1349.66 51.4695L1349.68 51.4811L1349.69 51.4918L1350.02 51.0545ZM1349.27 50.4745L1349.06 49.9679L1348.1 50.3563L1348.96 50.9293L1349.27 50.4745ZM1357.27 46.5305L1357.54 47.0034L1357.55 47.0022L1357.27 46.5305ZM1373.92 0.710454V0.163776H1373.37V0.710454H1373.92ZM1376.76 0.710454H1377.3V0.163776H1376.76V0.710454ZM1376.76 21.2425V21.7891H1377.3V21.2425H1376.76ZM1373.92 21.2425H1373.37V21.7891H1373.92V21.2425ZM1353.21 5.69845V5.15177H1352.66V5.69845H1353.21ZM1398.22 5.69845H1398.76V5.15177H1398.22V5.69845ZM1398.22 8.07645V8.62313H1398.76V8.07645H1398.22ZM1353.21 8.07645H1352.66V8.62313H1353.21V8.07645ZM1356.52 12.6585V12.1118H1355.97V12.6585H1356.52ZM1394.56 12.6585H1395.11V12.1118H1394.56V12.6585ZM1394.56 15.0365V15.5831H1395.11V15.0365H1394.56ZM1356.52 15.0365H1355.97V15.5831H1356.52V15.0365ZM1350.19 19.6765V19.1298H1349.65V19.6765H1350.19ZM1400.83 19.6765H1401.37V19.1298H1400.83V19.6765ZM1400.83 22.1125V22.6591H1401.37V22.1125H1400.83ZM1350.19 22.1125H1349.65V22.6591H1350.19V22.1125ZM1373.97 37.9465V38.4931H1376.76V37.9465V37.3998H1373.97V37.9465ZM1376.76 37.9465H1376.21V53.4905H1376.76H1377.3V37.9465H1376.76ZM1376.76 53.4905V52.9438H1373.97V53.4905V54.0371H1376.76V53.4905ZM1373.97 53.4905H1374.52V37.9465H1373.97H1373.43V53.4905H1373.97ZM1370.78 20.7785L1370.54 21.2696L1373.15 22.5456L1373.39 22.0545L1373.63 21.5633L1371.02 20.2873L1370.78 20.7785ZM1373.39 22.0545L1373.01 21.6679C1371.51 23.1661 1369.86 24.7043 1368.05 26.2825L1368.41 26.6945L1368.77 27.1064C1370.59 25.514 1372.26 23.9588 1373.78 22.441L1373.39 22.0545ZM1368.41 26.6945L1368.05 26.2819C1366.28 27.8177 1364.62 29.1187 1363.05 30.187L1363.36 30.6385L1363.67 31.0899C1365.27 29.9929 1366.97 28.6646 1368.77 27.107L1368.41 26.6945ZM1363.36 30.6385L1363.63 30.1606L1361.54 29.0006L1361.27 29.4785L1361.01 29.9563L1363.09 31.1163L1363.36 30.6385ZM1361.27 29.4785L1361.6 29.9177C1362.65 29.1348 1363.77 28.2365 1364.94 27.2236L1364.58 26.8105L1364.22 26.3973C1363.07 27.3951 1361.98 28.2755 1360.95 29.0392L1361.27 29.4785ZM1364.58 26.8105L1364.94 27.2236C1366.1 26.212 1367.23 25.1808 1368.32 24.13L1367.94 23.7365L1367.56 23.3429C1366.49 24.3801 1365.37 25.3982 1364.22 26.3973L1364.58 26.8105ZM1367.94 23.7365L1368.32 24.1297C1369.45 23.0393 1370.41 22.0416 1371.2 21.1372L1370.78 20.7785L1370.37 20.4197C1369.61 21.294 1368.68 22.2683 1367.56 23.3432L1367.94 23.7365ZM1382.44 23.7945L1382.18 24.2744L1384.73 25.6664L1384.99 25.1865L1385.26 24.7065L1382.7 23.3145L1382.44 23.7945ZM1384.99 25.1865L1384.63 24.7745C1382.83 26.3519 1380.8 28.0079 1378.57 29.7425L1378.9 30.1745L1379.24 30.6064C1381.49 28.861 1383.53 27.1917 1385.35 25.5984L1384.99 25.1865ZM1378.9 30.1745L1378.57 29.7389C1376.34 31.4348 1374.06 33.0729 1371.75 34.6531L1372.06 35.1045L1372.37 35.5558C1374.7 33.9654 1376.98 32.3168 1379.23 30.61L1378.9 30.1745ZM1372.06 35.1045L1371.75 34.652C1369.48 36.1917 1367.33 37.537 1365.3 38.6887L1365.56 39.1645L1365.83 39.6402C1367.9 38.4719 1370.08 37.1105 1372.37 35.5569L1372.06 35.1045ZM1365.56 39.1645L1365.86 38.7055L1363.89 37.4295L1363.59 37.8885L1363.3 38.3474L1365.27 39.6234L1365.56 39.1645ZM1363.59 37.8885L1363.87 38.3603C1365.93 37.1521 1368.11 35.7316 1370.41 34.0998L1370.09 33.6545L1369.77 33.2091C1367.5 34.8253 1365.35 36.2274 1363.32 37.4166L1363.59 37.8885ZM1370.09 33.6545L1370.41 34.0988C1372.73 32.4304 1374.99 30.7231 1377.16 28.9766L1376.82 28.5505L1376.47 28.1243C1374.32 29.8579 1372.08 31.5531 1369.77 33.2101L1370.09 33.6545ZM1376.82 28.5505L1377.16 28.9766C1379.33 27.2319 1381.21 25.6397 1382.81 24.2003L1382.44 23.7945L1382.08 23.3886C1380.5 24.8106 1378.63 26.389 1376.47 28.1243L1376.82 28.5505ZM1355.94 28.5505L1356.3 28.9555L1358.16 27.2735L1357.79 26.8685L1357.43 26.4634L1355.57 28.1454L1355.94 28.5505ZM1357.79 26.8685L1357.57 27.3675C1359.02 28.018 1360.56 28.7846 1362.17 29.6679L1362.43 29.1885L1362.69 28.709C1361.06 27.8136 1359.5 27.0336 1358.02 26.3694L1357.79 26.8685ZM1362.43 29.1885L1362.17 29.6705C1363.83 30.5549 1365.36 31.4383 1366.78 32.3207L1367.07 31.8565L1367.36 31.3922C1365.92 30.4959 1364.36 29.6007 1362.69 28.7064L1362.43 29.1885ZM1367.07 31.8565L1366.79 32.3241C1368.25 33.2055 1369.44 34.0233 1370.38 34.7773L1370.73 34.3505L1371.07 33.9236C1370.08 33.1309 1368.84 32.2861 1367.36 31.3888L1367.07 31.8565ZM1370.73 34.3505L1370.35 33.9527L1368.32 35.8667L1368.7 36.2645L1369.07 36.6622L1371.1 34.7482L1370.73 34.3505ZM1368.7 36.2645L1369.06 35.8607C1368.14 35.0192 1366.95 34.1488 1365.5 33.2482L1365.22 33.7125L1364.93 34.1767C1366.34 35.0548 1367.47 35.8857 1368.33 36.6682L1368.7 36.2645ZM1365.22 33.7125L1365.51 33.2538C1364.07 32.3178 1362.53 31.4023 1360.9 30.507L1360.63 30.9865L1360.37 31.4659C1361.98 32.3493 1363.5 33.2511 1364.92 34.1711L1365.22 33.7125ZM1360.63 30.9865L1360.91 30.5118C1359.27 29.5769 1357.69 28.7575 1356.17 28.0541L1355.94 28.5505L1355.71 29.0468C1357.2 29.7354 1358.75 30.54 1360.36 31.4611L1360.63 30.9865ZM1384.24 32.3205L1384.59 32.7425L1386.56 31.1185L1386.21 30.6965L1385.86 30.2745L1383.89 31.8985L1384.24 32.3205ZM1386.21 30.6965L1385.97 31.1876C1387.69 32.0282 1389.45 33.0232 1391.25 34.1733L1391.55 33.7125L1391.84 33.2516C1390.01 32.0818 1388.21 31.066 1386.45 30.2053L1386.21 30.6965ZM1391.55 33.7125L1391.26 34.176C1393.1 35.3292 1394.83 36.5007 1396.44 37.6903L1396.77 37.2505L1397.09 36.8106C1395.46 35.6029 1393.7 34.4157 1391.84 33.2489L1391.55 33.7125ZM1396.77 37.2505L1396.45 37.6953C1398.06 38.8418 1399.36 39.9416 1400.38 40.9939L1400.77 40.6145L1401.16 40.235C1400.09 39.1219 1398.73 37.9792 1397.09 36.8056L1396.77 37.2505ZM1400.77 40.6145L1400.41 40.1994L1398.38 41.9394L1398.74 42.3545L1399.1 42.7695L1401.13 41.0295L1400.77 40.6145ZM1398.74 42.3545L1399.13 41.9679C1398.1 40.9371 1396.76 39.8173 1395.12 38.6086L1394.8 39.0485L1394.47 39.4883C1396.08 40.6769 1397.37 41.7611 1398.35 42.741L1398.74 42.3545ZM1394.8 39.0485L1395.13 38.6124C1393.53 37.403 1391.79 36.2146 1389.92 35.0469L1389.63 35.5105L1389.34 35.974C1391.19 37.1263 1392.9 38.2965 1394.47 39.4845L1394.8 39.0485ZM1389.63 35.5105L1389.94 35.0541C1388.1 33.846 1386.29 32.7731 1384.49 31.8358L1384.24 32.3205L1383.99 32.8051C1385.75 33.7238 1387.53 34.7775 1389.33 35.9668L1389.63 35.5105ZM1383.72 43.2245L1384.05 43.656L1386.14 42.032L1385.81 41.6005L1385.47 41.1689L1383.38 42.7929L1383.72 43.2245ZM1385.81 41.6005L1385.59 42.1018C1387.35 42.8683 1389.15 43.7507 1391 44.7491L1391.26 44.2685L1391.52 43.7878C1389.65 42.7756 1387.82 41.8792 1386.02 41.0991L1385.81 41.6005ZM1391.26 44.2685L1391.01 44.7554C1392.89 45.714 1394.65 46.7291 1396.3 47.8006L1396.59 47.3425L1396.89 46.8843C1395.21 45.7905 1393.42 44.7563 1391.51 43.7815L1391.26 44.2685ZM1396.59 47.3425L1396.31 47.8084C1397.99 48.8412 1399.35 49.8276 1400.41 50.7662L1400.77 50.3585L1401.13 49.9507C1400.02 48.956 1398.6 47.9317 1396.88 46.8765L1396.59 47.3425ZM1400.77 50.3585L1400.42 49.9394L1398.27 51.7374L1398.62 52.1565L1398.98 52.5755L1401.12 50.7775L1400.77 50.3585ZM1398.62 52.1565L1398.99 51.7479C1397.92 50.796 1396.54 49.7742 1394.86 48.6823L1394.56 49.1405L1394.27 49.5986C1395.91 50.672 1397.24 51.6609 1398.26 52.565L1398.62 52.1565ZM1394.56 49.1405L1394.86 48.6823C1393.19 47.5917 1391.4 46.5216 1389.49 45.4717L1389.23 45.9505L1388.96 46.4293C1390.85 47.4674 1392.62 48.5238 1394.27 49.5986L1394.56 49.1405ZM1389.23 45.9505L1389.49 45.4717C1387.58 44.4204 1385.73 43.504 1383.94 42.7231L1383.72 43.2245L1383.5 43.7258C1385.26 44.4916 1387.08 45.3926 1388.96 46.4293L1389.23 45.9505ZM1350.37 37.3665V37.9131C1353 37.9131 1356.04 37.8938 1359.48 37.8551L1359.47 37.3085L1359.47 36.7618C1356.03 36.8005 1353 36.8198 1350.37 36.8198V37.3665ZM1359.47 37.3085L1359.49 37.855C1362.93 37.7777 1366.62 37.7198 1370.56 37.6811L1370.55 37.1345L1370.55 36.5878C1366.6 36.6265 1362.91 36.6845 1359.46 36.7619L1359.47 37.3085ZM1370.55 37.1345L1370.56 37.681C1374.51 37.6037 1378.59 37.5264 1382.8 37.449L1382.79 36.9025L1382.78 36.3559C1378.57 36.4332 1374.49 36.5105 1370.54 36.5879L1370.55 37.1345ZM1382.79 36.9025L1382.8 37.449C1387.05 37.3717 1391.27 37.2944 1395.44 37.217L1395.43 36.6705L1395.42 36.1239C1391.25 36.2012 1387.03 36.2785 1382.78 36.3559L1382.79 36.9025ZM1395.43 36.6705L1394.89 36.6161L1394.66 38.9361L1395.2 38.9905L1395.75 39.0449L1395.98 36.7249L1395.43 36.6705ZM1395.2 38.9905L1395.19 38.4439C1391.17 38.5212 1387.11 38.618 1383.01 38.734L1383.02 39.2805L1383.04 39.8269C1387.13 39.711 1391.19 39.6143 1395.21 39.537L1395.2 38.9905ZM1383.02 39.2805L1383.01 38.7339C1378.91 38.8112 1374.91 38.8885 1371.01 38.9659L1371.02 39.5125L1371.03 40.059C1374.93 39.9817 1378.93 39.9044 1383.03 39.827L1383.02 39.2805ZM1371.02 39.5125L1371.01 38.9659C1367.14 39.0432 1363.46 39.1206 1359.98 39.1979L1360 39.7445L1360.01 40.291C1363.49 40.2137 1367.16 40.1364 1371.03 40.059L1371.02 39.5125ZM1360 39.7445L1359.98 39.1979C1356.54 39.2752 1353.45 39.3332 1350.71 39.3718L1350.72 39.9185L1350.72 40.4651C1353.47 40.4264 1356.57 40.3684 1360.01 40.291L1360 39.7445ZM1350.72 39.9185L1351.26 39.8446L1350.91 37.2926L1350.37 37.3665L1349.83 37.4403L1350.17 39.9923L1350.72 39.9185ZM1364.17 41.6005L1363.99 42.1142L1366.54 43.0422L1366.72 42.5285L1366.91 42.0147L1364.36 41.0867L1364.17 41.6005ZM1366.72 42.5285L1366.35 42.1304C1365.06 43.3478 1363.55 44.5695 1361.83 45.7949L1362.14 46.2405L1362.46 46.686C1364.22 45.4367 1365.76 44.1837 1367.1 42.9265L1366.72 42.5285ZM1362.14 46.2405L1361.83 45.7903C1360.1 46.9805 1358.34 48.0939 1356.53 49.1304L1356.81 49.6045L1357.08 50.0785C1358.91 49.027 1360.7 47.8977 1362.45 46.6907L1362.14 46.2405ZM1356.81 49.6045L1356.53 49.1348C1354.72 50.2085 1352.98 51.1268 1351.3 51.8908L1351.53 52.3885L1351.75 52.8861C1353.48 52.1035 1355.25 51.1658 1357.09 50.0741L1356.81 49.6045ZM1351.53 52.3885L1351.96 52.0469C1351.77 51.8181 1351.53 51.5808 1351.25 51.3354L1350.89 51.7505L1350.53 52.1655C1350.79 52.3841 1350.98 52.5721 1351.1 52.73L1351.53 52.3885ZM1350.89 51.7505L1351.25 51.3354C1350.97 51.095 1350.67 50.8556 1350.35 50.6171L1350.02 51.0545L1349.69 51.4918C1349.99 51.7173 1350.27 51.9419 1350.53 52.1655L1350.89 51.7505ZM1350.02 51.0545L1350.38 50.6394C1350.09 50.3968 1349.82 50.1893 1349.57 50.0196L1349.27 50.4745L1348.96 50.9293C1349.17 51.069 1349.41 51.2481 1349.66 51.4695L1350.02 51.0545ZM1349.27 50.4745L1349.47 50.981C1352.17 49.8881 1354.86 48.562 1357.54 47.0034L1357.27 46.5305L1357 46.0575C1354.35 47.5923 1351.7 48.8955 1349.06 49.9679L1349.27 50.4745ZM1357.27 46.5305L1357.55 47.0022C1360.28 45.4023 1362.61 43.738 1364.54 42.0072L1364.17 41.6005L1363.81 41.1937C1361.95 42.8656 1359.68 44.4879 1356.99 46.0587L1357.27 46.5305ZM1373.92 0.710454V1.25713H1376.76V0.710454V0.163776H1373.92V0.710454ZM1376.76 0.710454H1376.21V21.2425H1376.76H1377.3V0.710454H1376.76ZM1376.76 21.2425V20.6958H1373.92V21.2425V21.7891H1376.76V21.2425ZM1373.92 21.2425H1374.46V0.710454H1373.92H1373.37V21.2425H1373.92ZM1353.21 5.69845V6.24513H1398.22V5.69845V5.15177H1353.21V5.69845ZM1398.22 5.69845H1397.67V8.07645H1398.22H1398.76V5.69845H1398.22ZM1398.22 8.07645V7.52977H1353.21V8.07645V8.62313H1398.22V8.07645ZM1353.21 8.07645H1353.76V5.69845H1353.21H1352.66V8.07645H1353.21ZM1356.52 12.6585V13.2051H1394.56V12.6585V12.1118H1356.52V12.6585ZM1394.56 12.6585H1394.02V15.0365H1394.56H1395.11V12.6585H1394.56ZM1394.56 15.0365V14.4898H1356.52V15.0365V15.5831H1394.56V15.0365ZM1356.52 15.0365H1357.06V12.6585H1356.52H1355.97V15.0365H1356.52ZM1350.19 19.6765V20.2231H1400.83V19.6765V19.1298H1350.19V19.6765ZM1400.83 19.6765H1400.28V22.1125H1400.83H1401.37V19.6765H1400.83ZM1400.83 22.1125V21.5658H1350.19V22.1125V22.6591H1400.83V22.1125ZM1350.19 22.1125H1350.74V19.6765H1350.19H1349.65V22.1125H1350.19Z" fill="#2F2F2F" mask="url(#path-12-outside-1_1147_205)"/>
</svg>
