<svg width="154" height="197" viewBox="0 0 154 197" fill="none" xmlns="http://www.w3.org/2000/svg">
<path d="M78.6137 35.554C87.7434 35.3864 95.0137 27.5522 94.7698 18.1176C94.5412 9.32324 87.2557 2.1292 77.7754 1.96155C66.9843 1.7634 60.7353 10.5426 60.8572 18.3463C61.0249 27.9028 69.1334 35.7369 78.5985 35.554H78.6137Z" stroke="#191919" stroke-width="2.39814" stroke-linejoin="round"/>
<path d="M78.3101 36.3359C73.6461 36.3359 69.2108 34.5069 65.751 31.1843C62.1997 27.7549 60.203 23.1977 60.1116 18.3661C60.0354 13.946 61.9253 9.37352 65.1566 6.1423C67.4733 3.82557 71.4971 1.06684 77.7919 1.20402C87.5008 1.37167 95.2892 8.79434 95.5331 18.107C95.655 22.969 93.9022 27.572 90.5948 31.0318C87.4093 34.3545 83.1721 36.2445 78.6454 36.3207C78.5387 36.3207 78.432 36.3207 78.3253 36.3207L78.3101 36.3359ZM77.4413 2.72818C71.9086 2.72818 68.3116 5.15159 66.2387 7.20921C63.2818 10.1508 61.5748 14.3118 61.6358 18.3356C61.712 22.7557 63.541 26.9319 66.8027 30.0716C70.0339 33.1962 74.2101 34.888 78.5997 34.7965H78.6149C82.7149 34.7203 86.5863 33.0133 89.4822 29.9802C92.5153 26.8099 94.1156 22.6032 94.0089 18.1374C93.7956 9.64787 86.6625 2.88059 77.7614 2.72818C77.6547 2.72818 77.5328 2.72818 77.4261 2.72818H77.4413Z" stroke="#191919" stroke-width="2.39814" stroke-linejoin="round"/>
<path d="M146.127 107.856L106.407 45.5789C105.172 44.0395 103.572 42.7439 101.667 42.4086C89.9461 40.3815 65.7577 40.7777 53.9454 42.3324C51.9183 42.5915 50.1655 43.9328 48.8547 45.5789L3.89199 110.219C0.691256 114.212 1.60575 119.836 5.91913 122.793C7.65667 123.982 9.6838 124.561 11.6957 124.561C14.6678 124.561 17.6094 123.296 19.5146 120.918L51.964 72.4041C52.528 71.5506 53.9454 71.9316 53.9454 72.9223L53.8845 183.485C53.8845 189.14 58.6094 194.078 64.7213 194.246C71.0618 194.428 76.2439 189.734 76.2439 183.912V122.305C76.2439 121.391 77.0517 120.644 78.0424 120.644C78.9874 120.644 79.7647 121.314 79.8409 122.183L93.2078 184.674C93.6498 190.1 99.7312 195.251 106.011 194.246C112.641 193.179 115.964 188.835 115.506 183.15L101.652 114.593V73.7606C101.652 72.7394 103.13 72.3888 103.664 73.2881L130.474 118.556C132.379 120.933 135.32 122.198 138.292 122.198C140.304 122.198 142.332 121.619 144.069 120.43C148.382 117.474 149.297 111.849 146.096 107.856H146.127Z" stroke="#191919" stroke-width="2.39814" stroke-linejoin="round"/>
<path d="M104.441 195.157C101.819 195.157 99.1517 194.212 96.9265 192.474C94.3201 190.432 92.6893 187.612 92.4607 184.762L79.109 122.363C79.0633 121.799 78.6061 121.433 78.0574 121.433C77.4782 121.433 77.0209 121.845 77.0209 122.332V183.939C77.0209 186.804 75.8473 189.533 73.7135 191.606C71.3815 193.877 68.0589 195.111 64.7057 195.035C58.3195 194.852 53.1221 189.685 53.1221 183.512L53.183 72.9496C53.183 72.8276 53.0764 72.7667 52.9849 72.7362C52.9392 72.7362 52.7106 72.66 52.5886 72.8581L20.1392 121.372C18.0969 123.918 15.0333 125.35 11.6801 125.35C9.42439 125.35 7.29056 124.695 5.47681 123.46C3.17532 121.89 1.69689 119.574 1.30061 116.937C0.919567 114.392 1.62068 111.846 3.26678 109.773L48.199 45.1641C49.3726 43.7009 51.2626 41.9329 53.8232 41.5976C66.0622 39.9972 90.1744 39.6771 101.773 41.689C103.633 42.0091 105.431 43.198 106.971 45.1336L146.706 107.441C148.336 109.499 149.038 112.029 148.656 114.574C148.26 117.196 146.782 119.513 144.48 121.083C142.667 122.317 140.517 122.973 138.277 122.973C134.924 122.973 131.86 121.54 129.848 119.04L102.993 73.6964C102.871 73.4983 102.642 73.5592 102.596 73.5745C102.505 73.605 102.398 73.6659 102.398 73.7879V114.62L116.238 183.025C116.756 189.38 112.869 193.937 106.117 195.035C105.553 195.126 104.989 195.172 104.41 195.172L104.441 195.157ZM78.0574 119.909C79.3834 119.909 80.5113 120.9 80.6179 122.15L93.9696 184.549C94.183 187.033 95.6309 189.517 97.8714 191.285C100.249 193.16 103.176 193.968 105.919 193.526C111.909 192.566 115.216 188.725 114.774 183.238L100.935 114.773V73.7879C100.935 72.9953 101.453 72.3247 102.246 72.096C103.084 71.8674 103.922 72.2027 104.349 72.9191L131.159 118.187C132.775 120.199 135.488 121.448 138.323 121.448C140.258 121.448 142.103 120.884 143.672 119.818C145.623 118.492 146.873 116.541 147.193 114.331C147.513 112.197 146.919 110.078 145.532 108.341L145.486 108.28L105.767 46.0024C104.898 44.9355 103.419 43.5028 101.545 43.1827C90.0677 41.1861 66.1841 41.5061 54.0671 43.1065C52.0094 43.3808 50.4243 44.8745 49.4641 46.0786L4.53183 110.688C3.11436 112.456 2.51994 114.59 2.84001 116.708C3.17533 118.918 4.42514 120.854 6.36082 122.195C7.91547 123.262 9.77494 123.826 11.7106 123.826C14.5608 123.826 17.2586 122.576 18.9351 120.473L51.3388 72.0198C51.7961 71.334 52.6343 71.0444 53.4422 71.2882C54.2195 71.5169 54.7224 72.1723 54.7224 72.9648L54.6615 183.527C54.6615 188.893 59.1882 193.374 64.7667 193.526C67.7235 193.602 70.6194 192.52 72.6618 190.523C74.4908 188.74 75.512 186.408 75.512 183.954V122.348C75.512 121.006 76.6551 119.924 78.0726 119.924L78.0574 119.909Z" stroke="#191919" stroke-width="2.39814" stroke-linejoin="round"/>
<path d="M80.4883 179.301V185.205H75.6914V179.301H80.4883ZM80.4883 167.463V173.375H75.6914V167.463H80.4883ZM80.4883 155.652V161.559H75.6914V155.652H80.4883ZM80.4883 143.801V149.734H75.6914V143.801H80.4883ZM80.4883 132.003V137.896H75.6914V132.003H80.4883ZM80.4883 120.16V126.088H75.6914V120.16H80.4883ZM80.4883 108.358V114.268H75.6914V108.358H80.4883ZM80.4883 96.5364V102.442H75.6914V96.5364H80.4883ZM80.4883 84.717V90.6243H75.6914V84.717H80.4883ZM80.4883 72.8909V78.8069H75.6914V72.8909H80.4883ZM80.4883 61.0842V66.9885H75.6914V61.0842H80.4883ZM80.4883 49.2483V55.1584H75.6914V49.2483H80.4883ZM80.4883 37.4465V43.3635H75.6914V37.4465H80.4883ZM80.4883 25.5969V31.5159H75.6914V25.5969H80.4883ZM80.4883 13.7708V19.6838H75.6914V13.7708H80.4883ZM80.4883 1.98657V7.85669H75.6914V1.98657H80.4883Z" fill="#191919"/>
<path d="M147.118 43.4712L153.089 43.4712L153.089 38.6743L147.118 38.6743L147.118 43.4712ZM135.196 43.4712L141.167 43.4712L141.167 38.6743L135.196 38.6743L135.196 43.4712ZM123.261 43.4712L129.227 43.4712L129.227 38.6743L123.261 38.6743L123.261 43.4712ZM111.329 43.4712L117.296 43.4712L117.296 38.6743L111.329 38.6743L111.329 43.4712ZM99.3887 43.4712L105.36 43.4712L105.36 38.6743L99.3887 38.6743L99.3887 43.4712ZM87.46 43.4712L93.4189 43.4712L93.4189 38.6743L87.46 38.6743L87.46 43.4712ZM75.5303 43.4712L81.4971 43.4712L81.4971 38.6743L75.5303 38.6743L75.5303 43.4712ZM63.6025 43.4712L69.5645 43.4712L69.5645 38.6743L63.6025 38.6743L63.6025 43.4712ZM51.6758 43.4712L57.6475 43.4712L57.6475 38.6743L51.6758 38.6743L51.6758 43.4712ZM39.7324 43.4712L45.7031 43.4712L45.7031 38.6743L39.7324 38.6743L39.7324 43.4712ZM27.7959 43.4712L33.7637 43.4712L33.7637 38.6743L27.7959 38.6743L27.7959 43.4712ZM15.8682 43.4712L21.8291 43.4712L21.8291 38.6743L15.8682 38.6743L15.8682 43.4712ZM3.92188 43.4712L9.93945 43.4712L9.93945 38.6743L3.92188 38.6743L3.92188 43.4712Z" fill="#191919"/>
</svg>
